<svg width="278" height="311" viewBox="0 0 278 311" fill="none" xmlns="http://www.w3.org/2000/svg">
<rect width="277.201" height="310.314" rx="20" fill="url(#paint0_linear_112_2117)"/>
<path d="M14 36V15H32V18H35V24H32V27H35V33H32V36H14ZM20 24H29V18H20V24ZM20 33H29V27H20V33ZM38 36V15H56V18H59V27H53V30H56V33H59V36H50V33H47V30H44V36H38ZM44 27H50V24H53V18H44V27ZM65 36V33H62V18H65V15H80V18H83V33H80V36H65ZM68 33H77V18H68V33ZM14 60V39H20V48H23V45H26V42H29V39H35V42H32V45H29V48H26V51H29V54H32V57H35V60H26V57H23V54H20V60H14ZM38 60V39H59V42H44V48H56V51H44V57H59V60H38ZM62 60V39H80V42H83V51H77V54H80V57H83V60H74V57H71V54H68V60H62ZM68 51H74V48H77V42H68V51ZM86 60V39H104V42H107V48H104V51H107V57H104V60H86ZM92 48H101V42H92V48ZM92 57H101V51H92V57ZM113 60V57H110V39H116V57H125V39H131V57H128V60H113ZM134 60V54H137V51H140V48H143V45H146V42H134V39H155V45H152V48H149V51H146V54H143V57H155V60H134Z" fill="white"/>
<mask id="mask0_112_2117" style="mask-type:luminance" maskUnits="userSpaceOnUse" x="25" y="274" width="20" height="20">
<path d="M44.4665 274.363H25.5449V293.285H44.4665V274.363Z" fill="white"/>
</mask>
<g mask="url(#mask0_112_2117)">
<path d="M35.2451 274.505C35.4776 274.505 35.7054 274.571 35.9027 274.693C36.1 274.816 36.259 274.992 36.3615 275.201L40.2499 282.968L44.3417 291.156C44.4247 291.321 44.4701 291.502 44.4746 291.687C44.4792 291.871 44.4429 292.054 44.3683 292.223C44.2936 292.392 44.1826 292.542 44.043 292.662C43.9034 292.783 43.7389 292.871 43.5612 292.921L43.4808 292.94C43.4248 292.952 43.3678 292.96 43.3104 292.963H43.2254L35.2404 291.388L30.2451 282.968L34.124 275.201C34.2277 274.991 34.3882 274.815 34.5873 274.692C34.7863 274.569 35.0159 274.504 35.2499 274.505H35.2451Z" fill="url(#paint1_linear_112_2117)"/>
<path d="M35.2462 274.505C35.4787 274.505 35.7065 274.571 35.9038 274.693C36.1012 274.816 36.2601 274.992 36.3626 275.201L40.251 282.968L35.2415 291.383L27.2708 292.968C27.057 292.969 26.8465 292.915 26.6594 292.812C26.4723 292.708 26.315 292.558 26.2025 292.376C26.09 292.195 26.026 291.987 26.0168 291.773C26.0075 291.56 26.0533 291.347 26.1497 291.156L30.2462 282.973L34.1251 275.201C34.2288 274.991 34.3893 274.815 34.5884 274.692C34.7874 274.569 35.017 274.504 35.251 274.505H35.2462Z" fill="url(#paint2_linear_112_2117)"/>
<path d="M35.2451 274.505C35.4776 274.505 35.7054 274.571 35.9027 274.693C36.1 274.816 36.259 274.992 36.3615 275.201L40.2499 282.968C40.2499 282.968 37.0057 291.465 35.3682 291.465C33.7308 291.465 30.2451 282.968 30.2451 282.968L34.124 275.201C34.221 275.004 34.3683 274.835 34.551 274.713C34.7337 274.591 34.9454 274.519 35.1647 274.505H35.2451Z" fill="url(#paint3_linear_112_2117)"/>
</g>
<path d="M52.97 288.67H50.19L49.73 290H48.26L50.77 283.01H52.4L54.91 290H53.43L52.97 288.67ZM52.59 287.55L51.58 284.63L50.57 287.55H52.59ZM55.4882 287.21C55.4882 286.65 55.5982 286.153 55.8182 285.72C56.0449 285.287 56.3515 284.953 56.7382 284.72C57.1249 284.487 57.5549 284.37 58.0282 284.37C58.3882 284.37 58.7315 284.45 59.0582 284.61C59.3849 284.763 59.6449 284.97 59.8382 285.23V282.6H61.2582V290H59.8382V289.18C59.6649 289.453 59.4215 289.673 59.1082 289.84C58.7949 290.007 58.4315 290.09 58.0182 290.09C57.5515 290.09 57.1249 289.97 56.7382 289.73C56.3515 289.49 56.0449 289.153 55.8182 288.72C55.5982 288.28 55.4882 287.777 55.4882 287.21ZM59.8482 287.23C59.8482 286.89 59.7815 286.6 59.6482 286.36C59.5149 286.113 59.3349 285.927 59.1082 285.8C58.8815 285.667 58.6382 285.6 58.3782 285.6C58.1182 285.6 57.8782 285.663 57.6582 285.79C57.4382 285.917 57.2582 286.103 57.1182 286.35C56.9849 286.59 56.9182 286.877 56.9182 287.21C56.9182 287.543 56.9849 287.837 57.1182 288.09C57.2582 288.337 57.4382 288.527 57.6582 288.66C57.8849 288.793 58.1249 288.86 58.3782 288.86C58.6382 288.86 58.8815 288.797 59.1082 288.67C59.3349 288.537 59.5149 288.35 59.6482 288.11C59.7815 287.863 59.8482 287.57 59.8482 287.23ZM62.2655 287.21C62.2655 286.65 62.3755 286.153 62.5955 285.72C62.8222 285.287 63.1255 284.953 63.5055 284.72C63.8922 284.487 64.3222 284.37 64.7955 284.37C65.2089 284.37 65.5689 284.453 65.8755 284.62C66.1889 284.787 66.4389 284.997 66.6255 285.25V284.46H68.0355V290H66.6255V289.19C66.4455 289.45 66.1955 289.667 65.8755 289.84C65.5622 290.007 65.1989 290.09 64.7855 290.09C64.3189 290.09 63.8922 289.97 63.5055 289.73C63.1255 289.49 62.8222 289.153 62.5955 288.72C62.3755 288.28 62.2655 287.777 62.2655 287.21ZM66.6255 287.23C66.6255 286.89 66.5589 286.6 66.4255 286.36C66.2922 286.113 66.1122 285.927 65.8855 285.8C65.6589 285.667 65.4155 285.6 65.1555 285.6C64.8955 285.6 64.6555 285.663 64.4355 285.79C64.2155 285.917 64.0355 286.103 63.8955 286.35C63.7622 286.59 63.6955 286.877 63.6955 287.21C63.6955 287.543 63.7622 287.837 63.8955 288.09C64.0355 288.337 64.2155 288.527 64.4355 288.66C64.6622 288.793 64.9022 288.86 65.1555 288.86C65.4155 288.86 65.6589 288.797 65.8855 288.67C66.1122 288.537 66.2922 288.35 66.4255 288.11C66.5589 287.863 66.6255 287.57 66.6255 287.23ZM70.8029 285.26C70.9829 285.007 71.2296 284.797 71.5429 284.63C71.8629 284.457 72.2262 284.37 72.6329 284.37C73.1062 284.37 73.5329 284.487 73.9129 284.72C74.2996 284.953 74.6029 285.287 74.8229 285.72C75.0496 286.147 75.1629 286.643 75.1629 287.21C75.1629 287.777 75.0496 288.28 74.8229 288.72C74.6029 289.153 74.2996 289.49 73.9129 289.73C73.5329 289.97 73.1062 290.09 72.6329 290.09C72.2262 290.09 71.8662 290.007 71.5529 289.84C71.2462 289.673 70.9962 289.463 70.8029 289.21V292.64H69.4029V284.46H70.8029V285.26ZM73.7329 287.21C73.7329 286.877 73.6629 286.59 73.5229 286.35C73.3896 286.103 73.2096 285.917 72.9829 285.79C72.7629 285.663 72.5229 285.6 72.2629 285.6C72.0096 285.6 71.7696 285.667 71.5429 285.8C71.3229 285.927 71.1429 286.113 71.0029 286.36C70.8696 286.607 70.8029 286.897 70.8029 287.23C70.8029 287.563 70.8696 287.853 71.0029 288.1C71.1429 288.347 71.3229 288.537 71.5429 288.67C71.7696 288.797 72.0096 288.86 72.2629 288.86C72.5229 288.86 72.7629 288.793 72.9829 288.66C73.2096 288.527 73.3896 288.337 73.5229 288.09C73.6629 287.843 73.7329 287.55 73.7329 287.21ZM77.8102 285.61V288.29C77.8102 288.477 77.8536 288.613 77.9402 288.7C78.0336 288.78 78.1869 288.82 78.4002 288.82H79.0502V290H78.1702C76.9902 290 76.4002 289.427 76.4002 288.28V285.61H75.7402V284.46H76.4002V283.09H77.8102V284.46H79.0502V285.61H77.8102ZM80.7672 283.8C80.5205 283.8 80.3139 283.723 80.1472 283.57C79.9872 283.41 79.9072 283.213 79.9072 282.98C79.9072 282.747 79.9872 282.553 80.1472 282.4C80.3139 282.24 80.5205 282.16 80.7672 282.16C81.0139 282.16 81.2172 282.24 81.3772 282.4C81.5439 282.553 81.6272 282.747 81.6272 282.98C81.6272 283.213 81.5439 283.41 81.3772 283.57C81.2172 283.723 81.0139 283.8 80.7672 283.8ZM81.4572 284.46V290H80.0572V284.46H81.4572ZM85.1504 288.71L86.5504 284.46H88.0404L85.9904 290H84.2904L82.2504 284.46H83.7504L85.1504 288.71ZM89.5367 283.8C89.2901 283.8 89.0834 283.723 88.9167 283.57C88.7567 283.41 88.6767 283.213 88.6767 282.98C88.6767 282.747 88.7567 282.553 88.9167 282.4C89.0834 282.24 89.2901 282.16 89.5367 282.16C89.7834 282.16 89.9867 282.24 90.1467 282.4C90.3134 282.553 90.3967 282.747 90.3967 282.98C90.3967 283.213 90.3134 283.41 90.1467 283.57C89.9867 283.723 89.7834 283.8 89.5367 283.8ZM90.2267 284.46V290H88.8267V284.46H90.2267ZM94.6799 284.38C95.3399 284.38 95.8733 284.59 96.2799 285.01C96.6866 285.423 96.8899 286.003 96.8899 286.75V290H95.4899V286.94C95.4899 286.5 95.3799 286.163 95.1599 285.93C94.9399 285.69 94.6399 285.57 94.2599 285.57C93.8733 285.57 93.5666 285.69 93.3399 285.93C93.1199 286.163 93.0099 286.5 93.0099 286.94V290H91.6099V284.46H93.0099V285.15C93.1966 284.91 93.4333 284.723 93.7199 284.59C94.0133 284.45 94.3333 284.38 94.6799 284.38Z" fill="white"/>
<path d="M207 168.437V176.127H222.33V153.158H214.69V168.437H207Z" fill="white"/>
<path d="M222.331 91.8906H214.692V130.189H222.331V91.8906Z" fill="white"/>
<path d="M214.69 145.469H207V153.158H214.69V145.469Z" fill="white"/>
<path d="M206.998 191.457H199.359V222.065H206.998V191.457Z" fill="white"/>
<path d="M199.359 137.829H168.751V145.469H184.03V183.767H191.72V168.438H206.999V160.798H191.72V145.469H206.999V137.829H214.689V130.189H199.359V137.829Z" fill="white"/>
<path d="M207 91.8905H214.69V84.2007H191.721V91.8905H199.361V107.17H207V91.8905Z" fill="white"/>
<path d="M199.361 183.767H191.721V191.457H199.361V183.767Z" fill="white"/>
<path d="M199.36 222.065H184.03V229.755H199.36V222.065Z" fill="white"/>
<path d="M199.36 107.17H184.03V114.86H199.36V107.17Z" fill="white"/>
<path d="M184.03 229.755H168.751V237.395H184.03V229.755Z" fill="white"/>
<path d="M184.03 99.5303H168.751V107.17H184.03V99.5303Z" fill="white"/>
<path d="M153.422 160.798V168.437H161.062V176.127H168.752V168.437H176.391V160.798H153.422Z" fill="white"/>
<path d="M168.752 91.8906H153.422V99.5302H168.752V91.8906Z" fill="white"/>
<path d="M168.751 237.395H115.123V245.034H168.751V237.395Z" fill="white"/>
<path d="M115.123 191.457V214.426H122.762V199.096H130.452V214.426H122.762V222.065H161.061V214.426H153.421V199.096H161.061V214.426H168.751V191.457H115.123Z" fill="white"/>
<path d="M168.752 130.189H153.422V137.829H168.752V130.189Z" fill="white"/>
<path d="M153.421 122.499H145.731V130.189H153.421V122.499Z" fill="white"/>
<path d="M153.421 99.5303H145.731V107.17H153.421V99.5303Z" fill="white"/>
<path d="M145.733 107.17H138.094V122.499H145.733V107.17Z" fill="white"/>
<path d="M138.091 122.499H130.451V130.189H138.091V122.499Z" fill="white"/>
<path d="M138.091 99.5303H130.451V107.17H138.091V99.5303Z" fill="white"/>
<path d="M130.452 91.8906H115.123V99.5302H130.452V91.8906Z" fill="white"/>
<path d="M115.125 176.127H122.765V168.437H130.455V160.798H107.486V168.437H115.125V176.127Z" fill="white"/>
<path d="M130.452 130.189H115.123V137.829H130.452V130.189Z" fill="white"/>
<path d="M115.123 229.755H99.7939V237.395H115.123V229.755Z" fill="white"/>
<path d="M115.123 99.5303H99.7939V107.17H115.123V99.5303Z" fill="white"/>
<path d="M99.796 222.065H84.4666V229.755H99.796V222.065Z" fill="white"/>
<path d="M99.7954 145.469H115.125V137.829H84.466V130.189H69.1868V137.829H76.8264V145.469H92.1558V160.798H76.8264V168.438H92.1558V183.767H99.7954V145.469Z" fill="white"/>
<path d="M92.1564 183.767H84.4666V191.457H92.1564V183.767Z" fill="white"/>
<path d="M99.796 107.17H84.4666V114.86H99.796V107.17Z" fill="white"/>
<path d="M84.4636 191.457H76.824V222.065H84.4636V191.457Z" fill="white"/>
<path d="M76.8264 107.17H84.466V91.8905H92.1558V84.2007H69.1868V91.8905H76.8264V107.17Z" fill="white"/>
<path d="M76.8264 145.469H69.1868V153.158H76.8264V145.469Z" fill="white"/>
<path d="M69.1852 153.158H61.4954V176.127H76.8248V168.437H69.1852V153.158Z" fill="white"/>
<path d="M69.1852 91.8906H61.4954V130.189H69.1852V91.8906Z" fill="white"/>
<path d="M98.6789 175.329H103.696V180.397H108.746V185.432H128.847V180.397H133.897V175.329H138.914V170.295H148.981V175.329H153.998V180.397H159.015V185.432H179.149V180.397H184.166V165.26H189.216V155.157H184.166V160.192H98.6789V155.157H93.6619V165.26H98.6789V175.329Z" fill="black"/>
<path d="M126.024 167.456H110.695V175.095H126.024V167.456Z" fill="white"/>
<path d="M180.893 169.348H165.563V176.988H180.893V169.348Z" fill="white"/>
<path d="M251.238 274.432L248.536 273.913L246.454 284.757L249.156 285.276L251.238 274.432Z" fill="#FF9509"/>
<path d="M246.453 284.757L243.751 284.238L243.232 286.94L245.934 287.459L246.453 284.757Z" fill="#FF9509"/>
<path d="M250.613 263.086L247.911 262.568L246.351 270.692L249.054 271.211L250.613 263.086Z" fill="white"/>
<path d="M254.777 241.398L252.075 240.879L251.553 243.599L254.255 244.118L254.777 241.398Z" fill="#FF0000"/>
<path d="M246.353 270.692L243.634 270.17L243.115 272.872L245.835 273.394L246.353 270.692Z" fill="white"/>
<path d="M248.435 259.848L245.715 259.326L245.193 262.046L247.913 262.568L248.435 259.848Z" fill="white"/>
<path d="M251.554 243.599L248.834 243.077L248.315 245.779L251.035 246.302L251.554 243.599Z" fill="#FF0000"/>
<path d="M243.232 286.941L199.891 278.619L199.372 281.322L242.714 289.643L243.232 286.941Z" fill="#FF9509"/>
<path d="M244.673 264.748L241.97 264.229L241.452 266.931L244.154 267.45L244.673 264.748Z" fill="white"/>
<path d="M249.356 240.357L246.654 239.838L246.132 242.558L248.834 243.077L249.356 240.357Z" fill="#FF0000"/>
<path d="M241.453 266.931L236.031 265.89L235.509 268.61L240.931 269.651L241.453 266.931Z" fill="white"/>
<path d="M242.49 261.527L239.788 261.008L239.269 263.71L241.971 264.229L242.49 261.527Z" fill="white"/>
<path d="M246.233 256.624L238.109 255.064L237.59 257.766L245.714 259.326L246.233 256.624Z" fill="white"/>
<path d="M243.114 272.872L234.99 271.312L234.471 274.014L242.595 275.574L243.114 272.872Z" fill="white"/>
<path d="M244.572 250.683L239.15 249.642L238.631 252.344L244.053 253.385L244.572 250.683Z" fill="#FF9509"/>
<path d="M235.508 268.61L232.805 268.091L232.287 270.793L234.989 271.312L235.508 268.61Z" fill="white"/>
<path d="M237.59 257.766L234.888 257.247L233.328 265.371L236.03 265.89L237.59 257.766Z" fill="white"/>
<path d="M240.191 244.219L237.489 243.7L236.448 249.123L239.15 249.641L240.191 244.219Z" fill="#FF9509"/>
<path d="M238.008 240.999L235.288 240.476L234.769 243.178L237.489 243.701L238.008 240.999Z" fill="#FF9509"/>
<path d="M235.809 237.756L233.106 237.237L232.584 239.957L235.286 240.476L235.809 237.756Z" fill="#FF9509"/>
<path d="M231.247 276.216L223.123 274.656L222.604 277.358L230.728 278.918L231.247 276.216Z" fill="white"/>
<path d="M233.626 234.535L230.924 234.017L230.406 236.719L233.108 237.238L233.626 234.535Z" fill="#FF9509"/>
<path d="M223.644 271.936L220.924 271.413L220.402 274.133L223.122 274.655L223.644 271.936Z" fill="white"/>
<path d="M226.242 258.407L223.522 257.885L221.962 266.009L224.682 266.531L226.242 258.407Z" fill="white"/>
<path d="M231.443 231.314L228.723 230.792L228.204 233.494L230.924 234.017L231.443 231.314Z" fill="#FF9509"/>
<path d="M221.963 266.01L219.261 265.491L218.742 268.193L221.444 268.712L221.963 266.01Z" fill="white"/>
<path d="M224.045 255.165L221.343 254.646L220.82 257.366L223.522 257.885L224.045 255.165Z" fill="white"/>
<path d="M228.205 233.494L225.503 232.976L223.943 241.1L226.645 241.619L228.205 233.494Z" fill="#FF9509"/>
<path d="M220.3 260.068L217.598 259.55L217.079 262.252L219.781 262.771L220.3 260.068Z" fill="white"/>
<path d="M221.861 251.944L213.737 250.384L213.218 253.086L221.342 254.646L221.861 251.944Z" fill="white"/>
<path d="M223.942 241.1L221.24 240.581L220.718 243.301L217.998 242.779L217.479 245.481L222.901 246.522L223.942 241.1Z" fill="#FF9509"/>
<path d="M218.116 256.847L215.396 256.325L214.877 259.027L217.597 259.549L218.116 256.847Z" fill="white"/>
<path d="M223.318 229.754L220.598 229.232L220.079 231.934L222.799 232.457L223.318 229.754Z" fill="#FF0000"/>
<path d="M217.08 262.252L211.658 261.211L211.136 263.931L216.558 264.972L217.08 262.252Z" fill="white"/>
<path d="M217.479 245.481L212.057 244.44L211.538 247.142L216.96 248.183L217.479 245.481Z" fill="#FF9509"/>
<path d="M220.08 231.935L217.378 231.416L216.859 234.118L219.561 234.637L220.08 231.935Z" fill="#FF0000"/>
<path d="M218.74 268.193L207.896 266.111L207.377 268.813L218.221 270.895L218.74 268.193Z" fill="white"/>
<path d="M213.218 253.086L210.498 252.564L208.938 260.688L211.658 261.211L213.218 253.086Z" fill="white"/>
<path d="M217.896 228.714L215.176 228.191L214.657 230.894L217.377 231.416L217.896 228.714Z" fill="#FF0000"/>
<path d="M208.417 263.409L205.715 262.89L205.196 265.592L207.898 266.111L208.417 263.409Z" fill="white"/>
<path d="M211.538 247.142L208.835 246.623L208.313 249.343L211.015 249.862L211.538 247.142Z" fill="#FF9509"/>
<path d="M213.616 236.316L210.914 235.797L210.396 238.499L213.098 239.018L213.616 236.316Z" fill="#FF0000"/>
<path d="M208.312 249.343L205.61 248.824L204.05 256.949L206.752 257.468L208.312 249.343Z" fill="#FF9509"/>
<path d="M210.396 238.499L207.694 237.98L207.171 240.7L209.874 241.219L210.396 238.499Z" fill="#FF0000"/>
<path d="M200.408 275.917L197.688 275.395L197.17 278.097L199.89 278.619L200.408 275.917Z" fill="#FF9509"/>
<path d="M201.973 267.775L199.253 267.253L198.73 269.973L201.45 270.495L201.973 267.775Z" fill="#FF9509"/>
<path d="M204.051 256.949L201.332 256.427L200.813 259.129L203.533 259.651L204.051 256.949Z" fill="#FF9509"/>
<path d="M208.212 235.278L205.492 234.756L204.973 237.458L207.693 237.98L208.212 235.278Z" fill="#FF0000"/>
<path d="M198.73 269.973L196.028 269.454L194.987 274.876L197.689 275.395L198.73 269.973Z" fill="#FF9509"/>
<path d="M200.813 259.129L198.111 258.61L196.551 266.734L199.253 267.253L200.813 259.129Z" fill="#FF9509"/>
<defs>
<linearGradient id="paint0_linear_112_2117" x1="47.777" y1="26.9633" x2="267.268" y2="324.505" gradientUnits="userSpaceOnUse">
<stop stop-color="#0C3A65"/>
<stop offset="1" stop-color="#0F61AD"/>
</linearGradient>
<linearGradient id="paint1_linear_112_2117" x1="37.3601" y1="274.505" x2="37.3601" y2="292.963" gradientUnits="userSpaceOnUse">
<stop stop-color="white"/>
</linearGradient>
<linearGradient id="paint2_linear_112_2117" x1="42.6808" y1="271.329" x2="27.6863" y2="292.392" gradientUnits="userSpaceOnUse">
<stop stop-color="white"/>
</linearGradient>
<linearGradient id="paint3_linear_112_2117" x1="35.1829" y1="269.9" x2="35.1829" y2="291.5" gradientUnits="userSpaceOnUse">
<stop stop-color="white"/>
</linearGradient>
</defs>
</svg>
