<svg width="278" height="311" viewBox="0 0 278 311" fill="none" xmlns="http://www.w3.org/2000/svg">
<rect width="277.201" height="310.314" rx="20" fill="url(#paint0_linear_129_776)"/>
<path d="M14 36V15H32V18H35V24H32V27H35V33H32V36H14ZM20 24H29V18H20V24ZM20 33H29V27H20V33ZM38 36V15H56V18H59V27H53V30H56V33H59V36H50V33H47V30H44V36H38ZM44 27H50V24H53V18H44V27ZM65 36V33H62V18H65V15H80V18H83V33H80V36H65ZM68 33H77V18H68V33ZM14 60V39H20V48H23V45H26V42H29V39H35V42H32V45H29V48H26V51H29V54H32V57H35V60H26V57H23V54H20V60H14ZM38 60V39H59V42H44V48H56V51H44V57H59V60H38ZM62 60V39H80V42H83V51H77V54H80V57H83V60H74V57H71V54H68V60H62ZM68 51H74V48H77V42H68V51ZM86 60V39H104V42H107V48H104V51H107V57H104V60H86ZM92 48H101V42H92V48ZM92 57H101V51H92V57ZM113 60V57H110V39H116V57H125V39H131V57H128V60H113ZM134 60V54H137V51H140V48H143V45H146V42H134V39H155V45H152V48H149V51H146V54H143V57H155V60H134Z" fill="white"/>
<mask id="mask0_129_776" style="mask-type:luminance" maskUnits="userSpaceOnUse" x="25" y="274" width="20" height="20">
<path d="M44.4665 274.363H25.5449V293.285H44.4665V274.363Z" fill="white"/>
</mask>
<g mask="url(#mask0_129_776)">
<path d="M35.2451 274.505C35.4776 274.505 35.7054 274.571 35.9027 274.693C36.1 274.816 36.259 274.992 36.3615 275.201L40.2499 282.968L44.3417 291.156C44.4247 291.321 44.4701 291.502 44.4746 291.687C44.4792 291.871 44.4429 292.054 44.3683 292.223C44.2936 292.392 44.1826 292.542 44.043 292.662C43.9034 292.783 43.7389 292.871 43.5612 292.921L43.4808 292.94C43.4248 292.952 43.3678 292.96 43.3104 292.963H43.2254L35.2404 291.388L30.2451 282.968L34.124 275.201C34.2277 274.991 34.3882 274.815 34.5873 274.692C34.7863 274.569 35.0159 274.504 35.2499 274.505H35.2451Z" fill="url(#paint1_linear_129_776)"/>
<path d="M35.2461 274.505C35.4786 274.505 35.7064 274.571 35.9037 274.693C36.101 274.816 36.26 274.992 36.3625 275.201L40.2509 282.968L35.2414 291.383L27.2707 292.968C27.0569 292.969 26.8463 292.915 26.6593 292.812C26.4722 292.708 26.3149 292.558 26.2024 292.376C26.0899 292.195 26.0259 291.987 26.0167 291.773C26.0074 291.56 26.0532 291.347 26.1496 291.156L30.2461 282.973L34.125 275.201C34.2287 274.991 34.3892 274.815 34.5883 274.692C34.7873 274.569 35.0169 274.504 35.2509 274.505H35.2461Z" fill="url(#paint2_linear_129_776)"/>
<path d="M35.2451 274.505C35.4776 274.505 35.7054 274.571 35.9027 274.693C36.1 274.816 36.259 274.992 36.3615 275.201L40.2499 282.968C40.2499 282.968 37.0057 291.465 35.3682 291.465C33.7308 291.465 30.2451 282.968 30.2451 282.968L34.124 275.201C34.221 275.004 34.3683 274.835 34.551 274.713C34.7337 274.591 34.9454 274.519 35.1647 274.505H35.2451Z" fill="url(#paint3_linear_129_776)"/>
</g>
<path d="M53.2204 288.764H50.4404L49.9804 290.094H48.5104L51.0204 283.104H52.6504L55.1604 290.094H53.6804L53.2204 288.764ZM52.8404 287.644L51.8304 284.724L50.8204 287.644H52.8404ZM55.7386 287.304C55.7386 286.744 55.8486 286.247 56.0686 285.814C56.2952 285.38 56.6019 285.047 56.9886 284.814C57.3752 284.58 57.8052 284.464 58.2786 284.464C58.6386 284.464 58.9819 284.544 59.3086 284.704C59.6352 284.857 59.8952 285.064 60.0886 285.324V282.694H61.5086V290.094H60.0886V289.274C59.9152 289.547 59.6719 289.767 59.3586 289.934C59.0452 290.1 58.6819 290.184 58.2686 290.184C57.8019 290.184 57.3752 290.064 56.9886 289.824C56.6019 289.584 56.2952 289.247 56.0686 288.814C55.8486 288.374 55.7386 287.87 55.7386 287.304ZM60.0986 287.324C60.0986 286.984 60.0319 286.694 59.8986 286.454C59.7652 286.207 59.5852 286.02 59.3586 285.894C59.1319 285.76 58.8886 285.694 58.6286 285.694C58.3686 285.694 58.1286 285.757 57.9086 285.884C57.6886 286.01 57.5086 286.197 57.3686 286.444C57.2352 286.684 57.1686 286.97 57.1686 287.304C57.1686 287.637 57.2352 287.93 57.3686 288.184C57.5086 288.43 57.6886 288.62 57.9086 288.754C58.1352 288.887 58.3752 288.954 58.6286 288.954C58.8886 288.954 59.1319 288.89 59.3586 288.764C59.5852 288.63 59.7652 288.444 59.8986 288.204C60.0319 287.957 60.0986 287.664 60.0986 287.324ZM62.5159 287.304C62.5159 286.744 62.6259 286.247 62.8459 285.814C63.0726 285.38 63.3759 285.047 63.7559 284.814C64.1426 284.58 64.5726 284.464 65.0459 284.464C65.4592 284.464 65.8192 284.547 66.1259 284.714C66.4392 284.88 66.6892 285.09 66.8759 285.344V284.554H68.2859V290.094H66.8759V289.284C66.6959 289.544 66.4459 289.76 66.1259 289.934C65.8126 290.1 65.4492 290.184 65.0359 290.184C64.5692 290.184 64.1426 290.064 63.7559 289.824C63.3759 289.584 63.0726 289.247 62.8459 288.814C62.6259 288.374 62.5159 287.87 62.5159 287.304ZM66.8759 287.324C66.8759 286.984 66.8092 286.694 66.6759 286.454C66.5426 286.207 66.3626 286.02 66.1359 285.894C65.9092 285.76 65.6659 285.694 65.4059 285.694C65.1459 285.694 64.9059 285.757 64.6859 285.884C64.4659 286.01 64.2859 286.197 64.1459 286.444C64.0126 286.684 63.9459 286.97 63.9459 287.304C63.9459 287.637 64.0126 287.93 64.1459 288.184C64.2859 288.43 64.4659 288.62 64.6859 288.754C64.9126 288.887 65.1526 288.954 65.4059 288.954C65.6659 288.954 65.9092 288.89 66.1359 288.764C66.3626 288.63 66.5426 288.444 66.6759 288.204C66.8092 287.957 66.8759 287.664 66.8759 287.324ZM71.0533 285.354C71.2333 285.1 71.4799 284.89 71.7933 284.724C72.1133 284.55 72.4766 284.464 72.8833 284.464C73.3566 284.464 73.7833 284.58 74.1633 284.814C74.5499 285.047 74.8533 285.38 75.0733 285.814C75.2999 286.24 75.4133 286.737 75.4133 287.304C75.4133 287.87 75.2999 288.374 75.0733 288.814C74.8533 289.247 74.5499 289.584 74.1633 289.824C73.7833 290.064 73.3566 290.184 72.8833 290.184C72.4766 290.184 72.1166 290.1 71.8033 289.934C71.4966 289.767 71.2466 289.557 71.0533 289.304V292.734H69.6533V284.554H71.0533V285.354ZM73.9833 287.304C73.9833 286.97 73.9133 286.684 73.7733 286.444C73.6399 286.197 73.4599 286.01 73.2333 285.884C73.0133 285.757 72.7733 285.694 72.5133 285.694C72.2599 285.694 72.0199 285.76 71.7933 285.894C71.5733 286.02 71.3933 286.207 71.2533 286.454C71.1199 286.7 71.0533 286.99 71.0533 287.324C71.0533 287.657 71.1199 287.947 71.2533 288.194C71.3933 288.44 71.5733 288.63 71.7933 288.764C72.0199 288.89 72.2599 288.954 72.5133 288.954C72.7733 288.954 73.0133 288.887 73.2333 288.754C73.4599 288.62 73.6399 288.43 73.7733 288.184C73.9133 287.937 73.9833 287.644 73.9833 287.304ZM78.0606 285.704V288.384C78.0606 288.57 78.1039 288.707 78.1906 288.794C78.2839 288.874 78.4373 288.914 78.6506 288.914H79.3006V290.094H78.4206C77.2406 290.094 76.6506 289.52 76.6506 288.374V285.704H75.9906V284.554H76.6506V283.184H78.0606V284.554H79.3006V285.704H78.0606ZM81.0176 283.894C80.7709 283.894 80.5642 283.817 80.3976 283.664C80.2376 283.504 80.1576 283.307 80.1576 283.074C80.1576 282.84 80.2376 282.647 80.3976 282.494C80.5642 282.334 80.7709 282.254 81.0176 282.254C81.2642 282.254 81.4676 282.334 81.6276 282.494C81.7942 282.647 81.8776 282.84 81.8776 283.074C81.8776 283.307 81.7942 283.504 81.6276 283.664C81.4676 283.817 81.2642 283.894 81.0176 283.894ZM81.7076 284.554V290.094H80.3076V284.554H81.7076ZM51.2504 303.804L52.6504 299.554H54.1404L52.0904 305.094H50.3904L48.3504 299.554H49.8504L51.2504 303.804ZM55.6367 298.894C55.39 298.894 55.1834 298.817 55.0167 298.664C54.8567 298.504 54.7767 298.307 54.7767 298.074C54.7767 297.84 54.8567 297.647 55.0167 297.494C55.1834 297.334 55.39 297.254 55.6367 297.254C55.8834 297.254 56.0867 297.334 56.2467 297.494C56.4134 297.647 56.4967 297.84 56.4967 298.074C56.4967 298.307 56.4134 298.504 56.2467 298.664C56.0867 298.817 55.8834 298.894 55.6367 298.894ZM56.3267 299.554V305.094H54.9267V299.554H56.3267ZM60.7799 299.474C61.4399 299.474 61.9732 299.684 62.3799 300.104C62.7866 300.517 62.9899 301.097 62.9899 301.844V305.094H61.5899V302.034C61.5899 301.594 61.4799 301.257 61.2599 301.024C61.0399 300.784 60.7399 300.664 60.3599 300.664C59.9732 300.664 59.6666 300.784 59.4399 301.024C59.2199 301.257 59.1099 301.594 59.1099 302.034V305.094H57.7099V299.554H59.1099V300.244C59.2966 300.004 59.5332 299.817 59.8199 299.684C60.1132 299.544 60.4332 299.474 60.7799 299.474Z" fill="white"/>
<path d="M207.001 168.437V176.127H222.33V153.158H214.69V168.437H207.001Z" fill="white"/>
<path d="M222.332 91.8906H214.692V130.189H222.332V91.8906Z" fill="white"/>
<path d="M214.69 145.468H207.001V153.158H214.69V145.468Z" fill="white"/>
<path d="M206.998 191.457H199.359V222.066H206.998V191.457Z" fill="white"/>
<path d="M199.36 137.829H168.751V145.469H184.03V183.767H191.72V168.438H206.999V160.798H191.72V145.469H206.999V137.829H214.689V130.189H199.36V137.829Z" fill="white"/>
<path d="M207 91.8905H214.69V84.2007H191.721V91.8905H199.361V107.17H207V91.8905Z" fill="white"/>
<path d="M199.361 183.767H191.721V191.457H199.361V183.767Z" fill="white"/>
<path d="M199.36 222.065H184.03V229.755H199.36V222.065Z" fill="white"/>
<path d="M199.36 107.17H184.03V114.86H199.36V107.17Z" fill="white"/>
<path d="M184.03 229.755H168.751V237.395H184.03V229.755Z" fill="white"/>
<path d="M184.03 99.5303H168.751V107.17H184.03V99.5303Z" fill="white"/>
<path d="M153.422 160.798V168.437H161.062V176.127H168.752V168.437H176.391V160.798H153.422Z" fill="white"/>
<path d="M168.752 91.8906H153.422V99.5302H168.752V91.8906Z" fill="white"/>
<path d="M168.751 237.395H115.123V245.035H168.751V237.395Z" fill="white"/>
<path d="M115.123 191.457V214.426H122.762V199.097H130.452V214.426H122.762V222.066H161.061V214.426H153.421V199.097H161.061V214.426H168.751V191.457H115.123Z" fill="white"/>
<path d="M168.752 130.189H153.422V137.829H168.752V130.189Z" fill="white"/>
<path d="M153.421 122.499H145.731V130.189H153.421V122.499Z" fill="white"/>
<path d="M153.421 99.5303H145.731V107.17H153.421V99.5303Z" fill="white"/>
<path d="M145.733 107.17H138.094V122.499H145.733V107.17Z" fill="white"/>
<path d="M138.091 122.499H130.451V130.189H138.091V122.499Z" fill="white"/>
<path d="M138.091 99.5303H130.451V107.17H138.091V99.5303Z" fill="white"/>
<path d="M130.452 91.8906H115.123V99.5302H130.452V91.8906Z" fill="white"/>
<path d="M115.125 176.127H122.765V168.437H130.455V160.798H107.486V168.437H115.125V176.127Z" fill="white"/>
<path d="M130.452 130.189H115.123V137.829H130.452V130.189Z" fill="white"/>
<path d="M115.124 229.755H99.7942V237.395H115.124V229.755Z" fill="white"/>
<path d="M115.124 99.5303H99.7942V107.17H115.124V99.5303Z" fill="white"/>
<path d="M99.796 222.065H84.4666V229.755H99.796V222.065Z" fill="white"/>
<path d="M99.7957 145.469H115.125V137.829H84.4662V130.189H69.187V137.829H76.8266V145.469H92.1561V160.798H76.8266V168.438H92.1561V183.767H99.7957V145.469Z" fill="white"/>
<path d="M92.1564 183.767H84.4666V191.457H92.1564V183.767Z" fill="white"/>
<path d="M99.796 107.17H84.4666V114.86H99.796V107.17Z" fill="white"/>
<path d="M84.4636 191.457H76.824V222.066H84.4636V191.457Z" fill="white"/>
<path d="M76.8266 107.17H84.4662V91.8905H92.1561V84.2007H69.187V91.8905H76.8266V107.17Z" fill="white"/>
<path d="M76.8266 145.468H69.187V153.158H76.8266V145.468Z" fill="white"/>
<path d="M69.1853 153.158H61.4955V176.127H76.8249V168.437H69.1853V153.158Z" fill="white"/>
<path d="M69.1853 91.8906H61.4955V130.189H69.1853V91.8906Z" fill="white"/>
<path d="M98.679 175.329H103.696V180.397H108.746V185.432H128.847V180.397H133.897V175.329H138.914V170.295H148.981V175.329H153.998V180.397H159.015V185.432H179.149V180.397H184.166V165.26H189.216V155.157H184.166V160.192H98.679V155.157H93.662V165.26H98.679V175.329Z" fill="black"/>
<path d="M126.024 167.456H110.695V175.095H126.024V167.456Z" fill="white"/>
<path d="M180.893 169.349H165.564V176.988H180.893V169.349Z" fill="white"/>
<path d="M251.238 274.432L248.536 273.914L246.454 284.758L249.156 285.277L251.238 274.432Z" fill="#FF9509"/>
<path d="M246.453 284.757L243.751 284.238L243.232 286.94L245.934 287.459L246.453 284.757Z" fill="#FF9509"/>
<path d="M250.613 263.087L247.911 262.568L246.352 270.692L249.054 271.211L250.613 263.087Z" fill="white"/>
<path d="M254.778 241.398L252.075 240.879L251.553 243.599L254.255 244.118L254.778 241.398Z" fill="#FF0000"/>
<path d="M246.354 270.692L243.634 270.17L243.115 272.872L245.835 273.394L246.354 270.692Z" fill="white"/>
<path d="M248.435 259.848L245.715 259.326L245.193 262.046L247.913 262.568L248.435 259.848Z" fill="white"/>
<path d="M251.554 243.599L248.834 243.077L248.315 245.779L251.035 246.302L251.554 243.599Z" fill="#FF0000"/>
<path d="M243.233 286.941L199.891 278.62L199.373 281.322L242.714 289.643L243.233 286.941Z" fill="#FF9509"/>
<path d="M244.673 264.748L241.971 264.229L241.452 266.931L244.154 267.45L244.673 264.748Z" fill="white"/>
<path d="M249.356 240.357L246.654 239.838L246.132 242.558L248.834 243.077L249.356 240.357Z" fill="#FF0000"/>
<path d="M241.453 266.931L236.031 265.89L235.509 268.61L240.931 269.651L241.453 266.931Z" fill="white"/>
<path d="M242.49 261.527L239.788 261.008L239.27 263.71L241.972 264.229L242.49 261.527Z" fill="white"/>
<path d="M246.233 256.624L238.109 255.064L237.59 257.766L245.714 259.326L246.233 256.624Z" fill="white"/>
<path d="M243.114 272.872L234.99 271.312L234.471 274.015L242.595 275.574L243.114 272.872Z" fill="white"/>
<path d="M244.572 250.683L239.15 249.642L238.631 252.344L244.053 253.385L244.572 250.683Z" fill="#FF9509"/>
<path d="M235.508 268.61L232.805 268.091L232.287 270.793L234.989 271.312L235.508 268.61Z" fill="white"/>
<path d="M237.59 257.766L234.888 257.247L233.328 265.371L236.03 265.89L237.59 257.766Z" fill="white"/>
<path d="M240.191 244.219L237.489 243.701L236.448 249.123L239.15 249.642L240.191 244.219Z" fill="#FF9509"/>
<path d="M238.008 240.999L235.288 240.477L234.769 243.179L237.489 243.701L238.008 240.999Z" fill="#FF9509"/>
<path d="M235.809 237.756L233.107 237.237L232.584 239.957L235.287 240.476L235.809 237.756Z" fill="#FF9509"/>
<path d="M231.247 276.216L223.123 274.656L222.604 277.358L230.728 278.918L231.247 276.216Z" fill="white"/>
<path d="M233.627 234.535L230.924 234.017L230.406 236.719L233.108 237.238L233.627 234.535Z" fill="#FF9509"/>
<path d="M223.644 271.936L220.924 271.414L220.402 274.134L223.122 274.656L223.644 271.936Z" fill="white"/>
<path d="M226.242 258.407L223.522 257.885L221.962 266.009L224.682 266.531L226.242 258.407Z" fill="white"/>
<path d="M231.443 231.315L228.723 230.792L228.204 233.495L230.924 234.017L231.443 231.315Z" fill="#FF9509"/>
<path d="M221.963 266.01L219.261 265.491L218.742 268.193L221.444 268.712L221.963 266.01Z" fill="white"/>
<path d="M224.045 255.165L221.343 254.646L220.82 257.366L223.522 257.885L224.045 255.165Z" fill="white"/>
<path d="M228.205 233.494L225.503 232.976L223.943 241.1L226.645 241.619L228.205 233.494Z" fill="#FF9509"/>
<path d="M220.3 260.069L217.598 259.55L217.079 262.252L219.781 262.771L220.3 260.069Z" fill="white"/>
<path d="M221.861 251.944L213.737 250.384L213.218 253.086L221.342 254.646L221.861 251.944Z" fill="white"/>
<path d="M223.942 241.1L221.24 240.581L220.718 243.301L217.998 242.779L217.479 245.481L222.901 246.522L223.942 241.1Z" fill="#FF9509"/>
<path d="M218.116 256.847L215.396 256.325L214.878 259.027L217.597 259.55L218.116 256.847Z" fill="white"/>
<path d="M223.318 229.755L220.598 229.232L220.079 231.935L222.799 232.457L223.318 229.755Z" fill="#FF0000"/>
<path d="M217.08 262.252L211.658 261.211L211.136 263.931L216.558 264.972L217.08 262.252Z" fill="white"/>
<path d="M217.479 245.481L212.057 244.44L211.539 247.142L216.961 248.183L217.479 245.481Z" fill="#FF9509"/>
<path d="M220.08 231.935L217.378 231.416L216.859 234.118L219.561 234.637L220.08 231.935Z" fill="#FF0000"/>
<path d="M218.74 268.193L207.896 266.111L207.377 268.813L218.221 270.895L218.74 268.193Z" fill="white"/>
<path d="M213.218 253.087L210.498 252.564L208.938 260.689L211.658 261.211L213.218 253.087Z" fill="white"/>
<path d="M217.896 228.714L215.176 228.191L214.658 230.894L217.378 231.416L217.896 228.714Z" fill="#FF0000"/>
<path d="M208.417 263.409L205.715 262.89L205.196 265.592L207.898 266.111L208.417 263.409Z" fill="white"/>
<path d="M211.538 247.142L208.836 246.624L208.313 249.343L211.016 249.862L211.538 247.142Z" fill="#FF9509"/>
<path d="M213.617 236.316L210.914 235.797L210.396 238.5L213.098 239.018L213.617 236.316Z" fill="#FF0000"/>
<path d="M208.312 249.343L205.61 248.825L204.051 256.949L206.753 257.468L208.312 249.343Z" fill="#FF9509"/>
<path d="M210.396 238.499L207.694 237.98L207.171 240.7L209.874 241.219L210.396 238.499Z" fill="#FF0000"/>
<path d="M200.409 275.917L197.689 275.395L197.17 278.097L199.89 278.619L200.409 275.917Z" fill="#FF9509"/>
<path d="M201.973 267.775L199.253 267.253L198.731 269.973L201.451 270.495L201.973 267.775Z" fill="#FF9509"/>
<path d="M204.052 256.949L201.332 256.427L200.813 259.129L203.533 259.651L204.052 256.949Z" fill="#FF9509"/>
<path d="M208.212 235.278L205.492 234.756L204.973 237.458L207.693 237.98L208.212 235.278Z" fill="#FF0000"/>
<path d="M198.731 269.973L196.028 269.454L194.987 274.876L197.69 275.395L198.731 269.973Z" fill="#FF9509"/>
<path d="M200.813 259.129L198.111 258.61L196.551 266.735L199.253 267.253L200.813 259.129Z" fill="#FF9509"/>
<defs>
<linearGradient id="paint0_linear_129_776" x1="47.777" y1="26.9633" x2="267.268" y2="324.505" gradientUnits="userSpaceOnUse">
<stop stop-color="#0C3A65"/>
<stop offset="1" stop-color="#0F61AD"/>
</linearGradient>
<linearGradient id="paint1_linear_129_776" x1="37.3601" y1="274.505" x2="37.3601" y2="292.963" gradientUnits="userSpaceOnUse">
<stop stop-color="white"/>
</linearGradient>
<linearGradient id="paint2_linear_129_776" x1="42.6807" y1="271.329" x2="27.6862" y2="292.392" gradientUnits="userSpaceOnUse">
<stop stop-color="white"/>
</linearGradient>
<linearGradient id="paint3_linear_129_776" x1="35.1829" y1="269.9" x2="35.1829" y2="291.5" gradientUnits="userSpaceOnUse">
<stop stop-color="white"/>
</linearGradient>
</defs>
</svg>
