<svg width="293" height="328" viewBox="0 0 293 328" fill="none" xmlns="http://www.w3.org/2000/svg">
<rect width="293" height="328" rx="20" fill="url(#paint0_linear_129_619)"/>
<path d="M77.8754 234.968L75.4358 235.469L75.9374 237.909L78.377 237.407L77.8754 234.968Z" fill="#FFD93D"/>
<path d="M66.4434 191.732L64.0197 192.231L64.5213 194.67L62.0977 195.169L62.596 197.592L65.0196 197.094L65.5212 199.534L67.9448 199.035L67.4433 196.596L69.8828 196.094L69.3845 193.67L66.9449 194.172L66.4434 191.732Z" fill="#FFD93D"/>
<path d="M73.4399 225.759L71.0162 226.257L71.5145 228.681L73.9382 228.183L73.4399 225.759Z" fill="#FFD93D"/>
<path d="M71.5137 228.681L69.0901 229.179L69.5917 231.619L72.0153 231.12L71.5137 228.681Z" fill="#FFD93D"/>
<path d="M70.5139 223.818L68.0902 224.316L68.5918 226.756L71.0154 226.257L70.5139 223.818Z" fill="#FFD93D"/>
<path d="M68.5172 214.107L66.0935 214.605L66.5918 217.029L69.0155 216.531L68.5172 214.107Z" fill="#0065F8"/>
<path d="M66.5174 204.381L64.0938 204.879L64.5953 207.318L67.019 206.82L66.5174 204.381Z" fill="#0065F8"/>
<path d="M68.593 226.755L66.1534 227.257L66.6518 229.68L69.0913 229.179L68.593 226.755Z" fill="#FFD93D"/>
<path d="M66.5933 217.029L64.1537 217.531L64.6553 219.97L67.0949 219.469L66.5933 217.029Z" fill="#0065F8"/>
<path d="M63.5967 202.455L61.1571 202.957L61.6554 205.38L64.095 204.879L63.5967 202.455Z" fill="#0065F8"/>
<path d="M64.6542 219.97L62.2306 220.469L62.7289 222.892L65.1525 222.394L64.6542 219.97Z" fill="#0065F8"/>
<path d="M60.6578 200.533L58.2341 201.032L58.7324 203.455L61.1561 202.957L60.6578 200.533Z" fill="#0065F8"/>
<path d="M66.7258 242.329L66.2275 239.905L68.6512 239.407L68.1496 236.967L65.7259 237.466L65.2276 235.042L62.788 235.544L63.2863 237.967L60.8627 238.466L61.3643 240.905L63.7879 240.407L64.2862 242.831L66.7258 242.329Z" fill="#FFD93D"/>
<path d="M62.7293 222.892L60.2897 223.394L60.788 225.818L63.2276 225.316L62.7293 222.892Z" fill="#0065F8"/>
<path d="M60.7883 225.817L58.3646 226.315L58.8662 228.755L61.2899 228.257L60.7883 225.817Z" fill="#0065F8"/>
<path d="M58.7916 216.107L56.3679 216.605L56.8662 219.029L59.2899 218.53L58.7916 216.107Z" fill="#0065F8"/>
<path d="M56.7918 206.38L54.3682 206.878L54.8698 209.318L57.2934 208.82L56.7918 206.38Z" fill="#0065F8"/>
<path d="M54.2941 194.23L51.8705 194.729L52.3721 197.168L54.7957 196.67L54.2941 194.23Z" fill="#FFD93D"/>
<path d="M58.8652 228.756L56.4415 229.254L56.9398 231.678L59.3635 231.179L58.8652 228.756Z" fill="#0065F8"/>
<path d="M56.8653 219.029L54.4417 219.527L55.4416 224.391L57.8652 223.892L56.8653 219.029Z" fill="#0065F8"/>
<path d="M53.8688 204.455L51.4452 204.954L51.9435 207.377L54.3671 206.879L53.8688 204.455Z" fill="#0065F8"/>
<path d="M55.4424 224.391L53.0028 224.892L54.0027 229.755L56.4423 229.254L55.4424 224.391Z" fill="#0065F8"/>
<path d="M54.0024 229.755L51.5787 230.253L53.0769 237.54L55.5006 237.042L55.0023 234.618L57.4419 234.117L56.9403 231.677L54.5007 232.179L54.0024 229.755Z" fill="#0065F8"/>
<path d="M46.5084 193.305L44.0847 193.803L44.583 196.227L47.0067 195.729L46.5084 193.305Z" fill="#FFD93D"/>
<path d="M53.0769 237.541L48.2136 238.541L48.7119 240.964L53.5752 239.964L53.0769 237.541Z" fill="#0065F8"/>
<path d="M46.7164 231.254L44.2927 231.752L44.7911 234.175L42.3515 234.677L42.8531 237.117L45.2926 236.615L45.791 239.039L48.2146 238.54L46.7164 231.254Z" fill="#0065F8"/>
<path d="M43.2927 226.889L40.8531 227.39L41.8531 232.253L44.2926 231.752L43.2927 226.889Z" fill="#0065F8"/>
<path d="M41.8516 232.253L39.428 232.751L39.9263 235.175L42.3499 234.677L41.8516 232.253Z" fill="#0065F8"/>
<path d="M39.8517 222.527L37.4281 223.025L38.428 227.889L40.8516 227.39L39.8517 222.527Z" fill="#0065F8"/>
<path d="M36.8564 207.953L34.4327 208.452L34.9311 210.875L37.3547 210.377L36.8564 207.953Z" fill="#0065F8"/>
<path d="M34.8566 198.227L32.433 198.725L32.9346 201.165L35.3582 200.666L34.8566 198.227Z" fill="#FFD93D"/>
<path d="M40.9276 240.039L38.5039 240.537L39.0022 242.961L41.4259 242.462L40.9276 240.039Z" fill="#FFD93D"/>
<path d="M38.9278 230.312L36.5042 230.81L37.0057 233.25L39.4294 232.751L38.9278 230.312Z" fill="#0065F8"/>
<path d="M36.9311 220.601L34.5074 221.1L35.0058 223.523L37.4294 223.025L36.9311 220.601Z" fill="#0065F8"/>
<path d="M34.9313 210.875L32.5077 211.374L33.0093 213.813L35.4329 213.315L34.9313 210.875Z" fill="#0065F8"/>
<path d="M36.3574 205.529L36.8558 207.953L39.2953 207.451L38.797 205.028L48.5076 203.031L49.0059 205.455L51.4455 204.953L50.9471 202.53L58.234 201.031L57.7324 198.592L28.569 204.588L29.0706 207.027L36.3574 205.529Z" fill="#0065F8"/>
<path d="M36.0049 228.387L33.5653 228.888L34.0636 231.312L36.5032 230.81L36.0049 228.387Z" fill="#0065F8"/>
<path d="M33.0682 226.465L30.6445 226.963L31.1428 229.387L33.5665 228.888L33.0682 226.465Z" fill="#0065F8"/>
<path d="M29.0717 207.028L26.6481 207.526L27.1464 209.95L29.57 209.451L29.0717 207.028Z" fill="#0065F8"/>
<path d="M32.6409 236.674L30.2013 237.175L30.7029 239.615L33.1425 239.113L32.6409 236.674Z" fill="#FFD93D"/>
<path d="M30.1421 224.523L27.7025 225.025L28.2041 227.464L30.6437 226.963L30.1421 224.523Z" fill="#0065F8"/>
<path d="M27.1456 209.95L24.7061 210.451L25.2044 212.875L27.644 212.373L27.1456 209.95Z" fill="#0065F8"/>
<path d="M32.1995 246.902L29.7759 247.4L30.2742 249.824L32.6978 249.325L32.1995 246.902Z" fill="#FFD93D"/>
<path d="M30.7018 239.615L28.2782 240.113L28.7765 242.537L31.2002 242.039L30.7018 239.615Z" fill="#FFD93D"/>
<path d="M29.702 234.752L27.2783 235.25L27.7766 237.674L30.2003 237.175L29.702 234.752Z" fill="#FFD93D"/>
<path d="M27.2032 222.601L24.7795 223.1L25.2779 225.523L27.7015 225.025L27.2032 222.601Z" fill="#0065F8"/>
<path d="M24.2793 220.66L31.5662 219.162L32.0677 221.601L34.5073 221.1L34.0057 218.66L58.29 213.667L58.7916 216.107L61.2312 215.605L60.7296 213.166L68.0165 211.667L68.5181 214.107L70.9417 213.609L69.4435 206.322L67.0199 206.82L67.5182 209.244L60.2313 210.742L59.733 208.318L57.2934 208.82L57.7917 211.244L33.5074 216.237L33.0091 213.813L30.5695 214.315L31.0678 216.738L23.781 218.236L23.2827 215.813L20.859 216.311L22.3572 223.598L24.7809 223.1L24.2793 220.66Z" fill="#0065F8"/>
<path d="M25.2034 212.875L22.7798 213.374L23.2814 215.813L25.705 215.315L25.2034 212.875Z" fill="#0065F8"/>
<path d="M21.2822 206.086L23.7059 205.588L23.2075 203.164L25.6471 202.663L25.1455 200.223L22.706 200.725L22.2076 198.301L19.784 198.8L20.2823 201.223L17.8587 201.721L18.3603 204.161L20.7839 203.663L21.2822 206.086Z" fill="#FFD93D"/>
<path d="M27.7769 237.674L25.3533 238.172L25.8549 240.611L28.2785 240.113L27.7769 237.674Z" fill="#FFD93D"/>
<path d="M283.954 254.239L279.75 252.956L278.475 257.133L282.679 258.416L283.954 254.239Z" fill="#1CDF6A"/>
<path d="M267.91 276.797L266.635 280.973L262.458 279.699L261.175 283.903L265.352 285.178L264.078 289.354L259.901 288.08L258.626 292.256L262.803 293.531L261.52 297.735L257.343 296.461L256.069 300.637L264.422 303.187L274.644 269.69L270.467 268.416L269.193 272.592L265.016 271.318L263.733 275.522L267.91 276.797Z" fill="#1CDF6A"/>
<path d="M281.033 248.752L268.476 244.919L267.193 249.124L279.75 252.956L281.033 248.752Z" fill="#1CDF6A"/>
<path d="M265.918 253.3L264.643 257.477L268.847 258.76L267.564 262.964L271.741 264.239L273.024 260.035L277.201 261.309L278.475 257.133L265.918 253.3Z" fill="#1CDF6A"/>
<path d="M282.307 244.575L283.59 240.371L279.414 239.096L280.688 234.919L276.512 233.645L275.237 237.822L271.033 236.539L269.75 240.743L282.307 244.575Z" fill="#1CDF6A"/>
<path d="M266.291 267.141L257.91 264.583L256.636 268.76L265.016 271.318L266.291 267.141Z" fill="#1CDF6A"/>
<path d="M217.65 261.459L226.031 264.017L224.757 268.194L228.961 269.477L227.678 273.681L236.031 276.23L234.757 280.407L226.403 277.858L225.129 282.034L233.482 284.583L232.199 288.788L223.846 286.238L222.571 290.415L230.925 292.964L229.642 297.169L221.288 294.619L220.013 298.796L228.367 301.345L227.092 305.522L235.473 308.08L236.748 303.903L245.129 306.461L246.403 302.284L254.784 304.841L256.067 300.637L247.686 298.08L248.961 293.903L257.342 296.461L258.625 292.256L250.244 289.699L251.519 285.522L259.899 288.08L261.174 283.903L252.793 281.345L254.076 277.141L262.457 279.699L263.732 275.522L255.351 272.964L256.634 268.76L248.253 266.203L249.527 262.026L241.147 259.468L242.421 255.291L234.068 252.742L235.351 248.538L226.97 245.98L225.687 250.185L217.306 247.627L216.031 251.804L207.65 249.246L206.376 253.423L218.933 257.255L217.65 261.459Z" fill="#1CDF6A"/>
<path d="M269.752 240.743L265.575 239.468L264.3 243.645L268.477 244.92L269.752 240.743Z" fill="#1CDF6A"/>
<path d="M261.741 252.026L253.36 249.468L252.086 253.645L260.467 256.203L261.741 252.026Z" fill="#1CDF6A"/>
<path d="M254.635 245.291L246.254 242.734L244.979 246.911L253.36 249.468L254.635 245.291Z" fill="#1CDF6A"/>
<path d="M244.979 246.911L236.625 244.361L235.351 248.538L243.704 251.087L244.979 246.911Z" fill="#1CDF6A"/>
<path d="M227.093 305.522L218.739 302.973L217.456 307.177L225.81 309.726L227.093 305.522Z" fill="#1CDF6A"/>
<path d="M239.183 235.98L234.979 234.697L233.696 238.901L237.9 240.184L239.183 235.98Z" fill="#1CDF6A"/>
<path d="M214.534 301.69L218.739 302.973L220.013 298.796L215.809 297.513L217.084 293.336L221.288 294.619L222.571 290.415L218.367 289.132L219.641 284.955L223.845 286.238L225.128 282.034L220.924 280.751L222.199 276.574L226.403 277.857L227.678 273.681L219.297 271.123L218.022 275.3L209.641 272.742L208.367 276.919L216.747 279.476L215.464 283.681L207.084 281.123L205.809 285.3L214.19 287.857L212.907 292.062L204.526 289.504L203.251 293.681L211.632 296.238L210.358 300.415L201.977 297.857L200.694 302.062L209.075 304.619L207.8 308.796L216.181 311.354L217.456 307.177L213.251 305.894L214.534 301.69Z" fill="#1CDF6A"/>
<path d="M238.812 222.14L230.431 219.582L229.156 223.759L237.537 226.316L238.812 222.14Z" fill="#1CDF6A"/>
<path d="M233.696 238.902L225.315 236.344L224.04 240.521L232.421 243.079L233.696 238.902Z" fill="#1CDF6A"/>
<path d="M236.254 230.521L227.873 227.963L226.598 232.14L234.979 234.697L236.254 230.521Z" fill="#1CDF6A"/>
<path d="M229.156 223.759L224.979 222.484L223.696 226.689L227.873 227.963L229.156 223.759Z" fill="#1CDF6A"/>
<path d="M203.252 293.681L194.871 291.124L193.596 295.3L201.977 297.858L203.252 293.681Z" fill="#1CDF6A"/>
<path d="M210.916 268.565L202.535 266.008L201.261 270.185L209.642 272.742L210.916 268.565Z" fill="#1CDF6A"/>
<path d="M205.808 285.3L197.427 282.742L196.144 286.946L204.525 289.504L205.808 285.3Z" fill="#1CDF6A"/>
<path d="M208.367 276.919L199.987 274.361L198.704 278.566L207.084 281.123L208.367 276.919Z" fill="#1CDF6A"/>
<path d="M216.962 233.795L212.758 232.512L211.483 236.688L215.688 237.971L216.962 233.795Z" fill="#1CDF6A"/>
<path d="M196.146 286.947L187.765 284.389L186.491 288.566L194.871 291.123L196.146 286.947Z" fill="#1CDF6A"/>
<path d="M198.703 278.566L190.322 276.008L189.047 280.185L197.428 282.743L198.703 278.566Z" fill="#1CDF6A"/>
<path d="M201.262 270.185L192.881 267.627L191.606 271.804L199.987 274.362L201.262 270.185Z" fill="#1CDF6A"/>
<path d="M203.818 261.804L195.437 259.246L194.154 263.45L202.535 266.008L203.818 261.804Z" fill="#1CDF6A"/>
<path d="M206.376 253.423L197.995 250.865L196.712 255.069L205.093 257.627L206.376 253.423Z" fill="#1CDF6A"/>
<path d="M198.926 232.856L197.651 237.033L201.828 238.308L200.545 242.512L204.749 243.795L206.032 239.591L210.209 240.865L211.483 236.689L198.926 232.856Z" fill="#1CDF6A"/>
<path d="M215.316 224.131L216.599 219.927L212.422 218.652L213.696 214.476L209.492 213.193L208.218 217.369L204.041 216.095L202.758 220.299L215.316 224.131Z" fill="#1CDF6A"/>
<path d="M189.048 280.185L184.872 278.91L186.146 274.733L190.323 276.008L191.606 271.804L187.429 270.529L188.704 266.352L192.881 267.627L194.155 263.45L189.978 262.176L191.261 257.971L195.438 259.246L196.713 255.069L188.359 252.52L179.412 281.839L187.765 284.389L189.048 280.185Z" fill="#1CDF6A"/>
<path d="M214.04 228.307L201.483 224.475L200.2 228.679L212.757 232.512L214.04 228.307Z" fill="#1CDF6A"/>
<path d="M202.758 220.299L198.581 219.024L197.306 223.201L201.483 224.475L202.758 220.299Z" fill="#1CDF6A"/>
<path d="M173 99.2935H170.435V104.423H173V99.2935Z" fill="#FFD93D"/>
<path d="M165.287 109.57H167.852V119.864H149.864V122.437H152.429V125.002H149.864V127.584H167.852V132.731H170.434V104.423H165.287V109.57ZM157.576 124.994H154.994V122.437H157.576V124.994ZM167.852 124.994H162.705V122.437H167.852V124.994Z" fill="#FFD93D"/>
<path d="M167.853 101.858V99.2932H170.435V96.7114H165.288V99.2932H162.706V104.423H165.288V101.858H167.853Z" fill="#FFD93D"/>
<path d="M147.281 132.722V130.14H144.717V132.722H124.146V135.287H167.852V132.722H147.281Z" fill="#FFD93D"/>
<path d="M154.993 112.135V114.717H157.575V117.282H160.14V114.717H162.705V112.135H165.286V109.57H162.705V107.005H160.14V104.423H157.575V107.005H154.993V109.57H152.428V112.135H154.993Z" fill="#FFD93D"/>
<path d="M152.429 107.005H149.864V109.57H152.429V107.005Z" fill="#FFD93D"/>
<path d="M152.429 91.5649H149.864V99.2935H152.429V91.5649Z" fill="#FFD93D"/>
<path d="M149.863 127.575H147.281V130.14H149.863V127.575Z" fill="#FFD93D"/>
<path d="M149.863 117.282H147.281V119.864H149.863V117.282Z" fill="#FFD93D"/>
<path d="M149.863 104.423H147.281V107.005H149.863V104.423Z" fill="#FFD93D"/>
<path d="M147.282 122.429H144.717V124.994H147.282V122.429Z" fill="#FFD93D"/>
<path d="M147.282 114.717H144.717V117.282H147.282V114.717Z" fill="#FFD93D"/>
<path d="M147.282 101.858H149.864V99.2935H142.135V101.858H144.717V104.423H147.282V101.858Z" fill="#FFD93D"/>
<path d="M147.282 94.147H144.717V96.7119H147.282V94.147Z" fill="#FFD93D"/>
<path d="M149.864 89H142.135V91.5649H149.864V89Z" fill="#FFD93D"/>
<path d="M144.717 127.575H142.135V130.14H144.717V127.575Z" fill="#FFD93D"/>
<path d="M144.717 117.282H142.135V119.864H144.717V117.282Z" fill="#FFD93D"/>
<path d="M144.717 104.423H142.135V107.005H144.717V104.423Z" fill="#FFD93D"/>
<path d="M142.136 107.005H139.571V109.57H142.136V107.005Z" fill="#FFD93D"/>
<path d="M142.136 91.5649H139.571V99.2935H142.136V91.5649Z" fill="#FFD93D"/>
<path d="M129.294 112.135V114.717H131.859V117.282H134.424V114.717H137.006V112.135H139.571V109.57H137.006V107.005H134.424V104.423H131.859V107.005H129.294V109.57H126.712V112.135H129.294Z" fill="#FFD93D"/>
<path d="M124.146 101.858H126.711V104.423H129.293V99.2932H126.711V96.7114H121.564V99.2932H124.146V101.858Z" fill="#FFD93D"/>
<path d="M142.134 127.575V124.993H139.569V122.437H142.134V119.872H124.146V109.578H126.711V104.432H121.564V132.73H124.146V127.584L142.134 127.575ZM134.422 122.437H137.004V125.002H134.422V122.437ZM124.146 122.437H129.293V125.002H124.146V122.437Z" fill="#FFD93D"/>
<path d="M121.565 99.2935H119V104.423H121.565V99.2935Z" fill="#FFD93D"/>
<path d="M215.345 163.18H208.149V184.672H193.852V191.868H208.149V199.016H193.852V206.164H208.149V213.36H215.345V206.164H222.493V199.016H215.345V191.868H222.493V184.672H215.345V163.18Z" fill="#F8BB51"/>
<path d="M208.147 213.359H200.999V220.508H208.147V213.359Z" fill="#F8BB51"/>
<path d="M208.147 148.836H200.999V163.18H208.147V148.836Z" fill="#F8BB51"/>
<path d="M201.001 220.508H193.852V227.703H201.001V220.508Z" fill="#F8BB51"/>
<path d="M201.001 134.539H193.852V148.836H201.001V134.539Z" fill="#F8BB51"/>
<path d="M193.851 120.195H186.656V134.539H193.851V120.195Z" fill="#F8BB51"/>
<path d="M193.853 227.703H179.509V234.851H193.853V227.703Z" fill="#F8BB51"/>
<path d="M186.658 206.164H179.509V213.359H186.658V206.164Z" fill="#EF7C2C"/>
<path d="M186.658 191.867H179.509V199.016H186.658V191.867Z" fill="#EF7C2C"/>
<path d="M186.658 113H179.509V120.195H186.658V113Z" fill="#F8BB51"/>
<path d="M179.508 120.195H172.359V127.344H179.508V120.195Z" fill="#F8BB51"/>
<path d="M179.509 234.852H115.033V242H179.509V234.852Z" fill="#F8BB51"/>
<path d="M172.357 141.688H165.161V156.031H172.357V141.688Z" fill="#F8BB51"/>
<path d="M172.357 127.344H165.161V134.54H172.357V127.344Z" fill="#F8BB51"/>
<path d="M166.664 168.828V179.023H156.515V168.828H166.664Z" fill="white" stroke="#2C1F1F" stroke-width="3"/>
<path d="M158.015 206.164H150.82V213.359H158.015V206.164Z" fill="#F8BB51"/>
<path d="M129.33 184.672V191.867H136.526V199.016H150.822V191.867H158.018V184.672H129.33Z" fill="white"/>
<path d="M150.819 213.359H136.522V220.508H150.819V213.359Z" fill="#F8BB51"/>
<path d="M143.674 141.687V156.031H150.822V141.687H165.166V134.539H129.33V141.687H143.674Z" fill="#F8BB51"/>
<path d="M130.828 168.828V179.023H120.679V168.828H130.828Z" fill="white" stroke="#2C1F1F" stroke-width="3"/>
<path d="M129.327 141.688H122.179V156.031H129.327V141.688Z" fill="#F8BB51"/>
<path d="M129.327 127.344H122.179V134.54H129.327V127.344Z" fill="#F8BB51"/>
<path d="M122.181 120.195H115.033V127.344H122.181V120.195Z" fill="#F8BB51"/>
<path d="M115.03 227.703H100.686V234.851H115.03V227.703Z" fill="#F8BB51"/>
<path d="M115.031 206.164H107.836V213.359H115.031V206.164Z" fill="#EF7C2C"/>
<path d="M115.031 191.867H107.836V199.016H115.031V191.867Z" fill="#EF7C2C"/>
<path d="M115.031 113H107.836V120.195H115.031V113Z" fill="#F8BB51"/>
<path d="M107.834 120.195H100.686V134.539H107.834V120.195Z" fill="#F8BB51"/>
<path d="M100.69 220.508H93.4943V227.703H100.69V220.508Z" fill="#F8BB51"/>
<path d="M100.69 134.539H93.4943V148.836H100.69V134.539Z" fill="#F8BB51"/>
<path d="M93.4914 213.359H86.343V220.508H93.4914V213.359Z" fill="#F8BB51"/>
<path d="M100.688 206.164V199.016H86.3438V191.868H100.688V184.672H86.3438V163.18H79.1954V184.672H72V191.868H79.1954V199.016H72V206.164H79.1954V213.36H86.3438V206.164H100.688Z" fill="#F8BB51"/>
<path d="M93.4914 148.836H86.343V163.18H93.4914V148.836Z" fill="#F8BB51"/>
<path d="M15 41V20H21V29H24V26H27V23H30V20H36V23H33V26H30V29H27V32H30V35H33V38H36V41H27V38H24V35H21V41H15ZM42 41V38H39V23H42V20H57V23H60V38H57V41H42ZM45 38H54V23H45V38ZM69 41V38H66V35H63V26H66V23H69V20H81V23H84V26H78V23H72V26H69V35H72V38H78V35H84V38H81V41H69ZM87 41V20H93V29H102V20H108V41H102V32H93V41H87ZM111 41V20H132V23H117V29H129V32H117V38H132V41H111ZM135 41V20H141V23H144V26H147V29H150V20H156V41H150V35H147V32H144V29H141V41H135ZM165 41V38H162V35H159V26H162V23H165V20H180V23H168V26H165V35H168V38H174V32H171V29H180V41H165ZM18 65V62H15V47H18V44H33V47H36V62H33V65H18ZM21 62H30V47H21V62ZM39 65V44H57V47H60V56H54V59H57V62H60V65H51V62H48V59H45V65H39ZM45 56H51V53H54V47H45V56ZM63 65V44H84V47H69V53H81V56H69V62H84V65H63ZM87 65V44H93V47H96V50H99V53H102V44H108V65H102V59H99V56H96V53H93V65H87Z" fill="#F8BB51"/>
<mask id="mask0_129_619" style="mask-type:luminance" maskUnits="userSpaceOnUse" x="27" y="290" width="20" height="20">
<path d="M47 290H27V310H47V290Z" fill="white"/>
</mask>
<g mask="url(#mask0_129_619)">
<path d="M37.2544 290.15C37.5001 290.15 37.7409 290.219 37.9494 290.349C38.158 290.479 38.326 290.665 38.4344 290.885L42.5443 299.095L46.8694 307.75C46.9571 307.925 47.005 308.116 47.0098 308.311C47.0147 308.506 46.9763 308.699 46.8975 308.878C46.8185 309.056 46.7011 309.215 46.5536 309.342C46.4061 309.47 46.2322 309.563 46.0444 309.615L45.9594 309.635C45.9002 309.649 45.84 309.657 45.7793 309.66H45.6894L37.2494 307.995L31.9694 299.095L36.0694 290.885C36.179 290.664 36.3486 290.477 36.559 290.347C36.7694 290.217 37.0121 290.149 37.2594 290.15H37.2544Z" fill="url(#paint1_linear_129_619)"/>
<path d="M37.2555 290.15C37.5012 290.15 37.742 290.219 37.9506 290.349C38.1591 290.479 38.3271 290.665 38.4355 290.885L42.5455 299.095L37.2505 307.99L28.8255 309.665C28.5995 309.667 28.377 309.61 28.1792 309.5C27.9815 309.391 27.8152 309.232 27.6963 309.04C27.5774 308.848 27.5098 308.628 27.5 308.402C27.4902 308.177 27.5386 307.952 27.6405 307.75L31.9705 299.1L36.0705 290.885C36.1801 290.664 36.3497 290.477 36.5601 290.347C36.7705 290.217 37.0132 290.149 37.2605 290.15H37.2555Z" fill="url(#paint2_linear_129_619)"/>
<path d="M37.2544 290.15C37.5001 290.15 37.7409 290.219 37.9494 290.349C38.158 290.479 38.326 290.665 38.4344 290.885L42.5443 299.095C42.5443 299.095 39.1152 308.077 37.3845 308.077C35.6537 308.077 31.9694 299.095 31.9694 299.095L36.0694 290.885C36.1718 290.677 36.3275 290.499 36.5206 290.37C36.7138 290.241 36.9375 290.165 37.1694 290.15H37.2544Z" fill="url(#paint3_linear_129_619)"/>
</g>
<path d="M55.97 304.67H53.19L52.73 306H51.26L53.77 299.01H55.4L57.91 306H56.43L55.97 304.67ZM55.59 303.55L54.58 300.63L53.57 303.55H55.59ZM58.4882 303.21C58.4882 302.65 58.5982 302.153 58.8182 301.72C59.0449 301.287 59.3515 300.953 59.7382 300.72C60.1249 300.487 60.5549 300.37 61.0282 300.37C61.3882 300.37 61.7315 300.45 62.0582 300.61C62.3849 300.763 62.6449 300.97 62.8382 301.23V298.6H64.2582V306H62.8382V305.18C62.6649 305.453 62.4215 305.673 62.1082 305.84C61.7949 306.007 61.4315 306.09 61.0182 306.09C60.5515 306.09 60.1249 305.97 59.7382 305.73C59.3515 305.49 59.0449 305.153 58.8182 304.72C58.5982 304.28 58.4882 303.777 58.4882 303.21ZM62.8482 303.23C62.8482 302.89 62.7815 302.6 62.6482 302.36C62.5149 302.113 62.3349 301.927 62.1082 301.8C61.8815 301.667 61.6382 301.6 61.3782 301.6C61.1182 301.6 60.8782 301.663 60.6582 301.79C60.4382 301.917 60.2582 302.103 60.1182 302.35C59.9849 302.59 59.9182 302.877 59.9182 303.21C59.9182 303.543 59.9849 303.837 60.1182 304.09C60.2582 304.337 60.4382 304.527 60.6582 304.66C60.8849 304.793 61.1249 304.86 61.3782 304.86C61.6382 304.86 61.8815 304.797 62.1082 304.67C62.3349 304.537 62.5149 304.35 62.6482 304.11C62.7815 303.863 62.8482 303.57 62.8482 303.23ZM65.2655 303.21C65.2655 302.65 65.3755 302.153 65.5955 301.72C65.8222 301.287 66.1255 300.953 66.5055 300.72C66.8922 300.487 67.3222 300.37 67.7955 300.37C68.2089 300.37 68.5689 300.453 68.8755 300.62C69.1889 300.787 69.4389 300.997 69.6255 301.25V300.46H71.0355V306H69.6255V305.19C69.4455 305.45 69.1955 305.667 68.8755 305.84C68.5622 306.007 68.1989 306.09 67.7855 306.09C67.3189 306.09 66.8922 305.97 66.5055 305.73C66.1255 305.49 65.8222 305.153 65.5955 304.72C65.3755 304.28 65.2655 303.777 65.2655 303.21ZM69.6255 303.23C69.6255 302.89 69.5589 302.6 69.4255 302.36C69.2922 302.113 69.1122 301.927 68.8855 301.8C68.6589 301.667 68.4155 301.6 68.1555 301.6C67.8955 301.6 67.6555 301.663 67.4355 301.79C67.2155 301.917 67.0355 302.103 66.8955 302.35C66.7622 302.59 66.6955 302.877 66.6955 303.21C66.6955 303.543 66.7622 303.837 66.8955 304.09C67.0355 304.337 67.2155 304.527 67.4355 304.66C67.6622 304.793 67.9022 304.86 68.1555 304.86C68.4155 304.86 68.6589 304.797 68.8855 304.67C69.1122 304.537 69.2922 304.35 69.4255 304.11C69.5589 303.863 69.6255 303.57 69.6255 303.23ZM73.8029 301.26C73.9829 301.007 74.2296 300.797 74.5429 300.63C74.8629 300.457 75.2262 300.37 75.6329 300.37C76.1062 300.37 76.5329 300.487 76.9129 300.72C77.2996 300.953 77.6029 301.287 77.8229 301.72C78.0496 302.147 78.1629 302.643 78.1629 303.21C78.1629 303.777 78.0496 304.28 77.8229 304.72C77.6029 305.153 77.2996 305.49 76.9129 305.73C76.5329 305.97 76.1062 306.09 75.6329 306.09C75.2262 306.09 74.8662 306.007 74.5529 305.84C74.2462 305.673 73.9962 305.463 73.8029 305.21V308.64H72.4029V300.46H73.8029V301.26ZM76.7329 303.21C76.7329 302.877 76.6629 302.59 76.5229 302.35C76.3896 302.103 76.2096 301.917 75.9829 301.79C75.7629 301.663 75.5229 301.6 75.2629 301.6C75.0096 301.6 74.7696 301.667 74.5429 301.8C74.3229 301.927 74.1429 302.113 74.0029 302.36C73.8696 302.607 73.8029 302.897 73.8029 303.23C73.8029 303.563 73.8696 303.853 74.0029 304.1C74.1429 304.347 74.3229 304.537 74.5429 304.67C74.7696 304.797 75.0096 304.86 75.2629 304.86C75.5229 304.86 75.7629 304.793 75.9829 304.66C76.2096 304.527 76.3896 304.337 76.5229 304.09C76.6629 303.843 76.7329 303.55 76.7329 303.21ZM80.8102 301.61V304.29C80.8102 304.477 80.8536 304.613 80.9402 304.7C81.0336 304.78 81.1869 304.82 81.4002 304.82H82.0502V306H81.1702C79.9902 306 79.4002 305.427 79.4002 304.28V301.61H78.7402V300.46H79.4002V299.09H80.8102V300.46H82.0502V301.61H80.8102ZM83.7672 299.8C83.5205 299.8 83.3139 299.723 83.1472 299.57C82.9872 299.41 82.9072 299.213 82.9072 298.98C82.9072 298.747 82.9872 298.553 83.1472 298.4C83.3139 298.24 83.5205 298.16 83.7672 298.16C84.0139 298.16 84.2172 298.24 84.3772 298.4C84.5439 298.553 84.6272 298.747 84.6272 298.98C84.6272 299.213 84.5439 299.41 84.3772 299.57C84.2172 299.723 84.0139 299.8 83.7672 299.8ZM84.4572 300.46V306H83.0572V300.46H84.4572ZM88.1504 304.71L89.5504 300.46H91.0404L88.9904 306H87.2904L85.2504 300.46H86.7504L88.1504 304.71ZM92.5367 299.8C92.2901 299.8 92.0834 299.723 91.9167 299.57C91.7567 299.41 91.6767 299.213 91.6767 298.98C91.6767 298.747 91.7567 298.553 91.9167 298.4C92.0834 298.24 92.2901 298.16 92.5367 298.16C92.7834 298.16 92.9867 298.24 93.1467 298.4C93.3134 298.553 93.3967 298.747 93.3967 298.98C93.3967 299.213 93.3134 299.41 93.1467 299.57C92.9867 299.723 92.7834 299.8 92.5367 299.8ZM93.2267 300.46V306H91.8267V300.46H93.2267ZM97.6799 300.38C98.3399 300.38 98.8733 300.59 99.2799 301.01C99.6866 301.423 99.8899 302.003 99.8899 302.75V306H98.4899V302.94C98.4899 302.5 98.3799 302.163 98.1599 301.93C97.9399 301.69 97.6399 301.57 97.2599 301.57C96.8733 301.57 96.5666 301.69 96.3399 301.93C96.1199 302.163 96.0099 302.5 96.0099 302.94V306H94.6099V300.46H96.0099V301.15C96.1966 300.91 96.4333 300.723 96.7199 300.59C97.0133 300.45 97.3333 300.38 97.6799 300.38Z" fill="#F8BB51"/>
<defs>
<linearGradient id="paint0_linear_129_619" x1="50.5" y1="28.5" x2="282.5" y2="343" gradientUnits="userSpaceOnUse">
<stop stop-color="#482331"/>
<stop offset="1" stop-color="#832C4C"/>
</linearGradient>
<linearGradient id="paint1_linear_129_619" x1="39.4898" y1="290.15" x2="39.4898" y2="309.66" gradientUnits="userSpaceOnUse">
<stop stop-color="#F8BB51"/>
</linearGradient>
<linearGradient id="paint2_linear_129_619" x1="45.1138" y1="286.792" x2="29.2647" y2="309.057" gradientUnits="userSpaceOnUse">
<stop stop-color="#F8BB51"/>
</linearGradient>
<linearGradient id="paint3_linear_129_619" x1="37.1885" y1="285.283" x2="37.1885" y2="308.113" gradientUnits="userSpaceOnUse">
<stop stop-color="#F8BB51"/>
</linearGradient>
</defs>
</svg>
