<svg width="293" height="328" viewBox="0 0 293 328" fill="none" xmlns="http://www.w3.org/2000/svg">
<rect width="293" height="328" rx="20" fill="url(#paint0_linear_129_1224)"/>
<path d="M230.181 191.589V197.821H224.003V191.589H230.181Z" fill="#568C1C" stroke="#215021" stroke-width="2"/>
<path d="M222.002 199.821V206H215.77V199.821H222.002Z" fill="#568C1C" stroke="#215021" stroke-width="2"/>
<path d="M213.766 224.411V238.822H207.588V224.411H213.766Z" fill="#568C1C" stroke="#215021" stroke-width="2"/>
<path d="M213.766 208V214.232H207.588V208H213.766Z" fill="#568C1C" stroke="#215021" stroke-width="2"/>
<path d="M205.591 216.232V222.411H199.413V216.232H205.591Z" fill="#568C1C" stroke="#215021" stroke-width="2"/>
<path d="M205.592 240.822V247H183.003V240.822H205.592Z" fill="#568C1C" stroke="#215021" stroke-width="2"/>
<path d="M189.182 134.233V140.412H183.003V134.233H189.182Z" fill="#568C1C" stroke="#215021" stroke-width="2"/>
<path d="M180.999 232.589V238.822H174.821V232.589H180.999Z" fill="#568C1C" stroke="#215021" stroke-width="2"/>
<path d="M172.819 224.411V230.589H166.587V224.411H172.819Z" fill="#568C1C" stroke="#215021" stroke-width="2"/>
<path d="M164.592 216.232V222.411H158.413V216.232H164.592Z" fill="#568C1C" stroke="#215021" stroke-width="2"/>
<path d="M181 126V132.232H142V126H181Z" fill="#568C1C" stroke="#215021" stroke-width="2"/>
<path d="M156.411 224.411V230.589H142V224.411H156.411Z" fill="#568C1C" stroke="#215021" stroke-width="2"/>
<path d="M139.997 216.232V222.411H133.818V216.232H139.997Z" fill="#568C1C" stroke="#215021" stroke-width="2"/>
<path d="M131.824 224.411V230.589H125.592V224.411H131.824Z" fill="#568C1C" stroke="#215021" stroke-width="2"/>
<path d="M123.591 232.589V238.822H101.002V232.589H123.591Z" fill="#568C1C" stroke="#215021" stroke-width="2"/>
<path d="M115.414 208V214.232H109.235V208H115.414Z" fill="#568C1C" stroke="#215021" stroke-width="2"/>
<path d="M115.414 183.41V189.589H109.235V183.41H115.414Z" fill="#568C1C" stroke="#215021" stroke-width="2"/>
<g filter="url(#filter0_d_129_1224)">
<path d="M116.414 166.001V157.822H124.592V166.001H132.825V182.411H124.592V190.59H116.414V198.822H124.592V207H198.414V198.822H206.592V190.59H223.003V182.411H214.771V166.001H206.592V182.411H198.414V190.59H190.181V182.411H182.003V166.001H190.181V157.822H198.414V166.001H206.592V149.644H198.414V141.411H190.181V149.644H182.003V157.822H149.182V141.411H141.003V133.233H124.592V141.411H116.414V149.644H108.235V166.001H116.414ZM141.003 190.59H149.182V182.411H173.825V190.59H182.003V198.822H141.003V190.59Z" fill="url(#paint1_linear_129_1224)"/>
<path d="M142.003 132.233V140.412H150.182V156.822H181.003V148.644H189.182V140.412H199.414V148.644H207.592V165H215.771V181.412H224.003V191.589H207.592V199.822H199.414V208H123.592V199.822H115.414V189.589H123.592V181.412H131.824V167H123.592V158.822H117.414V167H107.235V148.644H115.414V140.412H123.592V132.233H142.003ZM150.182 191.589H142.003V197.822H181.003V191.589H172.824V183.412H150.182V191.589ZM191.182 167H183.003V181.412H191.182V189.589H197.414V181.412H205.592V167H197.414V158.822H191.182V167Z" stroke="#215021" stroke-width="2"/>
</g>
<path d="M107.234 216.232V222.411H101.002V216.232H107.234Z" fill="#568C1C" stroke="#215021" stroke-width="2"/>
<path d="M107.234 199.821V206H101.002V199.821H107.234Z" fill="#568C1C" stroke="#215021" stroke-width="2"/>
<path d="M107.234 167V181.412H101.002V167H107.234Z" fill="#568C1C" stroke="#215021" stroke-width="2"/>
<path d="M107.234 142.411V148.644H101.002V142.411H107.234Z" fill="#568C1C" stroke="#215021" stroke-width="2"/>
<path d="M98.9973 224.411V230.589H92.8186V224.411H98.9973Z" fill="#568C1C" stroke="#215021" stroke-width="2"/>
<path d="M98.9973 191.589V197.821H92.8186V191.589H98.9973Z" fill="#568C1C" stroke="#215021" stroke-width="2"/>
<path d="M90.8244 183.41V189.589H84.592V183.41H90.8244Z" fill="#568C1C" stroke="#215021" stroke-width="2"/>
<path d="M98.9987 134.233V140.412H76.4098V134.233H98.9987Z" fill="#568C1C" stroke="#215021" stroke-width="2"/>
<path d="M82.5912 175.231V181.41H68.2348V175.231H82.5912Z" fill="#568C1C" stroke="#215021" stroke-width="2"/>
<path d="M82.5885 158.822V165H76.4098V158.822H82.5885Z" fill="#568C1C" stroke="#215021" stroke-width="2"/>
<path d="M74.4135 142.411V148.644H68.2348V142.411H74.4135Z" fill="#568C1C" stroke="#215021" stroke-width="2"/>
<path d="M66.2334 150.644V173.232H60.001V150.644H66.2334Z" fill="#568C1C" stroke="#215021" stroke-width="2"/>
<path d="M15.0052 32V11H21.0052V14H24.0052V17H27.0052V14H30.0052V11H36.0052V32H30.0052V20H27.0052V26H24.0052V20H21.0052V32H15.0052ZM39.0052 32V17H42.0052V14H45.0052V11H54.0052V14H57.0052V17H60.0052V32H54.0052V26H45.0052V32H39.0052ZM45.0052 23H54.0052V17H51.0052V14H48.0052V17H45.0052V23ZM66.0052 32V29H63.0052V26H69.0052V29H78.0052V23H66.0052V20H63.0052V14H66.0052V11H81.0052V14H84.0052V17H78.0052V14H69.0052V20H81.0052V23H84.0052V29H81.0052V32H66.0052ZM15.0052 56V35H33.0052V38H36.0052V47H33.0052V50H21.0052V56H15.0052ZM21.0052 47H30.0052V38H21.0052V47ZM39.0052 56V41H42.0052V38H45.0052V35H54.0052V38H57.0052V41H60.0052V56H54.0052V50H45.0052V56H39.0052ZM45.0052 47H54.0052V41H51.0052V38H48.0052V41H45.0052V47ZM69.0052 56V53H66.0052V50H63.0052V41H66.0052V38H69.0052V35H81.0052V38H84.0052V41H78.0052V38H72.0052V41H69.0052V50H72.0052V53H78.0052V50H84.0052V53H81.0052V56H69.0052ZM87.0052 56V35H108.005V38H93.0052V44H105.005V47H93.0052V53H108.005V56H87.0052Z" fill="#699E22"/>
<mask id="mask0_129_1224" style="mask-type:luminance" maskUnits="userSpaceOnUse" x="27" y="290" width="21" height="20">
<path d="M47.0029 290H27.0029V310H47.0029V290Z" fill="white"/>
</mask>
<g mask="url(#mask0_129_1224)">
<path d="M37.2573 290.15C37.503 290.15 37.7438 290.219 37.9523 290.349C38.1609 290.479 38.3289 290.665 38.4373 290.885L42.5472 299.095L46.8723 307.75C46.96 307.925 47.0079 308.116 47.0128 308.311C47.0176 308.506 46.9793 308.699 46.9004 308.878C46.8214 309.056 46.7041 309.215 46.5565 309.342C46.409 309.47 46.2352 309.563 46.0473 309.615L45.9623 309.635C45.9031 309.649 45.8429 309.657 45.7822 309.66H45.6923L37.2523 307.995L31.9723 299.095L36.0723 290.885C36.1819 290.664 36.3515 290.477 36.5619 290.347C36.7723 290.217 37.015 290.149 37.2623 290.15H37.2573Z" fill="url(#paint2_linear_129_1224)"/>
<path d="M37.2583 290.15C37.5041 290.15 37.7448 290.219 37.9534 290.349C38.162 290.479 38.33 290.665 38.4383 290.885L42.5484 299.095L37.2533 307.99L28.8284 309.665C28.6023 309.667 28.3798 309.61 28.1821 309.5C27.9844 309.391 27.8181 309.232 27.6992 309.04C27.5802 308.848 27.5126 308.628 27.5029 308.402C27.4931 308.177 27.5415 307.952 27.6433 307.75L31.9733 299.1L36.0733 290.885C36.1829 290.664 36.3526 290.477 36.563 290.347C36.7734 290.217 37.0161 290.149 37.2633 290.15H37.2583Z" fill="url(#paint3_linear_129_1224)"/>
<path d="M37.2573 290.15C37.503 290.15 37.7438 290.219 37.9523 290.349C38.1609 290.479 38.3289 290.665 38.4373 290.885L42.5472 299.095C42.5472 299.095 39.1181 308.077 37.3874 308.077C35.6566 308.077 31.9723 299.095 31.9723 299.095L36.0723 290.885C36.1747 290.677 36.3304 290.499 36.5235 290.37C36.7167 290.241 36.9405 290.165 37.1723 290.15H37.2573Z" fill="url(#paint4_linear_129_1224)"/>
</g>
<path d="M55.9729 304.67H53.1929L52.7329 306H51.2629L53.7729 299.01H55.4029L57.9129 306H56.4329L55.9729 304.67ZM55.5929 303.55L54.5829 300.63L53.5729 303.55H55.5929ZM58.4911 303.21C58.4911 302.65 58.6011 302.153 58.8211 301.72C59.0478 301.287 59.3545 300.953 59.7411 300.72C60.1278 300.487 60.5578 300.37 61.0311 300.37C61.3911 300.37 61.7345 300.45 62.0611 300.61C62.3878 300.763 62.6478 300.97 62.8411 301.23V298.6H64.2611V306H62.8411V305.18C62.6678 305.453 62.4245 305.673 62.1111 305.84C61.7978 306.007 61.4345 306.09 61.0211 306.09C60.5545 306.09 60.1278 305.97 59.7411 305.73C59.3545 305.49 59.0478 305.153 58.8211 304.72C58.6011 304.28 58.4911 303.777 58.4911 303.21ZM62.8511 303.23C62.8511 302.89 62.7845 302.6 62.6511 302.36C62.5178 302.113 62.3378 301.927 62.1111 301.8C61.8845 301.667 61.6411 301.6 61.3811 301.6C61.1211 301.6 60.8811 301.663 60.6611 301.79C60.4411 301.917 60.2611 302.103 60.1211 302.35C59.9878 302.59 59.9211 302.877 59.9211 303.21C59.9211 303.543 59.9878 303.837 60.1211 304.09C60.2611 304.337 60.4411 304.527 60.6611 304.66C60.8878 304.793 61.1278 304.86 61.3811 304.86C61.6411 304.86 61.8845 304.797 62.1111 304.67C62.3378 304.537 62.5178 304.35 62.6511 304.11C62.7845 303.863 62.8511 303.57 62.8511 303.23ZM65.2685 303.21C65.2685 302.65 65.3785 302.153 65.5985 301.72C65.8251 301.287 66.1285 300.953 66.5085 300.72C66.8951 300.487 67.3251 300.37 67.7985 300.37C68.2118 300.37 68.5718 300.453 68.8785 300.62C69.1918 300.787 69.4418 300.997 69.6285 301.25V300.46H71.0385V306H69.6285V305.19C69.4485 305.45 69.1985 305.667 68.8785 305.84C68.5651 306.007 68.2018 306.09 67.7885 306.09C67.3218 306.09 66.8951 305.97 66.5085 305.73C66.1285 305.49 65.8251 305.153 65.5985 304.72C65.3785 304.28 65.2685 303.777 65.2685 303.21ZM69.6285 303.23C69.6285 302.89 69.5618 302.6 69.4285 302.36C69.2951 302.113 69.1151 301.927 68.8885 301.8C68.6618 301.667 68.4185 301.6 68.1585 301.6C67.8985 301.6 67.6585 301.663 67.4385 301.79C67.2185 301.917 67.0385 302.103 66.8985 302.35C66.7651 302.59 66.6985 302.877 66.6985 303.21C66.6985 303.543 66.7651 303.837 66.8985 304.09C67.0385 304.337 67.2185 304.527 67.4385 304.66C67.6651 304.793 67.9051 304.86 68.1585 304.86C68.4185 304.86 68.6618 304.797 68.8885 304.67C69.1151 304.537 69.2951 304.35 69.4285 304.11C69.5618 303.863 69.6285 303.57 69.6285 303.23ZM73.8058 301.26C73.9858 301.007 74.2325 300.797 74.5458 300.63C74.8658 300.457 75.2291 300.37 75.6358 300.37C76.1091 300.37 76.5358 300.487 76.9158 300.72C77.3025 300.953 77.6058 301.287 77.8258 301.72C78.0525 302.147 78.1658 302.643 78.1658 303.21C78.1658 303.777 78.0525 304.28 77.8258 304.72C77.6058 305.153 77.3025 305.49 76.9158 305.73C76.5358 305.97 76.1091 306.09 75.6358 306.09C75.2291 306.09 74.8691 306.007 74.5558 305.84C74.2491 305.673 73.9991 305.463 73.8058 305.21V308.64H72.4058V300.46H73.8058V301.26ZM76.7358 303.21C76.7358 302.877 76.6658 302.59 76.5258 302.35C76.3925 302.103 76.2125 301.917 75.9858 301.79C75.7658 301.663 75.5258 301.6 75.2658 301.6C75.0125 301.6 74.7725 301.667 74.5458 301.8C74.3258 301.927 74.1458 302.113 74.0058 302.36C73.8725 302.607 73.8058 302.897 73.8058 303.23C73.8058 303.563 73.8725 303.853 74.0058 304.1C74.1458 304.347 74.3258 304.537 74.5458 304.67C74.7725 304.797 75.0125 304.86 75.2658 304.86C75.5258 304.86 75.7658 304.793 75.9858 304.66C76.2125 304.527 76.3925 304.337 76.5258 304.09C76.6658 303.843 76.7358 303.55 76.7358 303.21ZM80.8131 301.61V304.29C80.8131 304.477 80.8565 304.613 80.9431 304.7C81.0365 304.78 81.1898 304.82 81.4031 304.82H82.0531V306H81.1731C79.9931 306 79.4031 305.427 79.4031 304.28V301.61H78.7431V300.46H79.4031V299.09H80.8131V300.46H82.0531V301.61H80.8131ZM83.7701 299.8C83.5234 299.8 83.3168 299.723 83.1501 299.57C82.9901 299.41 82.9101 299.213 82.9101 298.98C82.9101 298.747 82.9901 298.553 83.1501 298.4C83.3168 298.24 83.5234 298.16 83.7701 298.16C84.0168 298.16 84.2201 298.24 84.3801 298.4C84.5468 298.553 84.6301 298.747 84.6301 298.98C84.6301 299.213 84.5468 299.41 84.3801 299.57C84.2201 299.723 84.0168 299.8 83.7701 299.8ZM84.4601 300.46V306H83.0601V300.46H84.4601ZM88.1533 304.71L89.5533 300.46H91.0433L88.9933 306H87.2933L85.2533 300.46H86.7533L88.1533 304.71ZM92.5396 299.8C92.293 299.8 92.0863 299.723 91.9196 299.57C91.7596 299.41 91.6796 299.213 91.6796 298.98C91.6796 298.747 91.7596 298.553 91.9196 298.4C92.0863 298.24 92.293 298.16 92.5396 298.16C92.7863 298.16 92.9896 298.24 93.1496 298.4C93.3163 298.553 93.3996 298.747 93.3996 298.98C93.3996 299.213 93.3163 299.41 93.1496 299.57C92.9896 299.723 92.7863 299.8 92.5396 299.8ZM93.2296 300.46V306H91.8296V300.46H93.2296ZM97.6828 300.38C98.3428 300.38 98.8762 300.59 99.2828 301.01C99.6895 301.423 99.8928 302.003 99.8928 302.75V306H98.4928V302.94C98.4928 302.5 98.3828 302.163 98.1628 301.93C97.9428 301.69 97.6428 301.57 97.2628 301.57C96.8762 301.57 96.5695 301.69 96.3428 301.93C96.1228 302.163 96.0128 302.5 96.0128 302.94V306H94.6128V300.46H96.0128V301.15C96.1995 300.91 96.4362 300.723 96.7228 300.59C97.0162 300.45 97.3362 300.38 97.6828 300.38Z" fill="#699E22"/>
<path d="M291.509 305.4H275.045V309.509H291.509V305.4Z" fill="#D9C4B0"/>
<path d="M283.262 280.664H279.153V288.909H283.262V280.664Z" fill="#5A901D"/>
<path d="M279.153 264.201V268.31H287.398V260.064H283.262V264.201H279.153Z" fill="#5A901D"/>
<path d="M283.262 255.955H279.153V260.064H283.262V255.955Z" fill="#5A901D"/>
<path d="M279.155 288.91H275.045V293.019H279.155V288.91Z" fill="#5A901D"/>
<path d="M279.155 276.555H275.045V280.664H279.155V276.555Z" fill="#5A901D"/>
<path d="M279.155 260.064H254.446V264.201H279.155V260.064Z" fill="#5A901D"/>
<path d="M279.155 251.846H275.045V255.955H279.155V251.846Z" fill="#5A901D"/>
<path d="M275.044 309.509H270.908V313.618H275.044V309.509Z" fill="#D9C4B0"/>
<path d="M275.044 284.8H270.908V288.909H275.044V284.8Z" fill="#5A901D"/>
<path d="M275.044 272.446H270.908V276.555H275.044V272.446Z" fill="#5A901D"/>
<path d="M270.909 280.664H262.691V284.8H270.909V280.664Z" fill="#5A901D"/>
<path d="M266.801 297.155H262.692V288.91H258.556V284.8H254.447V280.664H250.311V276.555H237.956V284.8H242.092V293.019H246.201V301.264H250.311V321.864H246.201V326H275.047V321.864H270.91V313.619H266.801V297.155ZM258.556 321.864H254.447V313.619H258.556V321.864ZM258.556 305.4H254.447V297.155H250.311V288.91H246.201V284.8H250.311V288.91H254.447V297.155H258.556V305.4Z" fill="#956659"/>
<path d="M262.691 276.555H254.446V280.664H262.691V276.555Z" fill="#5A901D"/>
<path d="M275.044 247.71H250.309V251.846H275.044V247.71Z" fill="#5A901D"/>
<path d="M250.309 272.446H270.908V268.31H254.445V264.201H250.309V272.446Z" fill="#5A901D"/>
<path d="M250.31 251.846H246.201V255.955H250.31V251.846Z" fill="#5A901D"/>
<path d="M246.199 309.509H229.709V313.618H246.199V309.509Z" fill="#D9C4B0"/>
<path d="M246.199 255.955H242.09V260.064H246.199V255.955Z" fill="#5A901D"/>
<path d="M242.092 260.064H237.956V264.201H242.092V260.064Z" fill="#5A901D"/>
<path d="M237.954 284.8H233.845V297.155H237.954V284.8Z" fill="#5A901D"/>
<path d="M237.954 255.955H233.845V260.064H237.954V255.955Z" fill="#5A901D"/>
<path d="M233.845 297.155H229.709V301.264H233.845V297.155Z" fill="#5A901D"/>
<path d="M229.709 284.8H233.845V276.555H225.6V280.664H229.709V284.8Z" fill="#5A901D"/>
<path d="M229.709 313.618H225.6V317.754H229.709V313.618Z" fill="#D9C4B0"/>
<path d="M229.709 301.264H225.6V305.4H229.709V301.264Z" fill="#5A901D"/>
<path d="M229.709 284.8H225.6V288.909H229.709V284.8Z" fill="#5A901D"/>
<path d="M217.355 268.31V272.446H233.846V264.201H229.71V268.31H217.355Z" fill="#5A901D"/>
<path d="M225.599 288.91H221.49V301.264H225.599V288.91Z" fill="#5A901D"/>
<path d="M225.599 280.664H221.49V284.8H225.599V280.664Z" fill="#5A901D"/>
<path d="M229.71 260.064H217.355V264.201H229.71V260.064Z" fill="#5A901D"/>
<path d="M225.601 317.754H209.138V321.864H225.601V317.754Z" fill="#D9C4B0"/>
<path d="M221.491 284.8H217.355V288.909H221.491V284.8Z" fill="#5A901D"/>
<path d="M233.845 251.846H213.245V255.955H233.845V251.846Z" fill="#5A901D"/>
<path d="M217.354 288.91H213.245V297.155H217.354V288.91Z" fill="#5A901D"/>
<path d="M217.354 272.446H213.245V276.555H217.354V272.446Z" fill="#5A901D"/>
<path d="M217.354 264.201H213.245V268.31H217.354V264.201Z" fill="#5A901D"/>
<path d="M213.247 297.155H209.138V301.264H213.247V297.155Z" fill="#5A901D"/>
<path d="M213.247 276.555H209.138V280.664H213.247V276.555Z" fill="#5A901D"/>
<path d="M213.247 268.31H209.138V272.446H213.247V268.31Z" fill="#5A901D"/>
<path d="M213.247 255.955H209.138V260.064H213.247V255.955Z" fill="#5A901D"/>
<path d="M209.136 321.864H205V326H209.136V321.864Z" fill="#D9C4B0"/>
<path d="M209.136 280.664H205V297.155H209.136V280.664Z" fill="#5A901D"/>
<path d="M209.136 260.064H205V268.31H209.136V260.064Z" fill="#5A901D"/>
<path d="M245.211 105.544L244.822 108.511L247.789 108.9L246.226 120.806L249.193 121.195L250.755 109.289L265.628 111.241L263.286 129.081L266.273 129.472L270.566 96.7609L267.58 96.369L266.017 108.275L245.211 105.544Z" fill="#6A9F22"/>
<path d="M263.286 129.08L260.319 128.691L259.927 131.677L262.894 132.066L263.286 129.08Z" fill="#6A9F22"/>
<path d="M267.969 93.4021L265.002 93.0127L264.612 95.9794L267.579 96.3688L267.969 93.4021Z" fill="#6A9F22"/>
<path d="M264.221 98.966L261.255 98.5767L260.865 101.543L263.832 101.933L264.221 98.966Z" fill="#6A9F22"/>
<path d="M259.927 131.678L212.343 125.432L211.954 128.399L259.538 134.644L259.927 131.678Z" fill="#6A9F22"/>
<path d="M260.865 101.543L251.926 100.37L251.537 103.337L260.476 104.51L260.865 101.543Z" fill="#6A9F22"/>
<path d="M261.647 95.5903L252.707 94.417L252.316 97.4032L261.255 98.5765L261.647 95.5903Z" fill="#6A9F22"/>
<path d="M252.315 97.4031L249.348 97.0137L248.958 99.9804L251.925 100.37L252.315 97.4031Z" fill="#6A9F22"/>
<path d="M246.226 120.806L243.259 120.417L242.87 123.383L245.837 123.773L246.226 120.806Z" fill="#6A9F22"/>
<path d="M265.394 90.0268L244.569 87.2935L244.177 90.2797L265.002 93.013L265.394 90.0268Z" fill="#6A9F22"/>
<path d="M234.341 119.246L240.274 120.025L240.666 117.039L243.652 117.43L244.433 111.478L241.447 111.086L241.055 114.072L238.089 113.682L238.481 110.696L241.447 111.086L241.837 108.119L235.903 107.34L235.514 110.307L232.528 109.915L231.746 115.868L234.733 116.26L234.341 119.246Z" fill="#0088FF"/>
<path d="M245.604 102.558L233.698 100.995L233.306 103.981L245.212 105.544L245.604 102.558Z" fill="#6A9F22"/>
<path d="M242.871 123.383L230.965 121.821L230.576 124.787L242.481 126.35L242.871 123.383Z" fill="#6A9F22"/>
<path d="M244.178 90.2795L241.211 89.8901L240.822 92.8568L243.788 93.2462L244.178 90.2795Z" fill="#6A9F22"/>
<path d="M231.353 118.854L228.387 118.464L227.997 121.431L230.964 121.82L231.353 118.854Z" fill="#6A9F22"/>
<path d="M235.65 86.1229L226.73 84.9521L226.338 87.9383L235.258 89.1091L235.65 86.1229Z" fill="#6A9F22"/>
<path d="M225.168 96.858L219.215 96.0767L218.826 99.0433L224.779 99.8247L225.168 96.858Z" fill="#6A9F22"/>
<path d="M240.429 95.8432L240.821 92.857L237.854 92.4676L238.243 89.5009L235.257 89.109L234.868 92.0757L225.948 90.905L226.338 87.9383L223.371 87.5489L222.982 90.5156L217.029 89.7343L216.637 92.7205L240.429 95.8432Z" fill="#6A9F22"/>
<path d="M212.735 122.446L209.749 122.054L209.357 125.04L212.343 125.432L212.735 122.446Z" fill="#6A9F22"/>
<path d="M216.636 92.7201L213.65 92.3281L213.261 95.2948L216.247 95.6868L216.636 92.7201Z" fill="#6A9F22"/>
<path d="M212.091 104.215L226.963 106.167L225.401 118.072L228.387 118.464L229.95 106.559L232.916 106.948L233.306 103.981L212.48 101.248L213.262 95.2951L210.295 94.9058L206.783 121.664L209.749 122.054L212.091 104.215Z" fill="#6A9F22"/>
<defs>
<filter id="filter0_d_129_1224" x="102.235" y="131.233" width="126.767" height="85.7676" filterUnits="userSpaceOnUse" color-interpolation-filters="sRGB">
<feFlood flood-opacity="0" result="BackgroundImageFix"/>
<feColorMatrix in="SourceAlpha" type="matrix" values="0 0 0 0 0 0 0 0 0 0 0 0 0 0 0 0 0 0 127 0" result="hardAlpha"/>
<feOffset dy="4"/>
<feGaussianBlur stdDeviation="2"/>
<feComposite in2="hardAlpha" operator="out"/>
<feColorMatrix type="matrix" values="0 0 0 0 0 0 0 0 0 0 0 0 0 0 0 0 0 0 0.25 0"/>
<feBlend mode="normal" in2="BackgroundImageFix" result="effect1_dropShadow_129_1224"/>
<feBlend mode="normal" in="SourceGraphic" in2="effect1_dropShadow_129_1224" result="shape"/>
</filter>
<linearGradient id="paint0_linear_129_1224" x1="-43.5" y1="-67.5" x2="310.5" y2="401.5" gradientUnits="userSpaceOnUse">
<stop stop-color="#A6B28B"/>
<stop offset="1" stop-color="white"/>
</linearGradient>
<linearGradient id="paint1_linear_129_1224" x1="165.619" y1="133.233" x2="165.619" y2="207" gradientUnits="userSpaceOnUse">
<stop stop-color="#7BAF27"/>
<stop offset="1" stop-color="#568C1C"/>
</linearGradient>
<linearGradient id="paint2_linear_129_1224" x1="39.4927" y1="290.15" x2="39.4927" y2="309.66" gradientUnits="userSpaceOnUse">
<stop stop-color="#699E22"/>
</linearGradient>
<linearGradient id="paint3_linear_129_1224" x1="45.1166" y1="286.792" x2="29.2676" y2="309.057" gradientUnits="userSpaceOnUse">
<stop stop-color="#699E22"/>
</linearGradient>
<linearGradient id="paint4_linear_129_1224" x1="37.1914" y1="285.283" x2="37.1914" y2="308.113" gradientUnits="userSpaceOnUse">
<stop stop-color="#699E22"/>
</linearGradient>
</defs>
</svg>
