<svg width="293" height="328" viewBox="0 0 293 328" fill="none" xmlns="http://www.w3.org/2000/svg">
<rect width="293" height="328" rx="20" fill="url(#paint0_linear_129_1335)"/>
<path d="M16.0052 33V12H22.0052V15H25.0052V18H28.0052V15H31.0052V12H37.0052V33H31.0052V21H28.0052V27H25.0052V21H22.0052V33H16.0052ZM40.0052 33V18H43.0052V15H46.0052V12H55.0052V15H58.0052V18H61.0052V33H55.0052V27H46.0052V33H40.0052ZM46.0052 24H55.0052V18H52.0052V15H49.0052V18H46.0052V24ZM67.0052 33V30H64.0052V27H70.0052V30H79.0052V24H67.0052V21H64.0052V15H67.0052V12H82.0052V15H85.0052V18H79.0052V15H70.0052V21H82.0052V24H85.0052V30H82.0052V33H67.0052ZM16.0052 57V36H34.0052V39H37.0052V48H34.0052V51H22.0052V57H16.0052ZM22.0052 48H31.0052V39H22.0052V48ZM43.0052 57V54H49.0052V39H43.0052V36H61.0052V39H55.0052V54H61.0052V57H43.0052ZM70.0052 57V54H67.0052V51H64.0052V42H67.0052V39H70.0052V36H85.0052V39H73.0052V42H70.0052V51H73.0052V54H79.0052V48H76.0052V45H85.0052V57H70.0052ZM94.0052 57V54H91.0052V51H88.0052V42H91.0052V39H94.0052V36H109.005V39H97.0052V42H94.0052V51H97.0052V54H103.005V48H100.005V45H109.005V57H94.0052ZM121.005 57V48H118.005V45H115.005V36H121.005V45H127.005V36H133.005V45H130.005V48H127.005V57H121.005Z" fill="#BB5D57"/>
<mask id="mask0_129_1335" style="mask-type:luminance" maskUnits="userSpaceOnUse" x="28" y="291" width="21" height="20">
<path d="M48.0029 291H28.0029V311H48.0029V291Z" fill="white"/>
</mask>
<g mask="url(#mask0_129_1335)">
<path d="M38.2573 291.15C38.503 291.15 38.7438 291.219 38.9523 291.349C39.1609 291.479 39.3289 291.665 39.4373 291.885L43.5472 300.095L47.8723 308.75C47.96 308.925 48.0079 309.116 48.0127 309.311C48.0176 309.506 47.9792 309.699 47.9004 309.878C47.8214 310.056 47.704 310.215 47.5565 310.342C47.409 310.47 47.2351 310.563 47.0473 310.615L46.9623 310.635C46.9031 310.649 46.8429 310.657 46.7822 310.66H46.6923L38.2523 308.995L32.9723 300.095L37.0723 291.885C37.1819 291.664 37.3515 291.477 37.5619 291.347C37.7723 291.217 38.015 291.149 38.2623 291.15H38.2573Z" fill="url(#paint1_linear_129_1335)"/>
<path d="M38.2583 291.15C38.504 291.15 38.7448 291.219 38.9534 291.349C39.162 291.479 39.33 291.665 39.4383 291.885L43.5483 300.095L38.2533 308.99L29.8283 310.665C29.6023 310.667 29.3798 310.61 29.1821 310.5C28.9844 310.391 28.8181 310.232 28.6991 310.04C28.5802 309.848 28.5126 309.628 28.5029 309.402C28.4931 309.177 28.5415 308.952 28.6433 308.75L32.9733 300.1L37.0733 291.885C37.1829 291.664 37.3526 291.477 37.563 291.347C37.7734 291.217 38.016 291.149 38.2633 291.15H38.2583Z" fill="url(#paint2_linear_129_1335)"/>
<path d="M38.2573 291.15C38.503 291.15 38.7438 291.219 38.9523 291.349C39.1609 291.479 39.3289 291.665 39.4373 291.885L43.5472 300.095C43.5472 300.095 40.1181 309.077 38.3874 309.077C36.6566 309.077 32.9723 300.095 32.9723 300.095L37.0723 291.885C37.1747 291.677 37.3304 291.499 37.5235 291.37C37.7167 291.241 37.9404 291.165 38.1723 291.15H38.2573Z" fill="url(#paint3_linear_129_1335)"/>
</g>
<path d="M56.9729 305.67H54.1929L53.7329 307H52.2629L54.7729 300.01H56.4029L58.9129 307H57.4329L56.9729 305.67ZM56.5929 304.55L55.5829 301.63L54.5729 304.55H56.5929ZM59.4911 304.21C59.4911 303.65 59.6011 303.153 59.8211 302.72C60.0478 302.287 60.3545 301.953 60.7411 301.72C61.1278 301.487 61.5578 301.37 62.0311 301.37C62.3911 301.37 62.7345 301.45 63.0611 301.61C63.3878 301.763 63.6478 301.97 63.8411 302.23V299.6H65.2611V307H63.8411V306.18C63.6678 306.453 63.4245 306.673 63.1111 306.84C62.7978 307.007 62.4345 307.09 62.0211 307.09C61.5545 307.09 61.1278 306.97 60.7411 306.73C60.3545 306.49 60.0478 306.153 59.8211 305.72C59.6011 305.28 59.4911 304.777 59.4911 304.21ZM63.8511 304.23C63.8511 303.89 63.7845 303.6 63.6511 303.36C63.5178 303.113 63.3378 302.927 63.1111 302.8C62.8845 302.667 62.6411 302.6 62.3811 302.6C62.1211 302.6 61.8811 302.663 61.6611 302.79C61.4411 302.917 61.2611 303.103 61.1211 303.35C60.9878 303.59 60.9211 303.877 60.9211 304.21C60.9211 304.543 60.9878 304.837 61.1211 305.09C61.2611 305.337 61.4411 305.527 61.6611 305.66C61.8878 305.793 62.1278 305.86 62.3811 305.86C62.6411 305.86 62.8845 305.797 63.1111 305.67C63.3378 305.537 63.5178 305.35 63.6511 305.11C63.7845 304.863 63.8511 304.57 63.8511 304.23ZM66.2685 304.21C66.2685 303.65 66.3785 303.153 66.5985 302.72C66.8251 302.287 67.1285 301.953 67.5085 301.72C67.8951 301.487 68.3251 301.37 68.7985 301.37C69.2118 301.37 69.5718 301.453 69.8785 301.62C70.1918 301.787 70.4418 301.997 70.6285 302.25V301.46H72.0385V307H70.6285V306.19C70.4485 306.45 70.1985 306.667 69.8785 306.84C69.5651 307.007 69.2018 307.09 68.7885 307.09C68.3218 307.09 67.8951 306.97 67.5085 306.73C67.1285 306.49 66.8251 306.153 66.5985 305.72C66.3785 305.28 66.2685 304.777 66.2685 304.21ZM70.6285 304.23C70.6285 303.89 70.5618 303.6 70.4285 303.36C70.2951 303.113 70.1151 302.927 69.8885 302.8C69.6618 302.667 69.4185 302.6 69.1585 302.6C68.8985 302.6 68.6585 302.663 68.4385 302.79C68.2185 302.917 68.0385 303.103 67.8985 303.35C67.7651 303.59 67.6985 303.877 67.6985 304.21C67.6985 304.543 67.7651 304.837 67.8985 305.09C68.0385 305.337 68.2185 305.527 68.4385 305.66C68.6651 305.793 68.9051 305.86 69.1585 305.86C69.4185 305.86 69.6618 305.797 69.8885 305.67C70.1151 305.537 70.2951 305.35 70.4285 305.11C70.5618 304.863 70.6285 304.57 70.6285 304.23ZM74.8058 302.26C74.9858 302.007 75.2325 301.797 75.5458 301.63C75.8658 301.457 76.2292 301.37 76.6358 301.37C77.1092 301.37 77.5358 301.487 77.9158 301.72C78.3025 301.953 78.6058 302.287 78.8258 302.72C79.0525 303.147 79.1658 303.643 79.1658 304.21C79.1658 304.777 79.0525 305.28 78.8258 305.72C78.6058 306.153 78.3025 306.49 77.9158 306.73C77.5358 306.97 77.1092 307.09 76.6358 307.09C76.2292 307.09 75.8692 307.007 75.5558 306.84C75.2492 306.673 74.9992 306.463 74.8058 306.21V309.64H73.4058V301.46H74.8058V302.26ZM77.7358 304.21C77.7358 303.877 77.6658 303.59 77.5258 303.35C77.3925 303.103 77.2125 302.917 76.9858 302.79C76.7658 302.663 76.5258 302.6 76.2658 302.6C76.0125 302.6 75.7725 302.667 75.5458 302.8C75.3258 302.927 75.1458 303.113 75.0058 303.36C74.8725 303.607 74.8058 303.897 74.8058 304.23C74.8058 304.563 74.8725 304.853 75.0058 305.1C75.1458 305.347 75.3258 305.537 75.5458 305.67C75.7725 305.797 76.0125 305.86 76.2658 305.86C76.5258 305.86 76.7658 305.793 76.9858 305.66C77.2125 305.527 77.3925 305.337 77.5258 305.09C77.6658 304.843 77.7358 304.55 77.7358 304.21ZM81.8132 302.61V305.29C81.8132 305.477 81.8565 305.613 81.9432 305.7C82.0365 305.78 82.1898 305.82 82.4032 305.82H83.0532V307H82.1732C80.9932 307 80.4032 306.427 80.4032 305.28V302.61H79.7432V301.46H80.4032V300.09H81.8132V301.46H83.0532V302.61H81.8132ZM84.7701 300.8C84.5235 300.8 84.3168 300.723 84.1501 300.57C83.9901 300.41 83.9101 300.213 83.9101 299.98C83.9101 299.747 83.9901 299.553 84.1501 299.4C84.3168 299.24 84.5235 299.16 84.7701 299.16C85.0168 299.16 85.2201 299.24 85.3801 299.4C85.5468 299.553 85.6301 299.747 85.6301 299.98C85.6301 300.213 85.5468 300.41 85.3801 300.57C85.2201 300.723 85.0168 300.8 84.7701 300.8ZM85.4601 301.46V307H84.0601V301.46H85.4601ZM89.1533 305.71L90.5533 301.46H92.0433L89.9933 307H88.2933L86.2533 301.46H87.7533L89.1533 305.71ZM93.5396 300.8C93.293 300.8 93.0863 300.723 92.9196 300.57C92.7596 300.41 92.6796 300.213 92.6796 299.98C92.6796 299.747 92.7596 299.553 92.9196 299.4C93.0863 299.24 93.293 299.16 93.5396 299.16C93.7863 299.16 93.9896 299.24 94.1496 299.4C94.3163 299.553 94.3996 299.747 94.3996 299.98C94.3996 300.213 94.3163 300.41 94.1496 300.57C93.9896 300.723 93.7863 300.8 93.5396 300.8ZM94.2296 301.46V307H92.8296V301.46H94.2296ZM98.6829 301.38C99.3429 301.38 99.8762 301.59 100.283 302.01C100.69 302.423 100.893 303.003 100.893 303.75V307H99.4929V303.94C99.4929 303.5 99.3829 303.163 99.1629 302.93C98.9429 302.69 98.6429 302.57 98.2629 302.57C97.8762 302.57 97.5695 302.69 97.3429 302.93C97.1229 303.163 97.0129 303.5 97.0129 303.94V307H95.6129V301.46H97.0129V302.15C97.1995 301.91 97.4362 301.723 97.7229 301.59C98.0162 301.45 98.3362 301.38 98.6829 301.38Z" fill="#BB5D57"/>
<path d="M236.994 167.994H229.014V199.965H236.994V167.994Z" fill="#BB5D57"/>
<path d="M236.994 111.979H229.014V144.003H236.994V111.979Z" fill="#BB5D57"/>
<path d="M229.012 199.965H220.98V215.977H229.012V199.965Z" fill="#BB5D57"/>
<path d="M229.012 144.003H220.98V167.994H229.012V144.003Z" fill="#BB5D57"/>
<path d="M220.977 215.977H212.998V223.956H220.977V215.977Z" fill="#BB5D57"/>
<path d="M220.977 135.971H212.998V144.003H220.977V135.971Z" fill="#BB5D57"/>
<path d="M213 223.956H205.021V231.988H213V223.956Z" fill="#BB5D57"/>
<path d="M213 127.991H205.021V135.971H213V127.991Z" fill="#BB5D57"/>
<path d="M229.014 104H189.011V111.98H229.014V104Z" fill="#BB5D57"/>
<path d="M205.019 231.988H181.028V239.968H205.019V231.988Z" fill="#BB5D57"/>
<path d="M189.007 111.979H181.028V119.959H189.007V111.979Z" fill="#BB5D57"/>
<path d="M181.031 176H125.016V183.98H117.037V208.023H125.016V216.003H181.031V208.023H189.011V183.98H181.031V176ZM149.008 208.023H132.996V192.012H149.008V208.023ZM172.999 208.023H156.987V192.012H172.999V208.023Z" fill="#C3565A"/>
<path d="M181.027 239.968H125.013V248H181.027V239.968Z" fill="#BB5D57"/>
<path d="M172.997 159.962H165.018V167.994H172.997V159.962Z" fill="#50140A"/>
<path d="M141.028 159.962H132.996V167.994H141.028V159.962Z" fill="#50140A"/>
<path d="M173.001 154H165.021V162.032H173.001V154Z" fill="#50140A"/>
<path d="M141.032 154H133V162.032H141.032V154Z" fill="#50140A"/>
<path d="M125.032 208H117V216.032H125.032V208Z" fill="#CD6F6D"/>
<path d="M189.032 208H181V216.032H189.032V208Z" fill="#CD6F6D"/>
<path d="M163 192H157V208H163V192Z" fill="#521407"/>
<path d="M173 192H163V208H173V192Z" fill="#F0C4BE"/>
<path d="M139 192H133V208H139V192Z" fill="#521407"/>
<path d="M149 192H139V208H149V192Z" fill="#F0C4BE"/>
<path d="M180 216H125V222H180V216Z" fill="#CD6F6D"/>
<path d="M181.027 104H125.013V111.98H181.027V104Z" fill="#BB5D57"/>
<path d="M125.013 231.988H101.022V239.968H125.013V231.988Z" fill="#BB5D57"/>
<path d="M125.016 111.979H117.037V119.959H125.016V111.979Z" fill="#BB5D57"/>
<path d="M101.025 223.956H92.9932V231.988H101.025V223.956Z" fill="#BB5D57"/>
<path d="M101.025 127.991H92.9932V135.971H101.025V127.991Z" fill="#BB5D57"/>
<path d="M92.9904 215.977H85.0109V223.956H92.9904V215.977Z" fill="#BB5D57"/>
<path d="M92.9904 135.971H85.0109V144.003H92.9904V135.971Z" fill="#BB5D57"/>
<path d="M117.036 104H77.0328V111.98H117.036V104Z" fill="#BB5D57"/>
<path d="M85.0124 199.965H77.0328V215.977H85.0124V199.965Z" fill="#BB5D57"/>
<path d="M85.0124 144.003H77.0328V167.994H85.0124V144.003Z" fill="#BB5D57"/>
<path d="M77.0321 167.994H69V199.965H77.0321V167.994Z" fill="#BB5D57"/>
<path d="M77.0321 111.979H69V144.003H77.0321V111.979Z" fill="#BB5D57"/>
<path d="M277.794 264.222L274.855 263.561L272.225 275.259L275.164 275.919L277.794 264.222Z" fill="#000001"/>
<path d="M272.226 275.259L269.306 274.602L267.332 283.38L270.252 284.037L272.226 275.259Z" fill="#000001"/>
<path d="M267.331 283.38L264.412 282.723L261.777 294.44L264.696 295.096L267.331 283.38Z" fill="#000001"/>
<path d="M261.776 294.44L258.837 293.779L256.207 305.476L259.146 306.137L261.776 294.44Z" fill="#000001"/>
<path d="M263.158 260.93L274.855 263.561L275.516 260.622L263.819 257.991L265.136 252.133L262.197 251.472L249.688 307.098L255.546 308.415L256.207 305.477L253.287 304.82L263.158 260.93Z" fill="#000001"/>
<path d="M249.687 307.098L214.576 299.202L213.919 302.121L249.031 310.017L249.687 307.098Z" fill="#000001"/>
<path d="M248.747 297.644L245.827 296.988L244.51 302.846L247.429 303.503L248.747 297.644Z" fill="#000001"/>
<path d="M244.289 262.821L238.43 261.504L237.113 267.362L231.254 266.045L229.937 271.903L235.795 273.221L235.139 276.14L232.2 275.479L231.539 278.418L243.256 281.053L243.917 278.114L240.997 277.458L241.654 274.538L247.493 275.851L248.81 269.993L242.971 268.68L244.289 262.821Z" fill="#FF0000"/>
<path d="M232.283 247.832L229.345 247.171L228.027 253.03L230.966 253.691L232.283 247.832Z" fill="#000001"/>
<path d="M262.853 248.552L227.741 240.656L227.085 243.576L262.197 251.472L262.853 248.552Z" fill="#000001"/>
<path d="M227.086 243.576L224.166 242.92L211.657 298.546L214.576 299.202L227.086 243.576Z" fill="#000001"/>
<defs>
<linearGradient id="paint0_linear_129_1335" x1="-43.5" y1="-67.5" x2="310.5" y2="401.5" gradientUnits="userSpaceOnUse">
<stop stop-color="#FFF2EB"/>
</linearGradient>
<linearGradient id="paint1_linear_129_1335" x1="40.4927" y1="291.15" x2="40.4927" y2="310.66" gradientUnits="userSpaceOnUse">
<stop stop-color="#BB5D57"/>
</linearGradient>
<linearGradient id="paint2_linear_129_1335" x1="46.1166" y1="287.792" x2="30.2676" y2="310.057" gradientUnits="userSpaceOnUse">
<stop stop-color="#BB5D57"/>
</linearGradient>
<linearGradient id="paint3_linear_129_1335" x1="38.1914" y1="286.283" x2="38.1914" y2="309.113" gradientUnits="userSpaceOnUse">
<stop stop-color="#BB5D57"/>
</linearGradient>
</defs>
</svg>
