<svg width="293" height="328" viewBox="0 0 293 328" fill="none" xmlns="http://www.w3.org/2000/svg">
<rect width="293" height="328" rx="20" fill="url(#paint0_linear_129_879)"/>
<path d="M15 37V16H21V19H24V22H27V19H30V16H36V37H30V25H27V31H24V25H21V37H15ZM39 37V22H42V19H45V16H54V19H57V22H60V37H54V31H45V37H39ZM45 28H54V22H51V19H48V22H45V28ZM66 37V34H63V31H69V34H78V28H66V25H63V19H66V16H81V19H84V22H78V19H69V25H81V28H84V34H81V37H66ZM21 61V58H18V55H15V46H18V43H21V40H36V43H24V46H21V55H24V58H30V52H27V49H36V61H21ZM42 61V58H39V40H45V52H48V40H51V52H54V40H60V58H57V61H54V58H51V55H48V58H45V61H42ZM63 61V40H84V43H69V49H81V52H69V58H84V61H63ZM87 61V40H105V43H108V49H105V52H108V58H105V61H87ZM93 49H102V43H93V49ZM93 58H102V52H93V58ZM111 61V40H132V43H117V49H129V52H117V58H132V61H111ZM135 61V40H141V49H144V46H147V43H150V40H156V43H153V46H150V49H147V52H150V55H153V58H156V61H147V58H144V55H141V61H135Z" fill="#8FBD41"/>
<mask id="mask0_129_879" style="mask-type:luminance" maskUnits="userSpaceOnUse" x="27" y="290" width="20" height="20">
<path d="M47 290H27V310H47V290Z" fill="white"/>
</mask>
<g mask="url(#mask0_129_879)">
<path d="M37.2544 290.15C37.5001 290.15 37.7409 290.219 37.9494 290.349C38.158 290.479 38.326 290.665 38.4344 290.885L42.5443 299.095L46.8694 307.75C46.9571 307.925 47.005 308.116 47.0098 308.311C47.0147 308.506 46.9763 308.699 46.8975 308.878C46.8185 309.056 46.7011 309.215 46.5536 309.342C46.4061 309.47 46.2322 309.563 46.0444 309.615L45.9594 309.635C45.9002 309.649 45.84 309.657 45.7793 309.66H45.6894L37.2494 307.995L31.9694 299.095L36.0694 290.885C36.179 290.664 36.3486 290.477 36.559 290.347C36.7694 290.217 37.0121 290.149 37.2594 290.15H37.2544Z" fill="url(#paint1_linear_129_879)"/>
<path d="M37.2555 290.15C37.5012 290.15 37.742 290.219 37.9506 290.349C38.1591 290.479 38.3271 290.665 38.4355 290.885L42.5455 299.095L37.2505 307.99L28.8255 309.665C28.5995 309.667 28.377 309.61 28.1792 309.5C27.9815 309.391 27.8152 309.232 27.6963 309.04C27.5774 308.848 27.5098 308.628 27.5 308.402C27.4902 308.177 27.5386 307.952 27.6405 307.75L31.9705 299.1L36.0705 290.885C36.1801 290.664 36.3497 290.477 36.5601 290.347C36.7705 290.217 37.0132 290.149 37.2605 290.15H37.2555Z" fill="url(#paint2_linear_129_879)"/>
<path d="M37.2544 290.15C37.5001 290.15 37.7409 290.219 37.9494 290.349C38.158 290.479 38.326 290.665 38.4344 290.885L42.5443 299.095C42.5443 299.095 39.1152 308.077 37.3845 308.077C35.6537 308.077 31.9694 299.095 31.9694 299.095L36.0694 290.885C36.1718 290.677 36.3275 290.499 36.5206 290.37C36.7138 290.241 36.9375 290.165 37.1694 290.15H37.2544Z" fill="url(#paint3_linear_129_879)"/>
</g>
<path d="M55.97 304.67H53.19L52.73 306H51.26L53.77 299.01H55.4L57.91 306H56.43L55.97 304.67ZM55.59 303.55L54.58 300.63L53.57 303.55H55.59ZM58.4882 303.21C58.4882 302.65 58.5982 302.153 58.8182 301.72C59.0449 301.287 59.3515 300.953 59.7382 300.72C60.1249 300.487 60.5549 300.37 61.0282 300.37C61.3882 300.37 61.7315 300.45 62.0582 300.61C62.3849 300.763 62.6449 300.97 62.8382 301.23V298.6H64.2582V306H62.8382V305.18C62.6649 305.453 62.4215 305.673 62.1082 305.84C61.7949 306.007 61.4315 306.09 61.0182 306.09C60.5515 306.09 60.1249 305.97 59.7382 305.73C59.3515 305.49 59.0449 305.153 58.8182 304.72C58.5982 304.28 58.4882 303.777 58.4882 303.21ZM62.8482 303.23C62.8482 302.89 62.7815 302.6 62.6482 302.36C62.5149 302.113 62.3349 301.927 62.1082 301.8C61.8815 301.667 61.6382 301.6 61.3782 301.6C61.1182 301.6 60.8782 301.663 60.6582 301.79C60.4382 301.917 60.2582 302.103 60.1182 302.35C59.9849 302.59 59.9182 302.877 59.9182 303.21C59.9182 303.543 59.9849 303.837 60.1182 304.09C60.2582 304.337 60.4382 304.527 60.6582 304.66C60.8849 304.793 61.1249 304.86 61.3782 304.86C61.6382 304.86 61.8815 304.797 62.1082 304.67C62.3349 304.537 62.5149 304.35 62.6482 304.11C62.7815 303.863 62.8482 303.57 62.8482 303.23ZM65.2655 303.21C65.2655 302.65 65.3755 302.153 65.5955 301.72C65.8222 301.287 66.1255 300.953 66.5055 300.72C66.8922 300.487 67.3222 300.37 67.7955 300.37C68.2089 300.37 68.5689 300.453 68.8755 300.62C69.1889 300.787 69.4389 300.997 69.6255 301.25V300.46H71.0355V306H69.6255V305.19C69.4455 305.45 69.1955 305.667 68.8755 305.84C68.5622 306.007 68.1989 306.09 67.7855 306.09C67.3189 306.09 66.8922 305.97 66.5055 305.73C66.1255 305.49 65.8222 305.153 65.5955 304.72C65.3755 304.28 65.2655 303.777 65.2655 303.21ZM69.6255 303.23C69.6255 302.89 69.5589 302.6 69.4255 302.36C69.2922 302.113 69.1122 301.927 68.8855 301.8C68.6589 301.667 68.4155 301.6 68.1555 301.6C67.8955 301.6 67.6555 301.663 67.4355 301.79C67.2155 301.917 67.0355 302.103 66.8955 302.35C66.7622 302.59 66.6955 302.877 66.6955 303.21C66.6955 303.543 66.7622 303.837 66.8955 304.09C67.0355 304.337 67.2155 304.527 67.4355 304.66C67.6622 304.793 67.9022 304.86 68.1555 304.86C68.4155 304.86 68.6589 304.797 68.8855 304.67C69.1122 304.537 69.2922 304.35 69.4255 304.11C69.5589 303.863 69.6255 303.57 69.6255 303.23ZM73.8029 301.26C73.9829 301.007 74.2296 300.797 74.5429 300.63C74.8629 300.457 75.2262 300.37 75.6329 300.37C76.1062 300.37 76.5329 300.487 76.9129 300.72C77.2996 300.953 77.6029 301.287 77.8229 301.72C78.0496 302.147 78.1629 302.643 78.1629 303.21C78.1629 303.777 78.0496 304.28 77.8229 304.72C77.6029 305.153 77.2996 305.49 76.9129 305.73C76.5329 305.97 76.1062 306.09 75.6329 306.09C75.2262 306.09 74.8662 306.007 74.5529 305.84C74.2462 305.673 73.9962 305.463 73.8029 305.21V308.64H72.4029V300.46H73.8029V301.26ZM76.7329 303.21C76.7329 302.877 76.6629 302.59 76.5229 302.35C76.3896 302.103 76.2096 301.917 75.9829 301.79C75.7629 301.663 75.5229 301.6 75.2629 301.6C75.0096 301.6 74.7696 301.667 74.5429 301.8C74.3229 301.927 74.1429 302.113 74.0029 302.36C73.8696 302.607 73.8029 302.897 73.8029 303.23C73.8029 303.563 73.8696 303.853 74.0029 304.1C74.1429 304.347 74.3229 304.537 74.5429 304.67C74.7696 304.797 75.0096 304.86 75.2629 304.86C75.5229 304.86 75.7629 304.793 75.9829 304.66C76.2096 304.527 76.3896 304.337 76.5229 304.09C76.6629 303.843 76.7329 303.55 76.7329 303.21ZM80.8102 301.61V304.29C80.8102 304.477 80.8536 304.613 80.9402 304.7C81.0336 304.78 81.1869 304.82 81.4002 304.82H82.0502V306H81.1702C79.9902 306 79.4002 305.427 79.4002 304.28V301.61H78.7402V300.46H79.4002V299.09H80.8102V300.46H82.0502V301.61H80.8102ZM83.7672 299.8C83.5205 299.8 83.3139 299.723 83.1472 299.57C82.9872 299.41 82.9072 299.213 82.9072 298.98C82.9072 298.747 82.9872 298.553 83.1472 298.4C83.3139 298.24 83.5205 298.16 83.7672 298.16C84.0139 298.16 84.2172 298.24 84.3772 298.4C84.5439 298.553 84.6272 298.747 84.6272 298.98C84.6272 299.213 84.5439 299.41 84.3772 299.57C84.2172 299.723 84.0139 299.8 83.7672 299.8ZM84.4572 300.46V306H83.0572V300.46H84.4572ZM88.1504 304.71L89.5504 300.46H91.0404L88.9904 306H87.2904L85.2504 300.46H86.7504L88.1504 304.71ZM92.5367 299.8C92.2901 299.8 92.0834 299.723 91.9167 299.57C91.7567 299.41 91.6767 299.213 91.6767 298.98C91.6767 298.747 91.7567 298.553 91.9167 298.4C92.0834 298.24 92.2901 298.16 92.5367 298.16C92.7834 298.16 92.9867 298.24 93.1467 298.4C93.3134 298.553 93.3967 298.747 93.3967 298.98C93.3967 299.213 93.3134 299.41 93.1467 299.57C92.9867 299.723 92.7834 299.8 92.5367 299.8ZM93.2267 300.46V306H91.8267V300.46H93.2267ZM97.6799 300.38C98.3399 300.38 98.8733 300.59 99.2799 301.01C99.6866 301.423 99.8899 302.003 99.8899 302.75V306H98.4899V302.94C98.4899 302.5 98.3799 302.163 98.1599 301.93C97.9399 301.69 97.6399 301.57 97.2599 301.57C96.8733 301.57 96.5666 301.69 96.3399 301.93C96.1199 302.163 96.0099 302.5 96.0099 302.94V306H94.6099V300.46H96.0099V301.15C96.1966 300.91 96.4333 300.723 96.7199 300.59C97.0133 300.45 97.3333 300.38 97.6799 300.38Z" fill="#8FBD41"/>
<path d="M227.064 177.485H219.034V217.742H227.064V177.485Z" fill="#8FBD41"/>
<path d="M219.033 217.742H210.949V233.803H219.033V217.742Z" fill="#8FBD41"/>
<path d="M219.033 169.401H210.949V177.485H219.033V169.401Z" fill="#8FBD41"/>
<path d="M219.033 121.114H210.949V161.371H219.033V121.114Z" fill="#8FBD41"/>
<path d="M210.947 233.803H202.916V241.886H210.947V233.803Z" fill="#8FBD41"/>
<path d="M210.947 161.371H202.916V169.401H210.947V161.371Z" fill="#8FBD41"/>
<path d="M210.947 113.083H202.916V121.113H210.947V113.083Z" fill="#8FBD41"/>
<path d="M202.915 129.144H194.885V121.114H170.741V129.144H162.657V153.341H170.741V161.371H194.885V153.341H202.915V129.144ZM186.801 137.227H178.771V129.144H186.801V137.227Z" fill="black"/>
<path d="M202.918 241.887H186.804V249.917H202.918V241.887Z" fill="#8FBD41"/>
<path d="M186.805 249.917H98.2599V258H186.805V249.917Z" fill="#8FBD41"/>
<path d="M202.915 105H162.657V113.083H202.915V105Z" fill="#8FBD41"/>
<path d="M178.002 181H172.002V188H178.002V181Z" fill="black"/>
<path d="M182.002 181H178.002V200H182.002V181Z" fill="black"/>
<path d="M104.002 181H100.002V200H104.002V181Z" fill="black"/>
<path d="M109.002 181H104.002V188H109.002V181Z" fill="black"/>
<path d="M109.002 199H103.002V204H109.002V199Z" fill="black"/>
<path d="M178.002 200H172.002V205H178.002V200Z" fill="black"/>
<path d="M172.002 205H166.002V210H172.002V205Z" fill="black"/>
<path d="M166.002 208H160.002V213H166.002V208Z" fill="black"/>
<path d="M115.002 203H109.002V208H115.002V203Z" fill="black"/>
<path d="M121.002 208H115.002V213H121.002V208Z" fill="black"/>
<path d="M162.002 212H121.002V217H162.002V212Z" fill="black"/>
<path d="M162.66 113.083H154.63V121.113H162.66V113.083Z" fill="#8FBD41"/>
<path d="M154.628 161.371H146.545V169.401H154.628V161.371Z" fill="#8FBD41"/>
<path d="M154.628 121.114H146.545V137.227H154.628V121.114Z" fill="#8FBD41"/>
<path d="M157.059 186H141.059V191H157.059V186Z" fill="black"/>
<path d="M172.059 186H156.059V191H172.059V186Z" fill="black"/>
<path d="M141.059 186H125.059V191H141.059V186Z" fill="black"/>
<path d="M155.002 191H129.002V194H155.002V191Z" fill="white"/>
<path d="M129.002 191H125.002V194H129.002V191Z" fill="#E6E5E3"/>
<path d="M109.002 188H104.002V199H109.002V188Z" fill="#6C0204"/>
<path d="M115.002 191H109.002V203H115.002V191Z" fill="#6C0204"/>
<path d="M121.002 191H115.002V208H121.002V191Z" fill="#6C0204"/>
<path d="M127.002 194H121.002V212H127.002V194Z" fill="#920C10"/>
<path d="M127.002 194L127.002 200L155.002 200L155.002 194L127.002 194Z" fill="#920C10"/>
<path d="M127.002 200L127.002 212L155.002 212L155.002 200L127.002 200Z" fill="#C61A32"/>
<path d="M160.002 193H155.002V212H160.002V193Z" fill="#920C10"/>
<path d="M125.002 191H121.002V194H125.002V191Z" fill="#6C0204"/>
<path d="M166.002 191H172.002V205H166.002V191Z" fill="#6C0204"/>
<path d="M160.002 191H166.002V208H160.002V191Z" fill="#6C0204"/>
<path d="M178.002 188H172.002V200H178.002V188Z" fill="#6C0204"/>
<path d="M160.002 191H155.002V194H160.002V191Z" fill="#E6E5E3"/>
<path d="M125.059 186H109.059V191H125.059V186Z" fill="black"/>
<path d="M146.548 137.227H138.517V145.257H146.548V137.227Z" fill="#8FBD41"/>
<path d="M138.515 161.371H130.484V169.401H138.515V161.371Z" fill="#8FBD41"/>
<path d="M106.032 129H98.002V137.03H106.032V129Z" fill="white"/>
<path d="M106.032 129H98.002V137.03H106.032V129Z" fill="white"/>
<path d="M106.032 129H98.002V137.03H106.032V129Z" fill="white"/>
<path d="M187.032 129H179.002V137.03H187.032V129Z" fill="white"/>
<path d="M187.032 129H179.002V137.03H187.032V129Z" fill="white"/>
<path d="M187.032 129H179.002V137.03H187.032V129Z" fill="white"/>
<path d="M138.515 121.114H130.484V137.227H138.515V121.114Z" fill="#8FBD41"/>
<path d="M130.488 113.083H122.405V121.113H130.488V113.083Z" fill="#8FBD41"/>
<path d="M114.374 121.114H90.2295V129.144H82.1463V153.341H90.2295V161.371H114.374V153.341H122.404V129.144H114.374V121.114ZM106.343 137.227H98.2599V129.144H106.343V137.227Z" fill="black"/>
<path d="M98.2599 241.887H82.1463V249.917H98.2599V241.887Z" fill="#8FBD41"/>
<path d="M122.404 105H82.1463V113.083H122.404V105Z" fill="#8FBD41"/>
<path d="M82.1436 233.803H74.1132V241.886H82.1436V233.803Z" fill="#8FBD41"/>
<path d="M82.1436 161.371H74.1132V169.401H82.1436V161.371Z" fill="#8FBD41"/>
<path d="M82.1436 113.083H74.1132V121.113H82.1436V113.083Z" fill="#8FBD41"/>
<path d="M74.1159 217.742H66.0855V233.803H74.1159V217.742Z" fill="#8FBD41"/>
<path d="M74.1159 169.401H66.0855V177.485H74.1159V169.401Z" fill="#8FBD41"/>
<path d="M74.1159 121.114H66.0855V161.371H74.1159V121.114Z" fill="#8FBD41"/>
<path d="M66.0842 177.485H58.001V217.742H66.0842V177.485Z" fill="#8FBD41"/>
<g clip-path="url(#clip0_129_879)">
<path d="M277.001 314.034H272.773V326.744H277.001V314.034Z" fill="#956659"/>
<path d="M272.774 309.807H268.519V314.034H272.774V309.807Z" fill="#956659"/>
<path d="M268.519 275.904H272.774V258.938H277.001V254.71H264.291V258.938H268.519V275.904Z" fill="#1F7D53"/>
<path d="M272.773 326.745H192.228V331H272.773V326.745Z" fill="#1F7D53"/>
<path d="M268.519 275.903H264.291V280.131H268.519V275.903Z" fill="#1F7D53"/>
<path d="M264.291 318.29H260.035V322.517H264.291V318.29Z" fill="#956659"/>
<path d="M268.518 305.552H255.808V309.807H268.518V305.552Z" fill="#956659"/>
<path d="M264.291 280.131H260.035V284.386H264.291V280.131Z" fill="#1F7D53"/>
<path d="M264.291 258.938H255.808V263.193H264.291V258.938Z" fill="#1F7D53"/>
<path d="M260.035 271.648H251.58V275.903H260.035V271.648Z" fill="#1F7D53"/>
<path d="M255.808 309.807H251.58V314.034H255.808V309.807Z" fill="#956659"/>
<path d="M255.808 263.193H247.325V267.421H255.808V263.193Z" fill="#1F7D53"/>
<path d="M251.58 301.324H247.325V309.807H251.58V301.324Z" fill="#956659"/>
<path d="M260.035 284.386H247.325V288.614H260.035V284.386Z" fill="#1F7D53"/>
<path d="M251.58 275.903H247.325V280.131H251.58V275.903Z" fill="#1F7D53"/>
<path d="M247.325 280.131H243.098V284.386H247.325V280.131Z" fill="#1F7D53"/>
<path d="M247.325 267.42H243.098V271.648H247.325V267.42Z" fill="#1F7D53"/>
<path d="M247.325 314.034H238.842V322.517H247.325V314.034Z" fill="#956659"/>
<path d="M247.325 297.097H238.842V301.324H247.325V297.097Z" fill="#956659"/>
<path d="M243.097 271.648H238.842V280.131H243.097V271.648Z" fill="#1F7D53"/>
<path d="M238.842 305.552H234.614V309.807H238.842V305.552Z" fill="#956659"/>
<path d="M238.842 292.841H234.615V288.614H243.098V284.386H234.615V267.42H230.387V275.903H226.132V280.131H230.387V292.841H226.132V297.096H238.842V292.841Z" fill="#956659"/>
<path d="M230.387 258.938H226.132V267.421H230.387V258.938Z" fill="#1F7D53"/>
<path d="M230.387 305.552H221.904V314.035H230.387V305.552Z" fill="#956659"/>
<path d="M226.132 297.097H217.677V301.324H226.132V297.097Z" fill="#956659"/>
<path d="M226.132 271.648H221.904V275.903H226.132V271.648Z" fill="#1F7D53"/>
<path d="M226.132 254.71H221.904V258.938H226.132V254.71Z" fill="#1F7D53"/>
<path d="M226.132 280.131H213.422V284.386H226.132V280.131Z" fill="#1F7D53"/>
<path d="M221.904 267.42H217.677V271.648H221.904V267.42Z" fill="#1F7D53"/>
<path d="M221.904 250.483H217.677V254.71H221.904V250.483Z" fill="#1F7D53"/>
<path d="M217.677 318.29H213.422V322.517H217.677V318.29Z" fill="#956659"/>
<path d="M217.677 301.324H213.422V309.807H217.677V301.324Z" fill="#956659"/>
<path d="M217.677 263.193H213.422V267.421H217.677V263.193Z" fill="#1F7D53"/>
<path d="M213.422 309.807H209.194V314.034H213.422V309.807Z" fill="#956659"/>
<path d="M213.422 275.903H209.194V280.131H213.422V275.903Z" fill="#1F7D53"/>
<path d="M213.422 258.938H209.194V263.193H213.422V258.938Z" fill="#1F7D53"/>
<path d="M217.677 246.228H209.194V250.483H217.677V246.228Z" fill="#1F7D53"/>
<path d="M209.194 271.648H204.938V275.903H209.194V271.648Z" fill="#1F7D53"/>
<path d="M209.194 254.71H204.938V258.938H209.194V254.71Z" fill="#1F7D53"/>
<path d="M204.938 318.29H200.711V322.517H204.938V318.29Z" fill="#956659"/>
<path d="M209.194 305.552H196.483V309.807H209.194V305.552Z" fill="#956659"/>
<path d="M204.938 263.193H200.711V271.648H204.938V263.193Z" fill="#1F7D53"/>
<path d="M200.711 254.71H196.483V263.193H200.711V254.71Z" fill="#1F7D53"/>
<path d="M209.194 242H192.228V246.227H209.194V242Z" fill="#1F7D53"/>
<path d="M196.484 309.807H192.228V314.034H196.484V309.807Z" fill="#956659"/>
<path d="M196.484 250.483H192.228V254.71H196.484V250.483Z" fill="#1F7D53"/>
<path d="M192.228 314.034H188.001V326.744H192.228V314.034Z" fill="#956659"/>
<path d="M192.228 246.228H188.001V250.483H192.228V246.228Z" fill="#1F7D53"/>
</g>
<defs>
<linearGradient id="paint0_linear_129_879" x1="21.5" y1="-1.46509e-06" x2="282.5" y2="343" gradientUnits="userSpaceOnUse">
<stop stop-color="#E1EEBC"/>
<stop offset="1" stop-color="#E4E4E4"/>
</linearGradient>
<linearGradient id="paint1_linear_129_879" x1="39.4898" y1="290.15" x2="39.4898" y2="309.66" gradientUnits="userSpaceOnUse">
<stop stop-color="#8FBD41"/>
</linearGradient>
<linearGradient id="paint2_linear_129_879" x1="45.1138" y1="286.792" x2="29.2647" y2="309.057" gradientUnits="userSpaceOnUse">
<stop stop-color="#8FBD41"/>
</linearGradient>
<linearGradient id="paint3_linear_129_879" x1="37.1885" y1="285.283" x2="37.1885" y2="308.113" gradientUnits="userSpaceOnUse">
<stop stop-color="#8FBD41"/>
</linearGradient>
<clipPath id="clip0_129_879">
<rect width="89" height="85" fill="white" transform="translate(188.001 242)"/>
</clipPath>
</defs>
</svg>
