<svg width="295" height="335" viewBox="0 0 295 335" fill="none" xmlns="http://www.w3.org/2000/svg">
<rect x="2.00334" width="293" height="328" rx="20" fill="url(#paint0_linear_129_1100)"/>
<path d="M17.0046 32V11H35.0046V14H38.0046V23H35.0046V26H23.0046V32H17.0046ZM23.0046 23H32.0046V14H23.0046V23ZM41.0046 32V17H44.0046V14H47.0046V11H56.0046V14H59.0046V17H62.0046V32H56.0046V26H47.0046V32H41.0046ZM47.0046 23H56.0046V17H53.0046V14H50.0046V17H47.0046V23ZM65.0046 32V11H71.0046V20H74.0046V17H77.0046V14H80.0046V11H86.0046V14H83.0046V17H80.0046V20H77.0046V23H80.0046V26H83.0046V29H86.0046V32H77.0046V29H74.0046V26H71.0046V32H65.0046ZM17.0046 56V35H35.0046V38H38.0046V44H35.0046V47H38.0046V53H35.0046V56H17.0046ZM23.0046 44H32.0046V38H23.0046V44ZM23.0046 53H32.0046V47H23.0046V53ZM44.0046 56V53H41.0046V35H47.0046V53H56.0046V35H62.0046V53H59.0046V56H44.0046ZM65.0046 56V35H83.0046V38H86.0046V44H83.0046V47H86.0046V53H83.0046V56H65.0046ZM71.0046 44H80.0046V38H71.0046V44ZM71.0046 53H80.0046V47H71.0046V53ZM92.0046 56V53H89.0046V35H95.0046V53H104.005V35H110.005V53H107.005V56H92.0046Z" fill="#5F3C32"/>
<mask id="mask0_129_1100" style="mask-type:luminance" maskUnits="userSpaceOnUse" x="29" y="290" width="21" height="20">
<path d="M49.0024 290H29.0024V310H49.0024V290Z" fill="white"/>
</mask>
<g mask="url(#mask0_129_1100)">
<path d="M39.2567 290.15C39.5024 290.15 39.7432 290.219 39.9518 290.349C40.1603 290.479 40.3283 290.665 40.4367 290.885L44.5467 299.095L48.8717 307.75C48.9594 307.925 49.0074 308.116 49.0122 308.311C49.017 308.506 48.9787 308.699 48.8998 308.878C48.8208 309.056 48.7035 309.215 48.556 309.342C48.4085 309.47 48.2346 309.563 48.0468 309.615L47.9618 309.635C47.9025 309.649 47.8423 309.657 47.7817 309.66H47.6918L39.2517 307.995L33.9717 299.095L38.0717 290.885C38.1813 290.664 38.351 290.477 38.5614 290.347C38.7718 290.217 39.0144 290.149 39.2617 290.15H39.2567Z" fill="url(#paint1_linear_129_1100)"/>
<path d="M39.2578 290.15C39.5035 290.15 39.7443 290.219 39.9529 290.349C40.1614 290.479 40.3294 290.665 40.4378 290.885L44.5478 299.095L39.2528 307.99L30.8278 309.665C30.6018 309.667 30.3793 309.61 30.1815 309.5C29.9838 309.391 29.8175 309.232 29.6986 309.04C29.5797 308.848 29.5121 308.628 29.5023 308.402C29.4925 308.177 29.5409 307.952 29.6428 307.75L33.9728 299.1L38.0728 290.885C38.1824 290.664 38.352 290.477 38.5624 290.347C38.7728 290.217 39.0155 290.149 39.2628 290.15H39.2578Z" fill="url(#paint2_linear_129_1100)"/>
<path d="M39.2567 290.15C39.5024 290.15 39.7432 290.219 39.9518 290.349C40.1603 290.479 40.3283 290.665 40.4367 290.885L44.5467 299.095C44.5467 299.095 41.1176 308.077 39.3868 308.077C37.6561 308.077 33.9717 299.095 33.9717 299.095L38.0717 290.885C38.1742 290.677 38.3299 290.499 38.523 290.37C38.7161 290.241 38.9399 290.165 39.1717 290.15H39.2567Z" fill="url(#paint3_linear_129_1100)"/>
</g>
<path d="M57.9724 304.67H55.1924L54.7324 306H53.2624L55.7724 299.01H57.4024L59.9124 306H58.4324L57.9724 304.67ZM57.5924 303.55L56.5824 300.63L55.5724 303.55H57.5924ZM60.4906 303.21C60.4906 302.65 60.6006 302.153 60.8206 301.72C61.0472 301.287 61.3539 300.953 61.7406 300.72C62.1272 300.487 62.5572 300.37 63.0306 300.37C63.3906 300.37 63.7339 300.45 64.0606 300.61C64.3872 300.763 64.6472 300.97 64.8406 301.23V298.6H66.2606V306H64.8406V305.18C64.6672 305.453 64.4239 305.673 64.1106 305.84C63.7972 306.007 63.4339 306.09 63.0206 306.09C62.5539 306.09 62.1272 305.97 61.7406 305.73C61.3539 305.49 61.0472 305.153 60.8206 304.72C60.6006 304.28 60.4906 303.777 60.4906 303.21ZM64.8506 303.23C64.8506 302.89 64.7839 302.6 64.6506 302.36C64.5172 302.113 64.3372 301.927 64.1106 301.8C63.8839 301.667 63.6406 301.6 63.3806 301.6C63.1206 301.6 62.8806 301.663 62.6606 301.79C62.4406 301.917 62.2606 302.103 62.1206 302.35C61.9872 302.59 61.9206 302.877 61.9206 303.21C61.9206 303.543 61.9872 303.837 62.1206 304.09C62.2606 304.337 62.4406 304.527 62.6606 304.66C62.8872 304.793 63.1272 304.86 63.3806 304.86C63.6406 304.86 63.8839 304.797 64.1106 304.67C64.3372 304.537 64.5172 304.35 64.6506 304.11C64.7839 303.863 64.8506 303.57 64.8506 303.23ZM67.2679 303.21C67.2679 302.65 67.3779 302.153 67.5979 301.72C67.8246 301.287 68.1279 300.953 68.5079 300.72C68.8946 300.487 69.3246 300.37 69.7979 300.37C70.2112 300.37 70.5712 300.453 70.8779 300.62C71.1912 300.787 71.4412 300.997 71.6279 301.25V300.46H73.0379V306H71.6279V305.19C71.4479 305.45 71.1979 305.667 70.8779 305.84C70.5646 306.007 70.2012 306.09 69.7879 306.09C69.3212 306.09 68.8946 305.97 68.5079 305.73C68.1279 305.49 67.8246 305.153 67.5979 304.72C67.3779 304.28 67.2679 303.777 67.2679 303.21ZM71.6279 303.23C71.6279 302.89 71.5612 302.6 71.4279 302.36C71.2946 302.113 71.1146 301.927 70.8879 301.8C70.6612 301.667 70.4179 301.6 70.1579 301.6C69.8979 301.6 69.6579 301.663 69.4379 301.79C69.2179 301.917 69.0379 302.103 68.8979 302.35C68.7646 302.59 68.6979 302.877 68.6979 303.21C68.6979 303.543 68.7646 303.837 68.8979 304.09C69.0379 304.337 69.2179 304.527 69.4379 304.66C69.6646 304.793 69.9046 304.86 70.1579 304.86C70.4179 304.86 70.6612 304.797 70.8879 304.67C71.1146 304.537 71.2946 304.35 71.4279 304.11C71.5612 303.863 71.6279 303.57 71.6279 303.23ZM75.8053 301.26C75.9853 301.007 76.2319 300.797 76.5453 300.63C76.8653 300.457 77.2286 300.37 77.6353 300.37C78.1086 300.37 78.5353 300.487 78.9153 300.72C79.3019 300.953 79.6053 301.287 79.8253 301.72C80.0519 302.147 80.1653 302.643 80.1653 303.21C80.1653 303.777 80.0519 304.28 79.8253 304.72C79.6053 305.153 79.3019 305.49 78.9153 305.73C78.5353 305.97 78.1086 306.09 77.6353 306.09C77.2286 306.09 76.8686 306.007 76.5553 305.84C76.2486 305.673 75.9986 305.463 75.8053 305.21V308.64H74.4053V300.46H75.8053V301.26ZM78.7353 303.21C78.7353 302.877 78.6653 302.59 78.5253 302.35C78.3919 302.103 78.2119 301.917 77.9853 301.79C77.7653 301.663 77.5253 301.6 77.2653 301.6C77.0119 301.6 76.7719 301.667 76.5453 301.8C76.3253 301.927 76.1453 302.113 76.0053 302.36C75.8719 302.607 75.8053 302.897 75.8053 303.23C75.8053 303.563 75.8719 303.853 76.0053 304.1C76.1453 304.347 76.3253 304.537 76.5453 304.67C76.7719 304.797 77.0119 304.86 77.2653 304.86C77.5253 304.86 77.7653 304.793 77.9853 304.66C78.2119 304.527 78.3919 304.337 78.5253 304.09C78.6653 303.843 78.7353 303.55 78.7353 303.21ZM82.8126 301.61V304.29C82.8126 304.477 82.8559 304.613 82.9426 304.7C83.0359 304.78 83.1893 304.82 83.4026 304.82H84.0526V306H83.1726C81.9926 306 81.4026 305.427 81.4026 304.28V301.61H80.7426V300.46H81.4026V299.09H82.8126V300.46H84.0526V301.61H82.8126ZM85.7696 299.8C85.5229 299.8 85.3162 299.723 85.1496 299.57C84.9896 299.41 84.9096 299.213 84.9096 298.98C84.9096 298.747 84.9896 298.553 85.1496 298.4C85.3162 298.24 85.5229 298.16 85.7696 298.16C86.0162 298.16 86.2196 298.24 86.3796 298.4C86.5462 298.553 86.6296 298.747 86.6296 298.98C86.6296 299.213 86.5462 299.41 86.3796 299.57C86.2196 299.723 86.0162 299.8 85.7696 299.8ZM86.4596 300.46V306H85.0596V300.46H86.4596ZM90.1528 304.71L91.5528 300.46H93.0428L90.9928 306H89.2928L87.2528 300.46H88.7528L90.1528 304.71ZM94.5391 299.8C94.2924 299.8 94.0858 299.723 93.9191 299.57C93.7591 299.41 93.6791 299.213 93.6791 298.98C93.6791 298.747 93.7591 298.553 93.9191 298.4C94.0858 298.24 94.2924 298.16 94.5391 298.16C94.7858 298.16 94.9891 298.24 95.1491 298.4C95.3158 298.553 95.3991 298.747 95.3991 298.98C95.3991 299.213 95.3158 299.41 95.1491 299.57C94.9891 299.723 94.7858 299.8 94.5391 299.8ZM95.2291 300.46V306H93.8291V300.46H95.2291ZM99.6823 300.38C100.342 300.38 100.876 300.59 101.282 301.01C101.689 301.423 101.892 302.003 101.892 302.75V306H100.492V302.94C100.492 302.5 100.382 302.163 100.162 301.93C99.9423 301.69 99.6423 301.57 99.2623 301.57C98.8756 301.57 98.569 301.69 98.3423 301.93C98.1223 302.163 98.0123 302.5 98.0123 302.94V306H96.6123V300.46H98.0123V301.15C98.199 300.91 98.4356 300.723 98.7223 300.59C99.0156 300.45 99.3356 300.38 99.6823 300.38Z" fill="#5F3C32"/>
<path d="M249.157 110.507H239.65V148.662H249.157V110.507Z" fill="#5F3C32"/>
<path d="M230.074 177.246H220.567V215.338H230.074V177.246Z" fill="#5F3C32"/>
<path d="M239.644 148.662H220.567V158.169H239.644V148.662Z" fill="#5F3C32"/>
<path d="M220.571 215.338H211.064V234.416H220.571V215.338Z" fill="#5F3C32"/>
<path d="M220.571 158.169H211.064V177.246H220.571V158.169Z" fill="#5F3C32"/>
<path d="M230.078 120.015H211.064V139.092H230.078V120.015Z" fill="#837169"/>
<path d="M239.646 101H201.491V110.507H239.646V101Z" fill="#5F3C32"/>
<path d="M211.061 234.416H201.491V243.923H211.061V234.416Z" fill="#5F3C32"/>
<path d="M201.491 243.923H182.477V253.493H201.491V243.923Z" fill="#5F3C32"/>
<path d="M201.491 110.507H182.477V120.015H201.491V110.507Z" fill="#5F3C32"/>
<path d="M182.477 253.493H115.738V263H182.477V253.493Z" fill="#5F3C32"/>
<path d="M172.908 196.261H163.401V205.831H172.908V196.261Z" fill="#8C5557"/>
<path d="M139.346 173.692V178.56H144.142V183.395H148.906V188.231H153.67V183.395H158.466V178.56H163.231V173.692H139.346Z" fill="#070708"/>
<path d="M163.401 205.831H144.324V215.338H163.401V205.831Z" fill="#8C5557"/>
<path d="M182.477 101H115.738V110.507H182.477V101Z" fill="#5F3C32"/>
<path d="M121.692 149.808H115.461V156.038H121.692V149.808Z" fill="white"/>
<path d="M121.692 143.577H115.461V149.808H121.692V143.577Z" fill="black"/>
<path d="M127.923 143.577H121.692V149.808H127.923V143.577Z" fill="black"/>
<path d="M134.154 143.577H127.923V149.808H134.154V143.577Z" fill="black"/>
<path d="M134.154 149.808H127.923V156.038H134.154V149.808Z" fill="black"/>
<path d="M134.154 156.039H127.923V162.269H134.154V156.039Z" fill="black"/>
<path d="M188.154 156.039H181.923V162.269H188.154V156.039Z" fill="black"/>
<path d="M127.923 149.808H121.692V156.038H127.923V149.808Z" fill="black"/>
<path d="M127.923 156.039H121.692V162.269H127.923V156.039Z" fill="black"/>
<path d="M121.692 156.039H115.461V162.269H121.692V156.039Z" fill="black"/>
<path d="M175.692 149.808H169.461V156.038H175.692V149.808Z" fill="white"/>
<path d="M175.692 143.577H169.461V149.808H175.692V143.577Z" fill="black"/>
<path d="M181.923 143.577H175.692V149.808H181.923V143.577Z" fill="black"/>
<path d="M188.154 143.577H181.923V149.808H188.154V143.577Z" fill="black"/>
<path d="M188.154 149.808H181.923V156.038H188.154V149.808Z" fill="black"/>
<path d="M181.923 149.808H175.692V156.038H181.923V149.808Z" fill="black"/>
<path d="M181.923 156.039H175.692V162.269H181.923V156.039Z" fill="black"/>
<path d="M175.692 156.039H169.461V162.269H175.692V156.039Z" fill="black"/>
<path d="M115.74 243.923H96.6625V253.493H115.74V243.923Z" fill="#5F3C32"/>
<path d="M115.74 110.507H96.6625V120.015H115.74V110.507Z" fill="#5F3C32"/>
<path d="M96.6594 234.416H87.1521V243.923H96.6594V234.416Z" fill="#5F3C32"/>
<path d="M87.1557 215.338H77.5858V234.416H87.1557V215.338Z" fill="#5F3C32"/>
<path d="M87.1557 158.169H77.5858V177.246H87.1557V158.169Z" fill="#5F3C32"/>
<path d="M77.5827 177.246H68.0754V215.338H77.5827V177.246Z" fill="#5F3C32"/>
<path d="M77.5867 148.662H58.5721V158.169H77.5867V148.662Z" fill="#5F3C32"/>
<path d="M87.1526 120.015H68.0754V139.092H87.1526V120.015Z" fill="#837169"/>
<path d="M96.6639 101H58.5721V110.507H96.6639V101Z" fill="#5F3C32"/>
<path d="M58.5696 110.507H48.9998V148.662H58.5696V110.507Z" fill="#5F3C32"/>
<path d="M275.051 292.231L271.818 290.43L262.789 306.637L266.022 308.438L275.051 292.231Z" fill="#5F3C32"/>
<path d="M262.79 306.638L259.557 304.836L255.943 311.324L259.176 313.125L262.79 306.638Z" fill="#5F3C32"/>
<path d="M273.62 287.198L270.387 285.396L268.586 288.629L271.819 290.431L273.62 287.198Z" fill="#5F3C32"/>
<path d="M255.943 311.323L252.688 309.51L250.887 312.743L254.141 314.556L255.943 311.323Z" fill="#5F3C32"/>
<path d="M250.888 312.744L247.655 310.943L245.842 314.197L249.075 315.998L250.888 312.744Z" fill="#5F3C32"/>
<path d="M272.201 282.142L265.714 278.528L263.901 281.783L270.388 285.397L272.201 282.142Z" fill="#5F3C32"/>
<path d="M245.841 314.197L242.587 312.384L240.786 315.617L244.04 317.43L245.841 314.197Z" fill="#5F3C32"/>
<path d="M261.027 271.681L254.54 268.067L252.739 271.3L265.713 278.528L267.514 275.295L264.26 273.482L269.675 263.762L266.442 261.961L261.027 271.681Z" fill="#5F3C32"/>
<path d="M240.787 315.616L234.321 312.014L232.52 315.247L238.985 318.849L240.787 315.616Z" fill="#5F3C32"/>
<path d="M268.256 258.707L265.023 256.906L263.21 260.16L266.443 261.961L268.256 258.707Z" fill="#5F3C32"/>
<path d="M241.897 290.761L238.664 288.96L240.477 285.706L243.71 287.507L245.511 284.274L235.791 278.859L233.99 282.092L230.757 280.291L227.143 286.778L230.376 288.579L228.575 291.812L231.829 293.625L226.402 303.366L229.635 305.167L235.062 295.426L238.295 297.227L240.096 293.994L243.35 295.807L246.964 289.32L243.71 287.507L241.897 290.761Z" fill="#D43DA4"/>
<path d="M232.52 315.247L226.033 311.633L224.22 314.887L230.707 318.502L232.52 315.247Z" fill="#5F3C32"/>
<path d="M252.74 271.3L249.507 269.499L247.694 272.753L250.927 274.554L252.74 271.3Z" fill="#5F3C32"/>
<path d="M224.218 314.887L220.985 313.086L219.184 316.319L222.417 318.12L224.218 314.887Z" fill="#5F3C32"/>
<path d="M247.692 272.753L244.459 270.952L242.658 274.185L245.891 275.986L247.692 272.753Z" fill="#5F3C32"/>
<path d="M222.799 309.832L216.312 306.218L214.499 309.472L220.986 313.086L222.799 309.832Z" fill="#5F3C32"/>
<path d="M246.273 267.698L243.019 265.885L241.206 269.139L244.46 270.952L246.273 267.698Z" fill="#5F3C32"/>
<path d="M266.823 253.672L250.616 244.643L248.815 247.876L265.022 256.905L266.823 253.672Z" fill="#5F3C32"/>
<path d="M218.113 302.985L211.626 299.371L209.825 302.604L216.312 306.218L218.113 302.985Z" fill="#5F3C32"/>
<path d="M248.814 247.876L245.56 246.063L243.747 249.317L247.001 251.13L248.814 247.876Z" fill="#5F3C32"/>
<path d="M243.018 265.884L244.819 262.651L238.332 259.037L243.747 249.317L240.515 247.516L235.099 257.236L231.866 255.435L230.065 258.668L243.018 265.884Z" fill="#5F3C32"/>
<path d="M213.426 296.138L210.193 294.336L208.392 297.569L211.625 299.37L213.426 296.138Z" fill="#5F3C32"/>
<path d="M212.008 291.083L208.754 289.27L206.941 292.524L210.195 294.337L212.008 291.083Z" fill="#5F3C32"/>
<path d="M230.065 258.668L223.578 255.054L221.765 258.308L228.252 261.922L230.065 258.668Z" fill="#5F3C32"/>
<path d="M210.554 286.036L207.321 284.235L205.52 287.468L208.753 289.269L210.554 286.036Z" fill="#5F3C32"/>
<path d="M210.934 277.748L207.68 275.935L204.066 282.422L207.32 284.235L210.934 277.748Z" fill="#5F3C32"/>
<path d="M221.764 258.308L218.51 256.495L216.709 259.728L219.963 261.541L221.764 258.308Z" fill="#5F3C32"/>
<path d="M216.711 259.728L213.478 257.927L204.448 274.134L207.681 275.936L216.711 259.728Z" fill="#5F3C32"/>
<path d="M49.1231 151.58L47.0421 152.283L50.5428 162.647L52.6238 161.944L49.1231 151.58Z" fill="#998179"/>
<path d="M50.5439 162.646L48.4765 163.345L49.8777 167.493L51.9451 166.795L50.5439 162.646Z" fill="#998179"/>
<path d="M45.6418 148.134L43.5744 148.832L44.9756 152.98L47.043 152.282L45.6418 148.134Z" fill="#998179"/>
<path d="M49.8771 167.493L47.8097 168.191L49.2062 172.326L51.2736 171.628L49.8771 167.493Z" fill="#998179"/>
<path d="M42.1728 144.684L40.1054 145.382L41.5066 149.531L43.574 148.832L42.1728 144.684Z" fill="#998179"/>
<path d="M49.2068 172.326L47.1258 173.029L47.8287 175.11L49.9097 174.407L49.2068 172.326Z" fill="#998179"/>
<path d="M39.4074 143.315L37.3264 144.018L38.0247 146.085L40.1057 145.382L39.4074 143.315Z" fill="#998179"/>
<path d="M39.4587 157.147L33.2429 159.247L32.5446 157.179L30.4636 157.882L31.8648 162.031L40.1615 159.228L40.8598 161.296L32.5631 164.098L33.266 166.179L41.5627 163.377L42.261 165.444L44.3284 164.746L40.8278 154.382L38.7604 155.08L39.4587 157.147Z" fill="#998179"/>
<path d="M47.8283 175.11L43.6799 176.511L44.3782 178.579L48.5265 177.177L47.8283 175.11Z" fill="#998179"/>
<path d="M36.6272 141.95L32.4788 143.352L33.1771 145.419L37.3255 144.018L36.6272 141.95Z" fill="#998179"/>
<path d="M33.9635 168.246L35.3646 172.395L27.0815 175.192L27.7798 177.26L42.2787 172.363L41.5804 170.295L37.4456 171.692L36.7427 169.611L40.8775 168.214L41.5804 170.295L43.6614 169.592L42.2602 165.444L33.9635 168.246Z" fill="#998179"/>
<path d="M44.3772 178.579L40.2424 179.976L40.9453 182.057L45.0801 180.66L44.3772 178.579Z" fill="#998179"/>
<path d="M38.0604 153.013L31.8447 155.112L32.543 157.18L38.7587 155.08L38.0604 153.013Z" fill="#998179"/>
<path d="M31.8084 148.185L29.741 148.883L31.1421 153.031L33.2095 152.333L31.8084 148.185Z" fill="#998179"/>
<path d="M31.7757 141.27L27.6409 142.667L28.3438 144.748L32.4786 143.351L31.7757 141.27Z" fill="#998179"/>
<path d="M31.143 153.031L29.062 153.734L29.7649 155.815L31.8458 155.112L31.143 153.031Z" fill="#998179"/>
<path d="M29.043 146.816L24.8946 148.217L25.5929 150.284L29.7413 148.883L29.043 146.816Z" fill="#998179"/>
<path d="M40.9466 182.056L30.5825 185.557L31.2807 187.624L41.6449 184.123L40.9466 182.056Z" fill="#998179"/>
<path d="M33.2646 166.179L31.1972 166.877L31.8955 168.945L33.9629 168.247L33.2646 166.179Z" fill="#998179"/>
<path d="M31.8641 162.031L29.7968 162.729L30.495 164.796L32.5624 164.098L31.8641 162.031Z" fill="#998179"/>
<path d="M29.7641 155.815L27.6967 156.514L28.395 158.581L30.4624 157.883L29.7641 155.815Z" fill="#998179"/>
<path d="M25.5934 150.284L23.5124 150.987L24.2152 153.068L26.2962 152.365L25.5934 150.284Z" fill="#998179"/>
<path d="M24.2145 153.068L22.1471 153.766L22.8454 155.834L24.9128 155.135L24.2145 153.068Z" fill="#998179"/>
<path d="M26.9447 140.599L16.5805 144.1L17.2788 146.167L27.6429 142.667L26.9447 140.599Z" fill="#998179"/>
<path d="M22.8468 155.833L20.7794 156.532L21.4823 158.613L23.5497 157.914L22.8468 155.833Z" fill="#998179"/>
<path d="M29.8784 183.476L25.73 184.877L26.4329 186.958L30.5813 185.557L29.8784 183.476Z" fill="#998179"/>
<path d="M24.2969 173.814L20.098 161.383L22.179 160.68L21.4807 158.613L19.3997 159.316L18.6968 157.235L12.481 159.334L19.4823 180.062L25.698 177.963L24.9997 175.895L27.0807 175.193L26.3779 173.112L24.2969 173.814ZM22.2295 174.513L20.1621 175.211L18.7655 171.076L20.8329 170.378L22.2295 174.513Z" fill="#D43DA4"/>
<path d="M17.2769 146.168L13.1285 147.569L13.8314 149.65L17.9798 148.249L17.2769 146.168Z" fill="#998179"/>
<path d="M25.032 182.81L20.8837 184.211L21.582 186.278L25.7303 184.877L25.032 182.81Z" fill="#998179"/>
<path d="M13.8322 149.65L9.68379 151.051L10.3821 153.119L14.5305 151.717L13.8322 149.65Z" fill="#998179"/>
<path d="M20.1817 182.13L18.1143 182.828L18.8172 184.909L20.8846 184.211L20.1817 182.13Z" fill="#998179"/>
<path d="M10.3823 153.118L8.31488 153.816L9.01317 155.884L11.0806 155.186L10.3823 153.118Z" fill="#998179"/>
<path d="M16.7178 178.693L14.6369 179.396L16.0334 183.531L18.1144 182.828L16.7178 178.693Z" fill="#998179"/>
<path d="M9.01362 155.884L6.93263 156.587L8.3338 160.735L10.4148 160.032L9.01362 155.884Z" fill="#998179"/>
<path d="M13.2341 175.248L11.1667 175.946L12.5679 180.095L14.6352 179.396L13.2341 175.248Z" fill="#998179"/>
<path d="M8.33315 160.735L6.26576 161.434L7.66693 165.582L9.73432 164.884L8.33315 160.735Z" fill="#998179"/>
<path d="M7.66749 165.582L5.6001 166.28L9.10071 176.644L11.1681 175.946L7.66749 165.582Z" fill="#998179"/>
<defs>
<linearGradient id="paint0_linear_129_1100" x1="-41.4966" y1="-67.5" x2="312.503" y2="401.5" gradientUnits="userSpaceOnUse">
<stop stop-color="#F0E4D3"/>
<stop offset="1" stop-color="white"/>
</linearGradient>
<linearGradient id="paint1_linear_129_1100" x1="41.4922" y1="290.15" x2="41.4922" y2="309.66" gradientUnits="userSpaceOnUse">
<stop stop-color="#5F3C32"/>
</linearGradient>
<linearGradient id="paint2_linear_129_1100" x1="47.1161" y1="286.792" x2="31.267" y2="309.057" gradientUnits="userSpaceOnUse">
<stop stop-color="#5F3C32"/>
</linearGradient>
<linearGradient id="paint3_linear_129_1100" x1="39.1909" y1="285.283" x2="39.1909" y2="308.113" gradientUnits="userSpaceOnUse">
<stop stop-color="#5F3C32"/>
</linearGradient>
</defs>
</svg>
