<svg width="293" height="329" viewBox="0 0 293 329" fill="none" xmlns="http://www.w3.org/2000/svg">
<rect width="293" height="328" rx="20" fill="url(#paint0_linear_129_1002)"/>
<path d="M18.0013 32V29H15.0013V26H21.0013V29H30.0013V23H18.0013V20H15.0013V14H18.0013V11H33.0013V14H36.0013V17H30.0013V14H21.0013V20H33.0013V23H36.0013V29H33.0013V32H18.0013ZM42.0013 32V29H48.0013V14H42.0013V11H60.0013V14H54.0013V29H60.0013V32H42.0013ZM66.0013 32V29H63.0013V26H69.0013V29H78.0013V23H66.0013V20H63.0013V14H66.0013V11H81.0013V14H84.0013V17H78.0013V14H69.0013V20H81.0013V23H84.0013V29H81.0013V32H66.0013ZM15.0013 56V35H33.0013V38H36.0013V44H33.0013V47H36.0013V53H33.0013V56H15.0013ZM21.0013 44H30.0013V38H21.0013V44ZM21.0013 53H30.0013V47H21.0013V53ZM42.0013 56V53H39.0013V35H45.0013V53H54.0013V35H60.0013V53H57.0013V56H42.0013ZM63.0013 56V35H69.0013V38H72.0013V41H75.0013V44H78.0013V35H84.0013V56H78.0013V50H75.0013V47H72.0013V44H69.0013V56H63.0013ZM111.001 56V35H129.001V38H132.001V44H129.001V47H132.001V53H129.001V56H111.001ZM117.001 44H126.001V38H117.001V44ZM117.001 53H126.001V47H117.001V53ZM138.001 56V53H135.001V35H141.001V53H150.001V35H156.001V53H153.001V56H138.001ZM159.001 56V35H165.001V38H168.001V41H171.001V44H174.001V35H180.001V56H174.001V50H171.001V47H168.001V44H165.001V56H159.001Z" fill="#FF98A3"/>
<path d="M232.261 96.7974V105.537H205.984V114.277H197.187V123.075H188.447V140.612H197.187V166.889H205.984V140.612H214.724V131.815H232.261V123.075H241.001V96.7974H232.261Z" fill="#FF98A3"/>
<path d="M232.261 201.907H223.463V236.981H232.261V201.907Z" fill="white"/>
<path d="M223.46 236.981H214.72V245.721H223.46V236.981Z" fill="white"/>
<path d="M223.46 184.369H214.72V201.907H223.46V184.369Z" fill="white"/>
<path d="M214.723 245.721H205.984V254.519H214.723V245.721Z" fill="white"/>
<path d="M214.723 166.89H205.984V184.37H214.723V166.89Z" fill="white"/>
<path d="M232.259 88H197.184V96.7974H232.259V88Z" fill="white"/>
<path d="M205.984 254.519H188.447V263.258H205.984V254.519Z" fill="white"/>
<path d="M205.982 201.907H179.704V210.704H205.982V201.907Z" fill="white"/>
<path d="M197.187 96.7974H188.447V105.537H197.187V96.7974Z" fill="white"/>
<path d="M197.184 219.444H179.704V228.184H197.184V219.444Z" fill="white"/>
<path d="M188.741 175.629H180.001V184.369H188.741V175.629Z" fill="black"/>
<path d="M188.741 184H180.001V192.74H188.741V184Z" fill="black"/>
<path d="M188.444 105.538H179.704V114.278H188.444V105.538Z" fill="white"/>
<path d="M188.447 263.259H109.615V271.999H188.447V263.259Z" fill="white"/>
<path d="M179.703 114.277H170.905V140.612H179.703V114.277Z" fill="white"/>
<path d="M135.889 193.167V201.906H144.629V210.704H153.368V201.906H162.166V193.167H135.889Z" fill="#DE5764"/>
<path d="M170.91 140.612H127.095V149.352H170.91V140.612Z" fill="white"/>
<path d="M127.093 114.277H118.353V140.612H127.093V114.277Z" fill="white"/>
<path d="M118.741 175.629H110.001V184.369H118.741V175.629Z" fill="black"/>
<path d="M118.741 184H110.001V192.74H118.741V184Z" fill="black"/>
<path d="M118.355 105.538H109.615V114.278H118.355V105.538Z" fill="white"/>
<path d="M109.611 254.519H92.0739V263.258H109.611V254.519Z" fill="white"/>
<path d="M118.353 219.444H100.816V228.184H118.353V219.444Z" fill="white"/>
<path d="M118.351 201.907H92.0739V210.704H118.351V201.907Z" fill="white"/>
<path d="M109.613 96.7974H100.816V105.537H109.613V96.7974Z" fill="white"/>
<path d="M100.816 140.612H109.613V123.075H100.816V114.277H92.076V105.537H65.7987V96.7974H57.0013V123.075H65.7987V131.815H83.2786V140.612H92.076V166.889H100.816V140.612Z" fill="#FA9AA5"/>
<path d="M92.0777 245.721H83.2803V254.519H92.0777V245.721Z" fill="white"/>
<path d="M92.0777 166.89H83.2803V184.37H92.0777V166.89Z" fill="white"/>
<path d="M83.2781 236.981H74.5381V245.721H83.2781V236.981Z" fill="white"/>
<path d="M83.2781 184.369H74.5381V201.907H83.2781V184.369Z" fill="white"/>
<path d="M100.818 88H65.8004V96.7974H100.818V88Z" fill="white"/>
<path d="M74.5403 201.907H65.8004V236.981H74.5403V201.907Z" fill="white"/>
<mask id="mask0_129_1002" style="mask-type:luminance" maskUnits="userSpaceOnUse" x="26" y="290" width="21" height="20">
<path d="M46.999 290H26.999V310H46.999V290Z" fill="white"/>
</mask>
<g mask="url(#mask0_129_1002)">
<path d="M37.2533 290.15C37.4991 290.15 37.7399 290.219 37.9484 290.349C38.157 290.479 38.325 290.665 38.4333 290.885L42.5433 299.095L46.8684 307.75C46.9561 307.925 47.004 308.116 47.0088 308.311C47.0136 308.506 46.9753 308.699 46.8965 308.878C46.8175 309.056 46.7001 309.215 46.5526 309.342C46.4051 309.47 46.2312 309.563 46.0434 309.615L45.9584 309.635C45.8991 309.649 45.839 309.657 45.7783 309.66H45.6884L37.2484 307.995L31.9684 299.095L36.0684 290.885C36.1779 290.664 36.3476 290.477 36.558 290.347C36.7684 290.217 37.0111 290.149 37.2583 290.15H37.2533Z" fill="url(#paint1_linear_129_1002)"/>
<path d="M37.2544 290.15C37.5001 290.15 37.7409 290.219 37.9495 290.349C38.1581 290.479 38.326 290.665 38.4344 290.885L42.5444 299.095L37.2494 307.99L28.8244 309.665C28.5984 309.667 28.3759 309.61 28.1782 309.5C27.9805 309.391 27.8142 309.232 27.6952 309.04C27.5763 308.848 27.5087 308.628 27.4989 308.402C27.4892 308.177 27.5375 307.952 27.6394 307.75L31.9694 299.1L36.0694 290.885C36.179 290.664 36.3487 290.477 36.5591 290.347C36.7695 290.217 37.0121 290.149 37.2594 290.15H37.2544Z" fill="url(#paint2_linear_129_1002)"/>
<path d="M37.2534 290.15C37.4991 290.15 37.7399 290.219 37.9484 290.349C38.157 290.479 38.325 290.665 38.4333 290.885L42.5433 299.095C42.5433 299.095 39.1142 308.077 37.3835 308.077C35.6527 308.077 31.9684 299.095 31.9684 299.095L36.0684 290.885C36.1708 290.677 36.3265 290.499 36.5196 290.37C36.7128 290.241 36.9365 290.165 37.1683 290.15H37.2534Z" fill="url(#paint3_linear_129_1002)"/>
</g>
<path d="M55.969 304.67H53.189L52.729 306H51.259L53.769 299.01H55.399L57.909 306H56.429L55.969 304.67ZM55.589 303.55L54.579 300.63L53.569 303.55H55.589ZM58.4872 303.21C58.4872 302.65 58.5972 302.153 58.8172 301.72C59.0439 301.287 59.3505 300.953 59.7372 300.72C60.1239 300.487 60.5539 300.37 61.0272 300.37C61.3872 300.37 61.7305 300.45 62.0572 300.61C62.3839 300.763 62.6439 300.97 62.8372 301.23V298.6H64.2572V306H62.8372V305.18C62.6639 305.453 62.4205 305.673 62.1072 305.84C61.7939 306.007 61.4305 306.09 61.0172 306.09C60.5505 306.09 60.1239 305.97 59.7372 305.73C59.3505 305.49 59.0439 305.153 58.8172 304.72C58.5972 304.28 58.4872 303.777 58.4872 303.21ZM62.8472 303.23C62.8472 302.89 62.7805 302.6 62.6472 302.36C62.5139 302.113 62.3339 301.927 62.1072 301.8C61.8805 301.667 61.6372 301.6 61.3772 301.6C61.1172 301.6 60.8772 301.663 60.6572 301.79C60.4372 301.917 60.2572 302.103 60.1172 302.35C59.9839 302.59 59.9172 302.877 59.9172 303.21C59.9172 303.543 59.9839 303.837 60.1172 304.09C60.2572 304.337 60.4372 304.527 60.6572 304.66C60.8839 304.793 61.1239 304.86 61.3772 304.86C61.6372 304.86 61.8805 304.797 62.1072 304.67C62.3339 304.537 62.5139 304.35 62.6472 304.11C62.7805 303.863 62.8472 303.57 62.8472 303.23ZM65.2645 303.21C65.2645 302.65 65.3745 302.153 65.5945 301.72C65.8212 301.287 66.1245 300.953 66.5045 300.72C66.8912 300.487 67.3212 300.37 67.7945 300.37C68.2079 300.37 68.5679 300.453 68.8745 300.62C69.1879 300.787 69.4379 300.997 69.6245 301.25V300.46H71.0345V306H69.6245V305.19C69.4445 305.45 69.1945 305.667 68.8745 305.84C68.5612 306.007 68.1979 306.09 67.7845 306.09C67.3179 306.09 66.8912 305.97 66.5045 305.73C66.1245 305.49 65.8212 305.153 65.5945 304.72C65.3745 304.28 65.2645 303.777 65.2645 303.21ZM69.6245 303.23C69.6245 302.89 69.5579 302.6 69.4245 302.36C69.2912 302.113 69.1112 301.927 68.8845 301.8C68.6579 301.667 68.4145 301.6 68.1545 301.6C67.8945 301.6 67.6545 301.663 67.4345 301.79C67.2145 301.917 67.0345 302.103 66.8945 302.35C66.7612 302.59 66.6945 302.877 66.6945 303.21C66.6945 303.543 66.7612 303.837 66.8945 304.09C67.0345 304.337 67.2145 304.527 67.4345 304.66C67.6612 304.793 67.9012 304.86 68.1545 304.86C68.4145 304.86 68.6579 304.797 68.8845 304.67C69.1112 304.537 69.2912 304.35 69.4245 304.11C69.5579 303.863 69.6245 303.57 69.6245 303.23ZM73.8019 301.26C73.9819 301.007 74.2286 300.797 74.5419 300.63C74.8619 300.457 75.2252 300.37 75.6319 300.37C76.1052 300.37 76.5319 300.487 76.9119 300.72C77.2986 300.953 77.6019 301.287 77.8219 301.72C78.0486 302.147 78.1619 302.643 78.1619 303.21C78.1619 303.777 78.0486 304.28 77.8219 304.72C77.6019 305.153 77.2986 305.49 76.9119 305.73C76.5319 305.97 76.1052 306.09 75.6319 306.09C75.2252 306.09 74.8652 306.007 74.5519 305.84C74.2452 305.673 73.9952 305.463 73.8019 305.21V308.64H72.4019V300.46H73.8019V301.26ZM76.7319 303.21C76.7319 302.877 76.6619 302.59 76.5219 302.35C76.3886 302.103 76.2086 301.917 75.9819 301.79C75.7619 301.663 75.5219 301.6 75.2619 301.6C75.0086 301.6 74.7686 301.667 74.5419 301.8C74.3219 301.927 74.1419 302.113 74.0019 302.36C73.8686 302.607 73.8019 302.897 73.8019 303.23C73.8019 303.563 73.8686 303.853 74.0019 304.1C74.1419 304.347 74.3219 304.537 74.5419 304.67C74.7686 304.797 75.0086 304.86 75.2619 304.86C75.5219 304.86 75.7619 304.793 75.9819 304.66C76.2086 304.527 76.3886 304.337 76.5219 304.09C76.6619 303.843 76.7319 303.55 76.7319 303.21ZM80.8092 301.61V304.29C80.8092 304.477 80.8526 304.613 80.9392 304.7C81.0326 304.78 81.1859 304.82 81.3992 304.82H82.0492V306H81.1692C79.9892 306 79.3992 305.427 79.3992 304.28V301.61H78.7392V300.46H79.3992V299.09H80.8092V300.46H82.0492V301.61H80.8092ZM83.7662 299.8C83.5195 299.8 83.3128 299.723 83.1462 299.57C82.9862 299.41 82.9062 299.213 82.9062 298.98C82.9062 298.747 82.9862 298.553 83.1462 298.4C83.3128 298.24 83.5195 298.16 83.7662 298.16C84.0128 298.16 84.2162 298.24 84.3762 298.4C84.5428 298.553 84.6262 298.747 84.6262 298.98C84.6262 299.213 84.5428 299.41 84.3762 299.57C84.2162 299.723 84.0128 299.8 83.7662 299.8ZM84.4562 300.46V306H83.0562V300.46H84.4562ZM88.1494 304.71L89.5494 300.46H91.0394L88.9894 306H87.2894L85.2494 300.46H86.7494L88.1494 304.71ZM92.5357 299.8C92.289 299.8 92.0824 299.723 91.9157 299.57C91.7557 299.41 91.6757 299.213 91.6757 298.98C91.6757 298.747 91.7557 298.553 91.9157 298.4C92.0824 298.24 92.289 298.16 92.5357 298.16C92.7824 298.16 92.9857 298.24 93.1457 298.4C93.3124 298.553 93.3957 298.747 93.3957 298.98C93.3957 299.213 93.3124 299.41 93.1457 299.57C92.9857 299.723 92.7824 299.8 92.5357 299.8ZM93.2257 300.46V306H91.8257V300.46H93.2257ZM97.6789 300.38C98.3389 300.38 98.8722 300.59 99.2789 301.01C99.6856 301.423 99.8889 302.003 99.8889 302.75V306H98.4889V302.94C98.4889 302.5 98.3789 302.163 98.1589 301.93C97.9389 301.69 97.6389 301.57 97.2589 301.57C96.8722 301.57 96.5656 301.69 96.3389 301.93C96.1189 302.163 96.0089 302.5 96.0089 302.94V306H94.6089V300.46H96.0089V301.15C96.1956 300.91 96.4322 300.723 96.7189 300.59C97.0122 300.45 97.3322 300.38 97.6789 300.38Z" fill="#FF98A3"/>
<g clip-path="url(#clip0_129_1002)">
<path d="M279.389 310.902H282.999V289.195H279.389V292.829H275.755V296.439H279.389V310.902Z" fill="#00FF75"/>
<path d="M279.389 310.902H275.755V314.536H279.389V310.902Z" fill="#00FF75"/>
<path d="M275.755 314.536H272.145V318.146H275.755V314.536Z" fill="#00FF75"/>
<path d="M275.755 303.683H272.145V307.293H275.755V303.683Z" fill="#00FF75"/>
<path d="M272.145 307.292H264.902V310.902H272.145V307.292Z" fill="#00FF75"/>
<path d="M272.145 318.146H264.902V321.78H272.145V318.146Z" fill="#00FF75"/>
<path d="M275.755 296.439H261.292V300.049H275.755V296.439Z" fill="#00FF75"/>
<path d="M272.145 263.854H275.755V260.244H279.389V256.634H275.755V253H272.145V256.634H268.535V253H264.902V256.634H261.292V260.244H264.902V263.854H268.535V267.488H272.145V263.854Z" fill="#FF0000"/>
<path d="M264.902 310.902H257.658V314.536H264.902V310.902Z" fill="#00FF75"/>
<path d="M264.902 321.78H250.438V325.39H264.902V321.78Z" fill="#00FF75"/>
<path d="M261.292 300.049H254.048V303.683H261.292V300.049Z" fill="#00FF75"/>
<path d="M239.584 300.049V303.682H228.707V307.292H239.584V329H243.194V318.146H246.804V321.78H250.438V318.146H257.658V314.536H246.804V310.902H243.194V303.682H246.804V285.585H243.194V300.049H239.584Z" fill="#00FF75"/>
<path d="M254.048 303.683H250.438V307.293H254.048V303.683Z" fill="#00FF75"/>
<path d="M261.292 292.829V289.195H264.902V285.585H268.535V281.951H272.145V274.731H268.535V271.098H261.292V274.731H257.658V271.098H250.438V274.731H246.804V281.951H250.438V285.585H254.048V289.195H257.658V292.829H261.292Z" fill="#FF0000"/>
<path d="M250.438 307.292H246.804V310.902H250.438V307.292Z" fill="#00FF75"/>
<path d="M243.194 281.951H239.584V285.585H243.194V281.951Z" fill="#00FF75"/>
<path d="M239.584 292.829H235.95V300.049H239.584V292.829Z" fill="#00FF75"/>
<path d="M239.584 278.341H235.95V281.951H239.584V278.341Z" fill="#00FF75"/>
<path d="M235.95 289.195H232.34V292.829H235.95V289.195Z" fill="#00FF75"/>
<path d="M232.34 285.585H225.097V289.195H232.34V285.585Z" fill="#00FF75"/>
<path d="M235.95 274.731H228.707V278.341H235.95V274.731Z" fill="#00FF75"/>
<path d="M228.707 300.049H221.487V303.683H228.707V300.049Z" fill="#00FF75"/>
<path d="M225.097 281.951H221.487V285.585H225.097V281.951Z" fill="#00FF75"/>
<path d="M221.487 296.439H217.853V300.049H221.487V296.439Z" fill="#00FF75"/>
<path d="M221.487 278.341H217.853V281.951H221.487V278.341Z" fill="#00FF75"/>
<path d="M228.707 271.098H217.853V274.731H228.707V271.098Z" fill="#00FF75"/>
<path d="M217.853 289.195H214.243V296.439H217.853V289.195Z" fill="#00FF75"/>
<path d="M217.853 267.487H214.243V271.097H217.853V267.487Z" fill="#00FF75"/>
<path d="M214.243 281.951H210.609V289.195H214.243V281.951Z" fill="#00FF75"/>
<path d="M210.609 267.487H214.243V263.854H206.999V281.951H210.609V267.487Z" fill="#00FF75"/>
</g>
<path d="M55.1681 196.708L52.2434 197.448L52.9883 200.392L50.0443 201.137L50.7843 204.061L47.8596 204.801L48.6045 207.745L45.6605 208.49L46.4005 211.415L55.2132 209.185L54.4732 206.261L57.3979 205.521L56.6531 202.577L59.5778 201.837L57.3528 193.043L54.4281 193.783L55.1681 196.708Z" fill="#00FF75"/>
<path d="M47.0537 176.936L49.9784 176.196L44.0436 152.74L38.1749 154.225L38.9149 157.15L41.8589 156.405L47.0537 176.936Z" fill="#FFD93D"/>
<path d="M47.0544 176.936L44.1104 177.681L44.8504 180.606L47.7944 179.861L47.0544 176.936Z" fill="#FFD93D"/>
<path d="M38.9144 157.15L35.9897 157.89L36.7346 160.834L39.6593 160.094L38.9144 157.15Z" fill="#FFD93D"/>
<path d="M47.8593 204.802L47.1192 201.877L50.044 201.137L49.2991 198.193L52.2431 197.448L51.503 194.523L54.4278 193.783L53.6877 190.858L44.8943 193.083L45.6343 196.008L42.6903 196.753L43.4304 199.678L40.5056 200.418L42.7354 209.231L45.6602 208.49L44.9153 205.547L47.8593 204.802Z" fill="#00FF75"/>
<path d="M44.85 180.606L38.9813 182.091L39.7262 185.035L45.5949 183.55L44.85 180.606Z" fill="#FFD93D"/>
<path d="M36.7348 160.834L33.7909 161.579L34.5309 164.504L37.4749 163.759L36.7348 160.834Z" fill="#FFD93D"/>
<path d="M39.7259 185.035L25.0829 188.74L25.823 191.664L31.6724 190.184L38.3473 216.565L41.2913 215.82L34.6164 189.44L40.4659 187.959L39.7259 185.035Z" fill="#00FF75"/>
<path d="M33.046 158.635L30.1212 159.375L30.8661 162.319L33.7908 161.579L33.046 158.635Z" fill="#FFD93D"/>
<path d="M29.3799 156.45L20.5865 158.675L21.3265 161.6L30.12 159.375L29.3799 156.45Z" fill="#FFD93D"/>
<path d="M21.3271 161.6L18.4024 162.34L19.1473 165.284L22.072 164.544L21.3271 161.6Z" fill="#FFD93D"/>
<path d="M28.0473 200.458L25.1033 201.203L24.3633 198.278L15.5698 200.503L16.3099 203.428L19.2346 202.688L19.9746 205.612L22.9186 204.867L23.6635 207.811L26.5882 207.071L27.3283 209.996L30.2722 209.251L31.0171 212.195L33.9419 211.455L31.712 202.643L28.7873 203.383L28.0473 200.458Z" fill="#00FF75"/>
<path d="M24.3381 185.795L18.4694 187.28L19.2143 190.224L25.083 188.739L24.3381 185.795Z" fill="#FFD93D"/>
<path d="M19.1475 165.284L16.2036 166.029L16.9436 168.954L19.8876 168.209L19.1475 165.284Z" fill="#FFD93D"/>
<path d="M27.3289 209.996L24.4041 210.736L23.6641 207.812L20.7201 208.557L19.9752 205.613L17.0505 206.353L16.3105 203.428L13.3857 204.168L15.6107 212.961L18.5354 212.221L19.2803 215.165L22.2051 214.425L22.9451 217.35L31.7578 215.12L31.0178 212.196L28.0738 212.94L27.3289 209.996Z" fill="#00FF75"/>
<path d="M15.4598 163.085L12.535 163.825L13.2799 166.769L16.2047 166.029L15.4598 163.085Z" fill="#FFD93D"/>
<path d="M17.729 184.356L14.785 185.101L15.525 188.025L18.469 187.28L17.729 184.356Z" fill="#FFD93D"/>
<path d="M9.58969 164.57L12.5337 163.825L11.7936 160.9L5.92493 162.385L11.8597 185.841L14.7845 185.101L9.58969 164.57Z" fill="#FFD93D"/>
<defs>
<linearGradient id="paint0_linear_129_1002" x1="44.001" y1="43" x2="310.5" y2="401.5" gradientUnits="userSpaceOnUse">
<stop stop-color="#8F3A63"/>
<stop offset="1" stop-color="#F564A9"/>
</linearGradient>
<linearGradient id="paint1_linear_129_1002" x1="39.4888" y1="290.15" x2="39.4888" y2="309.66" gradientUnits="userSpaceOnUse">
<stop stop-color="#FF98A3"/>
</linearGradient>
<linearGradient id="paint2_linear_129_1002" x1="45.1127" y1="286.792" x2="29.2636" y2="309.057" gradientUnits="userSpaceOnUse">
<stop stop-color="#FF98A3"/>
</linearGradient>
<linearGradient id="paint3_linear_129_1002" x1="37.1875" y1="285.283" x2="37.1875" y2="308.113" gradientUnits="userSpaceOnUse">
<stop stop-color="#FF98A3"/>
</linearGradient>
<clipPath id="clip0_129_1002">
<rect width="76" height="76" fill="white" transform="translate(206.999 253)"/>
</clipPath>
</defs>
</svg>
