<svg width="225" height="225" viewBox="0 0 225 225" fill="none" xmlns="http://www.w3.org/2000/svg">
<g clip-path="url(#clip0_91_7547)">
<path d="M225 203.555H203.555V214.312H225V203.555Z" fill="url(#paint0_linear_91_7547)"/>
<path d="M203.555 214.312H192.867V225H203.555V214.312Z" fill="url(#paint1_linear_91_7547)"/>
<path d="M192.867 139.289H182.109V149.977H192.867V160.734H203.555V107.156H192.867V139.289Z" fill="url(#paint2_linear_91_7547)"/>
<path d="M192.867 203.555H171.422V214.312H192.867V203.555Z" fill="url(#paint3_linear_91_7547)"/>
<path d="M192.867 96.4688H182.109V107.156H192.867V96.4688Z" fill="url(#paint4_linear_91_7547)"/>
<path d="M171.422 192.867H149.977V203.555H171.422V192.867Z" fill="url(#paint5_linear_91_7547)"/>
<path d="M160.734 149.977H171.422V139.289H182.109V128.602H171.422V96.4688H182.109V85.7109H171.422V53.5781H160.734V149.977Z" fill="url(#paint6_linear_91_7547)"/>
<path d="M149.977 214.312H139.289V225H149.977V214.312Z" fill="url(#paint7_linear_91_7547)"/>
<path d="M149.977 128.602H139.289V139.289H149.977V128.602Z" fill="url(#paint8_linear_91_7547)"/>
<path d="M149.977 107.156H139.289V117.844H149.977V107.156Z" fill="url(#paint9_linear_91_7547)"/>
<path d="M139.289 192.867H128.531V214.312H139.289V192.867Z" fill="url(#paint10_linear_91_7547)"/>
<path d="M139.289 171.422H96.3984V182.18H139.289V171.422Z" fill="url(#paint11_linear_91_7547)"/>
<path d="M139.289 10.6875H128.531V21.4453H139.289V10.6875Z" fill="url(#paint12_linear_91_7547)"/>
<path d="M128.531 0H107.156V10.6875H128.531V0Z" fill="url(#paint13_linear_91_7547)"/>
<path d="M139.289 64.2656H128.531V53.5781H107.156V64.2656H117.844V75.0234H107.156V64.2656H96.3984V85.7109H107.156V96.4688H128.531V85.7109H139.289V64.2656Z" fill="url(#paint14_linear_91_7547)"/>
<path d="M107.156 192.867H96.3984V214.312H107.156V192.867Z" fill="url(#paint15_linear_91_7547)"/>
<path d="M74.9531 160.734H85.7109V171.422H96.3984V160.734H139.289V171.422H149.977V160.734H160.734V149.977H74.9531V160.734Z" fill="url(#paint16_linear_91_7547)"/>
<path d="M107.156 10.6875H96.3984V21.4453H107.156V10.6875Z" fill="url(#paint17_linear_91_7547)"/>
<path d="M96.3984 214.312H85.7109V225H96.3984V214.312Z" fill="url(#paint18_linear_91_7547)"/>
<path d="M85.7109 192.867H64.2656V203.555H85.7109V192.867Z" fill="url(#paint19_linear_91_7547)"/>
<path d="M96.3984 32.1328V21.4453H85.7109V32.1328H74.9531V53.5781H85.7109V42.8906H149.977V53.5781H160.734V32.1328H149.977V21.4453H139.289V32.1328H96.3984Z" fill="url(#paint20_linear_91_7547)"/>
<path d="M74.9531 53.5781H64.2656V85.7109H53.5781V96.4688H64.2656V128.602H53.5781V139.289H64.2656V149.977H74.9531V53.5781Z" fill="url(#paint21_linear_91_7547)"/>
<path d="M64.2656 203.555H42.8203V214.312H64.2656V203.555Z" fill="url(#paint22_linear_91_7547)"/>
<path d="M53.5781 96.4688H42.8203V107.156H53.5781V96.4688Z" fill="url(#paint23_linear_91_7547)"/>
<path d="M42.8203 214.312H32.1328V225H42.8203V214.312Z" fill="url(#paint24_linear_91_7547)"/>
<path d="M42.8203 107.156H32.1328V160.734H42.8203V149.977H53.5781V139.289H42.8203V107.156Z" fill="url(#paint25_linear_91_7547)"/>
<path d="M32.1328 203.555H10.6875V214.312H32.1328V203.555Z" fill="url(#paint26_linear_91_7547)"/>
<path d="M10.6875 214.312H0V225H10.6875V214.312Z" fill="url(#paint27_linear_91_7547)"/>
</g>
<defs>
<linearGradient id="paint0_linear_91_7547" x1="214.277" y1="203.555" x2="214.277" y2="214.312" gradientUnits="userSpaceOnUse">
<stop stop-color="#640D5F"/>
<stop offset="1" stop-color="#CF67C9"/>
</linearGradient>
<linearGradient id="paint1_linear_91_7547" x1="198.211" y1="214.312" x2="198.211" y2="225" gradientUnits="userSpaceOnUse">
<stop stop-color="#640D5F"/>
<stop offset="1" stop-color="#CF67C9"/>
</linearGradient>
<linearGradient id="paint2_linear_91_7547" x1="192.832" y1="107.156" x2="192.832" y2="160.734" gradientUnits="userSpaceOnUse">
<stop stop-color="#640D5F"/>
<stop offset="1" stop-color="#CF67C9"/>
</linearGradient>
<linearGradient id="paint3_linear_91_7547" x1="182.145" y1="203.555" x2="182.145" y2="214.312" gradientUnits="userSpaceOnUse">
<stop stop-color="#640D5F"/>
<stop offset="1" stop-color="#CF67C9"/>
</linearGradient>
<linearGradient id="paint4_linear_91_7547" x1="187.488" y1="96.4688" x2="187.488" y2="107.156" gradientUnits="userSpaceOnUse">
<stop stop-color="#640D5F"/>
<stop offset="1" stop-color="#CF67C9"/>
</linearGradient>
<linearGradient id="paint5_linear_91_7547" x1="160.699" y1="192.867" x2="160.699" y2="203.555" gradientUnits="userSpaceOnUse">
<stop stop-color="#640D5F"/>
<stop offset="1" stop-color="#CF67C9"/>
</linearGradient>
<linearGradient id="paint6_linear_91_7547" x1="171.422" y1="53.5781" x2="171.422" y2="149.977" gradientUnits="userSpaceOnUse">
<stop stop-color="#640D5F"/>
<stop offset="1" stop-color="#CF67C9"/>
</linearGradient>
<linearGradient id="paint7_linear_91_7547" x1="144.633" y1="214.312" x2="144.633" y2="225" gradientUnits="userSpaceOnUse">
<stop stop-color="#640D5F"/>
<stop offset="1" stop-color="#CF67C9"/>
</linearGradient>
<linearGradient id="paint8_linear_91_7547" x1="144.633" y1="128.602" x2="144.633" y2="139.289" gradientUnits="userSpaceOnUse">
<stop stop-color="#640D5F"/>
<stop offset="1" stop-color="#CF67C9"/>
</linearGradient>
<linearGradient id="paint9_linear_91_7547" x1="144.633" y1="107.156" x2="144.633" y2="117.844" gradientUnits="userSpaceOnUse">
<stop stop-color="#640D5F"/>
<stop offset="1" stop-color="#CF67C9"/>
</linearGradient>
<linearGradient id="paint10_linear_91_7547" x1="133.91" y1="192.867" x2="133.91" y2="214.312" gradientUnits="userSpaceOnUse">
<stop stop-color="#640D5F"/>
<stop offset="1" stop-color="#CF67C9"/>
</linearGradient>
<linearGradient id="paint11_linear_91_7547" x1="117.844" y1="171.422" x2="117.844" y2="182.18" gradientUnits="userSpaceOnUse">
<stop stop-color="#640D5F"/>
<stop offset="1" stop-color="#CF67C9"/>
</linearGradient>
<linearGradient id="paint12_linear_91_7547" x1="133.91" y1="10.6875" x2="133.91" y2="21.4453" gradientUnits="userSpaceOnUse">
<stop stop-color="#640D5F"/>
<stop offset="1" stop-color="#CF67C9"/>
</linearGradient>
<linearGradient id="paint13_linear_91_7547" x1="117.844" y1="0" x2="117.844" y2="10.6875" gradientUnits="userSpaceOnUse">
<stop stop-color="#640D5F"/>
<stop offset="1" stop-color="#CF67C9"/>
</linearGradient>
<linearGradient id="paint14_linear_91_7547" x1="117.844" y1="53.5781" x2="117.844" y2="96.4688" gradientUnits="userSpaceOnUse">
<stop stop-color="#640D5F"/>
<stop offset="1" stop-color="#CF67C9"/>
</linearGradient>
<linearGradient id="paint15_linear_91_7547" x1="101.777" y1="192.867" x2="101.777" y2="214.312" gradientUnits="userSpaceOnUse">
<stop stop-color="#640D5F"/>
<stop offset="1" stop-color="#CF67C9"/>
</linearGradient>
<linearGradient id="paint16_linear_91_7547" x1="117.844" y1="149.977" x2="117.844" y2="171.422" gradientUnits="userSpaceOnUse">
<stop stop-color="#640D5F"/>
<stop offset="1" stop-color="#CF67C9"/>
</linearGradient>
<linearGradient id="paint17_linear_91_7547" x1="101.777" y1="10.6875" x2="101.777" y2="21.4453" gradientUnits="userSpaceOnUse">
<stop stop-color="#640D5F"/>
<stop offset="1" stop-color="#CF67C9"/>
</linearGradient>
<linearGradient id="paint18_linear_91_7547" x1="91.0547" y1="214.312" x2="91.0547" y2="225" gradientUnits="userSpaceOnUse">
<stop stop-color="#640D5F"/>
<stop offset="1" stop-color="#CF67C9"/>
</linearGradient>
<linearGradient id="paint19_linear_91_7547" x1="74.9883" y1="192.867" x2="74.9883" y2="203.555" gradientUnits="userSpaceOnUse">
<stop stop-color="#640D5F"/>
<stop offset="1" stop-color="#CF67C9"/>
</linearGradient>
<linearGradient id="paint20_linear_91_7547" x1="117.844" y1="21.4453" x2="117.844" y2="53.5781" gradientUnits="userSpaceOnUse">
<stop stop-color="#640D5F"/>
<stop offset="1" stop-color="#CF67C9"/>
</linearGradient>
<linearGradient id="paint21_linear_91_7547" x1="64.2656" y1="53.5781" x2="64.2656" y2="149.977" gradientUnits="userSpaceOnUse">
<stop stop-color="#640D5F"/>
<stop offset="1" stop-color="#CF67C9"/>
</linearGradient>
<linearGradient id="paint22_linear_91_7547" x1="53.543" y1="203.555" x2="53.543" y2="214.312" gradientUnits="userSpaceOnUse">
<stop stop-color="#640D5F"/>
<stop offset="1" stop-color="#CF67C9"/>
</linearGradient>
<linearGradient id="paint23_linear_91_7547" x1="48.1992" y1="96.4688" x2="48.1992" y2="107.156" gradientUnits="userSpaceOnUse">
<stop stop-color="#640D5F"/>
<stop offset="1" stop-color="#CF67C9"/>
</linearGradient>
<linearGradient id="paint24_linear_91_7547" x1="37.4766" y1="214.312" x2="37.4766" y2="225" gradientUnits="userSpaceOnUse">
<stop stop-color="#640D5F"/>
<stop offset="1" stop-color="#CF67C9"/>
</linearGradient>
<linearGradient id="paint25_linear_91_7547" x1="42.8555" y1="107.156" x2="42.8555" y2="160.734" gradientUnits="userSpaceOnUse">
<stop stop-color="#640D5F"/>
<stop offset="1" stop-color="#CF67C9"/>
</linearGradient>
<linearGradient id="paint26_linear_91_7547" x1="21.4102" y1="203.555" x2="21.4102" y2="214.312" gradientUnits="userSpaceOnUse">
<stop stop-color="#640D5F"/>
<stop offset="1" stop-color="#CF67C9"/>
</linearGradient>
<linearGradient id="paint27_linear_91_7547" x1="5.34375" y1="214.312" x2="5.34375" y2="225" gradientUnits="userSpaceOnUse">
<stop stop-color="#640D5F"/>
<stop offset="1" stop-color="#CF67C9"/>
</linearGradient>
<clipPath id="clip0_91_7547">
<rect width="225" height="225" fill="white"/>
</clipPath>
</defs>
</svg>
