<svg width="113" height="119" viewBox="0 0 113 119" fill="none" xmlns="http://www.w3.org/2000/svg">
<g clip-path="url(#clip0_118_285)">
<path d="M5.25038 28.2899L9.28449 27.0817L8.06824 23.021L12.1289 21.8048L13.3451 25.8654L17.3792 24.6571L18.5875 28.6912L22.6216 27.4829L23.8299 31.517L19.7958 32.7253L21.0121 36.786L16.978 37.9943L18.1862 42.0284L14.1256 43.2446L12.9173 39.2105L8.8832 40.4188L7.66696 36.3582L3.63285 37.5665L2.42456 33.5323L6.45867 32.3241L5.25038 28.2899ZM11.7011 35.1499L15.7617 33.9336L14.5534 29.8995L10.4928 31.1158L11.7011 35.1499Z" fill="url(#paint0_linear_118_285)"/>
<path d="M23.4153 88.9343L27.4494 87.726L26.2411 83.6919L30.3017 82.4757L31.51 86.5098L35.5441 85.3015L36.7604 89.3621L40.7945 88.1538L42.0028 92.1879L37.9687 93.3962L39.1849 97.4569L35.1508 98.6652L36.3591 102.699L32.2985 103.916L31.0902 99.8814L27.0561 101.09L25.8398 97.0291L21.8057 98.2373L20.5974 94.2032L24.6315 92.9949L23.4153 88.9343ZM29.8739 95.8208L33.9346 94.6045L32.7263 90.5704L28.6656 91.7867L29.8739 95.8208Z" fill="url(#paint1_linear_118_285)"/>
<path d="M18.5722 72.7713L22.6063 71.563L23.8146 75.5971L19.7805 76.8054L18.5722 72.7713Z" fill="url(#paint2_linear_118_285)"/>
<path d="M13.7245 56.5818L17.7586 55.3735L18.9749 59.4342L14.9408 60.6425L13.7245 56.5818Z" fill="url(#paint3_linear_118_285)"/>
<path d="M35.9441 71.9643L40.0047 70.748L41.221 74.8087L37.1603 76.0249L35.9441 71.9643Z" fill="url(#paint4_linear_118_285)"/>
<path d="M28.6794 47.707L32.7401 46.4907L33.9484 50.5248L29.8877 51.7411L28.6794 47.707Z" fill="url(#paint5_linear_118_285)"/>
<path d="M41.2216 74.8089L45.2557 73.6006L46.464 77.6347L42.4299 78.843L41.2216 74.8089Z" fill="url(#paint6_linear_118_285)"/>
<path d="M31.5312 42.4563L35.5653 41.248L36.7736 45.2822L32.7395 46.4904L31.5312 42.4563Z" fill="url(#paint7_linear_118_285)"/>
<path d="M51.3142 93.8242L55.3748 92.6079L56.5831 96.642L52.5225 97.8583L51.3142 93.8242Z" fill="url(#paint8_linear_118_285)"/>
<path d="M46.4626 77.6347L50.5233 76.4185L51.7316 80.4526L47.6709 81.6688L46.4626 77.6347Z" fill="url(#paint9_linear_118_285)"/>
<path d="M71.5513 43.6872L72.7596 47.7213L76.8202 46.5051L75.612 42.471L79.6461 41.2627L83.2789 53.3915L79.2448 54.5998L78.0365 50.5657L73.9758 51.782L75.1841 55.8161L71.15 57.0244L73.5746 65.1191L65.4798 67.5436L66.6881 71.5777L62.654 72.786L63.8623 76.8201L67.8964 75.6118L69.1126 79.6725L56.9838 83.3053L55.7675 79.2447L59.8016 78.0364L58.5933 74.0023L54.5592 75.2106L53.3509 71.1765L45.2562 73.601L42.8317 65.5062L38.7976 66.7145L37.5893 62.6804L33.5286 63.8967L34.7369 67.9308L30.7028 69.1391L27.07 57.0102L31.1041 55.8019L32.3124 59.836L36.373 58.6198L35.1647 54.5857L39.1988 53.3774L36.7743 45.2826L44.8691 42.8581L43.6608 38.824L47.6949 37.6157L46.4786 33.5551L42.4445 34.7633L41.2362 30.7292L53.3651 27.0964L54.5734 31.1305L50.5393 32.3388L51.7555 36.3995L55.7896 35.1912L56.9979 39.2253L65.0927 36.8007L67.5172 44.8955L71.5513 43.6872ZM44.4678 56.1952L45.684 60.2559L49.7181 59.0476L48.5019 54.987L44.4678 56.1952ZM50.1115 45.6839L46.0774 46.8922L47.2936 50.9529L51.3277 49.7446L50.1115 45.6839ZM59.0212 60.6572L60.2295 64.6913L64.2636 63.483L63.0553 59.4489L59.0212 60.6572ZM63.4566 46.1117L59.4224 47.32L60.6307 51.3541L64.6648 50.1458L63.4566 46.1117Z" fill="url(#paint10_linear_118_285)"/>
<path d="M34.3493 37.1874L38.41 35.9712L39.6262 40.0318L35.5656 41.2481L34.3493 37.1874Z" fill="url(#paint11_linear_118_285)"/>
<path d="M29.5075 21.0243L33.5682 19.8081L34.7765 23.8422L30.7158 25.0585L29.5075 21.0243Z" fill="url(#paint12_linear_118_285)"/>
<path d="M71.538 87.7669L75.5721 86.5586L76.7804 90.5927L72.7463 91.801L71.538 87.7669Z" fill="url(#paint13_linear_118_285)"/>
<path d="M49.7323 14.9671L53.7664 13.7588L54.9747 17.7929L50.9406 19.0012L49.7323 14.9671Z" fill="url(#paint14_linear_118_285)"/>
<path d="M70.7224 70.3686L74.783 69.1523L75.9913 73.1864L71.9307 74.4027L70.7224 70.3686Z" fill="url(#paint15_linear_118_285)"/>
<path d="M58.6062 29.9223L62.6668 28.7061L63.8831 32.7667L59.8224 33.9829L58.6062 29.9223Z" fill="url(#paint16_linear_118_285)"/>
<path d="M73.5741 65.1189L77.6082 63.9106L78.8165 67.9448L74.7824 69.153L73.5741 65.1189Z" fill="url(#paint17_linear_118_285)"/>
<path d="M63.8837 32.7654L67.9178 31.5571L69.1261 35.5912L65.092 36.7995L63.8837 32.7654Z" fill="url(#paint18_linear_118_285)"/>
<path d="M76.3913 59.8495L80.452 58.6333L81.6682 62.6939L77.6076 63.9102L76.3913 59.8495Z" fill="url(#paint19_linear_118_285)"/>
<path d="M69.1267 35.5922L73.1873 34.376L74.3956 38.4101L70.335 39.6263L69.1267 35.5922Z" fill="url(#paint20_linear_118_285)"/>
<path d="M94.1764 89.7773L92.9681 85.7432L88.934 86.9515L87.7257 82.9174L83.665 84.1337L82.4488 80.073L86.5095 78.8568L85.3012 74.8227L89.3353 73.6144L88.119 69.5537L92.1531 68.3454L93.3694 72.4061L97.43 71.1898L98.6383 75.2239L102.672 74.0157L103.889 78.0763L99.8546 79.2846L101.063 83.3187L97.0022 84.5349L98.2105 88.569L94.1764 89.7773ZM94.5777 76.4402L90.5436 77.6485L91.7598 81.7091L95.7939 80.5008L94.5777 76.4402Z" fill="url(#paint21_linear_118_285)"/>
<path d="M92.581 55.0008L96.6151 53.7925L97.8313 57.8531L93.7972 59.0614L92.581 55.0008Z" fill="url(#paint22_linear_118_285)"/>
<path d="M87.7401 38.8377L91.7743 37.6294L92.9825 41.6635L88.9484 42.8718L87.7401 38.8377Z" fill="url(#paint23_linear_118_285)"/>
<path d="M88.1418 25.5005L84.1077 26.7088L85.316 30.7429L81.2553 31.9591L80.047 27.925L76.0129 29.1333L74.7967 25.0726L70.7626 26.2809L69.5543 22.2468L73.5884 21.0385L72.3721 16.9779L76.4062 15.7696L75.198 11.7355L79.2586 10.5193L80.4669 14.5534L84.501 13.3451L85.7172 17.4057L89.7779 16.1895L90.9862 20.2236L86.9255 21.4398L88.1418 25.5005ZM81.6831 18.614L77.6225 19.8303L78.8308 23.8644L82.8914 22.6481L81.6831 18.614Z" fill="url(#paint24_linear_118_285)"/>
</g>
<defs>
<linearGradient id="paint0_linear_118_285" x1="10.0986" y1="22.4129" x2="16.1559" y2="42.6365" gradientUnits="userSpaceOnUse">
<stop stop-color="#113A23"/>
<stop offset="1" stop-color="#2EA062"/>
</linearGradient>
<linearGradient id="paint1_linear_118_285" x1="28.2714" y1="83.0838" x2="34.3288" y2="103.307" gradientUnits="userSpaceOnUse">
<stop stop-color="#113A23"/>
<stop offset="1" stop-color="#2EA062"/>
</linearGradient>
<linearGradient id="paint2_linear_118_285" x1="20.5892" y1="72.1671" x2="21.7975" y2="76.2012" gradientUnits="userSpaceOnUse">
<stop stop-color="#113A23"/>
<stop offset="1" stop-color="#2EA062"/>
</linearGradient>
<linearGradient id="paint3_linear_118_285" x1="15.7416" y1="55.9777" x2="16.9578" y2="60.0383" gradientUnits="userSpaceOnUse">
<stop stop-color="#113A23"/>
<stop offset="1" stop-color="#2EA062"/>
</linearGradient>
<linearGradient id="paint4_linear_118_285" x1="37.9744" y1="71.3562" x2="39.1906" y2="75.4168" gradientUnits="userSpaceOnUse">
<stop stop-color="#113A23"/>
<stop offset="1" stop-color="#2EA062"/>
</linearGradient>
<linearGradient id="paint5_linear_118_285" x1="30.7097" y1="47.0988" x2="31.918" y2="51.1329" gradientUnits="userSpaceOnUse">
<stop stop-color="#113A23"/>
<stop offset="1" stop-color="#2EA062"/>
</linearGradient>
<linearGradient id="paint6_linear_118_285" x1="43.2386" y1="74.2047" x2="44.4469" y2="78.2388" gradientUnits="userSpaceOnUse">
<stop stop-color="#113A23"/>
<stop offset="1" stop-color="#2EA062"/>
</linearGradient>
<linearGradient id="paint7_linear_118_285" x1="33.5482" y1="41.8522" x2="34.7565" y2="45.8863" gradientUnits="userSpaceOnUse">
<stop stop-color="#113A23"/>
<stop offset="1" stop-color="#2EA062"/>
</linearGradient>
<linearGradient id="paint8_linear_118_285" x1="53.3445" y1="93.216" x2="54.5528" y2="97.2501" gradientUnits="userSpaceOnUse">
<stop stop-color="#113A23"/>
<stop offset="1" stop-color="#2EA062"/>
</linearGradient>
<linearGradient id="paint9_linear_118_285" x1="48.493" y1="77.0266" x2="49.7012" y2="81.0607" gradientUnits="userSpaceOnUse">
<stop stop-color="#113A23"/>
<stop offset="1" stop-color="#2EA062"/>
</linearGradient>
<linearGradient id="paint10_linear_118_285" x1="47.3007" y1="28.9128" x2="63.0482" y2="81.4889" gradientUnits="userSpaceOnUse">
<stop stop-color="#113A23"/>
<stop offset="1" stop-color="#2EA062"/>
</linearGradient>
<linearGradient id="paint11_linear_118_285" x1="36.3797" y1="36.5793" x2="37.5959" y2="40.64" gradientUnits="userSpaceOnUse">
<stop stop-color="#113A23"/>
<stop offset="1" stop-color="#2EA062"/>
</linearGradient>
<linearGradient id="paint12_linear_118_285" x1="31.5379" y1="20.4162" x2="32.7462" y2="24.4503" gradientUnits="userSpaceOnUse">
<stop stop-color="#113A23"/>
<stop offset="1" stop-color="#2EA062"/>
</linearGradient>
<linearGradient id="paint13_linear_118_285" x1="73.555" y1="87.1627" x2="74.7633" y2="91.1968" gradientUnits="userSpaceOnUse">
<stop stop-color="#113A23"/>
<stop offset="1" stop-color="#2EA062"/>
</linearGradient>
<linearGradient id="paint14_linear_118_285" x1="51.7494" y1="14.3629" x2="52.9577" y2="18.397" gradientUnits="userSpaceOnUse">
<stop stop-color="#113A23"/>
<stop offset="1" stop-color="#2EA062"/>
</linearGradient>
<linearGradient id="paint15_linear_118_285" x1="72.7527" y1="69.7605" x2="73.961" y2="73.7946" gradientUnits="userSpaceOnUse">
<stop stop-color="#113A23"/>
<stop offset="1" stop-color="#2EA062"/>
</linearGradient>
<linearGradient id="paint16_linear_118_285" x1="60.6365" y1="29.3142" x2="61.8527" y2="33.3748" gradientUnits="userSpaceOnUse">
<stop stop-color="#113A23"/>
<stop offset="1" stop-color="#2EA062"/>
</linearGradient>
<linearGradient id="paint17_linear_118_285" x1="75.5912" y1="64.5148" x2="76.7995" y2="68.5489" gradientUnits="userSpaceOnUse">
<stop stop-color="#113A23"/>
<stop offset="1" stop-color="#2EA062"/>
</linearGradient>
<linearGradient id="paint18_linear_118_285" x1="65.9008" y1="32.1613" x2="67.109" y2="36.1954" gradientUnits="userSpaceOnUse">
<stop stop-color="#113A23"/>
<stop offset="1" stop-color="#2EA062"/>
</linearGradient>
<linearGradient id="paint19_linear_118_285" x1="78.4217" y1="59.2414" x2="79.6379" y2="63.3021" gradientUnits="userSpaceOnUse">
<stop stop-color="#113A23"/>
<stop offset="1" stop-color="#2EA062"/>
</linearGradient>
<linearGradient id="paint20_linear_118_285" x1="71.157" y1="34.9841" x2="72.3653" y2="39.0182" gradientUnits="userSpaceOnUse">
<stop stop-color="#113A23"/>
<stop offset="1" stop-color="#2EA062"/>
</linearGradient>
<linearGradient id="paint21_linear_118_285" x1="90.1361" y1="68.9496" x2="96.1934" y2="89.1732" gradientUnits="userSpaceOnUse">
<stop stop-color="#113A23"/>
<stop offset="1" stop-color="#2EA062"/>
</linearGradient>
<linearGradient id="paint22_linear_118_285" x1="94.598" y1="54.3966" x2="95.8143" y2="58.4573" gradientUnits="userSpaceOnUse">
<stop stop-color="#113A23"/>
<stop offset="1" stop-color="#2EA062"/>
</linearGradient>
<linearGradient id="paint23_linear_118_285" x1="89.7572" y1="38.2335" x2="90.9655" y2="42.2676" gradientUnits="userSpaceOnUse">
<stop stop-color="#113A23"/>
<stop offset="1" stop-color="#2EA062"/>
</linearGradient>
<linearGradient id="paint24_linear_118_285" x1="77.2415" y1="11.1234" x2="83.2989" y2="31.347" gradientUnits="userSpaceOnUse">
<stop stop-color="#113A23"/>
<stop offset="1" stop-color="#2EA062"/>
</linearGradient>
<clipPath id="clip0_118_285">
<rect width="88.6563" height="97.1398" fill="white" transform="matrix(-0.957953 0.286925 0.286925 0.957953 84.9285 0)"/>
</clipPath>
</defs>
</svg>
