<svg width="112" height="112" viewBox="0 0 112 112" fill="none" xmlns="http://www.w3.org/2000/svg">
<g clip-path="url(#clip0_118_357)">
<path d="M100.753 35.9367L96.272 36.7367L97.0719 41.2177L101.553 40.4178L100.753 35.9367Z" fill="url(#paint0_linear_118_357)"/>
<path d="M97.072 41.2177L92.5615 42.023L93.3615 46.504L97.872 45.6988L97.072 41.2177Z" fill="url(#paint1_linear_118_357)"/>
<path d="M99.7821 82.4701L95.301 83.27L96.9009 92.2321L101.382 91.4321L99.7821 82.4701Z" fill="url(#paint2_linear_118_357)"/>
<path d="M93.6958 74.2785L89.1853 75.0837L90.7905 84.0753L95.301 83.2701L93.6958 74.2785Z" fill="url(#paint3_linear_118_357)"/>
<path d="M93.3614 46.504L84.3699 48.1091L85.1751 52.6197L94.1666 51.0145L93.3614 46.504Z" fill="url(#paint4_linear_118_357)"/>
<path d="M96.901 92.2321L87.9094 93.8373L88.7146 98.3478L97.7062 96.7426L96.901 92.2321Z" fill="url(#paint5_linear_118_357)"/>
<path d="M87.5802 66.0921L83.0991 66.8921L84.7043 75.8836L89.1853 75.0837L87.5802 66.0921Z" fill="url(#paint6_linear_118_357)"/>
<path d="M85.1751 52.6196L80.6941 53.4196L81.494 57.9006L85.9751 57.1006L85.1751 52.6196Z" fill="url(#paint7_linear_118_357)"/>
<path d="M87.1094 89.3562L82.6284 90.1561L83.4284 94.6372L87.9094 93.8372L87.1094 89.3562Z" fill="url(#paint8_linear_118_357)"/>
<path d="M81.494 57.9006L77.0129 58.7006L78.6181 67.6921L83.0991 66.8922L81.494 57.9006Z" fill="url(#paint9_linear_118_357)"/>
<path d="M81.8285 85.6751L72.8369 87.2803L73.6369 91.7613L82.6284 90.1561L81.8285 85.6751Z" fill="url(#paint10_linear_118_357)"/>
<path d="M95.4668 32.2261L68.4922 37.0416L69.2974 41.5521L96.272 36.7366L95.4668 32.2261Z" fill="url(#paint11_linear_118_357)"/>
<path d="M67.1097 28.1828L62.6287 28.9828L64.2286 37.9449L68.7096 37.1449L67.1097 28.1828Z" fill="url(#paint12_linear_118_357)"/>
<path d="M72.0318 82.7699L67.5508 83.5698L68.356 88.0803L72.837 87.2804L72.0318 82.7699Z" fill="url(#paint13_linear_118_357)"/>
<path d="M67.2215 55.8247L62.7405 56.6246L63.5404 61.1057L68.0215 60.3057L67.2215 55.8247Z" fill="url(#paint14_linear_118_357)"/>
<path d="M60.806 19.888L56.325 20.688L57.9301 29.6795L62.4112 28.8796L60.806 19.888Z" fill="url(#paint15_linear_118_357)"/>
<path d="M66.7507 79.0887L62.2402 79.8939L63.0402 84.375L67.5507 83.5697L66.7507 79.0887Z" fill="url(#paint16_linear_118_357)"/>
<path d="M61.1353 47.6331L56.6248 48.4384L57.4247 52.9194L61.9352 52.1142L61.1353 47.6331Z" fill="url(#paint17_linear_118_357)"/>
<path d="M54.7197 11.6964L50.2092 12.5016L51.8144 21.4931L56.3249 20.6879L54.7197 11.6964Z" fill="url(#paint18_linear_118_357)"/>
<path d="M61.4351 75.3835L56.9541 76.1835L57.7593 80.694L62.2404 79.894L61.4351 75.3835Z" fill="url(#paint19_linear_118_357)"/>
<path d="M63.5404 61.1057L50.0383 63.5161L50.8435 68.0266L64.3456 65.6162L63.5404 61.1057Z" fill="url(#paint20_linear_118_357)"/>
<path d="M49.4093 8.02061L44.9282 8.82056L45.7282 13.3016L50.2092 12.5016L49.4093 8.02061Z" fill="url(#paint21_linear_118_357)"/>
<path d="M57.7593 80.6939L53.2488 81.4992L54.0487 85.9802L58.5592 85.175L57.7593 80.6939Z" fill="url(#paint22_linear_118_357)"/>
<path d="M52.1438 49.2382L47.6333 50.0435L48.4333 54.5245L52.9438 53.7193L52.1438 49.2382Z" fill="url(#paint23_linear_118_357)"/>
<path d="M45.7283 13.3016L41.2178 14.1068L42.8229 23.0984L47.3335 22.2931L45.7283 13.3016Z" fill="url(#paint24_linear_118_357)"/>
<path d="M54.0487 85.9802L49.5676 86.7802L50.3728 91.2907L54.8539 90.4907L54.0487 85.9802Z" fill="url(#paint25_linear_118_357)"/>
<path d="M49.2384 59.035L44.7573 59.835L45.5573 64.316L50.0383 63.516L49.2384 59.035Z" fill="url(#paint26_linear_118_357)"/>
<path d="M42.8228 23.0984L38.3418 23.8983L39.947 32.8899L44.428 32.0899L42.8228 23.0984Z" fill="url(#paint27_linear_118_357)"/>
<path d="M39.9471 32.8899L35.4661 33.6898L37.066 42.6519L41.547 41.8519L39.9471 32.8899Z" fill="url(#paint28_linear_118_357)"/>
<path d="M50.3729 91.2907L41.3813 92.8959L42.1813 97.3769L51.1728 95.7717L50.3729 91.2907Z" fill="url(#paint29_linear_118_357)"/>
<path d="M42.1812 97.3768L37.7002 98.1768L38.5002 102.658L42.9812 101.858L42.1812 97.3768Z" fill="url(#paint30_linear_118_357)"/>
<path d="M36.5657 65.9212L32.0847 66.7212L33.6899 75.7127L38.1709 74.9128L36.5657 65.9212Z" fill="url(#paint31_linear_118_357)"/>
<path d="M33.69 75.7127L29.209 76.5127L30.8142 85.5042L35.2952 84.7043L33.69 75.7127Z" fill="url(#paint32_linear_118_357)"/>
<path d="M31.2847 62.2401L26.8037 63.04L27.6037 67.5211L32.0847 66.7211L31.2847 62.2401Z" fill="url(#paint33_linear_118_357)"/>
<path d="M38.5001 102.658L29.5085 104.263L30.3138 108.774L39.3053 107.168L38.5001 102.658Z" fill="url(#paint34_linear_118_357)"/>
<path d="M30.814 85.5042L26.3035 86.3095L27.9086 95.301L32.4192 94.4958L30.814 85.5042Z" fill="url(#paint35_linear_118_357)"/>
<path d="M25.9986 58.5296L17.0071 60.1348L17.8123 64.6453L26.8038 63.0401L25.9986 58.5296Z" fill="url(#paint36_linear_118_357)"/>
<path d="M27.9088 95.301L23.4277 96.101L25.0276 105.063L29.5087 104.263L27.9088 95.301Z" fill="url(#paint37_linear_118_357)"/>
<path d="M37.0659 42.6519L10.0913 47.4674L10.8965 51.9779L37.8711 47.1624L37.0659 42.6519Z" fill="url(#paint38_linear_118_357)"/>
<path d="M16.207 55.6538L11.6965 56.459L12.4965 60.94L17.007 60.1348L16.207 55.6538Z" fill="url(#paint39_linear_118_357)"/>
<path d="M10.8966 51.9779L6.41553 52.7778L7.21548 57.2589L11.6965 56.4589L10.8966 51.9779Z" fill="url(#paint40_linear_118_357)"/>
</g>
<defs>
<linearGradient id="paint0_linear_118_357" x1="98.5125" y1="36.3367" x2="99.3124" y2="40.8178" gradientUnits="userSpaceOnUse">
<stop stop-color="#640D5F"/>
<stop offset="1" stop-color="#CF67C9"/>
</linearGradient>
<linearGradient id="paint1_linear_118_357" x1="94.8168" y1="41.6203" x2="95.6167" y2="46.1014" gradientUnits="userSpaceOnUse">
<stop stop-color="#640D5F"/>
<stop offset="1" stop-color="#CF67C9"/>
</linearGradient>
<linearGradient id="paint2_linear_118_357" x1="97.5415" y1="82.87" x2="99.1415" y2="91.8321" gradientUnits="userSpaceOnUse">
<stop stop-color="#640D5F"/>
<stop offset="1" stop-color="#CF67C9"/>
</linearGradient>
<linearGradient id="paint3_linear_118_357" x1="91.4406" y1="74.6811" x2="93.0457" y2="83.6727" gradientUnits="userSpaceOnUse">
<stop stop-color="#640D5F"/>
<stop offset="1" stop-color="#CF67C9"/>
</linearGradient>
<linearGradient id="paint4_linear_118_357" x1="88.8656" y1="47.3066" x2="89.6709" y2="51.8171" gradientUnits="userSpaceOnUse">
<stop stop-color="#640D5F"/>
<stop offset="1" stop-color="#CF67C9"/>
</linearGradient>
<linearGradient id="paint5_linear_118_357" x1="92.4052" y1="93.0347" x2="93.2104" y2="97.5452" gradientUnits="userSpaceOnUse">
<stop stop-color="#640D5F"/>
<stop offset="1" stop-color="#CF67C9"/>
</linearGradient>
<linearGradient id="paint6_linear_118_357" x1="85.3396" y1="66.4921" x2="86.9448" y2="75.4837" gradientUnits="userSpaceOnUse">
<stop stop-color="#640D5F"/>
<stop offset="1" stop-color="#CF67C9"/>
</linearGradient>
<linearGradient id="paint7_linear_118_357" x1="82.9346" y1="53.0196" x2="83.7346" y2="57.5006" gradientUnits="userSpaceOnUse">
<stop stop-color="#640D5F"/>
<stop offset="1" stop-color="#CF67C9"/>
</linearGradient>
<linearGradient id="paint8_linear_118_357" x1="84.8689" y1="89.7562" x2="85.6689" y2="94.2372" gradientUnits="userSpaceOnUse">
<stop stop-color="#640D5F"/>
<stop offset="1" stop-color="#CF67C9"/>
</linearGradient>
<linearGradient id="paint9_linear_118_357" x1="79.2535" y1="58.3006" x2="80.8586" y2="67.2921" gradientUnits="userSpaceOnUse">
<stop stop-color="#640D5F"/>
<stop offset="1" stop-color="#CF67C9"/>
</linearGradient>
<linearGradient id="paint10_linear_118_357" x1="77.3327" y1="86.4777" x2="78.1326" y2="90.9587" gradientUnits="userSpaceOnUse">
<stop stop-color="#640D5F"/>
<stop offset="1" stop-color="#CF67C9"/>
</linearGradient>
<linearGradient id="paint11_linear_118_357" x1="81.9795" y1="34.6339" x2="82.7847" y2="39.1444" gradientUnits="userSpaceOnUse">
<stop stop-color="#640D5F"/>
<stop offset="1" stop-color="#CF67C9"/>
</linearGradient>
<linearGradient id="paint12_linear_118_357" x1="64.8692" y1="28.5828" x2="66.4691" y2="37.5449" gradientUnits="userSpaceOnUse">
<stop stop-color="#640D5F"/>
<stop offset="1" stop-color="#CF67C9"/>
</linearGradient>
<linearGradient id="paint13_linear_118_357" x1="69.7913" y1="83.1699" x2="70.5965" y2="87.6804" gradientUnits="userSpaceOnUse">
<stop stop-color="#640D5F"/>
<stop offset="1" stop-color="#CF67C9"/>
</linearGradient>
<linearGradient id="paint14_linear_118_357" x1="64.981" y1="56.2247" x2="65.7809" y2="60.7057" gradientUnits="userSpaceOnUse">
<stop stop-color="#640D5F"/>
<stop offset="1" stop-color="#CF67C9"/>
</linearGradient>
<linearGradient id="paint15_linear_118_357" x1="58.5655" y1="20.288" x2="60.1706" y2="29.2796" gradientUnits="userSpaceOnUse">
<stop stop-color="#640D5F"/>
<stop offset="1" stop-color="#CF67C9"/>
</linearGradient>
<linearGradient id="paint16_linear_118_357" x1="64.4955" y1="79.4913" x2="65.2954" y2="83.9723" gradientUnits="userSpaceOnUse">
<stop stop-color="#640D5F"/>
<stop offset="1" stop-color="#CF67C9"/>
</linearGradient>
<linearGradient id="paint17_linear_118_357" x1="58.88" y1="48.0358" x2="59.68" y2="52.5168" gradientUnits="userSpaceOnUse">
<stop stop-color="#640D5F"/>
<stop offset="1" stop-color="#CF67C9"/>
</linearGradient>
<linearGradient id="paint18_linear_118_357" x1="52.4645" y1="12.099" x2="54.0697" y2="21.0905" gradientUnits="userSpaceOnUse">
<stop stop-color="#640D5F"/>
<stop offset="1" stop-color="#CF67C9"/>
</linearGradient>
<linearGradient id="paint19_linear_118_357" x1="59.1946" y1="75.7835" x2="59.9998" y2="80.294" gradientUnits="userSpaceOnUse">
<stop stop-color="#640D5F"/>
<stop offset="1" stop-color="#CF67C9"/>
</linearGradient>
<linearGradient id="paint20_linear_118_357" x1="56.7894" y1="62.3109" x2="57.5946" y2="66.8214" gradientUnits="userSpaceOnUse">
<stop stop-color="#640D5F"/>
<stop offset="1" stop-color="#CF67C9"/>
</linearGradient>
<linearGradient id="paint21_linear_118_357" x1="47.1687" y1="8.42059" x2="47.9687" y2="12.9016" gradientUnits="userSpaceOnUse">
<stop stop-color="#640D5F"/>
<stop offset="1" stop-color="#CF67C9"/>
</linearGradient>
<linearGradient id="paint22_linear_118_357" x1="55.504" y1="81.0965" x2="56.304" y2="85.5776" gradientUnits="userSpaceOnUse">
<stop stop-color="#640D5F"/>
<stop offset="1" stop-color="#CF67C9"/>
</linearGradient>
<linearGradient id="paint23_linear_118_357" x1="49.8886" y1="49.6409" x2="50.6885" y2="54.1219" gradientUnits="userSpaceOnUse">
<stop stop-color="#640D5F"/>
<stop offset="1" stop-color="#CF67C9"/>
</linearGradient>
<linearGradient id="paint24_linear_118_357" x1="43.473" y1="13.7042" x2="45.0782" y2="22.6957" gradientUnits="userSpaceOnUse">
<stop stop-color="#640D5F"/>
<stop offset="1" stop-color="#CF67C9"/>
</linearGradient>
<linearGradient id="paint25_linear_118_357" x1="51.8081" y1="86.3802" x2="52.6134" y2="90.8907" gradientUnits="userSpaceOnUse">
<stop stop-color="#640D5F"/>
<stop offset="1" stop-color="#CF67C9"/>
</linearGradient>
<linearGradient id="paint26_linear_118_357" x1="46.9978" y1="59.435" x2="47.7978" y2="63.916" gradientUnits="userSpaceOnUse">
<stop stop-color="#640D5F"/>
<stop offset="1" stop-color="#CF67C9"/>
</linearGradient>
<linearGradient id="paint27_linear_118_357" x1="40.5823" y1="23.4983" x2="42.1875" y2="32.4899" gradientUnits="userSpaceOnUse">
<stop stop-color="#640D5F"/>
<stop offset="1" stop-color="#CF67C9"/>
</linearGradient>
<linearGradient id="paint28_linear_118_357" x1="37.7066" y1="33.2898" x2="39.3065" y2="42.2519" gradientUnits="userSpaceOnUse">
<stop stop-color="#640D5F"/>
<stop offset="1" stop-color="#CF67C9"/>
</linearGradient>
<linearGradient id="paint29_linear_118_357" x1="45.8771" y1="92.0933" x2="46.6771" y2="96.5743" gradientUnits="userSpaceOnUse">
<stop stop-color="#640D5F"/>
<stop offset="1" stop-color="#CF67C9"/>
</linearGradient>
<linearGradient id="paint30_linear_118_357" x1="39.9407" y1="97.7768" x2="40.7407" y2="102.258" gradientUnits="userSpaceOnUse">
<stop stop-color="#640D5F"/>
<stop offset="1" stop-color="#CF67C9"/>
</linearGradient>
<linearGradient id="paint31_linear_118_357" x1="34.3252" y1="66.3212" x2="35.9304" y2="75.3128" gradientUnits="userSpaceOnUse">
<stop stop-color="#640D5F"/>
<stop offset="1" stop-color="#CF67C9"/>
</linearGradient>
<linearGradient id="paint32_linear_118_357" x1="31.4495" y1="76.1127" x2="33.0547" y2="85.1043" gradientUnits="userSpaceOnUse">
<stop stop-color="#640D5F"/>
<stop offset="1" stop-color="#CF67C9"/>
</linearGradient>
<linearGradient id="paint33_linear_118_357" x1="29.0442" y1="62.6401" x2="29.8442" y2="67.1211" gradientUnits="userSpaceOnUse">
<stop stop-color="#640D5F"/>
<stop offset="1" stop-color="#CF67C9"/>
</linearGradient>
<linearGradient id="paint34_linear_118_357" x1="34.0043" y1="103.46" x2="34.8095" y2="107.971" gradientUnits="userSpaceOnUse">
<stop stop-color="#640D5F"/>
<stop offset="1" stop-color="#CF67C9"/>
</linearGradient>
<linearGradient id="paint35_linear_118_357" x1="28.5587" y1="85.9068" x2="30.1639" y2="94.8984" gradientUnits="userSpaceOnUse">
<stop stop-color="#640D5F"/>
<stop offset="1" stop-color="#CF67C9"/>
</linearGradient>
<linearGradient id="paint36_linear_118_357" x1="21.5029" y1="59.3322" x2="22.3081" y2="63.8427" gradientUnits="userSpaceOnUse">
<stop stop-color="#640D5F"/>
<stop offset="1" stop-color="#CF67C9"/>
</linearGradient>
<linearGradient id="paint37_linear_118_357" x1="25.6682" y1="95.701" x2="27.2682" y2="104.663" gradientUnits="userSpaceOnUse">
<stop stop-color="#640D5F"/>
<stop offset="1" stop-color="#CF67C9"/>
</linearGradient>
<linearGradient id="paint38_linear_118_357" x1="23.5786" y1="45.0597" x2="24.3838" y2="49.5702" gradientUnits="userSpaceOnUse">
<stop stop-color="#640D5F"/>
<stop offset="1" stop-color="#CF67C9"/>
</linearGradient>
<linearGradient id="paint39_linear_118_357" x1="13.9518" y1="56.0564" x2="14.7517" y2="60.5374" gradientUnits="userSpaceOnUse">
<stop stop-color="#640D5F"/>
<stop offset="1" stop-color="#CF67C9"/>
</linearGradient>
<linearGradient id="paint40_linear_118_357" x1="8.65604" y1="52.3779" x2="9.456" y2="56.8589" gradientUnits="userSpaceOnUse">
<stop stop-color="#640D5F"/>
<stop offset="1" stop-color="#CF67C9"/>
</linearGradient>
<clipPath id="clip0_118_357">
<rect width="95.8289" height="95.8289" fill="white" transform="translate(0 16.8412) rotate(-10.1219)"/>
</clipPath>
</defs>
</svg>
