<svg width="83" height="83" viewBox="0 0 83 83" fill="none" xmlns="http://www.w3.org/2000/svg">
<mask id="mask0_49_50" style="mask-type:luminance" maskUnits="userSpaceOnUse" x="0" y="0" width="83" height="83">
<path d="M82.225 0H0V82.225H82.225V0Z" fill="white"/>
</mask>
<g mask="url(#mask0_49_50)">
<path d="M42.1587 0.618355C43.1689 0.6185 44.1589 0.901703 45.0163 1.43578C45.8738 1.96985 46.5644 2.73353 47.01 3.64012L63.9071 37.3935L81.6884 72.9765C82.049 73.6922 82.2461 74.4795 82.2659 75.2808C82.2858 76.0821 82.1282 76.878 81.8039 77.6112C81.4792 78.3443 80.9969 78.9967 80.3903 79.5211C79.7838 80.0454 79.069 80.4287 78.2968 80.6437L77.9473 80.7259C77.7038 80.7805 77.4563 80.8148 77.207 80.8288H76.8373L42.1382 73.9836L20.4308 37.3935L37.2869 3.64012C37.7375 2.72875 38.4349 1.96226 39.3 1.428C40.1649 0.893728 41.1626 0.613232 42.1793 0.618355H42.1587Z" fill="url(#paint0_linear_49_50)"/>
<path d="M42.1605 0.618355C43.1707 0.6185 44.1606 0.901703 45.0181 1.43578C45.8756 1.96985 46.5662 2.73353 47.0117 3.64012L63.9091 37.3935L42.1399 73.9629L7.50269 80.8491C6.57348 80.854 5.65863 80.6201 4.84575 80.1701C4.0329 79.7197 3.34925 79.0682 2.8603 78.2781C2.37134 77.4879 2.09347 76.5856 2.05329 75.6572C2.01312 74.7289 2.21199 73.8058 2.63085 72.9765L20.4325 37.414L37.2887 3.64012C37.7392 2.72875 38.4367 1.96226 39.3017 1.428C40.1667 0.893728 41.1644 0.613232 42.1811 0.618355H42.1605Z" fill="url(#paint1_linear_49_50)"/>
<path d="M42.1587 0.618286C43.1689 0.618431 44.1589 0.901586 45.0163 1.43571C45.8738 1.96978 46.5644 2.73342 47.01 3.64005L63.9071 37.3934C63.9071 37.3934 49.8092 74.3188 42.6936 74.3188C35.578 74.3188 20.4308 37.3934 20.4308 37.3934L37.2869 3.64005C37.7082 2.783 38.3482 2.05228 39.1422 1.52173C39.9363 0.991137 40.8562 0.679518 41.8093 0.618286H42.1587Z" fill="url(#paint2_linear_49_50)"/>
</g>
<defs>
<linearGradient id="paint0_linear_49_50" x1="51.3492" y1="0.618286" x2="51.3492" y2="80.8288" gradientUnits="userSpaceOnUse">
<stop stop-color="#FFE100"/>
<stop offset="1" stop-color="#FF9B00"/>
</linearGradient>
<linearGradient id="paint1_linear_49_50" x1="74.4679" y1="-13.187" x2="9.30842" y2="78.3465" gradientUnits="userSpaceOnUse">
<stop stop-color="#FFE100"/>
<stop offset="1" stop-color="#FF9B00"/>
</linearGradient>
<linearGradient id="paint2_linear_49_50" x1="41.8881" y1="-19.3927" x2="41.8881" y2="74.468" gradientUnits="userSpaceOnUse">
<stop stop-color="#33A1E0"/>
<stop offset="0.5" stop-color="#2888C2"/>
<stop offset="1" stop-color="#1C6EA4"/>
</linearGradient>
</defs>
</svg>
