<svg width="221" height="86" viewBox="0 0 221 86" fill="none" xmlns="http://www.w3.org/2000/svg">
<path d="M84.184 58.104C84.184 56.3333 84.5467 54.7653 85.272 53.4C86.0187 52.0347 87.0213 50.9787 88.28 50.232C89.56 49.464 90.9787 49.08 92.536 49.08C93.688 49.08 94.8187 49.336 95.928 49.848C97.0587 50.3387 97.9547 51 98.616 51.832V43.32H102.296V67H98.616V64.344C98.0187 65.1973 97.1867 65.9013 96.12 66.456C95.0747 67.0107 93.8693 67.288 92.504 67.288C90.968 67.288 89.56 66.904 88.28 66.136C87.0213 65.3467 86.0187 64.2587 85.272 62.872C84.5467 61.464 84.184 59.8747 84.184 58.104ZM98.616 58.168C98.616 56.952 98.36 55.896 97.848 55C97.3573 54.104 96.7067 53.4213 95.896 52.952C95.0853 52.4827 94.2107 52.248 93.272 52.248C92.3333 52.248 91.4587 52.4827 90.648 52.952C89.8373 53.4 89.176 54.072 88.664 54.968C88.1733 55.8427 87.928 56.888 87.928 58.104C87.928 59.32 88.1733 60.3867 88.664 61.304C89.176 62.2213 89.8373 62.9253 90.648 63.416C91.48 63.8853 92.3547 64.12 93.272 64.12C94.2107 64.12 95.0853 63.8853 95.896 63.416C96.7067 62.9467 97.3573 62.264 97.848 61.368C98.36 60.4507 98.616 59.384 98.616 58.168ZM105.872 58.104C105.872 56.3333 106.234 54.7653 106.96 53.4C107.706 52.0347 108.709 50.9787 109.968 50.232C111.248 49.464 112.656 49.08 114.192 49.08C115.578 49.08 116.784 49.3573 117.808 49.912C118.853 50.4453 119.685 51.1173 120.304 51.928V49.368H123.984V67H120.304V64.376C119.685 65.208 118.842 65.9013 117.776 66.456C116.709 67.0107 115.493 67.288 114.128 67.288C112.613 67.288 111.226 66.904 109.968 66.136C108.709 65.3467 107.706 64.2587 106.96 62.872C106.234 61.464 105.872 59.8747 105.872 58.104ZM120.304 58.168C120.304 56.952 120.048 55.896 119.536 55C119.045 54.104 118.394 53.4213 117.584 52.952C116.773 52.4827 115.898 52.248 114.96 52.248C114.021 52.248 113.146 52.4827 112.336 52.952C111.525 53.4 110.864 54.072 110.352 54.968C109.861 55.8427 109.616 56.888 109.616 58.104C109.616 59.32 109.861 60.3867 110.352 61.304C110.864 62.2213 111.525 62.9253 112.336 63.416C113.168 63.8853 114.042 64.12 114.96 64.12C115.898 64.12 116.773 63.8853 117.584 63.416C118.394 62.9467 119.045 62.264 119.536 61.368C120.048 60.4507 120.304 59.384 120.304 58.168ZM132.423 51.96C133.042 51.1493 133.884 50.4667 134.951 49.912C136.018 49.3573 137.223 49.08 138.567 49.08C140.103 49.08 141.5 49.464 142.759 50.232C144.039 50.9787 145.042 52.0347 145.767 53.4C146.492 54.7653 146.855 56.3333 146.855 58.104C146.855 59.8747 146.492 61.464 145.767 62.872C145.042 64.2587 144.039 65.3467 142.759 66.136C141.5 66.904 140.103 67.288 138.567 67.288C137.223 67.288 136.028 67.0213 134.983 66.488C133.938 65.9333 133.084 65.2507 132.423 64.44V75.384H128.775V49.368H132.423V51.96ZM143.143 58.104C143.143 56.888 142.887 55.8427 142.375 54.968C141.884 54.072 141.223 53.4 140.391 52.952C139.58 52.4827 138.706 52.248 137.767 52.248C136.85 52.248 135.975 52.4827 135.143 52.952C134.332 53.4213 133.671 54.104 133.159 55C132.668 55.896 132.423 56.952 132.423 58.168C132.423 59.384 132.668 60.4507 133.159 61.368C133.671 62.264 134.332 62.9467 135.143 63.416C135.975 63.8853 136.85 64.12 137.767 64.12C138.706 64.12 139.58 63.8853 140.391 63.416C141.223 62.9253 141.884 62.2213 142.375 61.304C142.887 60.3867 143.143 59.32 143.143 58.104ZM154.719 52.344V62.104C154.719 62.7653 154.868 63.2453 155.167 63.544C155.487 63.8213 156.02 63.96 156.767 63.96H159.007V67H156.127C154.484 67 153.225 66.616 152.351 65.848C151.476 65.08 151.039 63.832 151.039 62.104V52.344H148.959V49.368H151.039V44.984H154.719V49.368H159.007V52.344H154.719ZM164.225 47.032C163.563 47.032 163.009 46.808 162.561 46.36C162.113 45.912 161.889 45.3573 161.889 44.696C161.889 44.0347 162.113 43.48 162.561 43.032C163.009 42.584 163.563 42.36 164.225 42.36C164.865 42.36 165.409 42.584 165.857 43.032C166.305 43.48 166.529 44.0347 166.529 44.696C166.529 45.3573 166.305 45.912 165.857 46.36C165.409 46.808 164.865 47.032 164.225 47.032ZM166.017 49.368V67H162.369V49.368H166.017ZM177.622 63.736L182.614 49.368H186.486L179.766 67H175.414L168.726 49.368H172.63L177.622 63.736ZM191.1 47.032C190.438 47.032 189.884 46.808 189.436 46.36C188.988 45.912 188.764 45.3573 188.764 44.696C188.764 44.0347 188.988 43.48 189.436 43.032C189.884 42.584 190.438 42.36 191.1 42.36C191.74 42.36 192.284 42.584 192.732 43.032C193.18 43.48 193.404 44.0347 193.404 44.696C193.404 45.3573 193.18 45.912 192.732 46.36C192.284 46.808 191.74 47.032 191.1 47.032ZM192.892 49.368V67H189.244V49.368H192.892ZM206.577 49.08C207.964 49.08 209.201 49.368 210.289 49.944C211.399 50.52 212.263 51.3733 212.881 52.504C213.5 53.6347 213.809 55 213.809 56.6V67H210.193V57.144C210.193 55.5653 209.799 54.36 209.009 53.528C208.22 52.6747 207.143 52.248 205.777 52.248C204.412 52.248 203.324 52.6747 202.513 53.528C201.724 54.36 201.329 55.5653 201.329 57.144V67H197.681V49.368H201.329V51.384C201.927 50.6587 202.684 50.0933 203.601 49.688C204.54 49.2827 205.532 49.08 206.577 49.08Z" fill="url(#paint0_linear_6_10)"/>
<mask id="mask0_6_10" style="mask-type:luminance" maskUnits="userSpaceOnUse" x="0" y="0" width="86" height="86">
<path d="M86 0H0V86H86V0Z" fill="white"/>
</mask>
<g mask="url(#mask0_6_10)">
<path d="M44.0944 0.646679C45.151 0.64683 46.1864 0.943035 47.0832 1.50163C47.98 2.06022 48.7023 2.85896 49.1684 3.80717L66.8412 39.1102L85.4389 76.3268C85.816 77.0754 86.0222 77.8988 86.043 78.7369C86.0637 79.575 85.8989 80.4075 85.5597 81.1743C85.2201 81.9411 84.7156 82.6234 84.0812 83.1719C83.4469 83.7203 82.6993 84.1212 81.8915 84.3461L81.5261 84.432C81.2713 84.4891 81.0125 84.525 80.7517 84.5397H80.365L44.0729 77.3802L21.3689 39.1102L38.9989 3.80717C39.4702 2.85396 40.1997 2.05229 41.1044 1.49349C42.0091 0.934695 43.0526 0.641321 44.1159 0.646679H44.0944Z" fill="url(#paint1_linear_6_10)"/>
<path d="M44.0962 0.646679C45.1527 0.64683 46.1881 0.943035 47.0849 1.50163C47.9818 2.06022 48.7042 2.85896 49.1702 3.80717L66.8432 39.1102L44.0747 77.3585L7.8472 84.5609C6.87534 84.566 5.91849 84.3213 5.06829 83.8507C4.21812 83.3796 3.50308 82.6982 2.99168 81.8718C2.48028 81.0454 2.18965 80.1016 2.14763 79.1306C2.10561 78.1596 2.31361 77.1942 2.7517 76.3268L21.3707 39.1317L39.0007 3.80717C39.4719 2.85396 40.2015 2.05229 41.1062 1.49349C42.0108 0.934694 43.0543 0.641321 44.1177 0.646679H44.0962Z" fill="url(#paint2_linear_6_10)"/>
<path d="M44.0944 0.646606C45.151 0.646758 46.1864 0.942912 47.0832 1.50156C47.98 2.06015 48.7024 2.85884 49.1684 3.8071L66.8412 39.1101C66.8412 39.1101 52.0961 77.7307 44.6538 77.7307C37.2115 77.7307 21.3689 39.1101 21.3689 39.1101L38.9989 3.8071C39.4395 2.9107 40.1089 2.14643 40.9394 1.59153C41.7699 1.03658 42.7321 0.710649 43.7289 0.646606H44.0944Z" fill="url(#paint3_linear_6_10)"/>
</g>
<defs>
<linearGradient id="paint0_linear_6_10" x1="214.5" y1="32" x2="100.853" y2="73.8181" gradientUnits="userSpaceOnUse">
<stop stop-color="#33A1E0"/>
<stop offset="1" stop-color="#1C587A"/>
</linearGradient>
<linearGradient id="paint1_linear_6_10" x1="53.7068" y1="0.646606" x2="53.7068" y2="84.5397" gradientUnits="userSpaceOnUse">
<stop stop-color="#FFE100"/>
<stop offset="1" stop-color="#FF9B00"/>
</linearGradient>
<linearGradient id="paint2_linear_6_10" x1="77.8868" y1="-13.7925" x2="9.73585" y2="81.9434" gradientUnits="userSpaceOnUse">
<stop stop-color="#FFE100"/>
<stop offset="1" stop-color="#FF9B00"/>
</linearGradient>
<linearGradient id="paint3_linear_6_10" x1="43.8113" y1="-20.283" x2="43.8113" y2="77.8868" gradientUnits="userSpaceOnUse">
<stop stop-color="#33A1E0"/>
<stop offset="0.5" stop-color="#2888C2"/>
<stop offset="1" stop-color="#1C6EA4"/>
</linearGradient>
</defs>
</svg>
