<svg width="325" height="400" viewBox="0 0 325 400" fill="none" xmlns="http://www.w3.org/2000/svg">
<rect width="325" height="400" rx="20" fill="url(#paint0_linear_708_296)"/>
<g clip-path="url(#clip0_708_296)">
<path d="M28.9997 244.791H38.2275V401H28.9997V244.791Z" fill="url(#paint1_linear_708_296)"/>
<path d="M38.2278 235.563H47.3953V244.791H38.2278V235.563Z" fill="url(#paint2_linear_708_296)"/>
<path d="M47.3954 226.396H56.6232V235.563H47.3954V226.396Z" fill="url(#paint3_linear_708_296)"/>
<path d="M56.6235 217.167H65.791V226.395H56.6235V217.167Z" fill="url(#paint4_linear_708_296)"/>
<path d="M203.665 208V244.791H194.437V253.958H185.269V336.647H194.437V345.874H203.665V355.042H212.832V364.209H93.353V401H84.1855V355.042H74.9577V345.874H65.7902V336.647H56.6227V253.958H65.7902V244.791H74.9577V217.167H65.7902V208H203.665ZM157.706 217.167H84.1855V235.563H157.706V217.167ZM176.102 217.167H166.874V235.563H176.102V217.167ZM194.437 235.563V217.167H185.269V235.563H194.437ZM166.874 345.874H176.102V355.042H185.269V345.874H176.102V336.647H166.874V345.874ZM139.311 345.874H148.479V355.042H157.706V345.874H148.479V336.647H139.311V345.874ZM93.353 355.042H120.916V345.874H93.353V355.042ZM84.1855 327.479H157.706V272.353H84.1855V327.479ZM74.9577 263.126H176.102V253.958H74.9577V263.126Z" fill="url(#paint5_linear_708_296)"/>
<path d="M93.3535 299.916H102.581V309.084H93.3535V299.916Z" fill="#113A23"/>
<path d="M102.582 281.521H111.749V290.688H102.582V281.521Z" fill="#113A23"/>
<path d="M102.582 401V382.604H130.145V401H120.917V391.832H111.749V401H102.582Z" fill="url(#paint6_linear_708_296)"/>
<path d="M102.581 309.084H139.312V318.312H102.581V309.084Z" fill="#113A23"/>
<path d="M130.144 281.521H139.312V290.688H130.144V281.521Z" fill="#113A23"/>
<path d="M139.312 299.916H148.479V309.084H139.312V299.916Z" fill="#113A23"/>
<path d="M212.832 364.209H222V401H212.832V364.209Z" fill="url(#paint7_linear_708_296)"/>
</g>
<g clip-path="url(#clip1_708_296)">
<path d="M273.991 338.575L271.606 337.768L272.418 335.368L270.017 334.556L269.205 336.957L266.821 336.15L266.014 338.535L263.629 337.728L262.823 340.113L265.207 340.92L264.395 343.32L266.78 344.127L265.974 346.511L268.374 347.323L269.181 344.939L271.565 345.745L272.377 343.345L274.762 344.151L275.569 341.766L273.184 340.96L273.991 338.575ZM269.993 342.538L267.592 341.726L268.399 339.341L270.799 340.153L269.993 342.538Z" fill="url(#paint8_linear_708_296)"/>
<path d="M261.865 374.426L259.48 373.619L260.287 371.234L257.886 370.422L257.08 372.807L254.695 372L253.883 374.401L251.498 373.594L250.692 375.979L253.076 376.786L252.264 379.186L254.649 379.993L253.843 382.378L256.243 383.19L257.05 380.805L259.434 381.611L260.246 379.211L262.631 380.017L263.438 377.633L261.053 376.826L261.865 374.426ZM257.862 378.404L255.461 377.592L256.268 375.208L258.668 376.019L257.862 378.404Z" fill="url(#paint9_linear_708_296)"/>
<path d="M265.097 364.871L262.712 364.064L261.905 366.449L264.29 367.255L265.097 364.871Z" fill="url(#paint10_linear_708_296)"/>
<path d="M268.334 355.3L265.949 354.494L265.137 356.894L267.522 357.701L268.334 355.3Z" fill="url(#paint11_linear_708_296)"/>
<path d="M254.735 364.024L252.335 363.212L251.523 365.612L253.923 366.424L254.735 364.024Z" fill="url(#paint12_linear_708_296)"/>
<path d="M259.586 349.683L257.185 348.872L256.378 351.256L258.779 352.068L259.586 349.683Z" fill="url(#paint13_linear_708_296)"/>
<path d="M251.523 365.612L249.138 364.806L248.331 367.19L250.716 367.997L251.523 365.612Z" fill="url(#paint14_linear_708_296)"/>
<path d="M257.992 346.487L255.607 345.68L254.8 348.065L257.185 348.872L257.992 346.487Z" fill="url(#paint15_linear_708_296)"/>
<path d="M245.094 376.761L242.694 375.949L241.887 378.334L244.288 379.145L245.094 376.761Z" fill="url(#paint16_linear_708_296)"/>
<path d="M248.331 367.19L245.931 366.378L245.124 368.763L247.525 369.575L248.331 367.19Z" fill="url(#paint17_linear_708_296)"/>
<path d="M234.056 346.381L233.25 348.766L230.849 347.954L231.656 345.57L229.271 344.763L226.846 351.933L229.231 352.74L230.037 350.355L232.438 351.167L231.631 353.551L234.016 354.358L232.398 359.143L237.183 360.762L236.376 363.147L238.761 363.953L237.954 366.338L235.57 365.531L234.758 367.932L241.928 370.357L242.74 367.957L240.355 367.15L241.161 364.765L243.546 365.572L244.353 363.187L249.138 364.806L250.757 360.02L253.141 360.827L253.948 358.442L256.348 359.254L255.542 361.639L257.927 362.445L260.352 355.275L257.967 354.469L257.16 356.854L254.76 356.042L255.567 353.657L253.182 352.85L254.8 348.065L250.015 346.446L250.822 344.062L248.437 343.255L249.249 340.855L251.634 341.661L252.44 339.276L245.27 336.851L244.463 339.236L246.848 340.043L246.036 342.443L243.652 341.637L242.845 344.021L238.06 342.403L236.441 347.188L234.056 346.381ZM249.975 354.423L249.163 356.824L246.778 356.017L247.59 353.616L249.975 354.423ZM246.824 348.025L249.208 348.831L248.396 351.232L246.012 350.425L246.824 348.025ZM241.186 356.783L240.379 359.168L237.995 358.361L238.801 355.977L241.186 356.783ZM238.842 348L241.226 348.807L240.42 351.191L238.035 350.385L238.842 348Z" fill="url(#paint18_linear_708_296)"/>
<path d="M256.419 343.28L254.018 342.468L253.206 344.868L255.607 345.68L256.419 343.28Z" fill="url(#paint19_linear_708_296)"/>
<path d="M259.65 333.725L257.25 332.913L256.443 335.298L258.844 336.11L259.65 333.725Z" fill="url(#paint20_linear_708_296)"/>
<path d="M233.139 372.717L230.754 371.911L229.948 374.295L232.332 375.102L233.139 372.717Z" fill="url(#paint21_linear_708_296)"/>
<path d="M247.695 329.681L245.31 328.875L244.504 331.259L246.889 332.066L247.695 329.681Z" fill="url(#paint22_linear_708_296)"/>
<path d="M233.991 362.34L231.591 361.528L230.784 363.913L233.185 364.725L233.991 362.34Z" fill="url(#paint23_linear_708_296)"/>
<path d="M242.079 338.43L239.678 337.618L238.866 340.018L241.267 340.83L242.079 338.43Z" fill="url(#paint24_linear_708_296)"/>
<path d="M232.397 359.144L230.013 358.337L229.206 360.722L231.591 361.528L232.397 359.144Z" fill="url(#paint25_linear_708_296)"/>
<path d="M238.866 340.018L236.482 339.211L235.675 341.596L238.06 342.403L238.866 340.018Z" fill="url(#paint26_linear_708_296)"/>
<path d="M230.825 355.936L228.424 355.125L227.612 357.525L230.013 358.337L230.825 355.936Z" fill="url(#paint27_linear_708_296)"/>
<path d="M235.675 341.596L233.274 340.784L232.468 343.169L234.868 343.981L235.675 341.596Z" fill="url(#paint28_linear_708_296)"/>
<path d="M219.571 373.443L220.377 371.058L222.762 371.865L223.569 369.48L225.969 370.292L226.781 367.891L224.38 367.08L225.187 364.695L222.802 363.888L223.614 361.488L221.229 360.681L220.418 363.082L218.017 362.27L217.21 364.654L214.826 363.848L214.014 366.248L216.399 367.055L215.592 369.44L217.992 370.252L217.186 372.636L219.571 373.443ZM219.611 365.466L221.996 366.273L221.184 368.673L218.799 367.867L219.611 365.466Z" fill="url(#paint29_linear_708_296)"/>
<path d="M221.254 352.699L218.869 351.893L218.057 354.293L220.442 355.1L221.254 352.699Z" fill="url(#paint30_linear_708_296)"/>
<path d="M224.486 343.145L222.101 342.338L221.294 344.723L223.679 345.529L224.486 343.145Z" fill="url(#paint31_linear_708_296)"/>
<path d="M224.526 335.168L226.911 335.974L226.104 338.359L228.505 339.171L229.311 336.786L231.696 337.593L232.508 335.192L234.893 335.999L235.7 333.614L233.315 332.807L234.127 330.407L231.742 329.6L232.549 327.216L230.148 326.404L229.341 328.788L226.957 327.982L226.145 330.382L223.744 329.57L222.938 331.955L225.338 332.767L224.526 335.168ZM228.53 331.189L230.93 332.001L230.123 334.386L227.723 333.574L228.53 331.189Z" fill="url(#paint32_linear_708_296)"/>
</g>
<g clip-path="url(#clip2_708_296)">
<path d="M36.9878 280.667L35.8685 281.206L35.325 280.08L34.1984 280.623L34.7419 281.75L33.6226 282.29L34.1625 283.409L33.0432 283.949L33.5832 285.068L34.7024 284.528L35.2459 285.655L36.3652 285.115L36.9051 286.234L38.0317 285.691L37.4918 284.572L38.6111 284.032L38.0676 282.905L39.1869 282.365L38.647 281.246L37.5277 281.786L36.9878 280.667ZM36.9483 283.445L35.8217 283.988L35.2818 282.869L36.4084 282.326L36.9483 283.445Z" fill="url(#paint33_linear_708_296)"/>
<path d="M45.1045 297.492L43.9852 298.032L43.4453 296.913L42.3186 297.456L42.8585 298.576L41.7393 299.115L42.2827 300.242L41.1635 300.782L41.7034 301.901L42.8227 301.361L43.3661 302.488L44.4854 301.948L45.0253 303.067L46.152 302.524L45.6121 301.405L46.7313 300.865L46.1878 299.738L47.3071 299.198L46.7672 298.079L45.6479 298.619L45.1045 297.492ZM45.0686 300.278L43.9419 300.821L43.402 299.702L44.5287 299.159L45.0686 300.278Z" fill="url(#paint34_linear_708_296)"/>
<path d="M42.9412 293.008L41.8219 293.548L42.3618 294.667L43.4811 294.127L42.9412 293.008Z" fill="url(#paint35_linear_708_296)"/>
<path d="M40.7743 288.516L39.655 289.056L40.1985 290.182L41.3178 289.642L40.7743 288.516Z" fill="url(#paint36_linear_708_296)"/>
<path d="M38.9966 296.291L37.87 296.834L38.4135 297.961L39.5401 297.417L38.9966 296.291Z" fill="url(#paint37_linear_708_296)"/>
<path d="M35.7499 289.56L34.6233 290.104L35.1632 291.223L36.2898 290.679L35.7499 289.56Z" fill="url(#paint38_linear_708_296)"/>
<path d="M38.4135 297.961L37.2942 298.5L37.8341 299.62L38.9534 299.08L38.4135 297.961Z" fill="url(#paint39_linear_708_296)"/>
<path d="M34.0834 288.984L32.9641 289.524L33.504 290.643L34.6233 290.103L34.0834 288.984Z" fill="url(#paint40_linear_708_296)"/>
<path d="M40.0009 304.111L38.8743 304.655L39.4142 305.774L40.5408 305.231L40.0009 304.111Z" fill="url(#paint41_linear_708_296)"/>
<path d="M37.8342 299.62L36.7075 300.163L37.2474 301.282L38.3741 300.739L37.8342 299.62Z" fill="url(#paint42_linear_708_296)"/>
<path d="M25.6112 297.219L26.1511 298.338L25.0245 298.882L24.4846 297.763L23.3653 298.302L24.9886 301.668L26.1079 301.128L25.568 300.008L26.6946 299.465L27.2345 300.584L28.3538 300.044L29.4372 302.29L31.6831 301.207L32.223 302.326L33.3423 301.786L33.8822 302.905L32.7629 303.445L33.3064 304.572L36.6716 302.949L36.1281 301.822L35.0088 302.362L34.4689 301.243L35.5882 300.703L35.0483 299.584L37.2942 298.5L36.2108 296.254L37.33 295.714L36.7901 294.595L37.9168 294.052L38.4567 295.171L39.576 294.631L37.9526 291.266L36.8334 291.806L37.3733 292.925L36.2467 293.468L35.7067 292.349L34.5875 292.889L33.5041 290.643L31.2582 291.727L30.7182 290.607L29.599 291.147L29.0555 290.021L30.1748 289.481L29.6348 288.361L26.2697 289.985L26.8096 291.104L27.9288 290.564L28.4723 291.691L27.3531 292.231L27.893 293.35L25.6471 294.433L26.7305 296.679L25.6112 297.219ZM34.0007 294.552L34.5442 295.678L33.4249 296.218L32.8815 295.092L34.0007 294.552ZM30.6788 293.386L31.7981 292.846L32.3415 293.972L31.2223 294.512L30.6788 293.386ZM31.719 298.421L32.2589 299.54L31.1396 300.08L30.5997 298.961L31.719 298.421ZM27.8571 296.136L28.9764 295.596L29.5163 296.715L28.397 297.255L27.8571 296.136Z" fill="url(#paint43_linear_708_296)"/>
<path d="M32.4207 288.397L31.2941 288.941L31.8375 290.068L32.9642 289.524L32.4207 288.397Z" fill="url(#paint44_linear_708_296)"/>
<path d="M30.2575 283.913L29.1309 284.457L29.6708 285.576L30.7974 285.032L30.2575 283.913Z" fill="url(#paint45_linear_708_296)"/>
<path d="M34.3898 306.818L33.2705 307.358L33.8104 308.477L34.9297 307.937L34.3898 306.818Z" fill="url(#paint46_linear_708_296)"/>
<path d="M24.6464 286.62L23.5271 287.16L24.067 288.279L25.1863 287.739L24.6464 286.62Z" fill="url(#paint47_linear_708_296)"/>
<path d="M31.1038 302.866L29.9772 303.41L30.5171 304.529L31.6437 303.985L31.1038 302.866Z" fill="url(#paint48_linear_708_296)"/>
<path d="M25.6904 291.644L24.5637 292.188L25.1072 293.314L26.2338 292.771L25.6904 291.644Z" fill="url(#paint49_linear_708_296)"/>
<path d="M29.4371 302.291L28.3179 302.831L28.8578 303.95L29.9771 303.41L29.4371 302.291Z" fill="url(#paint50_linear_708_296)"/>
<path d="M25.1072 293.314L23.9879 293.854L24.5278 294.973L25.6471 294.433L25.1072 293.314Z" fill="url(#paint51_linear_708_296)"/>
<path d="M27.7745 301.704L26.6478 302.247L27.1913 303.374L28.3179 302.83L27.7745 301.704Z" fill="url(#paint52_linear_708_296)"/>
<path d="M24.5278 294.973L23.4011 295.517L23.941 296.636L25.0677 296.092L24.5278 294.973Z" fill="url(#paint53_linear_708_296)"/>
<path d="M29.8586 311.763L29.3187 310.644L30.438 310.104L29.8981 308.985L31.0247 308.441L30.4812 307.315L29.3546 307.858L28.8147 306.739L27.6954 307.279L27.1519 306.152L26.0326 306.692L26.5761 307.819L25.4495 308.362L25.9894 309.481L24.8701 310.021L25.4136 311.148L26.5329 310.608L27.0728 311.727L28.1994 311.184L28.7394 312.303L29.8586 311.763ZM27.116 308.938L28.2353 308.398L28.7788 309.525L27.6595 310.065L27.116 308.938Z" fill="url(#paint54_linear_708_296)"/>
<path d="M23.2826 303.871L22.1633 304.411L22.7068 305.537L23.8261 304.997L23.2826 303.871Z" fill="url(#paint55_linear_708_296)"/>
<path d="M21.1194 299.386L20.0001 299.926L20.54 301.045L21.6593 300.505L21.1194 299.386Z" fill="url(#paint56_linear_708_296)"/>
<path d="M18.3768 296.561L19.4961 296.021L20.036 297.14L21.1626 296.597L20.6227 295.477L21.742 294.937L21.1985 293.811L22.3178 293.271L21.7779 292.151L20.6586 292.691L20.1151 291.565L18.9958 292.105L18.4559 290.985L17.3293 291.529L17.8692 292.648L16.7499 293.188L17.2934 294.315L16.1668 294.858L16.7067 295.977L17.8333 295.434L18.3768 296.561ZM18.4127 293.775L19.5393 293.231L20.0792 294.351L18.9526 294.894L18.4127 293.775Z" fill="url(#paint57_linear_708_296)"/>
</g>
<g clip-path="url(#clip3_708_296)">
<path d="M244.477 245.763L242.917 244.855L243.83 243.285L242.259 242.372L241.346 243.942L239.786 243.035L238.878 244.595L237.318 243.688L236.411 245.249L237.971 246.156L237.058 247.727L238.618 248.634L237.711 250.194L239.282 251.107L240.189 249.547L241.75 250.454L242.663 248.884L244.223 249.791L245.13 248.23L243.57 247.323L244.477 245.763ZM241.102 247.976L239.532 247.063L240.439 245.503L242.009 246.416L241.102 247.976Z" fill="url(#paint58_linear_708_296)"/>
<path d="M230.839 269.221L229.279 268.313L230.186 266.753L228.615 265.84L227.708 267.4L226.147 266.493L225.234 268.064L223.674 267.157L222.767 268.717L224.327 269.624L223.414 271.195L224.974 272.102L224.067 273.663L225.638 274.576L226.545 273.015L228.105 273.923L229.019 272.352L230.579 273.259L231.486 271.699L229.926 270.791L230.839 269.221ZM227.458 271.445L225.888 270.531L226.795 268.971L228.365 269.884L227.458 271.445Z" fill="url(#paint59_linear_708_296)"/>
<path d="M234.474 262.969L232.913 262.062L232.006 263.622L233.567 264.529L234.474 262.969Z" fill="url(#paint60_linear_708_296)"/>
<path d="M238.115 256.707L236.554 255.799L235.641 257.37L237.202 258.277L238.115 256.707Z" fill="url(#paint61_linear_708_296)"/>
<path d="M227.315 260.894L225.744 259.981L224.831 261.552L226.401 262.465L227.315 260.894Z" fill="url(#paint62_linear_708_296)"/>
<path d="M232.77 251.511L231.199 250.598L230.292 252.159L231.863 253.072L232.77 251.511Z" fill="url(#paint63_linear_708_296)"/>
<path d="M224.831 261.552L223.27 260.645L222.363 262.205L223.923 263.112L224.831 261.552Z" fill="url(#paint64_linear_708_296)"/>
<path d="M232.106 249.038L230.546 248.13L229.639 249.691L231.199 250.598L232.106 249.038Z" fill="url(#paint65_linear_708_296)"/>
<path d="M218.722 268.467L217.152 267.554L216.244 269.115L217.815 270.028L218.722 268.467Z" fill="url(#paint66_linear_708_296)"/>
<path d="M222.363 262.205L220.792 261.292L219.885 262.852L221.456 263.766L222.363 262.205Z" fill="url(#paint67_linear_708_296)"/>
<path d="M215.304 245.546L214.397 247.107L212.826 246.194L213.733 244.633L212.173 243.726L209.445 248.418L211.006 249.325L211.913 247.764L213.484 248.678L212.576 250.238L214.137 251.145L212.316 254.276L215.448 256.097L214.54 257.657L216.101 258.564L215.194 260.125L213.633 259.218L212.72 260.788L217.411 263.516L218.325 261.945L216.764 261.038L217.671 259.478L219.232 260.385L220.139 258.824L223.27 260.645L225.091 257.514L226.651 258.421L227.558 256.86L229.129 257.774L228.222 259.334L229.782 260.241L232.51 255.55L230.949 254.643L230.042 256.203L228.472 255.29L229.379 253.729L227.818 252.822L229.639 249.691L226.508 247.871L227.415 246.31L225.854 245.403L226.768 243.832L228.328 244.739L229.235 243.179L224.544 240.451L223.636 242.012L225.197 242.919L224.284 244.49L222.723 243.582L221.816 245.143L218.685 243.323L216.864 246.454L215.304 245.546ZM225.34 253.469L224.427 255.04L222.867 254.133L223.78 252.562L225.34 253.469ZM224.04 248.524L225.6 249.431L224.687 251.002L223.127 250.094L224.04 248.524ZM218.828 253.873L217.921 255.433L216.361 254.526L217.268 252.966L218.828 253.873ZM218.435 247.367L219.996 248.274L219.088 249.835L217.528 248.927L218.435 247.367Z" fill="url(#paint68_linear_708_296)"/>
<path d="M231.459 246.56L229.888 245.646L228.975 247.217L230.546 248.13L231.459 246.56Z" fill="url(#paint69_linear_708_296)"/>
<path d="M235.094 240.308L233.523 239.395L232.616 240.955L234.187 241.868L235.094 240.308Z" fill="url(#paint70_linear_708_296)"/>
<path d="M210.9 263.919L209.339 263.012L208.432 264.573L209.992 265.48L210.9 263.919Z" fill="url(#paint71_linear_708_296)"/>
<path d="M227.271 235.76L225.711 234.853L224.804 236.413L226.364 237.32L227.271 235.76Z" fill="url(#paint72_linear_708_296)"/>
<path d="M212.98 256.75L211.409 255.836L210.502 257.397L212.073 258.31L212.98 256.75Z" fill="url(#paint73_linear_708_296)"/>
<path d="M222.076 241.105L220.505 240.191L219.592 241.762L221.163 242.675L222.076 241.105Z" fill="url(#paint74_linear_708_296)"/>
<path d="M212.316 254.276L210.756 253.369L209.849 254.93L211.409 255.837L212.316 254.276Z" fill="url(#paint75_linear_708_296)"/>
<path d="M219.592 241.762L218.032 240.854L217.124 242.415L218.685 243.322L219.592 241.762Z" fill="url(#paint76_linear_708_296)"/>
<path d="M211.669 251.798L210.098 250.885L209.185 252.456L210.756 253.369L211.669 251.798Z" fill="url(#paint77_linear_708_296)"/>
<path d="M217.124 242.415L215.554 241.502L214.646 243.062L216.217 243.976L217.124 242.415Z" fill="url(#paint78_linear_708_296)"/>
<path d="M201.262 262.492L202.17 260.932L203.73 261.839L204.637 260.279L206.208 261.192L207.121 259.621L205.55 258.708L206.458 257.147L204.897 256.24L205.81 254.67L204.25 253.762L203.337 255.333L201.766 254.42L200.859 255.98L199.298 255.073L198.385 256.644L199.946 257.551L199.038 259.111L200.609 260.025L199.702 261.585L201.262 262.492ZM202.43 256.893L203.99 257.801L203.077 259.371L201.516 258.464L202.43 256.893Z" fill="url(#paint79_linear_708_296)"/>
<path d="M205.407 248.158L203.846 247.25L202.933 248.821L204.494 249.728L205.407 248.158Z" fill="url(#paint80_linear_708_296)"/>
<path d="M209.042 241.905L207.481 240.998L206.574 242.558L208.134 243.466L209.042 241.905Z" fill="url(#paint81_linear_708_296)"/>
<path d="M210.209 236.307L211.769 237.214L210.862 238.774L212.433 239.688L213.34 238.127L214.9 239.034L215.814 237.464L217.374 238.371L218.281 236.811L216.721 235.903L217.634 234.333L216.074 233.425L216.981 231.865L215.41 230.952L214.503 232.512L212.942 231.605L212.029 233.176L210.459 232.262L209.551 233.823L211.122 234.736L210.209 236.307ZM213.59 234.083L215.16 234.996L214.253 236.557L212.682 235.643L213.59 234.083Z" fill="url(#paint82_linear_708_296)"/>
</g>
<rect x="178" y="159" width="132" height="28" rx="14" fill="url(#paint83_linear_708_296)"/>
<path d="M214.33 173.21C214.33 172.65 214.44 172.153 214.66 171.72C214.887 171.287 215.19 170.953 215.57 170.72C215.957 170.487 216.387 170.37 216.86 170.37C217.273 170.37 217.633 170.453 217.94 170.62C218.253 170.787 218.503 170.997 218.69 171.25V170.46H220.1V176H218.69V175.19C218.51 175.45 218.26 175.667 217.94 175.84C217.627 176.007 217.263 176.09 216.85 176.09C216.383 176.09 215.957 175.97 215.57 175.73C215.19 175.49 214.887 175.153 214.66 174.72C214.44 174.28 214.33 173.777 214.33 173.21ZM218.69 173.23C218.69 172.89 218.623 172.6 218.49 172.36C218.357 172.113 218.177 171.927 217.95 171.8C217.723 171.667 217.48 171.6 217.22 171.6C216.96 171.6 216.72 171.663 216.5 171.79C216.28 171.917 216.1 172.103 215.96 172.35C215.827 172.59 215.76 172.877 215.76 173.21C215.76 173.543 215.827 173.837 215.96 174.09C216.1 174.337 216.28 174.527 216.5 174.66C216.727 174.793 216.967 174.86 217.22 174.86C217.48 174.86 217.723 174.797 217.95 174.67C218.177 174.537 218.357 174.35 218.49 174.11C218.623 173.863 218.69 173.57 218.69 173.23ZM226.767 170.46L223.337 178.62H221.847L223.047 175.86L220.827 170.46H222.397L223.827 174.33L225.277 170.46H226.767ZM229.982 176.09C229.449 176.09 228.969 175.973 228.542 175.74C228.115 175.5 227.779 175.163 227.532 174.73C227.292 174.297 227.172 173.797 227.172 173.23C227.172 172.663 227.295 172.163 227.542 171.73C227.795 171.297 228.139 170.963 228.572 170.73C229.005 170.49 229.489 170.37 230.022 170.37C230.555 170.37 231.039 170.49 231.472 170.73C231.905 170.963 232.245 171.297 232.492 171.73C232.745 172.163 232.872 172.663 232.872 173.23C232.872 173.797 232.742 174.297 232.482 174.73C232.229 175.163 231.882 175.5 231.442 175.74C231.009 175.973 230.522 176.09 229.982 176.09ZM229.982 174.87C230.235 174.87 230.472 174.81 230.692 174.69C230.919 174.563 231.099 174.377 231.232 174.13C231.365 173.883 231.432 173.583 231.432 173.23C231.432 172.703 231.292 172.3 231.012 172.02C230.739 171.733 230.402 171.59 230.002 171.59C229.602 171.59 229.265 171.733 228.992 172.02C228.725 172.3 228.592 172.703 228.592 173.23C228.592 173.757 228.722 174.163 228.982 174.45C229.249 174.73 229.582 174.87 229.982 174.87ZM236.992 169.8C236.738 169.8 236.528 169.723 236.362 169.57C236.202 169.41 236.122 169.213 236.122 168.98C236.122 168.747 236.202 168.553 236.362 168.4C236.528 168.24 236.738 168.16 236.992 168.16C237.238 168.16 237.442 168.24 237.602 168.4C237.762 168.553 237.842 168.747 237.842 168.98C237.842 169.213 237.762 169.41 237.602 169.57C237.442 169.723 237.238 169.8 236.992 169.8ZM237.682 176.91C237.682 177.523 237.528 177.963 237.222 178.23C236.922 178.503 236.488 178.64 235.922 178.64H235.302V177.45H235.702C235.915 177.45 236.065 177.407 236.152 177.32C236.238 177.24 236.282 177.107 236.282 176.92V170.46H237.682V176.91ZM244.215 173.11C244.215 173.31 244.202 173.49 244.175 173.65H240.125C240.158 174.05 240.298 174.363 240.545 174.59C240.792 174.817 241.095 174.93 241.455 174.93C241.975 174.93 242.345 174.707 242.565 174.26H244.075C243.915 174.793 243.608 175.233 243.155 175.58C242.702 175.92 242.145 176.09 241.485 176.09C240.952 176.09 240.472 175.973 240.045 175.74C239.625 175.5 239.295 175.163 239.055 174.73C238.822 174.297 238.705 173.797 238.705 173.23C238.705 172.657 238.822 172.153 239.055 171.72C239.288 171.287 239.615 170.953 240.035 170.72C240.455 170.487 240.938 170.37 241.485 170.37C242.012 170.37 242.482 170.483 242.895 170.71C243.315 170.937 243.638 171.26 243.865 171.68C244.098 172.093 244.215 172.57 244.215 173.11ZM242.765 172.71C242.758 172.35 242.628 172.063 242.375 171.85C242.122 171.63 241.812 171.52 241.445 171.52C241.098 171.52 240.805 171.627 240.565 171.84C240.332 172.047 240.188 172.337 240.135 172.71H242.765ZM246.637 168.6V176H245.237V168.6H246.637ZM247.66 173.21C247.66 172.65 247.77 172.153 247.99 171.72C248.217 171.287 248.52 170.953 248.9 170.72C249.287 170.487 249.717 170.37 250.19 170.37C250.603 170.37 250.963 170.453 251.27 170.62C251.583 170.787 251.833 170.997 252.02 171.25V170.46H253.43V176H252.02V175.19C251.84 175.45 251.59 175.667 251.27 175.84C250.957 176.007 250.593 176.09 250.18 176.09C249.713 176.09 249.287 175.97 248.9 175.73C248.52 175.49 248.217 175.153 247.99 174.72C247.77 174.28 247.66 173.777 247.66 173.21ZM252.02 173.23C252.02 172.89 251.953 172.6 251.82 172.36C251.687 172.113 251.507 171.927 251.28 171.8C251.053 171.667 250.81 171.6 250.55 171.6C250.29 171.6 250.05 171.663 249.83 171.79C249.61 171.917 249.43 172.103 249.29 172.35C249.157 172.59 249.09 172.877 249.09 173.21C249.09 173.543 249.157 173.837 249.29 174.09C249.43 174.337 249.61 174.527 249.83 174.66C250.057 174.793 250.297 174.86 250.55 174.86C250.81 174.86 251.053 174.797 251.28 174.67C251.507 174.537 251.687 174.35 251.82 174.11C251.953 173.863 252.02 173.57 252.02 173.23ZM255.507 169.8C255.254 169.8 255.044 169.723 254.877 169.57C254.717 169.41 254.637 169.213 254.637 168.98C254.637 168.747 254.717 168.553 254.877 168.4C255.044 168.24 255.254 168.16 255.507 168.16C255.754 168.16 255.957 168.24 256.117 168.4C256.277 168.553 256.357 168.747 256.357 168.98C256.357 169.213 256.277 169.41 256.117 169.57C255.957 169.723 255.754 169.8 255.507 169.8ZM256.197 176.91C256.197 177.523 256.044 177.963 255.737 178.23C255.437 178.503 255.004 178.64 254.437 178.64H253.817V177.45H254.217C254.431 177.45 254.581 177.407 254.667 177.32C254.754 177.24 254.797 177.107 254.797 176.92V170.46H256.197V176.91ZM257.221 173.21C257.221 172.65 257.331 172.153 257.551 171.72C257.777 171.287 258.081 170.953 258.461 170.72C258.847 170.487 259.277 170.37 259.751 170.37C260.164 170.37 260.524 170.453 260.831 170.62C261.144 170.787 261.394 170.997 261.581 171.25V170.46H262.991V176H261.581V175.19C261.401 175.45 261.151 175.667 260.831 175.84C260.517 176.007 260.154 176.09 259.741 176.09C259.274 176.09 258.847 175.97 258.461 175.73C258.081 175.49 257.777 175.153 257.551 174.72C257.331 174.28 257.221 173.777 257.221 173.21ZM261.581 173.23C261.581 172.89 261.514 172.6 261.381 172.36C261.247 172.113 261.067 171.927 260.841 171.8C260.614 171.667 260.371 171.6 260.111 171.6C259.851 171.6 259.611 171.663 259.391 171.79C259.171 171.917 258.991 172.103 258.851 172.35C258.717 172.59 258.651 172.877 258.651 173.21C258.651 173.543 258.717 173.837 258.851 174.09C258.991 174.337 259.171 174.527 259.391 174.66C259.617 174.793 259.857 174.86 260.111 174.86C260.371 174.86 260.614 174.797 260.841 174.67C261.067 174.537 261.247 174.35 261.381 174.11C261.514 173.863 261.581 173.57 261.581 173.23ZM267.478 170.38C267.898 170.38 268.271 170.473 268.598 170.66C268.925 170.84 269.178 171.11 269.358 171.47C269.545 171.823 269.638 172.25 269.638 172.75V176H268.238V172.94C268.238 172.5 268.128 172.163 267.908 171.93C267.688 171.69 267.388 171.57 267.008 171.57C266.621 171.57 266.315 171.69 266.088 171.93C265.868 172.163 265.758 172.5 265.758 172.94V176H264.358V168.6H265.758V171.15C265.938 170.91 266.178 170.723 266.478 170.59C266.778 170.45 267.111 170.38 267.478 170.38ZM271.679 169.8C271.433 169.8 271.226 169.723 271.059 169.57C270.899 169.41 270.819 169.213 270.819 168.98C270.819 168.747 270.899 168.553 271.059 168.4C271.226 168.24 271.433 168.16 271.679 168.16C271.926 168.16 272.129 168.24 272.289 168.4C272.456 168.553 272.539 168.747 272.539 168.98C272.539 169.213 272.456 169.41 272.289 169.57C272.129 169.723 271.926 169.8 271.679 169.8ZM272.369 170.46V176H270.969V170.46H272.369Z" fill="url(#paint84_linear_708_296)"/>
<path d="M315.156 195.458L312.828 196.082L315.935 207.677L318.263 207.054L315.156 195.458Z" fill="white"/>
<path d="M315.936 207.677L313.623 208.297L314.246 210.625L316.559 210.005L315.936 207.677Z" fill="white"/>
<path d="M312.208 193.768L309.895 194.388L310.515 196.701L312.828 196.081L312.208 193.768Z" fill="white"/>
<path d="M314.246 210.625L311.933 211.245L312.552 213.558L314.865 212.938L314.246 210.625Z" fill="white"/>
<path d="M309.275 192.076L306.962 192.696L307.582 195.009L309.895 194.389L309.275 192.076Z" fill="white"/>
<path d="M306.962 192.695L306.338 190.367L297.056 192.854L294.573 183.587L292.26 184.207L295.367 195.802L306.962 192.695Z" fill="white"/>
<path d="M300.749 169.504L298.421 170.128L299.041 172.441L301.369 171.817L300.749 169.504Z" fill="url(#paint85_linear_708_296)"/>
<path d="M305.254 195.632L302.941 196.252L304.805 203.206L307.118 202.586L305.254 195.632Z" fill="white"/>
<path d="M299.04 172.441L296.727 173.061L297.351 175.389L299.664 174.769L299.04 172.441Z" fill="url(#paint86_linear_708_296)"/>
<path d="M297.352 175.389L295.039 176.009L295.659 178.322L297.972 177.702L297.352 175.389Z" fill="url(#paint87_linear_708_296)"/>
<path d="M298.299 197.495L295.986 198.115L297.85 205.069L300.163 204.45L298.299 197.495Z" fill="white"/>
<path d="M291.636 181.878L286.995 183.122L287.619 185.45L292.26 184.207L291.636 181.878Z" fill="white"/>
<path d="M287.91 167.97L285.582 168.594L287.445 175.548L289.773 174.924L287.91 167.97Z" fill="url(#paint88_linear_708_296)"/>
<path d="M295.073 213.267L292.76 213.887L294.004 218.528L296.317 217.909L295.073 213.267Z" fill="white"/>
<path d="M290.275 204.62L292.588 204L287.618 185.451L285.305 186.07L288.412 197.666L283.771 198.909L284.39 201.222L289.032 199.979L290.275 204.62Z" fill="white"/>
<path d="M292.139 211.574L289.811 212.198L290.431 214.511L292.759 213.887L292.139 211.574Z" fill="white"/>
<path d="M283.442 179.116L281.114 179.74L281.733 182.053L284.062 181.429L283.442 179.116Z" fill="url(#paint89_linear_708_296)"/>
<path d="M289.191 209.886L286.878 210.505L287.498 212.818L289.811 212.199L289.191 209.886Z" fill="white"/>
<path d="M280.49 177.411L278.177 178.031L278.801 180.359L281.114 179.74L280.49 177.411Z" fill="url(#paint90_linear_708_296)"/>
<path d="M284.391 201.222L282.078 201.842L284.565 211.124L286.878 210.504L284.391 201.222Z" fill="white"/>
<path d="M277.557 175.718L275.244 176.337L275.864 178.65L278.177 178.031L277.557 175.718Z" fill="url(#paint91_linear_708_296)"/>
<defs>
<linearGradient id="paint0_linear_708_296" x1="172.5" y1="4.45029e-08" x2="163" y2="400" gradientUnits="userSpaceOnUse">
<stop stop-color="#67C090"/>
<stop offset="1" stop-color="white"/>
</linearGradient>
<linearGradient id="paint1_linear_708_296" x1="33.6136" y1="244.791" x2="33.6136" y2="401" gradientUnits="userSpaceOnUse">
<stop stop-color="#67C090"/>
<stop offset="1" stop-color="#2EA062"/>
</linearGradient>
<linearGradient id="paint2_linear_708_296" x1="42.8115" y1="235.563" x2="42.8115" y2="244.791" gradientUnits="userSpaceOnUse">
<stop stop-color="#67C090"/>
<stop offset="1" stop-color="#2EA062"/>
</linearGradient>
<linearGradient id="paint3_linear_708_296" x1="52.0093" y1="226.396" x2="52.0093" y2="235.563" gradientUnits="userSpaceOnUse">
<stop stop-color="#67C090"/>
<stop offset="1" stop-color="#2EA062"/>
</linearGradient>
<linearGradient id="paint4_linear_708_296" x1="61.2073" y1="217.167" x2="61.2073" y2="226.395" gradientUnits="userSpaceOnUse">
<stop stop-color="#67C090"/>
<stop offset="1" stop-color="#2EA062"/>
</linearGradient>
<linearGradient id="paint5_linear_708_296" x1="134.727" y1="208" x2="134.727" y2="401" gradientUnits="userSpaceOnUse">
<stop stop-color="#67C090"/>
<stop offset="1" stop-color="#2EA062"/>
</linearGradient>
<linearGradient id="paint6_linear_708_296" x1="116.363" y1="382.604" x2="116.363" y2="401" gradientUnits="userSpaceOnUse">
<stop stop-color="#67C090"/>
<stop offset="1" stop-color="#2EA062"/>
</linearGradient>
<linearGradient id="paint7_linear_708_296" x1="217.416" y1="364.209" x2="217.416" y2="401" gradientUnits="userSpaceOnUse">
<stop stop-color="#67C090"/>
<stop offset="1" stop-color="#2EA062"/>
</linearGradient>
<linearGradient id="paint8_linear_708_296" x1="271.217" y1="334.962" x2="267.174" y2="346.917" gradientUnits="userSpaceOnUse">
<stop stop-color="#2EA062"/>
<stop offset="1" stop-color="#113A23"/>
</linearGradient>
<linearGradient id="paint9_linear_708_296" x1="259.086" y1="370.828" x2="255.043" y2="382.784" gradientUnits="userSpaceOnUse">
<stop stop-color="#2EA062"/>
<stop offset="1" stop-color="#113A23"/>
</linearGradient>
<linearGradient id="paint10_linear_708_296" x1="263.904" y1="364.467" x2="263.098" y2="366.852" gradientUnits="userSpaceOnUse">
<stop stop-color="#2EA062"/>
<stop offset="1" stop-color="#113A23"/>
</linearGradient>
<linearGradient id="paint11_linear_708_296" x1="267.141" y1="354.897" x2="266.329" y2="357.297" gradientUnits="userSpaceOnUse">
<stop stop-color="#2EA062"/>
<stop offset="1" stop-color="#113A23"/>
</linearGradient>
<linearGradient id="paint12_linear_708_296" x1="253.535" y1="363.618" x2="252.723" y2="366.018" gradientUnits="userSpaceOnUse">
<stop stop-color="#2EA062"/>
<stop offset="1" stop-color="#113A23"/>
</linearGradient>
<linearGradient id="paint13_linear_708_296" x1="258.385" y1="349.278" x2="257.579" y2="351.662" gradientUnits="userSpaceOnUse">
<stop stop-color="#2EA062"/>
<stop offset="1" stop-color="#113A23"/>
</linearGradient>
<linearGradient id="paint14_linear_708_296" x1="250.33" y1="365.209" x2="249.524" y2="367.594" gradientUnits="userSpaceOnUse">
<stop stop-color="#2EA062"/>
<stop offset="1" stop-color="#113A23"/>
</linearGradient>
<linearGradient id="paint15_linear_708_296" x1="256.799" y1="346.083" x2="255.993" y2="348.468" gradientUnits="userSpaceOnUse">
<stop stop-color="#2EA062"/>
<stop offset="1" stop-color="#113A23"/>
</linearGradient>
<linearGradient id="paint16_linear_708_296" x1="243.894" y1="376.355" x2="243.087" y2="378.739" gradientUnits="userSpaceOnUse">
<stop stop-color="#2EA062"/>
<stop offset="1" stop-color="#113A23"/>
</linearGradient>
<linearGradient id="paint17_linear_708_296" x1="247.131" y1="366.784" x2="246.325" y2="369.169" gradientUnits="userSpaceOnUse">
<stop stop-color="#2EA062"/>
<stop offset="1" stop-color="#113A23"/>
</linearGradient>
<linearGradient id="paint18_linear_708_296" x1="248.855" y1="338.064" x2="238.343" y2="369.144" gradientUnits="userSpaceOnUse">
<stop stop-color="#2EA062"/>
<stop offset="1" stop-color="#113A23"/>
</linearGradient>
<linearGradient id="paint19_linear_708_296" x1="255.219" y1="342.874" x2="254.407" y2="345.274" gradientUnits="userSpaceOnUse">
<stop stop-color="#2EA062"/>
<stop offset="1" stop-color="#113A23"/>
</linearGradient>
<linearGradient id="paint20_linear_708_296" x1="258.45" y1="333.319" x2="257.644" y2="335.704" gradientUnits="userSpaceOnUse">
<stop stop-color="#2EA062"/>
<stop offset="1" stop-color="#113A23"/>
</linearGradient>
<linearGradient id="paint21_linear_708_296" x1="231.947" y1="372.314" x2="231.14" y2="374.699" gradientUnits="userSpaceOnUse">
<stop stop-color="#2EA062"/>
<stop offset="1" stop-color="#113A23"/>
</linearGradient>
<linearGradient id="paint22_linear_708_296" x1="246.503" y1="329.278" x2="245.696" y2="331.663" gradientUnits="userSpaceOnUse">
<stop stop-color="#2EA062"/>
<stop offset="1" stop-color="#113A23"/>
</linearGradient>
<linearGradient id="paint23_linear_708_296" x1="232.791" y1="361.934" x2="231.984" y2="364.319" gradientUnits="userSpaceOnUse">
<stop stop-color="#2EA062"/>
<stop offset="1" stop-color="#113A23"/>
</linearGradient>
<linearGradient id="paint24_linear_708_296" x1="240.878" y1="338.024" x2="240.067" y2="340.424" gradientUnits="userSpaceOnUse">
<stop stop-color="#2EA062"/>
<stop offset="1" stop-color="#113A23"/>
</linearGradient>
<linearGradient id="paint25_linear_708_296" x1="231.205" y1="358.74" x2="230.398" y2="361.125" gradientUnits="userSpaceOnUse">
<stop stop-color="#2EA062"/>
<stop offset="1" stop-color="#113A23"/>
</linearGradient>
<linearGradient id="paint26_linear_708_296" x1="237.674" y1="339.615" x2="236.867" y2="342" gradientUnits="userSpaceOnUse">
<stop stop-color="#2EA062"/>
<stop offset="1" stop-color="#113A23"/>
</linearGradient>
<linearGradient id="paint27_linear_708_296" x1="229.624" y1="355.53" x2="228.813" y2="357.931" gradientUnits="userSpaceOnUse">
<stop stop-color="#2EA062"/>
<stop offset="1" stop-color="#113A23"/>
</linearGradient>
<linearGradient id="paint28_linear_708_296" x1="234.475" y1="341.19" x2="233.668" y2="343.575" gradientUnits="userSpaceOnUse">
<stop stop-color="#2EA062"/>
<stop offset="1" stop-color="#113A23"/>
</linearGradient>
<linearGradient id="paint29_linear_708_296" x1="222.422" y1="361.084" x2="218.378" y2="373.04" gradientUnits="userSpaceOnUse">
<stop stop-color="#2EA062"/>
<stop offset="1" stop-color="#113A23"/>
</linearGradient>
<linearGradient id="paint30_linear_708_296" x1="220.062" y1="352.296" x2="219.25" y2="354.696" gradientUnits="userSpaceOnUse">
<stop stop-color="#2EA062"/>
<stop offset="1" stop-color="#113A23"/>
</linearGradient>
<linearGradient id="paint31_linear_708_296" x1="223.293" y1="342.741" x2="222.487" y2="345.126" gradientUnits="userSpaceOnUse">
<stop stop-color="#2EA062"/>
<stop offset="1" stop-color="#113A23"/>
</linearGradient>
<linearGradient id="paint32_linear_708_296" x1="231.34" y1="326.807" x2="227.297" y2="338.762" gradientUnits="userSpaceOnUse">
<stop stop-color="#2EA062"/>
<stop offset="1" stop-color="#113A23"/>
</linearGradient>
<linearGradient id="paint33_linear_708_296" x1="34.7617" y1="280.352" x2="37.4684" y2="285.963" gradientUnits="userSpaceOnUse">
<stop stop-color="#113A23"/>
<stop offset="1" stop-color="#2EA062"/>
</linearGradient>
<linearGradient id="paint34_linear_708_296" x1="42.8819" y1="297.185" x2="45.5887" y2="302.796" gradientUnits="userSpaceOnUse">
<stop stop-color="#113A23"/>
<stop offset="1" stop-color="#2EA062"/>
</linearGradient>
<linearGradient id="paint35_linear_708_296" x1="42.3815" y1="293.278" x2="42.9215" y2="294.397" gradientUnits="userSpaceOnUse">
<stop stop-color="#113A23"/>
<stop offset="1" stop-color="#2EA062"/>
</linearGradient>
<linearGradient id="paint36_linear_708_296" x1="40.2147" y1="288.786" x2="40.7581" y2="289.912" gradientUnits="userSpaceOnUse">
<stop stop-color="#113A23"/>
<stop offset="1" stop-color="#2EA062"/>
</linearGradient>
<linearGradient id="paint37_linear_708_296" x1="38.4333" y1="296.562" x2="38.9768" y2="297.689" gradientUnits="userSpaceOnUse">
<stop stop-color="#113A23"/>
<stop offset="1" stop-color="#2EA062"/>
</linearGradient>
<linearGradient id="paint38_linear_708_296" x1="35.1866" y1="289.832" x2="35.7265" y2="290.951" gradientUnits="userSpaceOnUse">
<stop stop-color="#113A23"/>
<stop offset="1" stop-color="#2EA062"/>
</linearGradient>
<linearGradient id="paint39_linear_708_296" x1="37.8538" y1="298.231" x2="38.3937" y2="299.35" gradientUnits="userSpaceOnUse">
<stop stop-color="#113A23"/>
<stop offset="1" stop-color="#2EA062"/>
</linearGradient>
<linearGradient id="paint40_linear_708_296" x1="33.5237" y1="289.254" x2="34.0637" y2="290.373" gradientUnits="userSpaceOnUse">
<stop stop-color="#113A23"/>
<stop offset="1" stop-color="#2EA062"/>
</linearGradient>
<linearGradient id="paint41_linear_708_296" x1="39.4376" y1="304.383" x2="39.9775" y2="305.502" gradientUnits="userSpaceOnUse">
<stop stop-color="#113A23"/>
<stop offset="1" stop-color="#2EA062"/>
</linearGradient>
<linearGradient id="paint42_linear_708_296" x1="37.2708" y1="299.891" x2="37.8108" y2="301.011" gradientUnits="userSpaceOnUse">
<stop stop-color="#113A23"/>
<stop offset="1" stop-color="#2EA062"/>
</linearGradient>
<linearGradient id="paint43_linear_708_296" x1="27.9522" y1="289.173" x2="34.989" y2="303.76" gradientUnits="userSpaceOnUse">
<stop stop-color="#113A23"/>
<stop offset="1" stop-color="#2EA062"/>
</linearGradient>
<linearGradient id="paint44_linear_708_296" x1="31.8574" y1="288.669" x2="32.4009" y2="289.796" gradientUnits="userSpaceOnUse">
<stop stop-color="#113A23"/>
<stop offset="1" stop-color="#2EA062"/>
</linearGradient>
<linearGradient id="paint45_linear_708_296" x1="29.6942" y1="284.185" x2="30.2341" y2="285.304" gradientUnits="userSpaceOnUse">
<stop stop-color="#113A23"/>
<stop offset="1" stop-color="#2EA062"/>
</linearGradient>
<linearGradient id="paint46_linear_708_296" x1="33.8301" y1="307.088" x2="34.3701" y2="308.207" gradientUnits="userSpaceOnUse">
<stop stop-color="#113A23"/>
<stop offset="1" stop-color="#2EA062"/>
</linearGradient>
<linearGradient id="paint47_linear_708_296" x1="24.0867" y1="286.89" x2="24.6267" y2="288.009" gradientUnits="userSpaceOnUse">
<stop stop-color="#113A23"/>
<stop offset="1" stop-color="#2EA062"/>
</linearGradient>
<linearGradient id="paint48_linear_708_296" x1="30.5405" y1="303.138" x2="31.0804" y2="304.257" gradientUnits="userSpaceOnUse">
<stop stop-color="#113A23"/>
<stop offset="1" stop-color="#2EA062"/>
</linearGradient>
<linearGradient id="paint49_linear_708_296" x1="25.127" y1="291.916" x2="25.6705" y2="293.042" gradientUnits="userSpaceOnUse">
<stop stop-color="#113A23"/>
<stop offset="1" stop-color="#2EA062"/>
</linearGradient>
<linearGradient id="paint50_linear_708_296" x1="28.8775" y1="302.561" x2="29.4174" y2="303.68" gradientUnits="userSpaceOnUse">
<stop stop-color="#113A23"/>
<stop offset="1" stop-color="#2EA062"/>
</linearGradient>
<linearGradient id="paint51_linear_708_296" x1="24.5476" y1="293.584" x2="25.0875" y2="294.703" gradientUnits="userSpaceOnUse">
<stop stop-color="#113A23"/>
<stop offset="1" stop-color="#2EA062"/>
</linearGradient>
<linearGradient id="paint52_linear_708_296" x1="27.2111" y1="301.975" x2="27.7546" y2="303.102" gradientUnits="userSpaceOnUse">
<stop stop-color="#113A23"/>
<stop offset="1" stop-color="#2EA062"/>
</linearGradient>
<linearGradient id="paint53_linear_708_296" x1="23.9644" y1="295.245" x2="24.5044" y2="296.364" gradientUnits="userSpaceOnUse">
<stop stop-color="#113A23"/>
<stop offset="1" stop-color="#2EA062"/>
</linearGradient>
<linearGradient id="paint54_linear_708_296" x1="26.5923" y1="306.422" x2="29.299" y2="312.033" gradientUnits="userSpaceOnUse">
<stop stop-color="#113A23"/>
<stop offset="1" stop-color="#2EA062"/>
</linearGradient>
<linearGradient id="paint55_linear_708_296" x1="22.723" y1="304.141" x2="23.2664" y2="305.267" gradientUnits="userSpaceOnUse">
<stop stop-color="#113A23"/>
<stop offset="1" stop-color="#2EA062"/>
</linearGradient>
<linearGradient id="paint56_linear_708_296" x1="20.5598" y1="299.656" x2="21.0997" y2="300.775" gradientUnits="userSpaceOnUse">
<stop stop-color="#113A23"/>
<stop offset="1" stop-color="#2EA062"/>
</linearGradient>
<linearGradient id="paint57_linear_708_296" x1="17.8889" y1="291.259" x2="20.5956" y2="296.87" gradientUnits="userSpaceOnUse">
<stop stop-color="#113A23"/>
<stop offset="1" stop-color="#2EA062"/>
</linearGradient>
<linearGradient id="paint58_linear_708_296" x1="243.045" y1="242.828" x2="238.497" y2="250.651" gradientUnits="userSpaceOnUse">
<stop stop-color="#113A23"/>
<stop offset="1" stop-color="#2EA062"/>
</linearGradient>
<linearGradient id="paint59_linear_708_296" x1="229.401" y1="266.296" x2="224.852" y2="274.119" gradientUnits="userSpaceOnUse">
<stop stop-color="#113A23"/>
<stop offset="1" stop-color="#2EA062"/>
</linearGradient>
<linearGradient id="paint60_linear_708_296" x1="233.694" y1="262.515" x2="232.786" y2="264.076" gradientUnits="userSpaceOnUse">
<stop stop-color="#113A23"/>
<stop offset="1" stop-color="#2EA062"/>
</linearGradient>
<linearGradient id="paint61_linear_708_296" x1="237.335" y1="256.253" x2="236.421" y2="257.824" gradientUnits="userSpaceOnUse">
<stop stop-color="#113A23"/>
<stop offset="1" stop-color="#2EA062"/>
</linearGradient>
<linearGradient id="paint62_linear_708_296" x1="226.529" y1="260.438" x2="225.616" y2="262.008" gradientUnits="userSpaceOnUse">
<stop stop-color="#113A23"/>
<stop offset="1" stop-color="#2EA062"/>
</linearGradient>
<linearGradient id="paint63_linear_708_296" x1="231.985" y1="251.055" x2="231.077" y2="252.615" gradientUnits="userSpaceOnUse">
<stop stop-color="#113A23"/>
<stop offset="1" stop-color="#2EA062"/>
</linearGradient>
<linearGradient id="paint64_linear_708_296" x1="224.05" y1="261.098" x2="223.143" y2="262.659" gradientUnits="userSpaceOnUse">
<stop stop-color="#113A23"/>
<stop offset="1" stop-color="#2EA062"/>
</linearGradient>
<linearGradient id="paint65_linear_708_296" x1="231.326" y1="248.584" x2="230.419" y2="250.144" gradientUnits="userSpaceOnUse">
<stop stop-color="#113A23"/>
<stop offset="1" stop-color="#2EA062"/>
</linearGradient>
<linearGradient id="paint66_linear_708_296" x1="217.937" y1="268.011" x2="217.03" y2="269.571" gradientUnits="userSpaceOnUse">
<stop stop-color="#113A23"/>
<stop offset="1" stop-color="#2EA062"/>
</linearGradient>
<linearGradient id="paint67_linear_708_296" x1="221.578" y1="261.749" x2="220.67" y2="263.309" gradientUnits="userSpaceOnUse">
<stop stop-color="#113A23"/>
<stop offset="1" stop-color="#2EA062"/>
</linearGradient>
<linearGradient id="paint68_linear_708_296" x1="226.889" y1="241.815" x2="215.066" y2="262.152" gradientUnits="userSpaceOnUse">
<stop stop-color="#113A23"/>
<stop offset="1" stop-color="#2EA062"/>
</linearGradient>
<linearGradient id="paint69_linear_708_296" x1="230.674" y1="246.103" x2="229.761" y2="247.674" gradientUnits="userSpaceOnUse">
<stop stop-color="#113A23"/>
<stop offset="1" stop-color="#2EA062"/>
</linearGradient>
<linearGradient id="paint70_linear_708_296" x1="234.309" y1="239.851" x2="233.401" y2="241.412" gradientUnits="userSpaceOnUse">
<stop stop-color="#113A23"/>
<stop offset="1" stop-color="#2EA062"/>
</linearGradient>
<linearGradient id="paint71_linear_708_296" x1="210.119" y1="263.466" x2="209.212" y2="265.026" gradientUnits="userSpaceOnUse">
<stop stop-color="#113A23"/>
<stop offset="1" stop-color="#2EA062"/>
</linearGradient>
<linearGradient id="paint72_linear_708_296" x1="226.491" y1="235.306" x2="225.584" y2="236.867" gradientUnits="userSpaceOnUse">
<stop stop-color="#113A23"/>
<stop offset="1" stop-color="#2EA062"/>
</linearGradient>
<linearGradient id="paint73_linear_708_296" x1="212.195" y1="256.293" x2="211.287" y2="257.853" gradientUnits="userSpaceOnUse">
<stop stop-color="#113A23"/>
<stop offset="1" stop-color="#2EA062"/>
</linearGradient>
<linearGradient id="paint74_linear_708_296" x1="221.291" y1="240.648" x2="220.377" y2="242.219" gradientUnits="userSpaceOnUse">
<stop stop-color="#113A23"/>
<stop offset="1" stop-color="#2EA062"/>
</linearGradient>
<linearGradient id="paint75_linear_708_296" x1="211.536" y1="253.823" x2="210.629" y2="255.383" gradientUnits="userSpaceOnUse">
<stop stop-color="#113A23"/>
<stop offset="1" stop-color="#2EA062"/>
</linearGradient>
<linearGradient id="paint76_linear_708_296" x1="218.812" y1="241.308" x2="217.905" y2="242.869" gradientUnits="userSpaceOnUse">
<stop stop-color="#113A23"/>
<stop offset="1" stop-color="#2EA062"/>
</linearGradient>
<linearGradient id="paint77_linear_708_296" x1="210.884" y1="251.342" x2="209.971" y2="252.913" gradientUnits="userSpaceOnUse">
<stop stop-color="#113A23"/>
<stop offset="1" stop-color="#2EA062"/>
</linearGradient>
<linearGradient id="paint78_linear_708_296" x1="216.339" y1="241.959" x2="215.432" y2="243.519" gradientUnits="userSpaceOnUse">
<stop stop-color="#113A23"/>
<stop offset="1" stop-color="#2EA062"/>
</linearGradient>
<linearGradient id="paint79_linear_708_296" x1="205.03" y1="254.216" x2="200.482" y2="262.039" gradientUnits="userSpaceOnUse">
<stop stop-color="#113A23"/>
<stop offset="1" stop-color="#2EA062"/>
</linearGradient>
<linearGradient id="paint80_linear_708_296" x1="204.627" y1="247.704" x2="203.713" y2="249.275" gradientUnits="userSpaceOnUse">
<stop stop-color="#113A23"/>
<stop offset="1" stop-color="#2EA062"/>
</linearGradient>
<linearGradient id="paint81_linear_708_296" x1="208.261" y1="241.452" x2="207.354" y2="243.012" gradientUnits="userSpaceOnUse">
<stop stop-color="#113A23"/>
<stop offset="1" stop-color="#2EA062"/>
</linearGradient>
<linearGradient id="paint82_linear_708_296" x1="216.19" y1="231.405" x2="211.642" y2="239.228" gradientUnits="userSpaceOnUse">
<stop stop-color="#113A23"/>
<stop offset="1" stop-color="#2EA062"/>
</linearGradient>
<linearGradient id="paint83_linear_708_296" x1="178" y1="173" x2="310" y2="173" gradientUnits="userSpaceOnUse">
<stop stop-color="#67C090"/>
<stop offset="1" stop-color="#2EA062"/>
</linearGradient>
<linearGradient id="paint84_linear_708_296" x1="244" y1="165" x2="244" y2="180" gradientUnits="userSpaceOnUse">
<stop stop-color="white"/>
</linearGradient>
<linearGradient id="paint85_linear_708_296" x1="299.585" y1="169.816" x2="300.205" y2="172.129" gradientUnits="userSpaceOnUse">
<stop stop-color="white"/>
</linearGradient>
<linearGradient id="paint86_linear_708_296" x1="297.883" y1="172.751" x2="298.507" y2="175.079" gradientUnits="userSpaceOnUse">
<stop stop-color="white"/>
</linearGradient>
<linearGradient id="paint87_linear_708_296" x1="296.195" y1="175.699" x2="296.815" y2="178.012" gradientUnits="userSpaceOnUse">
<stop stop-color="white"/>
</linearGradient>
<linearGradient id="paint88_linear_708_296" x1="286.746" y1="168.282" x2="288.609" y2="175.236" gradientUnits="userSpaceOnUse">
<stop stop-color="white"/>
</linearGradient>
<linearGradient id="paint89_linear_708_296" x1="282.278" y1="179.428" x2="282.898" y2="181.741" gradientUnits="userSpaceOnUse">
<stop stop-color="white"/>
</linearGradient>
<linearGradient id="paint90_linear_708_296" x1="279.333" y1="177.721" x2="279.957" y2="180.05" gradientUnits="userSpaceOnUse">
<stop stop-color="white"/>
</linearGradient>
<linearGradient id="paint91_linear_708_296" x1="276.4" y1="176.028" x2="277.02" y2="178.341" gradientUnits="userSpaceOnUse">
<stop stop-color="white"/>
</linearGradient>
<clipPath id="clip0_708_296">
<rect width="193" height="192" fill="white" transform="matrix(-1 0 0 1 222 208)"/>
</clipPath>
<clipPath id="clip1_708_296">
<rect width="53" height="53" fill="white" transform="translate(226.981 320) rotate(18.6872)"/>
</clipPath>
<clipPath id="clip2_708_296">
<rect width="26.162" height="26.162" fill="white" transform="translate(14 290.367) rotate(-25.7521)"/>
</clipPath>
<clipPath id="clip3_708_296">
<rect width="38" height="38" fill="white" transform="translate(214.099 226) rotate(30.1731)"/>
</clipPath>
</defs>
</svg>
