<svg width="325" height="400" viewBox="0 0 325 400" fill="none" xmlns="http://www.w3.org/2000/svg">
<rect width="325" height="400" rx="20" fill="url(#paint0_linear_708_505)"/>
<rect x="178" y="159" width="132" height="28" rx="14" fill="url(#paint1_linear_708_505)"/>
<path d="M214.33 173.21C214.33 172.65 214.44 172.153 214.66 171.72C214.887 171.287 215.19 170.953 215.57 170.72C215.957 170.487 216.387 170.37 216.86 170.37C217.273 170.37 217.633 170.453 217.94 170.62C218.253 170.787 218.503 170.997 218.69 171.25V170.46H220.1V176H218.69V175.19C218.51 175.45 218.26 175.667 217.94 175.84C217.627 176.007 217.263 176.09 216.85 176.09C216.383 176.09 215.957 175.97 215.57 175.73C215.19 175.49 214.887 175.153 214.66 174.72C214.44 174.28 214.33 173.777 214.33 173.21ZM218.69 173.23C218.69 172.89 218.623 172.6 218.49 172.36C218.357 172.113 218.177 171.927 217.95 171.8C217.723 171.667 217.48 171.6 217.22 171.6C216.96 171.6 216.72 171.663 216.5 171.79C216.28 171.917 216.1 172.103 215.96 172.35C215.827 172.59 215.76 172.877 215.76 173.21C215.76 173.543 215.827 173.837 215.96 174.09C216.1 174.337 216.28 174.527 216.5 174.66C216.727 174.793 216.967 174.86 217.22 174.86C217.48 174.86 217.723 174.797 217.95 174.67C218.177 174.537 218.357 174.35 218.49 174.11C218.623 173.863 218.69 173.57 218.69 173.23ZM226.767 170.46L223.337 178.62H221.847L223.047 175.86L220.827 170.46H222.397L223.827 174.33L225.277 170.46H226.767ZM229.982 176.09C229.449 176.09 228.969 175.973 228.542 175.74C228.115 175.5 227.779 175.163 227.532 174.73C227.292 174.297 227.172 173.797 227.172 173.23C227.172 172.663 227.295 172.163 227.542 171.73C227.795 171.297 228.139 170.963 228.572 170.73C229.005 170.49 229.489 170.37 230.022 170.37C230.555 170.37 231.039 170.49 231.472 170.73C231.905 170.963 232.245 171.297 232.492 171.73C232.745 172.163 232.872 172.663 232.872 173.23C232.872 173.797 232.742 174.297 232.482 174.73C232.229 175.163 231.882 175.5 231.442 175.74C231.009 175.973 230.522 176.09 229.982 176.09ZM229.982 174.87C230.235 174.87 230.472 174.81 230.692 174.69C230.919 174.563 231.099 174.377 231.232 174.13C231.365 173.883 231.432 173.583 231.432 173.23C231.432 172.703 231.292 172.3 231.012 172.02C230.739 171.733 230.402 171.59 230.002 171.59C229.602 171.59 229.265 171.733 228.992 172.02C228.725 172.3 228.592 172.703 228.592 173.23C228.592 173.757 228.722 174.163 228.982 174.45C229.249 174.73 229.582 174.87 229.982 174.87ZM236.992 169.8C236.738 169.8 236.528 169.723 236.362 169.57C236.202 169.41 236.122 169.213 236.122 168.98C236.122 168.747 236.202 168.553 236.362 168.4C236.528 168.24 236.738 168.16 236.992 168.16C237.238 168.16 237.442 168.24 237.602 168.4C237.762 168.553 237.842 168.747 237.842 168.98C237.842 169.213 237.762 169.41 237.602 169.57C237.442 169.723 237.238 169.8 236.992 169.8ZM237.682 176.91C237.682 177.523 237.528 177.963 237.222 178.23C236.922 178.503 236.488 178.64 235.922 178.64H235.302V177.45H235.702C235.915 177.45 236.065 177.407 236.152 177.32C236.238 177.24 236.282 177.107 236.282 176.92V170.46H237.682V176.91ZM244.215 173.11C244.215 173.31 244.202 173.49 244.175 173.65H240.125C240.158 174.05 240.298 174.363 240.545 174.59C240.792 174.817 241.095 174.93 241.455 174.93C241.975 174.93 242.345 174.707 242.565 174.26H244.075C243.915 174.793 243.608 175.233 243.155 175.58C242.702 175.92 242.145 176.09 241.485 176.09C240.952 176.09 240.472 175.973 240.045 175.74C239.625 175.5 239.295 175.163 239.055 174.73C238.822 174.297 238.705 173.797 238.705 173.23C238.705 172.657 238.822 172.153 239.055 171.72C239.288 171.287 239.615 170.953 240.035 170.72C240.455 170.487 240.938 170.37 241.485 170.37C242.012 170.37 242.482 170.483 242.895 170.71C243.315 170.937 243.638 171.26 243.865 171.68C244.098 172.093 244.215 172.57 244.215 173.11ZM242.765 172.71C242.758 172.35 242.628 172.063 242.375 171.85C242.122 171.63 241.812 171.52 241.445 171.52C241.098 171.52 240.805 171.627 240.565 171.84C240.332 172.047 240.188 172.337 240.135 172.71H242.765ZM246.637 168.6V176H245.237V168.6H246.637ZM247.66 173.21C247.66 172.65 247.77 172.153 247.99 171.72C248.217 171.287 248.52 170.953 248.9 170.72C249.287 170.487 249.717 170.37 250.19 170.37C250.603 170.37 250.963 170.453 251.27 170.62C251.583 170.787 251.833 170.997 252.02 171.25V170.46H253.43V176H252.02V175.19C251.84 175.45 251.59 175.667 251.27 175.84C250.957 176.007 250.593 176.09 250.18 176.09C249.713 176.09 249.287 175.97 248.9 175.73C248.52 175.49 248.217 175.153 247.99 174.72C247.77 174.28 247.66 173.777 247.66 173.21ZM252.02 173.23C252.02 172.89 251.953 172.6 251.82 172.36C251.687 172.113 251.507 171.927 251.28 171.8C251.053 171.667 250.81 171.6 250.55 171.6C250.29 171.6 250.05 171.663 249.83 171.79C249.61 171.917 249.43 172.103 249.29 172.35C249.157 172.59 249.09 172.877 249.09 173.21C249.09 173.543 249.157 173.837 249.29 174.09C249.43 174.337 249.61 174.527 249.83 174.66C250.057 174.793 250.297 174.86 250.55 174.86C250.81 174.86 251.053 174.797 251.28 174.67C251.507 174.537 251.687 174.35 251.82 174.11C251.953 173.863 252.02 173.57 252.02 173.23ZM255.507 169.8C255.254 169.8 255.044 169.723 254.877 169.57C254.717 169.41 254.637 169.213 254.637 168.98C254.637 168.747 254.717 168.553 254.877 168.4C255.044 168.24 255.254 168.16 255.507 168.16C255.754 168.16 255.957 168.24 256.117 168.4C256.277 168.553 256.357 168.747 256.357 168.98C256.357 169.213 256.277 169.41 256.117 169.57C255.957 169.723 255.754 169.8 255.507 169.8ZM256.197 176.91C256.197 177.523 256.044 177.963 255.737 178.23C255.437 178.503 255.004 178.64 254.437 178.64H253.817V177.45H254.217C254.431 177.45 254.581 177.407 254.667 177.32C254.754 177.24 254.797 177.107 254.797 176.92V170.46H256.197V176.91ZM257.221 173.21C257.221 172.65 257.331 172.153 257.551 171.72C257.777 171.287 258.081 170.953 258.461 170.72C258.847 170.487 259.277 170.37 259.751 170.37C260.164 170.37 260.524 170.453 260.831 170.62C261.144 170.787 261.394 170.997 261.581 171.25V170.46H262.991V176H261.581V175.19C261.401 175.45 261.151 175.667 260.831 175.84C260.517 176.007 260.154 176.09 259.741 176.09C259.274 176.09 258.847 175.97 258.461 175.73C258.081 175.49 257.777 175.153 257.551 174.72C257.331 174.28 257.221 173.777 257.221 173.21ZM261.581 173.23C261.581 172.89 261.514 172.6 261.381 172.36C261.247 172.113 261.067 171.927 260.841 171.8C260.614 171.667 260.371 171.6 260.111 171.6C259.851 171.6 259.611 171.663 259.391 171.79C259.171 171.917 258.991 172.103 258.851 172.35C258.717 172.59 258.651 172.877 258.651 173.21C258.651 173.543 258.717 173.837 258.851 174.09C258.991 174.337 259.171 174.527 259.391 174.66C259.617 174.793 259.857 174.86 260.111 174.86C260.371 174.86 260.614 174.797 260.841 174.67C261.067 174.537 261.247 174.35 261.381 174.11C261.514 173.863 261.581 173.57 261.581 173.23ZM267.478 170.38C267.898 170.38 268.271 170.473 268.598 170.66C268.925 170.84 269.178 171.11 269.358 171.47C269.545 171.823 269.638 172.25 269.638 172.75V176H268.238V172.94C268.238 172.5 268.128 172.163 267.908 171.93C267.688 171.69 267.388 171.57 267.008 171.57C266.621 171.57 266.315 171.69 266.088 171.93C265.868 172.163 265.758 172.5 265.758 172.94V176H264.358V168.6H265.758V171.15C265.938 170.91 266.178 170.723 266.478 170.59C266.778 170.45 267.111 170.38 267.478 170.38ZM271.679 169.8C271.433 169.8 271.226 169.723 271.059 169.57C270.899 169.41 270.819 169.213 270.819 168.98C270.819 168.747 270.899 168.553 271.059 168.4C271.226 168.24 271.433 168.16 271.679 168.16C271.926 168.16 272.129 168.24 272.289 168.4C272.456 168.553 272.539 168.747 272.539 168.98C272.539 169.213 272.456 169.41 272.289 169.57C272.129 169.723 271.926 169.8 271.679 169.8ZM272.369 170.46V176H270.969V170.46H272.369Z" fill="url(#paint2_linear_708_505)"/>
<path d="M315.156 195.458L312.828 196.082L315.935 207.677L318.263 207.054L315.156 195.458Z" fill="white"/>
<path d="M315.936 207.677L313.623 208.297L314.246 210.625L316.559 210.005L315.936 207.677Z" fill="white"/>
<path d="M312.208 193.768L309.895 194.388L310.515 196.701L312.828 196.081L312.208 193.768Z" fill="white"/>
<path d="M314.246 210.625L311.933 211.245L312.552 213.558L314.865 212.938L314.246 210.625Z" fill="white"/>
<path d="M309.275 192.076L306.962 192.696L307.582 195.009L309.895 194.389L309.275 192.076Z" fill="white"/>
<path d="M306.962 192.695L306.338 190.367L297.056 192.854L294.573 183.587L292.26 184.207L295.367 195.802L306.962 192.695Z" fill="white"/>
<path d="M300.749 169.504L298.421 170.128L299.041 172.441L301.369 171.817L300.749 169.504Z" fill="url(#paint3_linear_708_505)"/>
<path d="M305.254 195.632L302.941 196.252L304.805 203.206L307.118 202.586L305.254 195.632Z" fill="white"/>
<path d="M299.04 172.441L296.727 173.061L297.351 175.389L299.664 174.769L299.04 172.441Z" fill="url(#paint4_linear_708_505)"/>
<path d="M297.352 175.389L295.039 176.009L295.659 178.322L297.972 177.702L297.352 175.389Z" fill="url(#paint5_linear_708_505)"/>
<path d="M298.299 197.495L295.986 198.115L297.85 205.069L300.163 204.45L298.299 197.495Z" fill="white"/>
<path d="M291.636 181.878L286.995 183.122L287.619 185.45L292.26 184.207L291.636 181.878Z" fill="white"/>
<path d="M287.91 167.97L285.582 168.594L287.445 175.548L289.773 174.924L287.91 167.97Z" fill="url(#paint6_linear_708_505)"/>
<path d="M295.073 213.267L292.76 213.887L294.004 218.528L296.317 217.909L295.073 213.267Z" fill="white"/>
<path d="M290.275 204.62L292.588 204L287.618 185.451L285.305 186.07L288.412 197.666L283.771 198.909L284.39 201.222L289.032 199.979L290.275 204.62Z" fill="white"/>
<path d="M292.139 211.574L289.811 212.198L290.431 214.511L292.759 213.887L292.139 211.574Z" fill="white"/>
<path d="M283.442 179.116L281.114 179.74L281.734 182.053L284.062 181.429L283.442 179.116Z" fill="url(#paint7_linear_708_505)"/>
<path d="M289.191 209.886L286.878 210.505L287.498 212.818L289.811 212.199L289.191 209.886Z" fill="white"/>
<path d="M280.49 177.411L278.177 178.031L278.801 180.359L281.114 179.74L280.49 177.411Z" fill="url(#paint8_linear_708_505)"/>
<path d="M284.391 201.222L282.078 201.842L284.565 211.124L286.878 210.504L284.391 201.222Z" fill="white"/>
<path d="M277.557 175.718L275.244 176.337L275.864 178.65L278.177 178.031L277.557 175.718Z" fill="url(#paint9_linear_708_505)"/>
<g clip-path="url(#clip0_708_505)">
<path d="M235 398.555H213.555V409.312H235V398.555Z" fill="url(#paint10_linear_708_505)"/>
<path d="M202.867 334.289H192.109V344.977H202.867V355.734H213.555V302.156H202.867V334.289Z" fill="url(#paint11_linear_708_505)"/>
<path d="M202.867 398.555H181.422V409.312H202.867V398.555Z" fill="url(#paint12_linear_708_505)"/>
<path d="M202.867 291.469H192.109V302.156H202.867V291.469Z" fill="url(#paint13_linear_708_505)"/>
<path d="M181.422 387.867H159.977V398.555H181.422V387.867Z" fill="url(#paint14_linear_708_505)"/>
<path d="M170.734 344.977H181.422V334.289H192.109V323.602H181.422V291.469H192.109V280.711H181.422V248.578H170.734V344.977Z" fill="url(#paint15_linear_708_505)"/>
<path d="M159.977 323.602H149.289V334.289H159.977V323.602Z" fill="url(#paint16_linear_708_505)"/>
<path d="M159.977 302.156H149.289V312.844H159.977V302.156Z" fill="url(#paint17_linear_708_505)"/>
<path d="M149.289 387.867H138.531V409.312H149.289V387.867Z" fill="url(#paint18_linear_708_505)"/>
<path d="M149.289 366.422H106.398V377.18H149.289V366.422Z" fill="url(#paint19_linear_708_505)"/>
<path d="M149.289 205.688H138.531V216.445H149.289V205.688Z" fill="url(#paint20_linear_708_505)"/>
<path d="M138.531 195H117.156V205.688H138.531V195Z" fill="url(#paint21_linear_708_505)"/>
<path d="M149.289 259.266H138.531V248.578H117.156V259.266H127.844V270.023H117.156V259.266H106.398V280.711H117.156V291.469H138.531V280.711H149.289V259.266Z" fill="url(#paint22_linear_708_505)"/>
<path d="M117.156 387.867H106.398V409.312H117.156V387.867Z" fill="url(#paint23_linear_708_505)"/>
<path d="M84.9531 355.734H95.7109V366.422H106.398V355.734H149.289V366.422H159.977V355.734H170.734V344.977H84.9531V355.734Z" fill="url(#paint24_linear_708_505)"/>
<path d="M117.156 205.688H106.398V216.445H117.156V205.688Z" fill="url(#paint25_linear_708_505)"/>
<path d="M95.7109 387.867H74.2656V398.555H95.7109V387.867Z" fill="url(#paint26_linear_708_505)"/>
<path d="M106.398 227.133V216.445H95.7109V227.133H84.9531V248.578H95.7109V237.891H159.977V248.578H170.734V227.133H159.977V216.445H149.289V227.133H106.398Z" fill="url(#paint27_linear_708_505)"/>
<path d="M84.9531 248.578H74.2656V280.711H63.5781V291.469H74.2656V323.602H63.5781V334.289H74.2656V344.977H84.9531V248.578Z" fill="url(#paint28_linear_708_505)"/>
<path d="M74.2656 398.555H52.8203V409.312H74.2656V398.555Z" fill="url(#paint29_linear_708_505)"/>
<path d="M63.5781 291.469H52.8203V302.156H63.5781V291.469Z" fill="url(#paint30_linear_708_505)"/>
<path d="M52.8203 302.156H42.1328V355.734H52.8203V344.977H63.5781V334.289H52.8203V302.156Z" fill="url(#paint31_linear_708_505)"/>
<path d="M42.1328 398.555H20.6875V409.312H42.1328V398.555Z" fill="url(#paint32_linear_708_505)"/>
<g clip-path="url(#clip1_708_505)">
<path d="M60.483 225.566L58.2939 226.487L59.2151 228.676L61.4042 227.755L60.483 225.566Z" fill="url(#paint33_linear_708_505)"/>
<path d="M59.2149 228.676L57.0115 229.603L57.9327 231.792L60.1361 230.865L59.2149 228.676Z" fill="url(#paint34_linear_708_505)"/>
<path d="M65.3265 249.363L63.1375 250.284L64.9798 254.662L67.1689 253.741L65.3265 249.363Z" fill="url(#paint35_linear_708_505)"/>
<path d="M61.2889 245.891L59.0854 246.818L60.9339 251.211L63.1374 250.284L61.2889 245.891Z" fill="url(#paint36_linear_708_505)"/>
<path d="M57.9328 231.792L53.5403 233.641L54.4675 235.844L58.8601 233.996L57.9328 231.792Z" fill="url(#paint37_linear_708_505)"/>
<path d="M64.9797 254.662L60.5872 256.51L61.5144 258.714L65.907 256.865L64.9797 254.662Z" fill="url(#paint38_linear_708_505)"/>
<path d="M57.2372 242.426L55.0481 243.347L56.8965 247.74L59.0856 246.819L57.2372 242.426Z" fill="url(#paint39_linear_708_505)"/>
<path d="M54.4674 235.844L52.2783 236.765L53.1995 238.954L55.3886 238.033L54.4674 235.844Z" fill="url(#paint40_linear_708_505)"/>
<path d="M59.6661 254.321L57.4771 255.242L58.3982 257.431L60.5873 256.51L59.6661 254.321Z" fill="url(#paint41_linear_708_505)"/>
<path d="M53.1996 238.954L51.0105 239.875L52.8589 244.268L55.048 243.347L53.1996 238.954Z" fill="url(#paint42_linear_708_505)"/>
<path d="M56.5559 253.053L52.1633 254.902L53.0845 257.091L57.4771 255.242L56.5559 253.053Z" fill="url(#paint43_linear_708_505)"/>
<path d="M57.3666 224.283L44.189 229.829L45.1162 232.032L58.2939 226.487L57.3666 224.283Z" fill="url(#paint44_linear_708_505)"/>
<path d="M42.3465 225.45L40.1575 226.372L41.9998 230.75L44.1889 229.829L42.3465 225.45Z" fill="url(#paint45_linear_708_505)"/>
<path d="M51.2359 252.698L49.0469 253.62L49.9741 255.823L52.1632 254.902L51.2359 252.698Z" fill="url(#paint46_linear_708_505)"/>
<path d="M45.6969 239.535L43.5078 240.456L44.429 242.645L46.6181 241.724L45.6969 239.535Z" fill="url(#paint47_linear_708_505)"/>
<path d="M38.3092 221.979L36.1201 222.9L37.9686 227.293L40.1576 226.372L38.3092 221.979Z" fill="url(#paint48_linear_708_505)"/>
<path d="M48.1258 251.43L45.9224 252.357L46.8436 254.546L49.047 253.619L48.1258 251.43Z" fill="url(#paint49_linear_708_505)"/>
<path d="M41.6593 236.063L39.4558 236.991L40.377 239.18L42.5805 238.253L41.6593 236.063Z" fill="url(#paint50_linear_708_505)"/>
<path d="M34.2716 218.508L32.0681 219.435L33.9166 223.828L36.12 222.9L34.2716 218.508Z" fill="url(#paint51_linear_708_505)"/>
<path d="M44.995 250.154L42.8059 251.075L43.7332 253.279L45.9222 252.357L44.995 250.154Z" fill="url(#paint52_linear_708_505)"/>
<path d="M44.4288 242.645L37.8328 245.421L38.76 247.624L45.356 244.849L44.4288 242.645Z" fill="url(#paint53_linear_708_505)"/>
<path d="M31.1468 217.246L28.9578 218.167L29.879 220.356L32.068 219.435L31.1468 217.246Z" fill="url(#paint54_linear_708_505)"/>
<path d="M43.7333 253.279L41.5298 254.206L42.451 256.395L44.6544 255.468L43.7333 253.279Z" fill="url(#paint55_linear_708_505)"/>
<path d="M37.2667 237.912L35.0632 238.839L35.9844 241.028L38.1879 240.101L37.2667 237.912Z" fill="url(#paint56_linear_708_505)"/>
<path d="M29.879 220.356L27.6755 221.284L29.524 225.676L31.7274 224.749L29.879 220.356Z" fill="url(#paint57_linear_708_505)"/>
<path d="M42.451 256.395L40.262 257.316L41.1892 259.52L43.3783 258.599L42.451 256.395Z" fill="url(#paint58_linear_708_505)"/>
<path d="M36.9117 243.232L34.7227 244.153L35.6438 246.342L37.8329 245.421L36.9117 243.232Z" fill="url(#paint59_linear_708_505)"/>
<path d="M29.524 225.676L27.335 226.597L29.1834 230.99L31.3725 230.069L29.524 225.676Z" fill="url(#paint60_linear_708_505)"/>
<path d="M29.1835 230.99L26.9944 231.911L28.8368 236.289L31.0258 235.368L29.1835 230.99Z" fill="url(#paint61_linear_708_505)"/>
<path d="M41.1892 259.52L36.7966 261.368L37.7178 263.557L42.1104 261.709L41.1892 259.52Z" fill="url(#paint62_linear_708_505)"/>
<path d="M37.7176 263.557L35.5286 264.479L36.4498 266.668L38.6388 265.746L37.7176 263.557Z" fill="url(#paint63_linear_708_505)"/>
<path d="M31.2513 248.191L29.0623 249.112L30.9107 253.504L33.0998 252.583L31.2513 248.191Z" fill="url(#paint64_linear_708_505)"/>
<path d="M30.9105 253.504L28.7214 254.425L30.5699 258.818L32.7589 257.897L30.9105 253.504Z" fill="url(#paint65_linear_708_505)"/>
<path d="M28.141 246.923L25.9519 247.844L26.8731 250.033L29.0622 249.112L28.141 246.923Z" fill="url(#paint66_linear_708_505)"/>
<path d="M36.4499 266.668L32.0574 268.516L32.9846 270.72L37.3772 268.871L36.4499 266.668Z" fill="url(#paint67_linear_708_505)"/>
<path d="M30.5699 258.818L28.3665 259.745L30.2149 264.138L32.4184 263.21L30.5699 258.818Z" fill="url(#paint68_linear_708_505)"/>
<path d="M25.0246 245.64L20.6321 247.489L21.5593 249.692L25.9519 247.844L25.0246 245.64Z" fill="url(#paint69_linear_708_505)"/>
<path d="M30.215 264.138L28.0259 265.059L29.8683 269.437L32.0573 268.516L30.215 264.138Z" fill="url(#paint70_linear_708_505)"/>
<path d="M28.8366 236.289L15.6589 241.834L16.5862 244.038L29.7638 238.493L28.8366 236.289Z" fill="url(#paint71_linear_708_505)"/>
<path d="M19.711 245.3L17.5076 246.227L18.4288 248.416L20.6322 247.489L19.711 245.3Z" fill="url(#paint72_linear_708_505)"/>
<path d="M16.5863 244.038L14.3972 244.959L15.3184 247.148L17.5075 246.227L16.5863 244.038Z" fill="url(#paint73_linear_708_505)"/>
</g>
</g>
<g clip-path="url(#clip2_708_505)">
<path d="M159.943 176.646L158.785 176.297L158.435 177.455L159.594 177.805L159.943 176.646Z" fill="url(#paint74_linear_708_505)"/>
<path d="M158.435 177.455L157.269 177.104L156.92 178.262L158.086 178.614L158.435 177.455Z" fill="url(#paint75_linear_708_505)"/>
<path d="M154.116 187.561L152.957 187.211L152.259 189.528L153.417 189.878L154.116 187.561Z" fill="url(#paint76_linear_708_505)"/>
<path d="M153.658 184.887L152.492 184.535L151.791 186.86L152.957 187.211L153.658 184.887Z" fill="url(#paint77_linear_708_505)"/>
<path d="M156.92 178.262L154.595 177.561L154.244 178.727L156.568 179.428L156.92 178.262Z" fill="url(#paint78_linear_708_505)"/>
<path d="M152.259 189.529L149.934 188.828L149.582 189.994L151.907 190.695L152.259 189.529Z" fill="url(#paint79_linear_708_505)"/>
<path d="M153.193 182.211L152.035 181.861L151.334 184.186L152.492 184.535L153.193 182.211Z" fill="url(#paint80_linear_708_505)"/>
<path d="M154.243 178.727L153.085 178.378L152.736 179.536L153.894 179.886L154.243 178.727Z" fill="url(#paint81_linear_708_505)"/>
<path d="M150.283 187.669L149.125 187.32L148.775 188.478L149.934 188.828L150.283 187.669Z" fill="url(#paint82_linear_708_505)"/>
<path d="M152.736 179.536L151.577 179.187L150.876 181.512L152.035 181.861L152.736 179.536Z" fill="url(#paint83_linear_708_505)"/>
<path d="M149.474 186.161L147.149 185.46L146.8 186.618L149.125 187.32L149.474 186.161Z" fill="url(#paint84_linear_708_505)"/>
<path d="M159.136 175.131L152.162 173.028L151.811 174.194L158.785 176.297L159.136 175.131Z" fill="url(#paint85_linear_708_505)"/>
<path d="M152.861 170.711L151.702 170.361L151.004 172.678L152.162 173.028L152.861 170.711Z" fill="url(#paint86_linear_708_505)"/>
<path d="M147.501 184.294L146.343 183.945L145.991 185.111L147.149 185.46L147.501 184.294Z" fill="url(#paint87_linear_708_505)"/>
<path d="M149.602 177.327L148.443 176.978L148.094 178.137L149.252 178.486L149.602 177.327Z" fill="url(#paint88_linear_708_505)"/>
<path d="M152.403 168.036L151.245 167.687L150.544 170.012L151.702 170.361L152.403 168.036Z" fill="url(#paint89_linear_708_505)"/>
<path d="M146.692 182.786L145.526 182.435L145.176 183.593L146.342 183.945L146.692 182.786Z" fill="url(#paint90_linear_708_505)"/>
<path d="M149.144 174.653L147.978 174.302L147.629 175.46L148.795 175.812L149.144 174.653Z" fill="url(#paint91_linear_708_505)"/>
<path d="M151.946 165.362L150.78 165.011L150.079 167.335L151.245 167.687L151.946 165.362Z" fill="url(#paint92_linear_708_505)"/>
<path d="M145.877 181.268L144.719 180.919L144.367 182.085L145.526 182.434L145.877 181.268Z" fill="url(#paint93_linear_708_505)"/>
<path d="M148.094 178.137L144.603 177.084L144.251 178.25L147.742 179.303L148.094 178.137Z" fill="url(#paint94_linear_708_505)"/>
<path d="M151.129 163.852L149.971 163.503L149.621 164.661L150.78 165.011L151.129 163.852Z" fill="url(#paint95_linear_708_505)"/>
<path d="M144.367 182.085L143.201 181.733L142.852 182.892L144.018 183.244L144.367 182.085Z" fill="url(#paint96_linear_708_505)"/>
<path d="M146.819 173.953L145.653 173.601L145.304 174.76L146.47 175.111L146.819 173.953Z" fill="url(#paint97_linear_708_505)"/>
<path d="M149.621 164.661L148.455 164.31L147.754 166.634L148.92 166.986L149.621 164.661Z" fill="url(#paint98_linear_708_505)"/>
<path d="M142.852 182.892L141.693 182.542L141.341 183.709L142.5 184.058L142.852 182.892Z" fill="url(#paint99_linear_708_505)"/>
<path d="M144.952 175.926L143.794 175.576L143.445 176.735L144.603 177.084L144.952 175.926Z" fill="url(#paint100_linear_708_505)"/>
<path d="M147.754 166.635L146.596 166.285L145.895 168.61L147.053 168.959L147.754 166.635Z" fill="url(#paint101_linear_708_505)"/>
<path d="M145.895 168.61L144.736 168.26L144.037 170.577L145.196 170.927L145.895 168.61Z" fill="url(#paint102_linear_708_505)"/>
<path d="M141.342 183.709L139.017 183.008L138.667 184.166L140.992 184.867L141.342 183.709Z" fill="url(#paint103_linear_708_505)"/>
<path d="M138.667 184.166L137.509 183.817L137.159 184.975L138.318 185.325L138.667 184.166Z" fill="url(#paint104_linear_708_505)"/>
<path d="M141.12 176.034L139.961 175.685L139.26 178.009L140.419 178.359L141.12 176.034Z" fill="url(#paint105_linear_708_505)"/>
<path d="M139.26 178.009L138.102 177.66L137.401 179.984L138.559 180.334L139.26 178.009Z" fill="url(#paint106_linear_708_505)"/>
<path d="M140.311 174.526L139.152 174.176L138.803 175.335L139.961 175.684L140.311 174.526Z" fill="url(#paint107_linear_708_505)"/>
<path d="M137.16 184.975L134.835 184.274L134.483 185.441L136.808 186.142L137.16 184.975Z" fill="url(#paint108_linear_708_505)"/>
<path d="M137.401 179.984L136.235 179.633L135.534 181.957L136.7 182.309L137.401 179.984Z" fill="url(#paint109_linear_708_505)"/>
<path d="M139.504 173.011L137.179 172.31L136.828 173.476L139.152 174.177L139.504 173.011Z" fill="url(#paint110_linear_708_505)"/>
<path d="M135.534 181.957L134.375 181.608L133.676 183.925L134.835 184.274L135.534 181.957Z" fill="url(#paint111_linear_708_505)"/>
<path d="M144.037 170.578L137.063 168.475L136.712 169.641L143.686 171.744L144.037 170.578Z" fill="url(#paint112_linear_708_505)"/>
<path d="M137.528 171.151L136.362 170.799L136.013 171.958L137.179 172.31L137.528 171.151Z" fill="url(#paint113_linear_708_505)"/>
<path d="M136.712 169.64L135.553 169.291L135.204 170.45L136.362 170.799L136.712 169.64Z" fill="url(#paint114_linear_708_505)"/>
</g>
<g clip-path="url(#clip3_708_505)">
<path d="M251.849 282.636L250.308 281.578L249.25 283.119L250.792 284.177L251.849 282.636Z" fill="url(#paint115_linear_708_505)"/>
<path d="M249.25 283.119L247.698 282.054L246.64 283.596L248.192 284.661L249.25 283.119Z" fill="url(#paint116_linear_708_505)"/>
<path d="M238.149 295.971L236.607 294.913L234.492 297.997L236.033 299.054L238.149 295.971Z" fill="url(#paint117_linear_708_505)"/>
<path d="M238.73 291.819L237.178 290.754L235.056 293.848L236.607 294.913L238.73 291.819Z" fill="url(#paint118_linear_708_505)"/>
<path d="M246.64 283.596L243.546 281.474L242.481 283.026L245.575 285.148L246.64 283.596Z" fill="url(#paint119_linear_708_505)"/>
<path d="M234.492 297.996L231.398 295.874L230.333 297.425L233.427 299.548L234.492 297.996Z" fill="url(#paint120_linear_708_505)"/>
<path d="M239.301 287.661L237.759 286.603L235.636 289.697L237.178 290.755L239.301 287.661Z" fill="url(#paint121_linear_708_505)"/>
<path d="M242.481 283.025L240.94 281.967L239.882 283.509L241.424 284.567L242.481 283.025Z" fill="url(#paint122_linear_708_505)"/>
<path d="M232.456 294.332L230.914 293.274L229.856 294.816L231.398 295.874L232.456 294.332Z" fill="url(#paint123_linear_708_505)"/>
<path d="M239.882 283.509L238.34 282.451L236.217 285.545L237.759 286.603L239.882 283.509Z" fill="url(#paint124_linear_708_505)"/>
<path d="M231.972 291.733L228.878 289.61L227.821 291.152L230.914 293.274L231.972 291.733Z" fill="url(#paint125_linear_708_505)"/>
<path d="M251.372 280.025L242.091 273.657L241.026 275.209L250.307 281.577L251.372 280.025Z" fill="url(#paint126_linear_708_505)"/>
<path d="M244.207 270.574L242.665 269.516L240.55 272.6L242.091 273.657L244.207 270.574Z" fill="url(#paint127_linear_708_505)"/>
<path d="M229.943 288.058L228.401 287L227.337 288.552L228.878 289.61L229.943 288.058Z" fill="url(#paint128_linear_708_505)"/>
<path d="M236.304 278.787L234.762 277.729L233.705 279.271L235.246 280.329L236.304 278.787Z" fill="url(#paint129_linear_708_505)"/>
<path d="M244.788 266.423L243.246 265.365L241.124 268.458L242.665 269.516L244.788 266.423Z" fill="url(#paint130_linear_708_505)"/>
<path d="M229.459 285.458L227.907 284.393L226.849 285.935L228.401 287L229.459 285.458Z" fill="url(#paint131_linear_708_505)"/>
<path d="M236.885 274.636L235.333 273.571L234.275 275.113L235.827 276.177L236.885 274.636Z" fill="url(#paint132_linear_708_505)"/>
<path d="M245.369 262.271L243.817 261.206L241.694 264.3L243.246 265.365L245.369 262.271Z" fill="url(#paint133_linear_708_505)"/>
<path d="M228.972 282.842L227.43 281.784L226.366 283.336L227.907 284.393L228.972 282.842Z" fill="url(#paint134_linear_708_505)"/>
<path d="M233.705 279.271L229.059 276.083L227.994 277.635L232.64 280.823L233.705 279.271Z" fill="url(#paint135_linear_708_505)"/>
<path d="M244.875 259.664L243.333 258.606L242.275 260.148L243.817 261.206L244.875 259.664Z" fill="url(#paint136_linear_708_505)"/>
<path d="M226.366 283.335L224.814 282.271L223.756 283.812L225.308 284.877L226.366 283.335Z" fill="url(#paint137_linear_708_505)"/>
<path d="M233.791 272.513L232.24 271.448L231.182 272.99L232.734 274.054L233.791 272.513Z" fill="url(#paint138_linear_708_505)"/>
<path d="M242.275 260.148L240.723 259.083L238.601 262.177L240.153 263.242L242.275 260.148Z" fill="url(#paint139_linear_708_505)"/>
<path d="M223.756 283.812L222.214 282.754L221.149 284.306L222.691 285.364L223.756 283.812Z" fill="url(#paint140_linear_708_505)"/>
<path d="M230.117 274.542L228.575 273.484L227.517 275.026L229.059 276.084L230.117 274.542Z" fill="url(#paint141_linear_708_505)"/>
<path d="M238.601 262.177L237.059 261.119L234.936 264.213L236.478 265.271L238.601 262.177Z" fill="url(#paint142_linear_708_505)"/>
<path d="M234.936 264.213L233.395 263.155L231.279 266.238L232.821 267.296L234.936 264.213Z" fill="url(#paint143_linear_708_505)"/>
<path d="M221.149 284.306L218.056 282.184L216.998 283.725L220.091 285.848L221.149 284.306Z" fill="url(#paint144_linear_708_505)"/>
<path d="M216.998 283.725L215.456 282.667L214.398 284.209L215.94 285.267L216.998 283.725Z" fill="url(#paint145_linear_708_505)"/>
<path d="M224.424 272.903L222.882 271.845L220.759 274.938L222.301 275.996L224.424 272.903Z" fill="url(#paint146_linear_708_505)"/>
<path d="M220.759 274.939L219.218 273.881L217.095 276.975L218.637 278.032L220.759 274.939Z" fill="url(#paint147_linear_708_505)"/>
<path d="M223.94 270.303L222.398 269.245L221.34 270.787L222.882 271.845L223.94 270.303Z" fill="url(#paint148_linear_708_505)"/>
<path d="M214.398 284.21L211.304 282.087L210.24 283.639L213.333 285.762L214.398 284.21Z" fill="url(#paint149_linear_708_505)"/>
<path d="M217.095 276.974L215.543 275.91L213.42 279.003L214.972 280.068L217.095 276.974Z" fill="url(#paint150_linear_708_505)"/>
<path d="M223.463 267.693L220.369 265.571L219.304 267.123L222.398 269.245L223.463 267.693Z" fill="url(#paint151_linear_708_505)"/>
<path d="M213.42 279.003L211.878 277.945L209.763 281.029L211.304 282.087L213.42 279.003Z" fill="url(#paint152_linear_708_505)"/>
<path d="M231.279 266.239L221.998 259.871L220.933 261.423L230.214 267.791L231.279 266.239Z" fill="url(#paint153_linear_708_505)"/>
<path d="M221.427 264.029L219.875 262.964L218.817 264.506L220.369 265.57L221.427 264.029Z" fill="url(#paint154_linear_708_505)"/>
<path d="M220.933 261.422L219.391 260.364L218.333 261.906L219.875 262.964L220.933 261.422Z" fill="url(#paint155_linear_708_505)"/>
</g>
<defs>
<linearGradient id="paint0_linear_708_505" x1="172.5" y1="4.45029e-08" x2="163" y2="400" gradientUnits="userSpaceOnUse">
<stop stop-color="#640D5F"/>
<stop offset="1" stop-color="white"/>
</linearGradient>
<linearGradient id="paint1_linear_708_505" x1="178" y1="173" x2="328" y2="181" gradientUnits="userSpaceOnUse">
<stop stop-color="#CF67C9"/>
<stop offset="0.969643" stop-color="#640D5F"/>
</linearGradient>
<linearGradient id="paint2_linear_708_505" x1="244" y1="165" x2="244" y2="180" gradientUnits="userSpaceOnUse">
<stop stop-color="white"/>
</linearGradient>
<linearGradient id="paint3_linear_708_505" x1="299.585" y1="169.816" x2="300.205" y2="172.129" gradientUnits="userSpaceOnUse">
<stop stop-color="white"/>
</linearGradient>
<linearGradient id="paint4_linear_708_505" x1="297.883" y1="172.751" x2="298.507" y2="175.079" gradientUnits="userSpaceOnUse">
<stop stop-color="white"/>
</linearGradient>
<linearGradient id="paint5_linear_708_505" x1="296.195" y1="175.699" x2="296.815" y2="178.012" gradientUnits="userSpaceOnUse">
<stop stop-color="white"/>
</linearGradient>
<linearGradient id="paint6_linear_708_505" x1="286.746" y1="168.282" x2="288.609" y2="175.236" gradientUnits="userSpaceOnUse">
<stop stop-color="white"/>
</linearGradient>
<linearGradient id="paint7_linear_708_505" x1="282.278" y1="179.428" x2="282.898" y2="181.741" gradientUnits="userSpaceOnUse">
<stop stop-color="white"/>
</linearGradient>
<linearGradient id="paint8_linear_708_505" x1="279.333" y1="177.721" x2="279.957" y2="180.05" gradientUnits="userSpaceOnUse">
<stop stop-color="white"/>
</linearGradient>
<linearGradient id="paint9_linear_708_505" x1="276.4" y1="176.028" x2="277.02" y2="178.341" gradientUnits="userSpaceOnUse">
<stop stop-color="white"/>
</linearGradient>
<linearGradient id="paint10_linear_708_505" x1="224.277" y1="398.555" x2="224.277" y2="409.312" gradientUnits="userSpaceOnUse">
<stop stop-color="#640D5F"/>
<stop offset="1" stop-color="#CF67C9"/>
</linearGradient>
<linearGradient id="paint11_linear_708_505" x1="202.832" y1="302.156" x2="202.832" y2="355.734" gradientUnits="userSpaceOnUse">
<stop stop-color="#640D5F"/>
<stop offset="1" stop-color="#CF67C9"/>
</linearGradient>
<linearGradient id="paint12_linear_708_505" x1="192.145" y1="398.555" x2="192.145" y2="409.312" gradientUnits="userSpaceOnUse">
<stop stop-color="#640D5F"/>
<stop offset="1" stop-color="#CF67C9"/>
</linearGradient>
<linearGradient id="paint13_linear_708_505" x1="197.488" y1="291.469" x2="197.488" y2="302.156" gradientUnits="userSpaceOnUse">
<stop stop-color="#640D5F"/>
<stop offset="1" stop-color="#CF67C9"/>
</linearGradient>
<linearGradient id="paint14_linear_708_505" x1="170.699" y1="387.867" x2="170.699" y2="398.555" gradientUnits="userSpaceOnUse">
<stop stop-color="#640D5F"/>
<stop offset="1" stop-color="#CF67C9"/>
</linearGradient>
<linearGradient id="paint15_linear_708_505" x1="181.422" y1="248.578" x2="181.422" y2="344.977" gradientUnits="userSpaceOnUse">
<stop stop-color="#640D5F"/>
<stop offset="1" stop-color="#CF67C9"/>
</linearGradient>
<linearGradient id="paint16_linear_708_505" x1="154.633" y1="323.602" x2="154.633" y2="334.289" gradientUnits="userSpaceOnUse">
<stop stop-color="#640D5F"/>
<stop offset="1" stop-color="#CF67C9"/>
</linearGradient>
<linearGradient id="paint17_linear_708_505" x1="154.633" y1="302.156" x2="154.633" y2="312.844" gradientUnits="userSpaceOnUse">
<stop stop-color="#640D5F"/>
<stop offset="1" stop-color="#CF67C9"/>
</linearGradient>
<linearGradient id="paint18_linear_708_505" x1="143.91" y1="387.867" x2="143.91" y2="409.312" gradientUnits="userSpaceOnUse">
<stop stop-color="#640D5F"/>
<stop offset="1" stop-color="#CF67C9"/>
</linearGradient>
<linearGradient id="paint19_linear_708_505" x1="127.844" y1="366.422" x2="127.844" y2="377.18" gradientUnits="userSpaceOnUse">
<stop stop-color="#640D5F"/>
<stop offset="1" stop-color="#CF67C9"/>
</linearGradient>
<linearGradient id="paint20_linear_708_505" x1="143.91" y1="205.688" x2="143.91" y2="216.445" gradientUnits="userSpaceOnUse">
<stop stop-color="#640D5F"/>
<stop offset="1" stop-color="#CF67C9"/>
</linearGradient>
<linearGradient id="paint21_linear_708_505" x1="127.844" y1="195" x2="127.844" y2="205.688" gradientUnits="userSpaceOnUse">
<stop stop-color="#640D5F"/>
<stop offset="1" stop-color="#CF67C9"/>
</linearGradient>
<linearGradient id="paint22_linear_708_505" x1="127.844" y1="248.578" x2="127.844" y2="291.469" gradientUnits="userSpaceOnUse">
<stop stop-color="#640D5F"/>
<stop offset="1" stop-color="#CF67C9"/>
</linearGradient>
<linearGradient id="paint23_linear_708_505" x1="111.777" y1="387.867" x2="111.777" y2="409.312" gradientUnits="userSpaceOnUse">
<stop stop-color="#640D5F"/>
<stop offset="1" stop-color="#CF67C9"/>
</linearGradient>
<linearGradient id="paint24_linear_708_505" x1="127.844" y1="344.977" x2="127.844" y2="366.422" gradientUnits="userSpaceOnUse">
<stop stop-color="#640D5F"/>
<stop offset="1" stop-color="#CF67C9"/>
</linearGradient>
<linearGradient id="paint25_linear_708_505" x1="111.777" y1="205.688" x2="111.777" y2="216.445" gradientUnits="userSpaceOnUse">
<stop stop-color="#640D5F"/>
<stop offset="1" stop-color="#CF67C9"/>
</linearGradient>
<linearGradient id="paint26_linear_708_505" x1="84.9883" y1="387.867" x2="84.9883" y2="398.555" gradientUnits="userSpaceOnUse">
<stop stop-color="#640D5F"/>
<stop offset="1" stop-color="#CF67C9"/>
</linearGradient>
<linearGradient id="paint27_linear_708_505" x1="127.844" y1="216.445" x2="127.844" y2="248.578" gradientUnits="userSpaceOnUse">
<stop stop-color="#640D5F"/>
<stop offset="1" stop-color="#CF67C9"/>
</linearGradient>
<linearGradient id="paint28_linear_708_505" x1="74.2656" y1="248.578" x2="74.2656" y2="344.977" gradientUnits="userSpaceOnUse">
<stop stop-color="#640D5F"/>
<stop offset="1" stop-color="#CF67C9"/>
</linearGradient>
<linearGradient id="paint29_linear_708_505" x1="63.543" y1="398.555" x2="63.543" y2="409.312" gradientUnits="userSpaceOnUse">
<stop stop-color="#640D5F"/>
<stop offset="1" stop-color="#CF67C9"/>
</linearGradient>
<linearGradient id="paint30_linear_708_505" x1="58.1992" y1="291.469" x2="58.1992" y2="302.156" gradientUnits="userSpaceOnUse">
<stop stop-color="#640D5F"/>
<stop offset="1" stop-color="#CF67C9"/>
</linearGradient>
<linearGradient id="paint31_linear_708_505" x1="52.8555" y1="302.156" x2="52.8555" y2="355.734" gradientUnits="userSpaceOnUse">
<stop stop-color="#640D5F"/>
<stop offset="1" stop-color="#CF67C9"/>
</linearGradient>
<linearGradient id="paint32_linear_708_505" x1="31.4102" y1="398.555" x2="31.4102" y2="409.312" gradientUnits="userSpaceOnUse">
<stop stop-color="#640D5F"/>
<stop offset="1" stop-color="#CF67C9"/>
</linearGradient>
<linearGradient id="paint33_linear_708_505" x1="59.3885" y1="226.026" x2="60.3097" y2="228.215" gradientUnits="userSpaceOnUse">
<stop stop-color="#640D5F"/>
<stop offset="1" stop-color="#CF67C9"/>
</linearGradient>
<linearGradient id="paint34_linear_708_505" x1="58.1132" y1="229.139" x2="59.0344" y2="231.328" gradientUnits="userSpaceOnUse">
<stop stop-color="#640D5F"/>
<stop offset="1" stop-color="#CF67C9"/>
</linearGradient>
<linearGradient id="paint35_linear_708_505" x1="64.232" y1="249.823" x2="66.0744" y2="254.201" gradientUnits="userSpaceOnUse">
<stop stop-color="#640D5F"/>
<stop offset="1" stop-color="#CF67C9"/>
</linearGradient>
<linearGradient id="paint36_linear_708_505" x1="60.1872" y1="246.355" x2="62.0356" y2="250.747" gradientUnits="userSpaceOnUse">
<stop stop-color="#640D5F"/>
<stop offset="1" stop-color="#CF67C9"/>
</linearGradient>
<linearGradient id="paint37_linear_708_505" x1="55.7366" y1="232.716" x2="56.6638" y2="234.92" gradientUnits="userSpaceOnUse">
<stop stop-color="#640D5F"/>
<stop offset="1" stop-color="#CF67C9"/>
</linearGradient>
<linearGradient id="paint38_linear_708_505" x1="62.7834" y1="255.586" x2="63.7107" y2="257.79" gradientUnits="userSpaceOnUse">
<stop stop-color="#640D5F"/>
<stop offset="1" stop-color="#CF67C9"/>
</linearGradient>
<linearGradient id="paint39_linear_708_505" x1="56.1426" y1="242.887" x2="57.9911" y2="247.279" gradientUnits="userSpaceOnUse">
<stop stop-color="#640D5F"/>
<stop offset="1" stop-color="#CF67C9"/>
</linearGradient>
<linearGradient id="paint40_linear_708_505" x1="53.3729" y1="236.305" x2="54.294" y2="238.494" gradientUnits="userSpaceOnUse">
<stop stop-color="#640D5F"/>
<stop offset="1" stop-color="#CF67C9"/>
</linearGradient>
<linearGradient id="paint41_linear_708_505" x1="58.5716" y1="254.782" x2="59.4928" y2="256.971" gradientUnits="userSpaceOnUse">
<stop stop-color="#640D5F"/>
<stop offset="1" stop-color="#CF67C9"/>
</linearGradient>
<linearGradient id="paint42_linear_708_505" x1="52.105" y1="239.415" x2="53.9535" y2="243.807" gradientUnits="userSpaceOnUse">
<stop stop-color="#640D5F"/>
<stop offset="1" stop-color="#CF67C9"/>
</linearGradient>
<linearGradient id="paint43_linear_708_505" x1="54.3596" y1="253.978" x2="55.2808" y2="256.167" gradientUnits="userSpaceOnUse">
<stop stop-color="#640D5F"/>
<stop offset="1" stop-color="#CF67C9"/>
</linearGradient>
<linearGradient id="paint44_linear_708_505" x1="50.7778" y1="227.056" x2="51.705" y2="229.259" gradientUnits="userSpaceOnUse">
<stop stop-color="#640D5F"/>
<stop offset="1" stop-color="#CF67C9"/>
</linearGradient>
<linearGradient id="paint45_linear_708_505" x1="41.252" y1="225.911" x2="43.0944" y2="230.289" gradientUnits="userSpaceOnUse">
<stop stop-color="#640D5F"/>
<stop offset="1" stop-color="#CF67C9"/>
</linearGradient>
<linearGradient id="paint46_linear_708_505" x1="50.1414" y1="253.159" x2="51.0687" y2="255.363" gradientUnits="userSpaceOnUse">
<stop stop-color="#640D5F"/>
<stop offset="1" stop-color="#CF67C9"/>
</linearGradient>
<linearGradient id="paint47_linear_708_505" x1="44.6023" y1="239.995" x2="45.5235" y2="242.185" gradientUnits="userSpaceOnUse">
<stop stop-color="#640D5F"/>
<stop offset="1" stop-color="#CF67C9"/>
</linearGradient>
<linearGradient id="paint48_linear_708_505" x1="37.2147" y1="222.44" x2="39.0631" y2="226.832" gradientUnits="userSpaceOnUse">
<stop stop-color="#640D5F"/>
<stop offset="1" stop-color="#CF67C9"/>
</linearGradient>
<linearGradient id="paint49_linear_708_505" x1="47.0241" y1="251.894" x2="47.9453" y2="254.083" gradientUnits="userSpaceOnUse">
<stop stop-color="#640D5F"/>
<stop offset="1" stop-color="#CF67C9"/>
</linearGradient>
<linearGradient id="paint50_linear_708_505" x1="40.5575" y1="236.527" x2="41.4787" y2="238.716" gradientUnits="userSpaceOnUse">
<stop stop-color="#640D5F"/>
<stop offset="1" stop-color="#CF67C9"/>
</linearGradient>
<linearGradient id="paint51_linear_708_505" x1="33.1699" y1="218.971" x2="35.0183" y2="223.364" gradientUnits="userSpaceOnUse">
<stop stop-color="#640D5F"/>
<stop offset="1" stop-color="#CF67C9"/>
</linearGradient>
<linearGradient id="paint52_linear_708_505" x1="43.9004" y1="250.615" x2="44.8277" y2="252.818" gradientUnits="userSpaceOnUse">
<stop stop-color="#640D5F"/>
<stop offset="1" stop-color="#CF67C9"/>
</linearGradient>
<linearGradient id="paint53_linear_708_505" x1="41.1308" y1="244.033" x2="42.058" y2="246.237" gradientUnits="userSpaceOnUse">
<stop stop-color="#640D5F"/>
<stop offset="1" stop-color="#CF67C9"/>
</linearGradient>
<linearGradient id="paint54_linear_708_505" x1="30.0523" y1="217.706" x2="30.9735" y2="219.895" gradientUnits="userSpaceOnUse">
<stop stop-color="#640D5F"/>
<stop offset="1" stop-color="#CF67C9"/>
</linearGradient>
<linearGradient id="paint55_linear_708_505" x1="42.6315" y1="253.742" x2="43.5527" y2="255.932" gradientUnits="userSpaceOnUse">
<stop stop-color="#640D5F"/>
<stop offset="1" stop-color="#CF67C9"/>
</linearGradient>
<linearGradient id="paint56_linear_708_505" x1="36.165" y1="238.376" x2="37.0862" y2="240.565" gradientUnits="userSpaceOnUse">
<stop stop-color="#640D5F"/>
<stop offset="1" stop-color="#CF67C9"/>
</linearGradient>
<linearGradient id="paint57_linear_708_505" x1="28.7773" y1="220.82" x2="30.6257" y2="225.213" gradientUnits="userSpaceOnUse">
<stop stop-color="#640D5F"/>
<stop offset="1" stop-color="#CF67C9"/>
</linearGradient>
<linearGradient id="paint58_linear_708_505" x1="41.3565" y1="256.856" x2="42.2837" y2="259.059" gradientUnits="userSpaceOnUse">
<stop stop-color="#640D5F"/>
<stop offset="1" stop-color="#CF67C9"/>
</linearGradient>
<linearGradient id="paint59_linear_708_505" x1="35.8172" y1="243.692" x2="36.7384" y2="245.881" gradientUnits="userSpaceOnUse">
<stop stop-color="#640D5F"/>
<stop offset="1" stop-color="#CF67C9"/>
</linearGradient>
<linearGradient id="paint60_linear_708_505" x1="28.4295" y1="226.137" x2="30.2779" y2="230.529" gradientUnits="userSpaceOnUse">
<stop stop-color="#640D5F"/>
<stop offset="1" stop-color="#CF67C9"/>
</linearGradient>
<linearGradient id="paint61_linear_708_505" x1="28.0889" y1="231.451" x2="29.9313" y2="235.829" gradientUnits="userSpaceOnUse">
<stop stop-color="#640D5F"/>
<stop offset="1" stop-color="#CF67C9"/>
</linearGradient>
<linearGradient id="paint62_linear_708_505" x1="38.9929" y1="260.444" x2="39.9141" y2="262.633" gradientUnits="userSpaceOnUse">
<stop stop-color="#640D5F"/>
<stop offset="1" stop-color="#CF67C9"/>
</linearGradient>
<linearGradient id="paint63_linear_708_505" x1="36.6231" y1="264.018" x2="37.5443" y2="266.207" gradientUnits="userSpaceOnUse">
<stop stop-color="#640D5F"/>
<stop offset="1" stop-color="#CF67C9"/>
</linearGradient>
<linearGradient id="paint64_linear_708_505" x1="30.1568" y1="248.651" x2="32.0052" y2="253.044" gradientUnits="userSpaceOnUse">
<stop stop-color="#640D5F"/>
<stop offset="1" stop-color="#CF67C9"/>
</linearGradient>
<linearGradient id="paint65_linear_708_505" x1="29.816" y1="253.965" x2="31.6644" y2="258.357" gradientUnits="userSpaceOnUse">
<stop stop-color="#640D5F"/>
<stop offset="1" stop-color="#CF67C9"/>
</linearGradient>
<linearGradient id="paint66_linear_708_505" x1="27.0464" y1="247.383" x2="27.9676" y2="249.572" gradientUnits="userSpaceOnUse">
<stop stop-color="#640D5F"/>
<stop offset="1" stop-color="#CF67C9"/>
</linearGradient>
<linearGradient id="paint67_linear_708_505" x1="34.2536" y1="267.592" x2="35.1809" y2="269.795" gradientUnits="userSpaceOnUse">
<stop stop-color="#640D5F"/>
<stop offset="1" stop-color="#CF67C9"/>
</linearGradient>
<linearGradient id="paint68_linear_708_505" x1="29.4682" y1="259.281" x2="31.3166" y2="263.674" gradientUnits="userSpaceOnUse">
<stop stop-color="#640D5F"/>
<stop offset="1" stop-color="#CF67C9"/>
</linearGradient>
<linearGradient id="paint69_linear_708_505" x1="22.8284" y1="246.565" x2="23.7556" y2="248.768" gradientUnits="userSpaceOnUse">
<stop stop-color="#640D5F"/>
<stop offset="1" stop-color="#CF67C9"/>
</linearGradient>
<linearGradient id="paint70_linear_708_505" x1="29.1204" y1="264.598" x2="30.9628" y2="268.977" gradientUnits="userSpaceOnUse">
<stop stop-color="#640D5F"/>
<stop offset="1" stop-color="#CF67C9"/>
</linearGradient>
<linearGradient id="paint71_linear_708_505" x1="22.2478" y1="239.062" x2="23.175" y2="241.265" gradientUnits="userSpaceOnUse">
<stop stop-color="#640D5F"/>
<stop offset="1" stop-color="#CF67C9"/>
</linearGradient>
<linearGradient id="paint72_linear_708_505" x1="18.6093" y1="245.763" x2="19.5305" y2="247.952" gradientUnits="userSpaceOnUse">
<stop stop-color="#640D5F"/>
<stop offset="1" stop-color="#CF67C9"/>
</linearGradient>
<linearGradient id="paint73_linear_708_505" x1="15.4918" y1="244.498" x2="16.4129" y2="246.687" gradientUnits="userSpaceOnUse">
<stop stop-color="#640D5F"/>
<stop offset="1" stop-color="#CF67C9"/>
</linearGradient>
<linearGradient id="paint74_linear_708_505" x1="159.364" y1="176.472" x2="159.015" y2="177.63" gradientUnits="userSpaceOnUse">
<stop stop-color="#640D5F"/>
<stop offset="1" stop-color="#CF67C9"/>
</linearGradient>
<linearGradient id="paint75_linear_708_505" x1="157.852" y1="177.279" x2="157.503" y2="178.438" gradientUnits="userSpaceOnUse">
<stop stop-color="#640D5F"/>
<stop offset="1" stop-color="#CF67C9"/>
</linearGradient>
<linearGradient id="paint76_linear_708_505" x1="153.537" y1="187.386" x2="152.838" y2="189.703" gradientUnits="userSpaceOnUse">
<stop stop-color="#640D5F"/>
<stop offset="1" stop-color="#CF67C9"/>
</linearGradient>
<linearGradient id="paint77_linear_708_505" x1="153.075" y1="184.711" x2="152.374" y2="187.036" gradientUnits="userSpaceOnUse">
<stop stop-color="#640D5F"/>
<stop offset="1" stop-color="#CF67C9"/>
</linearGradient>
<linearGradient id="paint78_linear_708_505" x1="155.758" y1="177.912" x2="155.406" y2="179.078" gradientUnits="userSpaceOnUse">
<stop stop-color="#640D5F"/>
<stop offset="1" stop-color="#CF67C9"/>
</linearGradient>
<linearGradient id="paint79_linear_708_505" x1="151.096" y1="189.178" x2="150.745" y2="190.344" gradientUnits="userSpaceOnUse">
<stop stop-color="#640D5F"/>
<stop offset="1" stop-color="#CF67C9"/>
</linearGradient>
<linearGradient id="paint80_linear_708_505" x1="152.614" y1="182.036" x2="151.913" y2="184.361" gradientUnits="userSpaceOnUse">
<stop stop-color="#640D5F"/>
<stop offset="1" stop-color="#CF67C9"/>
</linearGradient>
<linearGradient id="paint81_linear_708_505" x1="153.664" y1="178.553" x2="153.315" y2="179.711" gradientUnits="userSpaceOnUse">
<stop stop-color="#640D5F"/>
<stop offset="1" stop-color="#CF67C9"/>
</linearGradient>
<linearGradient id="paint82_linear_708_505" x1="149.704" y1="187.495" x2="149.355" y2="188.653" gradientUnits="userSpaceOnUse">
<stop stop-color="#640D5F"/>
<stop offset="1" stop-color="#CF67C9"/>
</linearGradient>
<linearGradient id="paint83_linear_708_505" x1="152.156" y1="179.362" x2="151.455" y2="181.686" gradientUnits="userSpaceOnUse">
<stop stop-color="#640D5F"/>
<stop offset="1" stop-color="#CF67C9"/>
</linearGradient>
<linearGradient id="paint84_linear_708_505" x1="148.312" y1="185.81" x2="147.962" y2="186.969" gradientUnits="userSpaceOnUse">
<stop stop-color="#640D5F"/>
<stop offset="1" stop-color="#CF67C9"/>
</linearGradient>
<linearGradient id="paint85_linear_708_505" x1="155.649" y1="174.079" x2="155.298" y2="175.246" gradientUnits="userSpaceOnUse">
<stop stop-color="#640D5F"/>
<stop offset="1" stop-color="#CF67C9"/>
</linearGradient>
<linearGradient id="paint86_linear_708_505" x1="152.282" y1="170.536" x2="151.583" y2="172.853" gradientUnits="userSpaceOnUse">
<stop stop-color="#640D5F"/>
<stop offset="1" stop-color="#CF67C9"/>
</linearGradient>
<linearGradient id="paint87_linear_708_505" x1="146.922" y1="184.12" x2="146.57" y2="185.286" gradientUnits="userSpaceOnUse">
<stop stop-color="#640D5F"/>
<stop offset="1" stop-color="#CF67C9"/>
</linearGradient>
<linearGradient id="paint88_linear_708_505" x1="149.022" y1="177.153" x2="148.673" y2="178.311" gradientUnits="userSpaceOnUse">
<stop stop-color="#640D5F"/>
<stop offset="1" stop-color="#CF67C9"/>
</linearGradient>
<linearGradient id="paint89_linear_708_505" x1="151.824" y1="167.862" x2="151.123" y2="170.186" gradientUnits="userSpaceOnUse">
<stop stop-color="#640D5F"/>
<stop offset="1" stop-color="#CF67C9"/>
</linearGradient>
<linearGradient id="paint90_linear_708_505" x1="146.109" y1="182.61" x2="145.759" y2="183.769" gradientUnits="userSpaceOnUse">
<stop stop-color="#640D5F"/>
<stop offset="1" stop-color="#CF67C9"/>
</linearGradient>
<linearGradient id="paint91_linear_708_505" x1="148.561" y1="174.478" x2="148.212" y2="175.636" gradientUnits="userSpaceOnUse">
<stop stop-color="#640D5F"/>
<stop offset="1" stop-color="#CF67C9"/>
</linearGradient>
<linearGradient id="paint92_linear_708_505" x1="151.363" y1="165.187" x2="150.662" y2="167.511" gradientUnits="userSpaceOnUse">
<stop stop-color="#640D5F"/>
<stop offset="1" stop-color="#CF67C9"/>
</linearGradient>
<linearGradient id="paint93_linear_708_505" x1="145.298" y1="181.094" x2="144.946" y2="182.26" gradientUnits="userSpaceOnUse">
<stop stop-color="#640D5F"/>
<stop offset="1" stop-color="#CF67C9"/>
</linearGradient>
<linearGradient id="paint94_linear_708_505" x1="146.348" y1="177.61" x2="145.997" y2="178.776" gradientUnits="userSpaceOnUse">
<stop stop-color="#640D5F"/>
<stop offset="1" stop-color="#CF67C9"/>
</linearGradient>
<linearGradient id="paint95_linear_708_505" x1="150.55" y1="163.678" x2="150.201" y2="164.836" gradientUnits="userSpaceOnUse">
<stop stop-color="#640D5F"/>
<stop offset="1" stop-color="#CF67C9"/>
</linearGradient>
<linearGradient id="paint96_linear_708_505" x1="143.784" y1="181.909" x2="143.435" y2="183.068" gradientUnits="userSpaceOnUse">
<stop stop-color="#640D5F"/>
<stop offset="1" stop-color="#CF67C9"/>
</linearGradient>
<linearGradient id="paint97_linear_708_505" x1="146.236" y1="173.777" x2="145.887" y2="174.935" gradientUnits="userSpaceOnUse">
<stop stop-color="#640D5F"/>
<stop offset="1" stop-color="#CF67C9"/>
</linearGradient>
<linearGradient id="paint98_linear_708_505" x1="149.038" y1="164.485" x2="148.337" y2="166.81" gradientUnits="userSpaceOnUse">
<stop stop-color="#640D5F"/>
<stop offset="1" stop-color="#CF67C9"/>
</linearGradient>
<linearGradient id="paint99_linear_708_505" x1="142.272" y1="182.717" x2="141.921" y2="183.883" gradientUnits="userSpaceOnUse">
<stop stop-color="#640D5F"/>
<stop offset="1" stop-color="#CF67C9"/>
</linearGradient>
<linearGradient id="paint100_linear_708_505" x1="144.373" y1="175.751" x2="144.024" y2="176.909" gradientUnits="userSpaceOnUse">
<stop stop-color="#640D5F"/>
<stop offset="1" stop-color="#CF67C9"/>
</linearGradient>
<linearGradient id="paint101_linear_708_505" x1="147.175" y1="166.46" x2="146.474" y2="168.785" gradientUnits="userSpaceOnUse">
<stop stop-color="#640D5F"/>
<stop offset="1" stop-color="#CF67C9"/>
</linearGradient>
<linearGradient id="paint102_linear_708_505" x1="145.315" y1="168.435" x2="144.617" y2="170.752" gradientUnits="userSpaceOnUse">
<stop stop-color="#640D5F"/>
<stop offset="1" stop-color="#CF67C9"/>
</linearGradient>
<linearGradient id="paint103_linear_708_505" x1="140.179" y1="183.358" x2="139.83" y2="184.517" gradientUnits="userSpaceOnUse">
<stop stop-color="#640D5F"/>
<stop offset="1" stop-color="#CF67C9"/>
</linearGradient>
<linearGradient id="paint104_linear_708_505" x1="138.088" y1="183.992" x2="137.739" y2="185.15" gradientUnits="userSpaceOnUse">
<stop stop-color="#640D5F"/>
<stop offset="1" stop-color="#CF67C9"/>
</linearGradient>
<linearGradient id="paint105_linear_708_505" x1="140.54" y1="175.859" x2="139.839" y2="178.184" gradientUnits="userSpaceOnUse">
<stop stop-color="#640D5F"/>
<stop offset="1" stop-color="#CF67C9"/>
</linearGradient>
<linearGradient id="paint106_linear_708_505" x1="138.681" y1="177.834" x2="137.98" y2="180.159" gradientUnits="userSpaceOnUse">
<stop stop-color="#640D5F"/>
<stop offset="1" stop-color="#CF67C9"/>
</linearGradient>
<linearGradient id="paint107_linear_708_505" x1="139.731" y1="174.351" x2="139.382" y2="175.509" gradientUnits="userSpaceOnUse">
<stop stop-color="#640D5F"/>
<stop offset="1" stop-color="#CF67C9"/>
</linearGradient>
<linearGradient id="paint108_linear_708_505" x1="135.997" y1="184.625" x2="135.646" y2="185.791" gradientUnits="userSpaceOnUse">
<stop stop-color="#640D5F"/>
<stop offset="1" stop-color="#CF67C9"/>
</linearGradient>
<linearGradient id="paint109_linear_708_505" x1="136.818" y1="179.809" x2="136.117" y2="182.133" gradientUnits="userSpaceOnUse">
<stop stop-color="#640D5F"/>
<stop offset="1" stop-color="#CF67C9"/>
</linearGradient>
<linearGradient id="paint110_linear_708_505" x1="138.342" y1="172.66" x2="137.99" y2="173.826" gradientUnits="userSpaceOnUse">
<stop stop-color="#640D5F"/>
<stop offset="1" stop-color="#CF67C9"/>
</linearGradient>
<linearGradient id="paint111_linear_708_505" x1="134.954" y1="181.783" x2="134.256" y2="184.1" gradientUnits="userSpaceOnUse">
<stop stop-color="#640D5F"/>
<stop offset="1" stop-color="#CF67C9"/>
</linearGradient>
<linearGradient id="paint112_linear_708_505" x1="140.55" y1="169.526" x2="140.199" y2="170.692" gradientUnits="userSpaceOnUse">
<stop stop-color="#640D5F"/>
<stop offset="1" stop-color="#CF67C9"/>
</linearGradient>
<linearGradient id="paint113_linear_708_505" x1="136.945" y1="170.975" x2="136.596" y2="172.134" gradientUnits="userSpaceOnUse">
<stop stop-color="#640D5F"/>
<stop offset="1" stop-color="#CF67C9"/>
</linearGradient>
<linearGradient id="paint114_linear_708_505" x1="136.132" y1="169.466" x2="135.783" y2="170.624" gradientUnits="userSpaceOnUse">
<stop stop-color="#640D5F"/>
<stop offset="1" stop-color="#CF67C9"/>
</linearGradient>
<linearGradient id="paint115_linear_708_505" x1="251.078" y1="282.107" x2="250.021" y2="283.648" gradientUnits="userSpaceOnUse">
<stop stop-color="#640D5F"/>
<stop offset="1" stop-color="#CF67C9"/>
</linearGradient>
<linearGradient id="paint116_linear_708_505" x1="248.474" y1="282.587" x2="247.416" y2="284.128" gradientUnits="userSpaceOnUse">
<stop stop-color="#640D5F"/>
<stop offset="1" stop-color="#CF67C9"/>
</linearGradient>
<linearGradient id="paint117_linear_708_505" x1="237.378" y1="295.442" x2="235.263" y2="298.526" gradientUnits="userSpaceOnUse">
<stop stop-color="#640D5F"/>
<stop offset="1" stop-color="#CF67C9"/>
</linearGradient>
<linearGradient id="paint118_linear_708_505" x1="237.954" y1="291.287" x2="235.831" y2="294.38" gradientUnits="userSpaceOnUse">
<stop stop-color="#640D5F"/>
<stop offset="1" stop-color="#CF67C9"/>
</linearGradient>
<linearGradient id="paint119_linear_708_505" x1="245.093" y1="282.535" x2="244.028" y2="284.087" gradientUnits="userSpaceOnUse">
<stop stop-color="#640D5F"/>
<stop offset="1" stop-color="#CF67C9"/>
</linearGradient>
<linearGradient id="paint120_linear_708_505" x1="232.945" y1="296.935" x2="231.88" y2="298.487" gradientUnits="userSpaceOnUse">
<stop stop-color="#640D5F"/>
<stop offset="1" stop-color="#CF67C9"/>
</linearGradient>
<linearGradient id="paint121_linear_708_505" x1="238.53" y1="287.132" x2="236.407" y2="290.226" gradientUnits="userSpaceOnUse">
<stop stop-color="#640D5F"/>
<stop offset="1" stop-color="#CF67C9"/>
</linearGradient>
<linearGradient id="paint122_linear_708_505" x1="241.711" y1="282.496" x2="240.653" y2="284.038" gradientUnits="userSpaceOnUse">
<stop stop-color="#640D5F"/>
<stop offset="1" stop-color="#CF67C9"/>
</linearGradient>
<linearGradient id="paint123_linear_708_505" x1="231.685" y1="293.803" x2="230.627" y2="295.345" gradientUnits="userSpaceOnUse">
<stop stop-color="#640D5F"/>
<stop offset="1" stop-color="#CF67C9"/>
</linearGradient>
<linearGradient id="paint124_linear_708_505" x1="239.111" y1="282.98" x2="236.988" y2="286.074" gradientUnits="userSpaceOnUse">
<stop stop-color="#640D5F"/>
<stop offset="1" stop-color="#CF67C9"/>
</linearGradient>
<linearGradient id="paint125_linear_708_505" x1="230.425" y1="290.671" x2="229.367" y2="292.213" gradientUnits="userSpaceOnUse">
<stop stop-color="#640D5F"/>
<stop offset="1" stop-color="#CF67C9"/>
</linearGradient>
<linearGradient id="paint126_linear_708_505" x1="246.732" y1="276.841" x2="245.667" y2="278.393" gradientUnits="userSpaceOnUse">
<stop stop-color="#640D5F"/>
<stop offset="1" stop-color="#CF67C9"/>
</linearGradient>
<linearGradient id="paint127_linear_708_505" x1="243.436" y1="270.045" x2="241.32" y2="273.129" gradientUnits="userSpaceOnUse">
<stop stop-color="#640D5F"/>
<stop offset="1" stop-color="#CF67C9"/>
</linearGradient>
<linearGradient id="paint128_linear_708_505" x1="229.172" y1="287.529" x2="228.107" y2="289.081" gradientUnits="userSpaceOnUse">
<stop stop-color="#640D5F"/>
<stop offset="1" stop-color="#CF67C9"/>
</linearGradient>
<linearGradient id="paint129_linear_708_505" x1="235.533" y1="278.258" x2="234.475" y2="279.8" gradientUnits="userSpaceOnUse">
<stop stop-color="#640D5F"/>
<stop offset="1" stop-color="#CF67C9"/>
</linearGradient>
<linearGradient id="paint130_linear_708_505" x1="244.017" y1="265.894" x2="241.895" y2="268.987" gradientUnits="userSpaceOnUse">
<stop stop-color="#640D5F"/>
<stop offset="1" stop-color="#CF67C9"/>
</linearGradient>
<linearGradient id="paint131_linear_708_505" x1="228.683" y1="284.925" x2="227.625" y2="286.467" gradientUnits="userSpaceOnUse">
<stop stop-color="#640D5F"/>
<stop offset="1" stop-color="#CF67C9"/>
</linearGradient>
<linearGradient id="paint132_linear_708_505" x1="236.109" y1="274.103" x2="235.051" y2="275.645" gradientUnits="userSpaceOnUse">
<stop stop-color="#640D5F"/>
<stop offset="1" stop-color="#CF67C9"/>
</linearGradient>
<linearGradient id="paint133_linear_708_505" x1="244.593" y1="261.738" x2="242.47" y2="264.832" gradientUnits="userSpaceOnUse">
<stop stop-color="#640D5F"/>
<stop offset="1" stop-color="#CF67C9"/>
</linearGradient>
<linearGradient id="paint134_linear_708_505" x1="228.201" y1="282.313" x2="227.136" y2="283.865" gradientUnits="userSpaceOnUse">
<stop stop-color="#640D5F"/>
<stop offset="1" stop-color="#CF67C9"/>
</linearGradient>
<linearGradient id="paint135_linear_708_505" x1="231.382" y1="277.677" x2="230.317" y2="279.229" gradientUnits="userSpaceOnUse">
<stop stop-color="#640D5F"/>
<stop offset="1" stop-color="#CF67C9"/>
</linearGradient>
<linearGradient id="paint136_linear_708_505" x1="244.104" y1="259.135" x2="243.046" y2="260.677" gradientUnits="userSpaceOnUse">
<stop stop-color="#640D5F"/>
<stop offset="1" stop-color="#CF67C9"/>
</linearGradient>
<linearGradient id="paint137_linear_708_505" x1="225.59" y1="282.803" x2="224.532" y2="284.345" gradientUnits="userSpaceOnUse">
<stop stop-color="#640D5F"/>
<stop offset="1" stop-color="#CF67C9"/>
</linearGradient>
<linearGradient id="paint138_linear_708_505" x1="233.015" y1="271.98" x2="231.958" y2="273.522" gradientUnits="userSpaceOnUse">
<stop stop-color="#640D5F"/>
<stop offset="1" stop-color="#CF67C9"/>
</linearGradient>
<linearGradient id="paint139_linear_708_505" x1="241.499" y1="259.616" x2="239.377" y2="262.71" gradientUnits="userSpaceOnUse">
<stop stop-color="#640D5F"/>
<stop offset="1" stop-color="#CF67C9"/>
</linearGradient>
<linearGradient id="paint140_linear_708_505" x1="222.985" y1="283.283" x2="221.92" y2="284.835" gradientUnits="userSpaceOnUse">
<stop stop-color="#640D5F"/>
<stop offset="1" stop-color="#CF67C9"/>
</linearGradient>
<linearGradient id="paint141_linear_708_505" x1="229.346" y1="274.013" x2="228.288" y2="275.555" gradientUnits="userSpaceOnUse">
<stop stop-color="#640D5F"/>
<stop offset="1" stop-color="#CF67C9"/>
</linearGradient>
<linearGradient id="paint142_linear_708_505" x1="237.83" y1="261.648" x2="235.707" y2="264.742" gradientUnits="userSpaceOnUse">
<stop stop-color="#640D5F"/>
<stop offset="1" stop-color="#CF67C9"/>
</linearGradient>
<linearGradient id="paint143_linear_708_505" x1="234.165" y1="263.684" x2="232.05" y2="266.767" gradientUnits="userSpaceOnUse">
<stop stop-color="#640D5F"/>
<stop offset="1" stop-color="#CF67C9"/>
</linearGradient>
<linearGradient id="paint144_linear_708_505" x1="219.602" y1="283.245" x2="218.545" y2="284.787" gradientUnits="userSpaceOnUse">
<stop stop-color="#640D5F"/>
<stop offset="1" stop-color="#CF67C9"/>
</linearGradient>
<linearGradient id="paint145_linear_708_505" x1="216.227" y1="283.196" x2="215.169" y2="284.738" gradientUnits="userSpaceOnUse">
<stop stop-color="#640D5F"/>
<stop offset="1" stop-color="#CF67C9"/>
</linearGradient>
<linearGradient id="paint146_linear_708_505" x1="223.653" y1="272.374" x2="221.53" y2="275.467" gradientUnits="userSpaceOnUse">
<stop stop-color="#640D5F"/>
<stop offset="1" stop-color="#CF67C9"/>
</linearGradient>
<linearGradient id="paint147_linear_708_505" x1="219.988" y1="274.41" x2="217.866" y2="277.503" gradientUnits="userSpaceOnUse">
<stop stop-color="#640D5F"/>
<stop offset="1" stop-color="#CF67C9"/>
</linearGradient>
<linearGradient id="paint148_linear_708_505" x1="223.169" y1="269.774" x2="222.111" y2="271.316" gradientUnits="userSpaceOnUse">
<stop stop-color="#640D5F"/>
<stop offset="1" stop-color="#CF67C9"/>
</linearGradient>
<linearGradient id="paint149_linear_708_505" x1="212.851" y1="283.148" x2="211.786" y2="284.7" gradientUnits="userSpaceOnUse">
<stop stop-color="#640D5F"/>
<stop offset="1" stop-color="#CF67C9"/>
</linearGradient>
<linearGradient id="paint150_linear_708_505" x1="216.319" y1="276.442" x2="214.196" y2="279.536" gradientUnits="userSpaceOnUse">
<stop stop-color="#640D5F"/>
<stop offset="1" stop-color="#CF67C9"/>
</linearGradient>
<linearGradient id="paint151_linear_708_505" x1="221.916" y1="266.632" x2="220.851" y2="268.184" gradientUnits="userSpaceOnUse">
<stop stop-color="#640D5F"/>
<stop offset="1" stop-color="#CF67C9"/>
</linearGradient>
<linearGradient id="paint152_linear_708_505" x1="212.649" y1="278.474" x2="210.534" y2="281.558" gradientUnits="userSpaceOnUse">
<stop stop-color="#640D5F"/>
<stop offset="1" stop-color="#CF67C9"/>
</linearGradient>
<linearGradient id="paint153_linear_708_505" x1="226.638" y1="263.055" x2="225.573" y2="264.607" gradientUnits="userSpaceOnUse">
<stop stop-color="#640D5F"/>
<stop offset="1" stop-color="#CF67C9"/>
</linearGradient>
<linearGradient id="paint154_linear_708_505" x1="220.651" y1="263.496" x2="219.593" y2="265.038" gradientUnits="userSpaceOnUse">
<stop stop-color="#640D5F"/>
<stop offset="1" stop-color="#CF67C9"/>
</linearGradient>
<linearGradient id="paint155_linear_708_505" x1="220.162" y1="260.893" x2="219.104" y2="262.435" gradientUnits="userSpaceOnUse">
<stop stop-color="#640D5F"/>
<stop offset="1" stop-color="#CF67C9"/>
</linearGradient>
<clipPath id="clip0_708_505">
<rect width="225" height="205" fill="white" transform="translate(10 195)"/>
</clipPath>
<clipPath id="clip1_708_505">
<rect width="50" height="50" fill="white" transform="translate(7.00952 227.403) rotate(-22.8219)"/>
</clipPath>
<clipPath id="clip2_708_505">
<rect width="25.475" height="25.475" fill="white" transform="translate(138.355 160) rotate(16.7808)"/>
</clipPath>
<clipPath id="clip3_708_505">
<rect width="39.3639" height="39.3639" fill="white" transform="translate(227.875 248) rotate(34.4556)"/>
</clipPath>
</defs>
</svg>
