<svg width="325" height="405" viewBox="0 0 325 405" fill="none" xmlns="http://www.w3.org/2000/svg">
<rect width="325" height="400" rx="20" fill="url(#paint0_linear_708_420)"/>
<rect x="178" y="159" width="132" height="28" rx="14" fill="url(#paint1_linear_708_420)"/>
<path d="M218.76 169.02V173.92C218.76 174.6 218.563 175.13 218.17 175.51C217.777 175.883 217.25 176.07 216.59 176.07C215.923 176.07 215.383 175.877 214.97 175.49C214.563 175.103 214.36 174.563 214.36 173.87H215.76C215.767 174.17 215.837 174.403 215.97 174.57C216.11 174.737 216.31 174.82 216.57 174.82C216.823 174.82 217.017 174.74 217.15 174.58C217.283 174.42 217.35 174.2 217.35 173.92V169.02H218.76ZM225.543 173.11C225.543 173.31 225.53 173.49 225.503 173.65H221.453C221.486 174.05 221.626 174.363 221.873 174.59C222.12 174.817 222.423 174.93 222.783 174.93C223.303 174.93 223.673 174.707 223.893 174.26H225.403C225.243 174.793 224.936 175.233 224.483 175.58C224.03 175.92 223.473 176.09 222.813 176.09C222.28 176.09 221.8 175.973 221.373 175.74C220.953 175.5 220.623 175.163 220.383 174.73C220.15 174.297 220.033 173.797 220.033 173.23C220.033 172.657 220.15 172.153 220.383 171.72C220.616 171.287 220.943 170.953 221.363 170.72C221.783 170.487 222.266 170.37 222.813 170.37C223.34 170.37 223.81 170.483 224.223 170.71C224.643 170.937 224.966 171.26 225.193 171.68C225.426 172.093 225.543 172.57 225.543 173.11ZM224.093 172.71C224.086 172.35 223.956 172.063 223.703 171.85C223.45 171.63 223.14 171.52 222.773 171.52C222.426 171.52 222.133 171.627 221.893 171.84C221.66 172.047 221.516 172.337 221.463 172.71H224.093ZM227.965 168.6V176H226.565V168.6H227.965ZM228.988 173.21C228.988 172.65 229.098 172.153 229.318 171.72C229.545 171.287 229.848 170.953 230.228 170.72C230.615 170.487 231.045 170.37 231.518 170.37C231.932 170.37 232.292 170.453 232.598 170.62C232.912 170.787 233.162 170.997 233.348 171.25V170.46H234.758V176H233.348V175.19C233.168 175.45 232.918 175.667 232.598 175.84C232.285 176.007 231.922 176.09 231.508 176.09C231.042 176.09 230.615 175.97 230.228 175.73C229.848 175.49 229.545 175.153 229.318 174.72C229.098 174.28 228.988 173.777 228.988 173.21ZM233.348 173.23C233.348 172.89 233.282 172.6 233.148 172.36C233.015 172.113 232.835 171.927 232.608 171.8C232.382 171.667 232.138 171.6 231.878 171.6C231.618 171.6 231.378 171.663 231.158 171.79C230.938 171.917 230.758 172.103 230.618 172.35C230.485 172.59 230.418 172.877 230.418 173.21C230.418 173.543 230.485 173.837 230.618 174.09C230.758 174.337 230.938 174.527 231.158 174.66C231.385 174.793 231.625 174.86 231.878 174.86C232.138 174.86 232.382 174.797 232.608 174.67C232.835 174.537 233.015 174.35 233.148 174.11C233.282 173.863 233.348 173.57 233.348 173.23ZM236.836 169.8C236.582 169.8 236.372 169.723 236.206 169.57C236.046 169.41 235.966 169.213 235.966 168.98C235.966 168.747 236.046 168.553 236.206 168.4C236.372 168.24 236.582 168.16 236.836 168.16C237.082 168.16 237.286 168.24 237.446 168.4C237.606 168.553 237.686 168.747 237.686 168.98C237.686 169.213 237.606 169.41 237.446 169.57C237.286 169.723 237.082 169.8 236.836 169.8ZM237.526 176.91C237.526 177.523 237.372 177.963 237.066 178.23C236.766 178.503 236.332 178.64 235.766 178.64H235.146V177.45H235.546C235.759 177.45 235.909 177.407 235.996 177.32C236.082 177.24 236.126 177.107 236.126 176.92V170.46H237.526V176.91ZM238.549 173.21C238.549 172.65 238.659 172.153 238.879 171.72C239.105 171.287 239.409 170.953 239.789 170.72C240.175 170.487 240.605 170.37 241.079 170.37C241.492 170.37 241.852 170.453 242.159 170.62C242.472 170.787 242.722 170.997 242.909 171.25V170.46H244.319V176H242.909V175.19C242.729 175.45 242.479 175.667 242.159 175.84C241.845 176.007 241.482 176.09 241.069 176.09C240.602 176.09 240.175 175.97 239.789 175.73C239.409 175.49 239.105 175.153 238.879 174.72C238.659 174.28 238.549 173.777 238.549 173.21ZM242.909 173.23C242.909 172.89 242.842 172.6 242.709 172.36C242.575 172.113 242.395 171.927 242.169 171.8C241.942 171.667 241.699 171.6 241.439 171.6C241.179 171.6 240.939 171.663 240.719 171.79C240.499 171.917 240.319 172.103 240.179 172.35C240.045 172.59 239.979 172.877 239.979 173.21C239.979 173.543 240.045 173.837 240.179 174.09C240.319 174.337 240.499 174.527 240.719 174.66C240.945 174.793 241.185 174.86 241.439 174.86C241.699 174.86 241.942 174.797 242.169 174.67C242.395 174.537 242.575 174.35 242.709 174.11C242.842 173.863 242.909 173.57 242.909 173.23ZM248.806 170.38C249.226 170.38 249.599 170.473 249.926 170.66C250.253 170.84 250.506 171.11 250.686 171.47C250.873 171.823 250.966 172.25 250.966 172.75V176H249.566V172.94C249.566 172.5 249.456 172.163 249.236 171.93C249.016 171.69 248.716 171.57 248.336 171.57C247.949 171.57 247.643 171.69 247.416 171.93C247.196 172.163 247.086 172.5 247.086 172.94V176H245.686V168.6H247.086V171.15C247.266 170.91 247.506 170.723 247.806 170.59C248.106 170.45 248.439 170.38 248.806 170.38ZM253.007 169.8C252.761 169.8 252.554 169.723 252.387 169.57C252.227 169.41 252.147 169.213 252.147 168.98C252.147 168.747 252.227 168.553 252.387 168.4C252.554 168.24 252.761 168.16 253.007 168.16C253.254 168.16 253.457 168.24 253.617 168.4C253.784 168.553 253.867 168.747 253.867 168.98C253.867 169.213 253.784 169.41 253.617 169.57C253.457 169.723 253.254 169.8 253.007 169.8ZM253.697 170.46V176H252.297V170.46H253.697ZM263.013 169.02L260.653 173.57V176H259.253V173.57L256.883 169.02H258.463L259.963 172.21L261.453 169.02H263.013ZM269.051 170.46V176H267.641V175.3C267.461 175.54 267.224 175.73 266.931 175.87C266.644 176.003 266.331 176.07 265.991 176.07C265.558 176.07 265.174 175.98 264.841 175.8C264.508 175.613 264.244 175.343 264.051 174.99C263.864 174.63 263.771 174.203 263.771 173.71V170.46H265.171V173.51C265.171 173.95 265.281 174.29 265.501 174.53C265.721 174.763 266.021 174.88 266.401 174.88C266.788 174.88 267.091 174.763 267.311 174.53C267.531 174.29 267.641 173.95 267.641 173.51V170.46H269.051ZM273.712 176L271.832 173.64V176H270.432V168.6H271.832V172.81L273.692 170.46H275.512L273.072 173.24L275.532 176H273.712ZM278.082 168.9L277.922 173.73H276.742L276.572 168.9H278.082ZM277.362 176.07C277.109 176.07 276.899 175.993 276.732 175.84C276.572 175.68 276.492 175.483 276.492 175.25C276.492 175.017 276.572 174.823 276.732 174.67C276.899 174.51 277.109 174.43 277.362 174.43C277.609 174.43 277.812 174.51 277.972 174.67C278.132 174.823 278.212 175.017 278.212 175.25C278.212 175.483 278.132 175.68 277.972 175.84C277.812 175.993 277.609 176.07 277.362 176.07Z" fill="url(#paint2_linear_708_420)"/>
<path d="M315.156 195.458L312.828 196.082L315.935 207.677L318.263 207.054L315.156 195.458Z" fill="white"/>
<path d="M315.936 207.677L313.623 208.297L314.246 210.625L316.559 210.005L315.936 207.677Z" fill="white"/>
<path d="M312.208 193.768L309.895 194.388L310.515 196.701L312.828 196.081L312.208 193.768Z" fill="white"/>
<path d="M314.246 210.625L311.933 211.245L312.552 213.558L314.865 212.938L314.246 210.625Z" fill="white"/>
<path d="M309.275 192.076L306.962 192.696L307.582 195.009L309.895 194.389L309.275 192.076Z" fill="white"/>
<path d="M306.962 192.695L306.338 190.367L297.056 192.854L294.573 183.587L292.26 184.207L295.367 195.802L306.962 192.695Z" fill="white"/>
<path d="M300.749 169.504L298.421 170.128L299.041 172.441L301.369 171.817L300.749 169.504Z" fill="url(#paint3_linear_708_420)"/>
<path d="M305.254 195.632L302.941 196.252L304.805 203.206L307.118 202.586L305.254 195.632Z" fill="white"/>
<path d="M299.04 172.441L296.727 173.061L297.351 175.389L299.664 174.769L299.04 172.441Z" fill="url(#paint4_linear_708_420)"/>
<path d="M297.352 175.389L295.039 176.009L295.659 178.322L297.972 177.702L297.352 175.389Z" fill="url(#paint5_linear_708_420)"/>
<path d="M298.299 197.495L295.986 198.115L297.85 205.069L300.163 204.45L298.299 197.495Z" fill="white"/>
<path d="M291.636 181.878L286.995 183.122L287.619 185.45L292.26 184.207L291.636 181.878Z" fill="white"/>
<path d="M287.91 167.97L285.582 168.594L287.445 175.548L289.773 174.924L287.91 167.97Z" fill="url(#paint6_linear_708_420)"/>
<path d="M295.073 213.267L292.76 213.887L294.004 218.528L296.317 217.909L295.073 213.267Z" fill="white"/>
<path d="M290.275 204.62L292.588 204L287.618 185.451L285.305 186.07L288.412 197.666L283.771 198.909L284.39 201.222L289.032 199.979L290.275 204.62Z" fill="white"/>
<path d="M292.139 211.574L289.811 212.198L290.431 214.511L292.759 213.887L292.139 211.574Z" fill="white"/>
<path d="M283.442 179.116L281.114 179.74L281.733 182.053L284.062 181.429L283.442 179.116Z" fill="url(#paint7_linear_708_420)"/>
<path d="M289.191 209.886L286.878 210.505L287.498 212.818L289.811 212.199L289.191 209.886Z" fill="white"/>
<path d="M280.49 177.411L278.177 178.031L278.801 180.359L281.114 179.74L280.49 177.411Z" fill="url(#paint8_linear_708_420)"/>
<path d="M284.391 201.222L282.078 201.842L284.565 211.124L286.878 210.504L284.391 201.222Z" fill="white"/>
<path d="M277.557 175.718L275.244 176.337L275.864 178.65L278.177 178.031L277.557 175.718Z" fill="url(#paint9_linear_708_420)"/>
<path d="M208.908 278.231H198.791V318.768H208.908V278.231Z" fill="url(#paint10_linear_708_420)"/>
<path d="M66.9301 278.231H77.0476V268.047H87.2317V257.93H127.768V268.047H137.952V257.93H168.371V268.047H178.489V349.187H188.673V328.952H198.79V318.768H188.673V278.231H198.79V268.047H188.673V227.511H178.489V237.628H168.371V227.511H148.07V217.327H77.0476V227.511H66.9301V237.628H56.8126V257.93H46.6286V227.511H36.5111V257.93H26.3936V268.047H66.9301V278.231Z" fill="url(#paint11_linear_708_420)"/>
<path d="M178.489 349.187H168.371V359.371H178.489V349.187Z" fill="url(#paint12_linear_708_420)"/>
<path d="M178.489 217.327H168.371V227.511H178.489V217.327Z" fill="url(#paint13_linear_708_420)"/>
<path d="M168.371 328.952H158.187V339.07H168.371V328.952Z" fill="#DAA705"/>
<path d="M168.371 298.466H158.187V318.768H168.371V298.466Z" fill="#DAA705"/>
<path d="M168.371 207.209H158.187V217.327H168.371V207.209Z" fill="url(#paint14_linear_708_420)"/>
<path d="M77.0475 359.371V379.706H56.8125V389.823H36.511V399.941H198.79V389.823H178.489V379.706H158.187V369.522H168.371V359.404L77.0475 359.371ZM148.07 389.79H107.533V379.706H87.2316V369.522H148.103L148.07 389.79Z" fill="url(#paint15_linear_708_420)"/>
<path d="M158.187 339.07H127.768V349.187H158.187V339.07Z" fill="#DAA705"/>
<path d="M127.768 328.952H117.651V339.07H127.768V328.952Z" fill="#DAA705"/>
<path d="M117.651 298.466H107.533V318.768H117.651V298.466Z" fill="#DAA705"/>
<path d="M127.768 268.047H107.533V278.231H127.768V268.047Z" fill="url(#paint16_linear_708_420)"/>
<path d="M87.2317 278.231H77.0476V318.768H87.2317V278.231Z" fill="url(#paint17_linear_708_420)"/>
<path d="M158.187 197.092H66.9302V207.209H158.187V197.092Z" fill="url(#paint18_linear_708_420)"/>
<path d="M77.0477 349.187H66.9302V359.371H77.0477V349.187Z" fill="url(#paint19_linear_708_420)"/>
<path d="M77.0477 318.768H66.9302V328.952H77.0477V318.768Z" fill="url(#paint20_linear_708_420)"/>
<path d="M26.3936 328.952V339.07H56.8126V349.187H66.9301V328.952H26.3936Z" fill="url(#paint21_linear_708_420)"/>
<path d="M66.9302 207.209H56.8127V217.327H66.9302V207.209Z" fill="url(#paint22_linear_708_420)"/>
<path d="M56.8127 217.327H46.6287V227.511H56.8127V217.327Z" fill="url(#paint23_linear_708_420)"/>
<path d="M46.6285 278.231H36.511V288.349H46.6285V278.231Z" fill="url(#paint24_linear_708_420)"/>
<path d="M36.5111 288.349H26.3936V308.651H36.5111V288.349Z" fill="url(#paint25_linear_708_420)"/>
<path d="M26.3935 318.768H16.2095V328.952H26.3935V318.768Z" fill="url(#paint26_linear_708_420)"/>
<path d="M26.3935 268.047H16.2095V278.231H26.3935V268.047Z" fill="url(#paint27_linear_708_420)"/>
<path d="M16.2095 278.231H6.09204V318.768H16.2095V278.231Z" fill="url(#paint28_linear_708_420)"/>
<g clip-path="url(#clip0_708_420)">
<path d="M82.8966 148.573L79.313 149.198L80.5544 156.319L84.138 155.694L82.8966 148.573Z" fill="url(#paint29_linear_708_420)"/>
<path d="M78.6881 145.615L75.1279 146.235L75.7527 149.819L79.3129 149.198L78.6881 145.615Z" fill="url(#paint30_linear_708_420)"/>
<path d="M74.5074 142.675L70.9238 143.3L71.5446 146.86L75.1281 146.236L74.5074 142.675Z" fill="url(#paint31_linear_708_420)"/>
<path d="M64.1247 188.603L71.2685 187.357L70.6478 183.797L74.208 183.177L67.3637 143.921L70.9238 143.3L70.299 139.717L66.7388 140.337L66.1181 136.777L62.5579 137.398L68.7815 173.093L61.6378 174.339L62.2585 177.899L58.6983 178.52L59.9438 185.664L63.504 185.043L64.1247 188.603Z" fill="url(#paint32_linear_708_420)"/>
<path d="M50.3089 172.621L46.7253 173.246L47.9709 180.39L51.5545 179.765L50.3089 172.621Z" fill="url(#paint33_linear_708_420)"/>
<path d="M46.1046 169.686L42.5444 170.307L43.1652 173.867L46.7253 173.246L46.1046 169.686Z" fill="url(#paint34_linear_708_420)"/>
<path d="M41.9237 166.746L38.3635 167.367L38.9843 170.927L42.5444 170.307L41.9237 166.746Z" fill="url(#paint35_linear_708_420)"/>
<path d="M31.541 212.674L38.6848 211.429L38.064 207.869L41.6242 207.248L34.7799 167.992L38.3635 167.367L37.7387 163.784L34.1551 164.409L33.5344 160.848L29.9742 161.469L36.1978 197.165L29.054 198.41L29.6747 201.97L26.1146 202.591L27.3601 209.735L30.9203 209.114L31.541 212.674Z" fill="url(#paint36_linear_708_420)"/>
</g>
<g clip-path="url(#clip1_708_420)">
<path d="M242.547 351.107L240.554 350.435L239.219 354.396L241.213 355.068L242.547 351.107Z" fill="url(#paint37_linear_708_420)"/>
<path d="M241.225 348.441L239.245 347.774L238.573 349.768L240.554 350.435L241.225 348.441Z" fill="url(#paint38_linear_708_420)"/>
<path d="M239.912 345.794L237.918 345.122L237.251 347.103L239.245 347.774L239.912 345.794Z" fill="url(#paint39_linear_708_420)"/>
<path d="M221.959 366.269L225.933 367.608L226.601 365.627L228.581 366.294L235.937 344.455L237.918 345.122L238.589 343.128L236.609 342.461L237.276 340.481L235.295 339.813L228.606 359.672L224.632 358.334L223.965 360.314L221.984 359.647L220.646 363.621L222.626 364.289L221.959 366.269Z" fill="url(#paint40_linear_708_420)"/>
<path d="M219.348 354.334L217.355 353.663L216.016 357.637L218.01 358.308L219.348 354.334Z" fill="url(#paint41_linear_708_420)"/>
<path d="M218.022 351.682L216.041 351.015L215.374 352.995L217.355 353.662L218.022 351.682Z" fill="url(#paint42_linear_708_420)"/>
<path d="M216.708 349.034L214.728 348.367L214.061 350.347L216.041 351.014L216.708 349.034Z" fill="url(#paint43_linear_708_420)"/>
<path d="M198.756 369.509L202.73 370.848L203.397 368.867L205.378 369.535L212.734 347.695L214.728 348.367L215.399 346.373L213.406 345.701L214.073 343.721L212.092 343.054L205.403 362.912L201.429 361.574L200.762 363.554L198.781 362.887L197.442 366.862L199.423 367.529L198.756 369.509Z" fill="url(#paint44_linear_708_420)"/>
</g>
<g clip-path="url(#clip2_708_420)">
<path d="M231.389 245.105L230.071 245.465L230.787 248.084L232.104 247.724L231.389 245.105Z" fill="url(#paint45_linear_708_420)"/>
<path d="M229.711 244.148L228.402 244.505L228.762 245.823L230.071 245.465L229.711 244.148Z" fill="url(#paint46_linear_708_420)"/>
<path d="M228.044 243.196L226.726 243.556L227.084 244.865L228.402 244.505L228.044 243.196Z" fill="url(#paint47_linear_708_420)"/>
<path d="M225.783 260.735L228.41 260.017L228.052 258.708L229.361 258.35L225.417 243.914L226.726 243.556L226.366 242.238L225.057 242.596L224.699 241.287L223.39 241.645L226.977 254.771L224.35 255.489L224.707 256.798L223.398 257.156L224.116 259.783L225.425 259.425L225.783 260.735Z" fill="url(#paint48_linear_708_420)"/>
<path d="M220.053 255.247L218.736 255.607L219.453 258.234L220.771 257.874L220.053 255.247Z" fill="url(#paint49_linear_708_420)"/>
<path d="M218.378 254.298L217.069 254.655L217.426 255.964L218.736 255.607L218.378 254.298Z" fill="url(#paint50_linear_708_420)"/>
<path d="M216.711 253.346L215.402 253.704L215.759 255.013L217.069 254.656L216.711 253.346Z" fill="url(#paint51_linear_708_420)"/>
<path d="M214.45 270.885L217.077 270.167L216.719 268.858L218.028 268.5L214.084 254.064L215.401 253.704L215.041 252.386L213.724 252.747L213.366 251.437L212.057 251.795L215.643 264.922L213.016 265.639L213.374 266.949L212.065 267.306L212.783 269.933L214.092 269.576L214.45 270.885Z" fill="url(#paint52_linear_708_420)"/>
</g>
<defs>
<linearGradient id="paint0_linear_708_420" x1="172.5" y1="4.45029e-08" x2="163" y2="400" gradientUnits="userSpaceOnUse">
<stop stop-color="#FCC61D"/>
<stop offset="1" stop-color="white"/>
</linearGradient>
<linearGradient id="paint1_linear_708_420" x1="178" y1="173" x2="328" y2="181" gradientUnits="userSpaceOnUse">
<stop stop-color="#FCC61D"/>
<stop offset="0.969643" stop-color="#DAA705"/>
</linearGradient>
<linearGradient id="paint2_linear_708_420" x1="247" y1="165" x2="247" y2="180" gradientUnits="userSpaceOnUse">
<stop stop-color="white"/>
</linearGradient>
<linearGradient id="paint3_linear_708_420" x1="299.585" y1="169.816" x2="300.205" y2="172.129" gradientUnits="userSpaceOnUse">
<stop stop-color="white"/>
</linearGradient>
<linearGradient id="paint4_linear_708_420" x1="297.883" y1="172.751" x2="298.507" y2="175.079" gradientUnits="userSpaceOnUse">
<stop stop-color="white"/>
</linearGradient>
<linearGradient id="paint5_linear_708_420" x1="296.195" y1="175.699" x2="296.815" y2="178.012" gradientUnits="userSpaceOnUse">
<stop stop-color="white"/>
</linearGradient>
<linearGradient id="paint6_linear_708_420" x1="286.746" y1="168.282" x2="288.609" y2="175.236" gradientUnits="userSpaceOnUse">
<stop stop-color="white"/>
</linearGradient>
<linearGradient id="paint7_linear_708_420" x1="282.278" y1="179.428" x2="282.898" y2="181.741" gradientUnits="userSpaceOnUse">
<stop stop-color="white"/>
</linearGradient>
<linearGradient id="paint8_linear_708_420" x1="279.333" y1="177.721" x2="279.957" y2="180.05" gradientUnits="userSpaceOnUse">
<stop stop-color="white"/>
</linearGradient>
<linearGradient id="paint9_linear_708_420" x1="276.4" y1="176.028" x2="277.02" y2="178.341" gradientUnits="userSpaceOnUse">
<stop stop-color="white"/>
</linearGradient>
<linearGradient id="paint10_linear_708_420" x1="203.849" y1="278.231" x2="203.849" y2="318.768" gradientUnits="userSpaceOnUse">
<stop stop-color="#DAA705"/>
<stop offset="1" stop-color="#FCC61D"/>
</linearGradient>
<linearGradient id="paint11_linear_708_420" x1="112.592" y1="217.327" x2="112.592" y2="349.187" gradientUnits="userSpaceOnUse">
<stop stop-color="#DAA705"/>
<stop offset="1" stop-color="#FCC61D"/>
</linearGradient>
<linearGradient id="paint12_linear_708_420" x1="173.43" y1="349.187" x2="173.43" y2="359.371" gradientUnits="userSpaceOnUse">
<stop stop-color="#DAA705"/>
<stop offset="1" stop-color="#FCC61D"/>
</linearGradient>
<linearGradient id="paint13_linear_708_420" x1="173.43" y1="217.327" x2="173.43" y2="227.511" gradientUnits="userSpaceOnUse">
<stop stop-color="#DAA705"/>
<stop offset="1" stop-color="#FCC61D"/>
</linearGradient>
<linearGradient id="paint14_linear_708_420" x1="163.279" y1="207.209" x2="163.279" y2="217.327" gradientUnits="userSpaceOnUse">
<stop stop-color="#DAA705"/>
<stop offset="1" stop-color="#FCC61D"/>
</linearGradient>
<linearGradient id="paint15_linear_708_420" x1="117.651" y1="359.371" x2="117.651" y2="399.941" gradientUnits="userSpaceOnUse">
<stop stop-color="#DAA705"/>
<stop offset="1" stop-color="#FCC61D"/>
</linearGradient>
<linearGradient id="paint16_linear_708_420" x1="117.651" y1="268.047" x2="117.651" y2="278.231" gradientUnits="userSpaceOnUse">
<stop stop-color="#DAA705"/>
<stop offset="1" stop-color="#FCC61D"/>
</linearGradient>
<linearGradient id="paint17_linear_708_420" x1="82.1396" y1="278.231" x2="82.1396" y2="318.768" gradientUnits="userSpaceOnUse">
<stop stop-color="#DAA705"/>
<stop offset="1" stop-color="#FCC61D"/>
</linearGradient>
<linearGradient id="paint18_linear_708_420" x1="112.559" y1="197.092" x2="112.559" y2="207.209" gradientUnits="userSpaceOnUse">
<stop stop-color="#DAA705"/>
<stop offset="1" stop-color="#FCC61D"/>
</linearGradient>
<linearGradient id="paint19_linear_708_420" x1="71.9889" y1="349.187" x2="71.9889" y2="359.371" gradientUnits="userSpaceOnUse">
<stop stop-color="#DAA705"/>
<stop offset="1" stop-color="#FCC61D"/>
</linearGradient>
<linearGradient id="paint20_linear_708_420" x1="71.9889" y1="318.768" x2="71.9889" y2="328.952" gradientUnits="userSpaceOnUse">
<stop stop-color="#DAA705"/>
<stop offset="1" stop-color="#FCC61D"/>
</linearGradient>
<linearGradient id="paint21_linear_708_420" x1="46.6618" y1="328.952" x2="46.6618" y2="349.187" gradientUnits="userSpaceOnUse">
<stop stop-color="#DAA705"/>
<stop offset="1" stop-color="#FCC61D"/>
</linearGradient>
<linearGradient id="paint22_linear_708_420" x1="61.8715" y1="207.209" x2="61.8715" y2="217.327" gradientUnits="userSpaceOnUse">
<stop stop-color="#DAA705"/>
<stop offset="1" stop-color="#FCC61D"/>
</linearGradient>
<linearGradient id="paint23_linear_708_420" x1="51.7207" y1="217.327" x2="51.7207" y2="227.511" gradientUnits="userSpaceOnUse">
<stop stop-color="#DAA705"/>
<stop offset="1" stop-color="#FCC61D"/>
</linearGradient>
<linearGradient id="paint24_linear_708_420" x1="41.5697" y1="278.231" x2="41.5697" y2="288.349" gradientUnits="userSpaceOnUse">
<stop stop-color="#DAA705"/>
<stop offset="1" stop-color="#FCC61D"/>
</linearGradient>
<linearGradient id="paint25_linear_708_420" x1="31.4523" y1="288.349" x2="31.4523" y2="308.651" gradientUnits="userSpaceOnUse">
<stop stop-color="#DAA705"/>
<stop offset="1" stop-color="#FCC61D"/>
</linearGradient>
<linearGradient id="paint26_linear_708_420" x1="21.3015" y1="318.768" x2="21.3015" y2="328.952" gradientUnits="userSpaceOnUse">
<stop stop-color="#DAA705"/>
<stop offset="1" stop-color="#FCC61D"/>
</linearGradient>
<linearGradient id="paint27_linear_708_420" x1="21.3015" y1="268.047" x2="21.3015" y2="278.231" gradientUnits="userSpaceOnUse">
<stop stop-color="#DAA705"/>
<stop offset="1" stop-color="#FCC61D"/>
</linearGradient>
<linearGradient id="paint28_linear_708_420" x1="11.1508" y1="278.231" x2="11.1508" y2="318.768" gradientUnits="userSpaceOnUse">
<stop stop-color="#DAA705"/>
<stop offset="1" stop-color="#FCC61D"/>
</linearGradient>
<linearGradient id="paint29_linear_708_420" x1="81.1048" y1="148.886" x2="82.3462" y2="156.006" gradientUnits="userSpaceOnUse">
<stop stop-color="#FCC61D"/>
<stop offset="1" stop-color="#DAA705"/>
</linearGradient>
<linearGradient id="paint30_linear_708_420" x1="76.908" y1="145.925" x2="77.5328" y2="149.509" gradientUnits="userSpaceOnUse">
<stop stop-color="#FCC61D"/>
<stop offset="1" stop-color="#DAA705"/>
</linearGradient>
<linearGradient id="paint31_linear_708_420" x1="72.7156" y1="142.988" x2="73.3364" y2="146.548" gradientUnits="userSpaceOnUse">
<stop stop-color="#FCC61D"/>
<stop offset="1" stop-color="#DAA705"/>
</linearGradient>
<linearGradient id="paint32_linear_708_420" x1="60.7661" y1="137.71" x2="69.4767" y2="187.67" gradientUnits="userSpaceOnUse">
<stop stop-color="#FCC61D"/>
<stop offset="1" stop-color="#DAA705"/>
</linearGradient>
<linearGradient id="paint33_linear_708_420" x1="48.5171" y1="172.934" x2="49.7627" y2="180.077" gradientUnits="userSpaceOnUse">
<stop stop-color="#FCC61D"/>
<stop offset="1" stop-color="#DAA705"/>
</linearGradient>
<linearGradient id="paint34_linear_708_420" x1="44.3245" y1="169.996" x2="44.9452" y2="173.556" gradientUnits="userSpaceOnUse">
<stop stop-color="#FCC61D"/>
<stop offset="1" stop-color="#DAA705"/>
</linearGradient>
<linearGradient id="paint35_linear_708_420" x1="40.1436" y1="167.057" x2="40.7643" y2="170.617" gradientUnits="userSpaceOnUse">
<stop stop-color="#FCC61D"/>
<stop offset="1" stop-color="#DAA705"/>
</linearGradient>
<linearGradient id="paint36_linear_708_420" x1="28.1941" y1="161.78" x2="36.9047" y2="211.739" gradientUnits="userSpaceOnUse">
<stop stop-color="#FCC61D"/>
<stop offset="1" stop-color="#DAA705"/>
</linearGradient>
<linearGradient id="paint37_linear_708_420" x1="241.551" y1="350.771" x2="240.216" y2="354.732" gradientUnits="userSpaceOnUse">
<stop stop-color="#FCC61D"/>
<stop offset="1" stop-color="#DAA705"/>
</linearGradient>
<linearGradient id="paint38_linear_708_420" x1="240.235" y1="348.107" x2="239.563" y2="350.101" gradientUnits="userSpaceOnUse">
<stop stop-color="#FCC61D"/>
<stop offset="1" stop-color="#DAA705"/>
</linearGradient>
<linearGradient id="paint39_linear_708_420" x1="238.915" y1="345.458" x2="238.248" y2="347.438" gradientUnits="userSpaceOnUse">
<stop stop-color="#FCC61D"/>
<stop offset="1" stop-color="#DAA705"/>
</linearGradient>
<linearGradient id="paint40_linear_708_420" x1="234.298" y1="339.478" x2="224.937" y2="367.272" gradientUnits="userSpaceOnUse">
<stop stop-color="#FCC61D"/>
<stop offset="1" stop-color="#DAA705"/>
</linearGradient>
<linearGradient id="paint41_linear_708_420" x1="218.352" y1="353.998" x2="217.013" y2="357.973" gradientUnits="userSpaceOnUse">
<stop stop-color="#FCC61D"/>
<stop offset="1" stop-color="#DAA705"/>
</linearGradient>
<linearGradient id="paint42_linear_708_420" x1="217.032" y1="351.348" x2="216.364" y2="353.329" gradientUnits="userSpaceOnUse">
<stop stop-color="#FCC61D"/>
<stop offset="1" stop-color="#DAA705"/>
</linearGradient>
<linearGradient id="paint43_linear_708_420" x1="215.718" y1="348.7" x2="215.051" y2="350.681" gradientUnits="userSpaceOnUse">
<stop stop-color="#FCC61D"/>
<stop offset="1" stop-color="#DAA705"/>
</linearGradient>
<linearGradient id="paint44_linear_708_420" x1="211.102" y1="342.72" x2="201.74" y2="370.515" gradientUnits="userSpaceOnUse">
<stop stop-color="#FCC61D"/>
<stop offset="1" stop-color="#DAA705"/>
</linearGradient>
<linearGradient id="paint45_linear_708_420" x1="230.73" y1="245.285" x2="231.445" y2="247.904" gradientUnits="userSpaceOnUse">
<stop stop-color="#FCC61D"/>
<stop offset="1" stop-color="#DAA705"/>
</linearGradient>
<linearGradient id="paint46_linear_708_420" x1="229.056" y1="244.327" x2="229.416" y2="245.644" gradientUnits="userSpaceOnUse">
<stop stop-color="#FCC61D"/>
<stop offset="1" stop-color="#DAA705"/>
</linearGradient>
<linearGradient id="paint47_linear_708_420" x1="227.385" y1="243.376" x2="227.743" y2="244.685" gradientUnits="userSpaceOnUse">
<stop stop-color="#FCC61D"/>
<stop offset="1" stop-color="#DAA705"/>
</linearGradient>
<linearGradient id="paint48_linear_708_420" x1="222.731" y1="241.825" x2="227.751" y2="260.197" gradientUnits="userSpaceOnUse">
<stop stop-color="#FCC61D"/>
<stop offset="1" stop-color="#DAA705"/>
</linearGradient>
<linearGradient id="paint49_linear_708_420" x1="219.395" y1="255.427" x2="220.112" y2="258.054" gradientUnits="userSpaceOnUse">
<stop stop-color="#FCC61D"/>
<stop offset="1" stop-color="#DAA705"/>
</linearGradient>
<linearGradient id="paint50_linear_708_420" x1="217.723" y1="254.476" x2="218.081" y2="255.786" gradientUnits="userSpaceOnUse">
<stop stop-color="#FCC61D"/>
<stop offset="1" stop-color="#DAA705"/>
</linearGradient>
<linearGradient id="paint51_linear_708_420" x1="216.056" y1="253.525" x2="216.414" y2="254.834" gradientUnits="userSpaceOnUse">
<stop stop-color="#FCC61D"/>
<stop offset="1" stop-color="#DAA705"/>
</linearGradient>
<linearGradient id="paint52_linear_708_420" x1="211.402" y1="251.974" x2="216.422" y2="270.346" gradientUnits="userSpaceOnUse">
<stop stop-color="#FCC61D"/>
<stop offset="1" stop-color="#DAA705"/>
</linearGradient>
<clipPath id="clip0_708_420">
<rect width="76.0817" height="76.0817" fill="white" transform="translate(10.1838 142.849) rotate(-9.89024)"/>
</clipPath>
<clipPath id="clip1_708_420">
<rect width="44" height="44" fill="white" transform="translate(207.173 328.128) rotate(18.6146)"/>
</clipPath>
<clipPath id="clip2_708_420">
<rect width="28.5729" height="28.5729" fill="white" transform="translate(204 245.531) rotate(-15.2827)"/>
</clipPath>
</defs>
</svg>
