<svg width="325" height="405" viewBox="0 0 325 405" fill="none" xmlns="http://www.w3.org/2000/svg">
<rect width="325" height="400" rx="20" fill="url(#paint0_linear_91_135)"/>
<path d="M89.7143 68.648C89.7143 69.992 89.3903 71.252 88.7422 72.428C88.1183 73.604 87.1223 74.552 85.7543 75.272C84.4103 75.992 82.7063 76.352 80.6423 76.352H76.4303V86H71.3903V60.872H80.6423C82.5863 60.872 84.2423 61.208 85.6103 61.88C86.9783 62.552 87.9983 63.476 88.6703 64.652C89.3663 65.828 89.7143 67.16 89.7143 68.648ZM80.4263 72.284C81.8183 72.284 82.8503 71.972 83.5223 71.348C84.1943 70.7 84.5303 69.8 84.5303 68.648C84.5303 66.2 83.1623 64.976 80.4263 64.976H76.4303V72.284H80.4263ZM111.833 75.596C111.833 76.316 111.785 76.964 111.689 77.54H97.1086C97.2286 78.98 97.7326 80.108 98.6206 80.924C99.5086 81.74 100.601 82.148 101.897 82.148C103.769 82.148 105.101 81.344 105.893 79.736H111.329C110.753 81.656 109.649 83.24 108.017 84.488C106.385 85.712 104.381 86.324 102.005 86.324C100.085 86.324 98.3566 85.904 96.8206 85.064C95.3086 84.2 94.1206 82.988 93.2566 81.428C92.4166 79.868 91.9966 78.068 91.9966 76.028C91.9966 73.964 92.4166 72.152 93.2566 70.592C94.0966 69.032 95.2726 67.832 96.7846 66.992C98.2966 66.152 100.037 65.732 102.005 65.732C103.901 65.732 105.593 66.14 107.081 66.956C108.593 67.772 109.757 68.936 110.573 70.448C111.413 71.936 111.833 73.652 111.833 75.596ZM106.613 74.156C106.589 72.86 106.121 71.828 105.209 71.06C104.297 70.268 103.181 69.872 101.861 69.872C100.613 69.872 99.5566 70.256 98.6926 71.024C97.8526 71.768 97.3366 72.812 97.1446 74.156H106.613ZM121.379 70.196V79.844C121.379 80.516 121.535 81.008 121.847 81.32C122.183 81.608 122.735 81.752 123.503 81.752H125.843V86H122.675C118.427 86 116.303 83.936 116.303 79.808V70.196H113.927V66.056H116.303V61.124H121.379V66.056H125.843V70.196H121.379ZM148.296 66.056V86H143.22V83.48C142.572 84.344 141.72 85.028 140.664 85.532C139.632 86.012 138.504 86.252 137.28 86.252C135.72 86.252 134.34 85.928 133.14 85.28C131.94 84.608 130.992 83.636 130.296 82.364C129.624 81.068 129.288 79.532 129.288 77.756V66.056H134.328V77.036C134.328 78.62 134.724 79.844 135.516 80.708C136.308 81.548 137.388 81.968 138.756 81.968C140.148 81.968 141.24 81.548 142.032 80.708C142.824 79.844 143.22 78.62 143.22 77.036V66.056H148.296ZM151.973 75.956C151.973 73.94 152.369 72.152 153.161 70.592C153.977 69.032 155.069 67.832 156.437 66.992C157.829 66.152 159.377 65.732 161.081 65.732C162.569 65.732 163.865 66.032 164.969 66.632C166.097 67.232 166.997 67.988 167.669 68.9V66.056H172.745V86H167.669V83.084C167.021 84.02 166.121 84.8 164.969 85.424C163.841 86.024 162.533 86.324 161.045 86.324C159.365 86.324 157.829 85.892 156.437 85.028C155.069 84.164 153.977 82.952 153.161 81.392C152.369 79.808 151.973 77.996 151.973 75.956ZM167.669 76.028C167.669 74.804 167.429 73.76 166.949 72.896C166.469 72.008 165.821 71.336 165.005 70.88C164.189 70.4 163.313 70.16 162.377 70.16C161.441 70.16 160.577 70.388 159.785 70.844C158.993 71.3 158.345 71.972 157.841 72.86C157.361 73.724 157.121 74.756 157.121 75.956C157.121 77.156 157.361 78.212 157.841 79.124C158.345 80.012 158.993 80.696 159.785 81.176C160.601 81.656 161.465 81.896 162.377 81.896C163.313 81.896 164.189 81.668 165.005 81.212C165.821 80.732 166.469 80.06 166.949 79.196C167.429 78.308 167.669 77.252 167.669 76.028ZM182.708 59.36V86H177.668V59.36H182.708ZM186.391 75.956C186.391 73.94 186.787 72.152 187.579 70.592C188.395 69.032 189.487 67.832 190.855 66.992C192.247 66.152 193.795 65.732 195.499 65.732C196.987 65.732 198.283 66.032 199.387 66.632C200.515 67.232 201.415 67.988 202.087 68.9V66.056H207.163V86H202.087V83.084C201.439 84.02 200.539 84.8 199.387 85.424C198.259 86.024 196.951 86.324 195.463 86.324C193.783 86.324 192.247 85.892 190.855 85.028C189.487 84.164 188.395 82.952 187.579 81.392C186.787 79.808 186.391 77.996 186.391 75.956ZM202.087 76.028C202.087 74.804 201.847 73.76 201.367 72.896C200.887 72.008 200.239 71.336 199.423 70.88C198.607 70.4 197.731 70.16 196.795 70.16C195.859 70.16 194.995 70.388 194.203 70.844C193.411 71.3 192.763 71.972 192.259 72.86C191.779 73.724 191.539 74.756 191.539 75.956C191.539 77.156 191.779 78.212 192.259 79.124C192.763 80.012 193.411 80.696 194.203 81.176C195.019 81.656 195.883 81.896 196.795 81.896C197.731 81.896 198.607 81.668 199.423 81.212C200.239 80.732 200.887 80.06 201.367 79.196C201.847 78.308 202.087 77.252 202.087 76.028ZM223.138 65.768C225.514 65.768 227.434 66.524 228.898 68.036C230.362 69.524 231.094 71.612 231.094 74.3V86H226.054V74.984C226.054 73.4 225.658 72.188 224.866 71.348C224.074 70.484 222.994 70.052 221.626 70.052C220.234 70.052 219.13 70.484 218.314 71.348C217.522 72.188 217.126 73.4 217.126 74.984V86H212.086V66.056H217.126V68.54C217.798 67.676 218.65 67.004 219.682 66.524C220.738 66.02 221.89 65.768 223.138 65.768ZM243.698 65.732C245.186 65.732 246.494 66.032 247.622 66.632C248.75 67.208 249.638 67.964 250.286 68.9V66.056H255.362V86.144C255.362 87.992 254.99 89.636 254.246 91.076C253.502 92.54 252.386 93.692 250.898 94.532C249.41 95.396 247.61 95.828 245.498 95.828C242.666 95.828 240.338 95.168 238.514 93.848C236.714 92.528 235.694 90.728 235.454 88.448H240.458C240.722 89.36 241.286 90.08 242.15 90.608C243.038 91.16 244.106 91.436 245.354 91.436C246.818 91.436 248.006 90.992 248.918 90.104C249.83 89.24 250.286 87.92 250.286 86.144V83.048C249.638 83.984 248.738 84.764 247.586 85.388C246.458 86.012 245.162 86.324 243.698 86.324C242.018 86.324 240.482 85.892 239.09 85.028C237.698 84.164 236.594 82.952 235.778 81.392C234.986 79.808 234.59 77.996 234.59 75.956C234.59 73.94 234.986 72.152 235.778 70.592C236.594 69.032 237.686 67.832 239.054 66.992C240.446 66.152 241.994 65.732 243.698 65.732ZM250.286 76.028C250.286 74.804 250.046 73.76 249.566 72.896C249.086 72.008 248.438 71.336 247.622 70.88C246.806 70.4 245.93 70.16 244.994 70.16C244.058 70.16 243.194 70.388 242.402 70.844C241.61 71.3 240.962 71.972 240.458 72.86C239.978 73.724 239.738 74.756 239.738 75.956C239.738 77.156 239.978 78.212 240.458 79.124C240.962 80.012 241.61 80.696 242.402 81.176C243.218 81.656 244.082 81.896 244.994 81.896C245.93 81.896 246.806 81.668 247.622 81.212C248.438 80.732 249.086 80.06 249.566 79.196C250.046 78.308 250.286 77.252 250.286 76.028ZM258.989 75.956C258.989 73.94 259.385 72.152 260.177 70.592C260.993 69.032 262.085 67.832 263.453 66.992C264.845 66.152 266.393 65.732 268.097 65.732C269.585 65.732 270.881 66.032 271.985 66.632C273.113 67.232 274.013 67.988 274.685 68.9V66.056H279.761V86H274.685V83.084C274.037 84.02 273.137 84.8 271.985 85.424C270.857 86.024 269.549 86.324 268.061 86.324C266.381 86.324 264.845 85.892 263.453 85.028C262.085 84.164 260.993 82.952 260.177 81.392C259.385 79.808 258.989 77.996 258.989 75.956ZM274.685 76.028C274.685 74.804 274.445 73.76 273.965 72.896C273.485 72.008 272.837 71.336 272.021 70.88C271.205 70.4 270.329 70.16 269.393 70.16C268.457 70.16 267.593 70.388 266.801 70.844C266.009 71.3 265.361 71.972 264.857 72.86C264.377 73.724 264.137 74.756 264.137 75.956C264.137 77.156 264.377 78.212 264.857 79.124C265.361 80.012 266.009 80.696 266.801 81.176C267.617 81.656 268.481 81.896 269.393 81.896C270.329 81.896 271.205 81.668 272.021 81.212C272.837 80.732 273.485 80.06 273.965 79.196C274.445 78.308 274.685 77.252 274.685 76.028ZM295.735 65.768C298.111 65.768 300.031 66.524 301.495 68.036C302.959 69.524 303.691 71.612 303.691 74.3V86H298.651V74.984C298.651 73.4 298.255 72.188 297.463 71.348C296.671 70.484 295.591 70.052 294.223 70.052C292.831 70.052 291.727 70.484 290.911 71.348C290.119 72.188 289.723 73.4 289.723 74.984V86H284.683V66.056H289.723V68.54C290.395 67.676 291.247 67.004 292.279 66.524C293.335 66.02 294.487 65.768 295.735 65.768ZM85.8136 114.872V140H80.7736V123.656L74.0416 140H70.2256L63.4576 123.656V140H58.4176V114.872H64.1416L72.1336 133.556L80.1256 114.872H85.8136ZM89.5005 129.956C89.5005 127.94 89.8965 126.152 90.6885 124.592C91.5045 123.032 92.5965 121.832 93.9645 120.992C95.3565 120.152 96.9045 119.732 98.6085 119.732C100.097 119.732 101.393 120.032 102.497 120.632C103.625 121.232 104.525 121.988 105.197 122.9V120.056H110.273V140H105.197V137.084C104.549 138.02 103.649 138.8 102.497 139.424C101.369 140.024 100.061 140.324 98.5725 140.324C96.8925 140.324 95.3565 139.892 93.9645 139.028C92.5965 138.164 91.5045 136.952 90.6885 135.392C89.8965 133.808 89.5005 131.996 89.5005 129.956ZM105.197 130.028C105.197 128.804 104.957 127.76 104.477 126.896C103.997 126.008 103.349 125.336 102.533 124.88C101.717 124.4 100.841 124.16 99.9045 124.16C98.9685 124.16 98.1045 124.388 97.3125 124.844C96.5205 125.3 95.8725 125.972 95.3685 126.86C94.8885 127.724 94.6485 128.756 94.6485 129.956C94.6485 131.156 94.8885 132.212 95.3685 133.124C95.8725 134.012 96.5205 134.696 97.3125 135.176C98.1285 135.656 98.9925 135.896 99.9045 135.896C100.841 135.896 101.717 135.668 102.533 135.212C103.349 134.732 103.997 134.06 104.477 133.196C104.957 132.308 105.197 131.252 105.197 130.028ZM121.063 124.196V133.844C121.063 134.516 121.219 135.008 121.531 135.32C121.867 135.608 122.419 135.752 123.187 135.752H125.527V140H122.359C118.111 140 115.987 137.936 115.987 133.808V124.196H113.611V120.056H115.987V115.124H121.063V120.056H125.527V124.196H121.063ZM147.692 129.596C147.692 130.316 147.644 130.964 147.548 131.54H132.968C133.088 132.98 133.592 134.108 134.48 134.924C135.368 135.74 136.46 136.148 137.756 136.148C139.628 136.148 140.96 135.344 141.752 133.736H147.188C146.612 135.656 145.508 137.24 143.876 138.488C142.244 139.712 140.24 140.324 137.864 140.324C135.944 140.324 134.216 139.904 132.68 139.064C131.168 138.2 129.98 136.988 129.116 135.428C128.276 133.868 127.856 132.068 127.856 130.028C127.856 127.964 128.276 126.152 129.116 124.592C129.956 123.032 131.132 121.832 132.644 120.992C134.156 120.152 135.896 119.732 137.864 119.732C139.76 119.732 141.452 120.14 142.94 120.956C144.452 121.772 145.616 122.936 146.432 124.448C147.272 125.936 147.692 127.652 147.692 129.596ZM142.472 128.156C142.448 126.86 141.98 125.828 141.068 125.06C140.156 124.268 139.04 123.872 137.72 123.872C136.472 123.872 135.416 124.256 134.552 125.024C133.712 125.768 133.196 126.812 133.004 128.156H142.472ZM176.139 119.768C178.587 119.768 180.555 120.524 182.043 122.036C183.555 123.524 184.311 125.612 184.311 128.3V140H179.271V128.984C179.271 127.424 178.875 126.236 178.083 125.42C177.291 124.58 176.211 124.16 174.843 124.16C173.475 124.16 172.383 124.58 171.567 125.42C170.775 126.236 170.379 127.424 170.379 128.984V140H165.339V128.984C165.339 127.424 164.943 126.236 164.151 125.42C163.359 124.58 162.279 124.16 160.911 124.16C159.519 124.16 158.415 124.58 157.599 125.42C156.807 126.236 156.411 127.424 156.411 128.984V140H151.371V120.056H156.411V122.468C157.059 121.628 157.887 120.968 158.895 120.488C159.927 120.008 161.055 119.768 162.279 119.768C163.839 119.768 165.231 120.104 166.455 120.776C167.679 121.424 168.627 122.36 169.299 123.584C169.947 122.432 170.883 121.508 172.107 120.812C173.355 120.116 174.699 119.768 176.139 119.768ZM187.797 129.956C187.797 127.94 188.193 126.152 188.985 124.592C189.801 123.032 190.893 121.832 192.261 120.992C193.653 120.152 195.201 119.732 196.905 119.732C198.393 119.732 199.689 120.032 200.793 120.632C201.921 121.232 202.821 121.988 203.493 122.9V120.056H208.569V140H203.493V137.084C202.845 138.02 201.945 138.8 200.793 139.424C199.665 140.024 198.357 140.324 196.869 140.324C195.189 140.324 193.653 139.892 192.261 139.028C190.893 138.164 189.801 136.952 188.985 135.392C188.193 133.808 187.797 131.996 187.797 129.956ZM203.493 130.028C203.493 128.804 203.253 127.76 202.773 126.896C202.293 126.008 201.645 125.336 200.829 124.88C200.013 124.4 199.137 124.16 198.201 124.16C197.265 124.16 196.401 124.388 195.609 124.844C194.817 125.3 194.169 125.972 193.665 126.86C193.185 127.724 192.945 128.756 192.945 129.956C192.945 131.156 193.185 132.212 193.665 133.124C194.169 134.012 194.817 134.696 195.609 135.176C196.425 135.656 197.289 135.896 198.201 135.896C199.137 135.896 200.013 135.668 200.829 135.212C201.645 134.732 202.293 134.06 202.773 133.196C203.253 132.308 203.493 131.252 203.493 130.028ZM219.36 124.196V133.844C219.36 134.516 219.516 135.008 219.828 135.32C220.164 135.608 220.716 135.752 221.484 135.752H223.824V140H220.656C216.408 140 214.284 137.936 214.284 133.808V124.196H211.908V120.056H214.284V115.124H219.36V120.056H223.824V124.196H219.36ZM230.005 117.68C229.117 117.68 228.373 117.404 227.773 116.852C227.197 116.276 226.909 115.568 226.909 114.728C226.909 113.888 227.197 113.192 227.773 112.64C228.373 112.064 229.117 111.776 230.005 111.776C230.893 111.776 231.625 112.064 232.201 112.64C232.801 113.192 233.101 113.888 233.101 114.728C233.101 115.568 232.801 116.276 232.201 116.852C231.625 117.404 230.893 117.68 230.005 117.68ZM232.489 120.056V140H227.449V120.056H232.489ZM249.276 140L242.508 131.504V140H237.468V113.36H242.508V128.516L249.204 120.056H255.756L246.972 130.064L255.828 140H249.276ZM257.196 129.956C257.196 127.94 257.592 126.152 258.384 124.592C259.2 123.032 260.292 121.832 261.66 120.992C263.052 120.152 264.6 119.732 266.304 119.732C267.792 119.732 269.088 120.032 270.192 120.632C271.32 121.232 272.22 121.988 272.892 122.9V120.056H277.968V140H272.892V137.084C272.244 138.02 271.344 138.8 270.192 139.424C269.064 140.024 267.756 140.324 266.268 140.324C264.588 140.324 263.052 139.892 261.66 139.028C260.292 138.164 259.2 136.952 258.384 135.392C257.592 133.808 257.196 131.996 257.196 129.956ZM272.892 130.028C272.892 128.804 272.652 127.76 272.172 126.896C271.692 126.008 271.044 125.336 270.228 124.88C269.412 124.4 268.536 124.16 267.6 124.16C266.664 124.16 265.8 124.388 265.008 124.844C264.216 125.3 263.568 125.972 263.064 126.86C262.584 127.724 262.344 128.756 262.344 129.956C262.344 131.156 262.584 132.212 263.064 133.124C263.568 134.012 264.216 134.696 265.008 135.176C265.824 135.656 266.688 135.896 267.6 135.896C268.536 135.896 269.412 135.668 270.228 135.212C271.044 134.732 271.692 134.06 272.172 133.196C272.652 132.308 272.892 131.252 272.892 130.028Z" fill="white"/>
<path d="M288.902 114.872L292.25 134.852L302.69 114.872H308.054L294.41 140H288.29L283.502 114.872H288.902Z" fill="url(#paint1_linear_91_135)"/>
<rect x="178" y="159" width="132" height="28" rx="14" fill="url(#paint2_linear_91_135)"/>
<path d="M218.76 169.02V173.92C218.76 174.6 218.563 175.13 218.17 175.51C217.777 175.883 217.25 176.07 216.59 176.07C215.923 176.07 215.383 175.877 214.97 175.49C214.563 175.103 214.36 174.563 214.36 173.87H215.76C215.767 174.17 215.837 174.403 215.97 174.57C216.11 174.737 216.31 174.82 216.57 174.82C216.823 174.82 217.017 174.74 217.15 174.58C217.283 174.42 217.35 174.2 217.35 173.92V169.02H218.76ZM225.543 173.11C225.543 173.31 225.53 173.49 225.503 173.65H221.453C221.486 174.05 221.626 174.363 221.873 174.59C222.12 174.817 222.423 174.93 222.783 174.93C223.303 174.93 223.673 174.707 223.893 174.26H225.403C225.243 174.793 224.936 175.233 224.483 175.58C224.03 175.92 223.473 176.09 222.813 176.09C222.28 176.09 221.8 175.973 221.373 175.74C220.953 175.5 220.623 175.163 220.383 174.73C220.15 174.297 220.033 173.797 220.033 173.23C220.033 172.657 220.15 172.153 220.383 171.72C220.616 171.287 220.943 170.953 221.363 170.72C221.783 170.487 222.266 170.37 222.813 170.37C223.34 170.37 223.81 170.483 224.223 170.71C224.643 170.937 224.966 171.26 225.193 171.68C225.426 172.093 225.543 172.57 225.543 173.11ZM224.093 172.71C224.086 172.35 223.956 172.063 223.703 171.85C223.45 171.63 223.14 171.52 222.773 171.52C222.426 171.52 222.133 171.627 221.893 171.84C221.66 172.047 221.516 172.337 221.463 172.71H224.093ZM227.965 168.6V176H226.565V168.6H227.965ZM228.988 173.21C228.988 172.65 229.098 172.153 229.318 171.72C229.545 171.287 229.848 170.953 230.228 170.72C230.615 170.487 231.045 170.37 231.518 170.37C231.932 170.37 232.292 170.453 232.598 170.62C232.912 170.787 233.162 170.997 233.348 171.25V170.46H234.758V176H233.348V175.19C233.168 175.45 232.918 175.667 232.598 175.84C232.285 176.007 231.922 176.09 231.508 176.09C231.042 176.09 230.615 175.97 230.228 175.73C229.848 175.49 229.545 175.153 229.318 174.72C229.098 174.28 228.988 173.777 228.988 173.21ZM233.348 173.23C233.348 172.89 233.282 172.6 233.148 172.36C233.015 172.113 232.835 171.927 232.608 171.8C232.382 171.667 232.138 171.6 231.878 171.6C231.618 171.6 231.378 171.663 231.158 171.79C230.938 171.917 230.758 172.103 230.618 172.35C230.485 172.59 230.418 172.877 230.418 173.21C230.418 173.543 230.485 173.837 230.618 174.09C230.758 174.337 230.938 174.527 231.158 174.66C231.385 174.793 231.625 174.86 231.878 174.86C232.138 174.86 232.382 174.797 232.608 174.67C232.835 174.537 233.015 174.35 233.148 174.11C233.282 173.863 233.348 173.57 233.348 173.23ZM236.836 169.8C236.582 169.8 236.372 169.723 236.206 169.57C236.046 169.41 235.966 169.213 235.966 168.98C235.966 168.747 236.046 168.553 236.206 168.4C236.372 168.24 236.582 168.16 236.836 168.16C237.082 168.16 237.286 168.24 237.446 168.4C237.606 168.553 237.686 168.747 237.686 168.98C237.686 169.213 237.606 169.41 237.446 169.57C237.286 169.723 237.082 169.8 236.836 169.8ZM237.526 176.91C237.526 177.523 237.372 177.963 237.066 178.23C236.766 178.503 236.332 178.64 235.766 178.64H235.146V177.45H235.546C235.759 177.45 235.909 177.407 235.996 177.32C236.082 177.24 236.126 177.107 236.126 176.92V170.46H237.526V176.91ZM238.549 173.21C238.549 172.65 238.659 172.153 238.879 171.72C239.105 171.287 239.409 170.953 239.789 170.72C240.175 170.487 240.605 170.37 241.079 170.37C241.492 170.37 241.852 170.453 242.159 170.62C242.472 170.787 242.722 170.997 242.909 171.25V170.46H244.319V176H242.909V175.19C242.729 175.45 242.479 175.667 242.159 175.84C241.845 176.007 241.482 176.09 241.069 176.09C240.602 176.09 240.175 175.97 239.789 175.73C239.409 175.49 239.105 175.153 238.879 174.72C238.659 174.28 238.549 173.777 238.549 173.21ZM242.909 173.23C242.909 172.89 242.842 172.6 242.709 172.36C242.575 172.113 242.395 171.927 242.169 171.8C241.942 171.667 241.699 171.6 241.439 171.6C241.179 171.6 240.939 171.663 240.719 171.79C240.499 171.917 240.319 172.103 240.179 172.35C240.045 172.59 239.979 172.877 239.979 173.21C239.979 173.543 240.045 173.837 240.179 174.09C240.319 174.337 240.499 174.527 240.719 174.66C240.945 174.793 241.185 174.86 241.439 174.86C241.699 174.86 241.942 174.797 242.169 174.67C242.395 174.537 242.575 174.35 242.709 174.11C242.842 173.863 242.909 173.57 242.909 173.23ZM248.806 170.38C249.226 170.38 249.599 170.473 249.926 170.66C250.253 170.84 250.506 171.11 250.686 171.47C250.873 171.823 250.966 172.25 250.966 172.75V176H249.566V172.94C249.566 172.5 249.456 172.163 249.236 171.93C249.016 171.69 248.716 171.57 248.336 171.57C247.949 171.57 247.643 171.69 247.416 171.93C247.196 172.163 247.086 172.5 247.086 172.94V176H245.686V168.6H247.086V171.15C247.266 170.91 247.506 170.723 247.806 170.59C248.106 170.45 248.439 170.38 248.806 170.38ZM253.007 169.8C252.761 169.8 252.554 169.723 252.387 169.57C252.227 169.41 252.147 169.213 252.147 168.98C252.147 168.747 252.227 168.553 252.387 168.4C252.554 168.24 252.761 168.16 253.007 168.16C253.254 168.16 253.457 168.24 253.617 168.4C253.784 168.553 253.867 168.747 253.867 168.98C253.867 169.213 253.784 169.41 253.617 169.57C253.457 169.723 253.254 169.8 253.007 169.8ZM253.697 170.46V176H252.297V170.46H253.697ZM263.013 169.02L260.653 173.57V176H259.253V173.57L256.883 169.02H258.463L259.963 172.21L261.453 169.02H263.013ZM269.051 170.46V176H267.641V175.3C267.461 175.54 267.224 175.73 266.931 175.87C266.644 176.003 266.331 176.07 265.991 176.07C265.558 176.07 265.174 175.98 264.841 175.8C264.508 175.613 264.244 175.343 264.051 174.99C263.864 174.63 263.771 174.203 263.771 173.71V170.46H265.171V173.51C265.171 173.95 265.281 174.29 265.501 174.53C265.721 174.763 266.021 174.88 266.401 174.88C266.788 174.88 267.091 174.763 267.311 174.53C267.531 174.29 267.641 173.95 267.641 173.51V170.46H269.051ZM273.712 176L271.832 173.64V176H270.432V168.6H271.832V172.81L273.692 170.46H275.512L273.072 173.24L275.532 176H273.712ZM278.082 168.9L277.922 173.73H276.742L276.572 168.9H278.082ZM277.362 176.07C277.109 176.07 276.899 175.993 276.732 175.84C276.572 175.68 276.492 175.483 276.492 175.25C276.492 175.017 276.572 174.823 276.732 174.67C276.899 174.51 277.109 174.43 277.362 174.43C277.609 174.43 277.812 174.51 277.972 174.67C278.132 174.823 278.212 175.017 278.212 175.25C278.212 175.483 278.132 175.68 277.972 175.84C277.812 175.993 277.609 176.07 277.362 176.07Z" fill="url(#paint3_linear_91_135)"/>
<path d="M315.156 195.458L312.828 196.082L315.935 207.677L318.263 207.054L315.156 195.458Z" fill="white"/>
<path d="M315.936 207.677L313.623 208.297L314.246 210.625L316.559 210.005L315.936 207.677Z" fill="white"/>
<path d="M312.208 193.769L309.895 194.389L310.515 196.702L312.828 196.082L312.208 193.769Z" fill="white"/>
<path d="M314.246 210.625L311.933 211.245L312.552 213.558L314.865 212.938L314.246 210.625Z" fill="white"/>
<path d="M309.275 192.076L306.962 192.696L307.582 195.009L309.895 194.389L309.275 192.076Z" fill="white"/>
<path d="M306.962 192.695L306.338 190.367L297.056 192.854L294.573 183.587L292.26 184.207L295.367 195.802L306.962 192.695Z" fill="white"/>
<path d="M300.749 169.504L298.421 170.128L299.041 172.441L301.369 171.817L300.749 169.504Z" fill="url(#paint4_linear_91_135)"/>
<path d="M305.254 195.633L302.941 196.252L304.804 203.207L307.117 202.587L305.254 195.633Z" fill="white"/>
<path d="M299.04 172.441L296.727 173.061L297.351 175.389L299.664 174.769L299.04 172.441Z" fill="url(#paint5_linear_91_135)"/>
<path d="M297.352 175.39L295.039 176.009L295.659 178.322L297.972 177.703L297.352 175.39Z" fill="url(#paint6_linear_91_135)"/>
<path d="M298.299 197.496L295.986 198.116L297.85 205.07L300.163 204.45L298.299 197.496Z" fill="white"/>
<path d="M291.636 181.879L286.995 183.123L287.619 185.451L292.26 184.207L291.636 181.879Z" fill="white"/>
<path d="M287.91 167.97L285.582 168.594L287.445 175.548L289.773 174.924L287.91 167.97Z" fill="url(#paint7_linear_91_135)"/>
<path d="M295.073 213.268L292.76 213.888L294.004 218.529L296.317 217.909L295.073 213.268Z" fill="white"/>
<path d="M290.275 204.62L292.588 204L287.618 185.451L285.305 186.07L288.412 197.666L283.77 198.909L284.39 201.222L289.031 199.979L290.275 204.62Z" fill="white"/>
<path d="M292.139 211.575L289.811 212.199L290.431 214.512L292.759 213.888L292.139 211.575Z" fill="white"/>
<path d="M283.442 179.116L281.114 179.74L281.733 182.053L284.062 181.429L283.442 179.116Z" fill="url(#paint8_linear_91_135)"/>
<path d="M289.191 209.886L286.878 210.505L287.498 212.818L289.811 212.199L289.191 209.886Z" fill="white"/>
<path d="M280.49 177.411L278.177 178.031L278.801 180.359L281.114 179.74L280.49 177.411Z" fill="url(#paint9_linear_91_135)"/>
<path d="M284.391 201.223L282.078 201.842L284.565 211.125L286.878 210.505L284.391 201.223Z" fill="white"/>
<path d="M277.557 175.718L275.244 176.338L275.864 178.651L278.177 178.031L277.557 175.718Z" fill="url(#paint10_linear_91_135)"/>
<path d="M208.908 278.231H198.79V318.768H208.908V278.231Z" fill="url(#paint11_linear_91_135)"/>
<path d="M66.9301 278.231H77.0476V268.047H87.2317V257.93H127.768V268.047H137.952V257.93H168.371V268.047H178.489V349.187H188.673V328.952H198.79V318.768H188.673V278.231H198.79V268.047H188.673V227.511H178.489V237.628H168.371V227.511H148.07V217.327H77.0476V227.511H66.9301V237.628H56.8126V257.93H46.6286V227.511H36.5111V257.93H26.3936V268.047H66.9301V278.231Z" fill="url(#paint12_linear_91_135)"/>
<path d="M178.489 349.187H168.371V359.371H178.489V349.187Z" fill="url(#paint13_linear_91_135)"/>
<path d="M178.489 217.327H168.371V227.511H178.489V217.327Z" fill="url(#paint14_linear_91_135)"/>
<path d="M168.371 328.952H158.187V339.07H168.371V328.952Z" fill="#DAA705"/>
<path d="M168.371 298.466H158.187V318.768H168.371V298.466Z" fill="#DAA705"/>
<path d="M168.371 207.209H158.187V217.327H168.371V207.209Z" fill="url(#paint15_linear_91_135)"/>
<path d="M77.0477 359.371V379.706H56.8127V389.823H36.5111V399.941H198.79V389.823H178.489V379.706H158.187V369.522H168.371V359.404L77.0477 359.371ZM148.07 389.79H107.533V379.706H87.2317V369.522H148.103L148.07 389.79Z" fill="url(#paint16_linear_91_135)"/>
<path d="M158.187 339.07H127.768V349.187H158.187V339.07Z" fill="#DAA705"/>
<path d="M127.768 328.952H117.651V339.07H127.768V328.952Z" fill="#DAA705"/>
<path d="M117.651 298.466H107.533V318.768H117.651V298.466Z" fill="#DAA705"/>
<path d="M127.768 268.047H107.533V278.231H127.768V268.047Z" fill="url(#paint17_linear_91_135)"/>
<path d="M87.2317 278.231H77.0476V318.768H87.2317V278.231Z" fill="url(#paint18_linear_91_135)"/>
<path d="M158.187 197.092H66.9302V207.209H158.187V197.092Z" fill="url(#paint19_linear_91_135)"/>
<path d="M77.0477 349.187H66.9302V359.371H77.0477V349.187Z" fill="url(#paint20_linear_91_135)"/>
<path d="M77.0477 318.768H66.9302V328.952H77.0477V318.768Z" fill="url(#paint21_linear_91_135)"/>
<path d="M26.3936 328.952V339.07H56.8126V349.187H66.9301V328.952H26.3936Z" fill="url(#paint22_linear_91_135)"/>
<path d="M66.9301 207.209H56.8126V217.327H66.9301V207.209Z" fill="url(#paint23_linear_91_135)"/>
<path d="M56.8127 217.327H46.6287V227.511H56.8127V217.327Z" fill="url(#paint24_linear_91_135)"/>
<path d="M46.6286 278.231H36.5111V288.349H46.6286V278.231Z" fill="url(#paint25_linear_91_135)"/>
<path d="M36.5111 288.349H26.3936V308.651H36.5111V288.349Z" fill="url(#paint26_linear_91_135)"/>
<path d="M26.3937 318.768H16.2096V328.952H26.3937V318.768Z" fill="url(#paint27_linear_91_135)"/>
<path d="M26.3937 268.047H16.2096V278.231H26.3937V268.047Z" fill="url(#paint28_linear_91_135)"/>
<path d="M16.2095 278.231H6.09204V318.768H16.2095V278.231Z" fill="url(#paint29_linear_91_135)"/>
<g clip-path="url(#clip0_91_135)">
<path d="M82.8967 148.573L79.3131 149.198L80.5546 156.319L84.1382 155.694L82.8967 148.573Z" fill="url(#paint30_linear_91_135)"/>
<path d="M78.6883 145.615L75.1282 146.235L75.753 149.819L79.3132 149.198L78.6883 145.615Z" fill="url(#paint31_linear_91_135)"/>
<path d="M74.5074 142.675L70.9238 143.3L71.5446 146.86L75.1281 146.235L74.5074 142.675Z" fill="url(#paint32_linear_91_135)"/>
<path d="M64.1247 188.603L71.2685 187.357L70.6478 183.797L74.208 183.177L67.3637 143.921L70.9238 143.3L70.299 139.717L66.7388 140.337L66.1181 136.777L62.5579 137.398L68.7815 173.093L61.6378 174.339L62.2585 177.899L58.6983 178.52L59.9438 185.664L63.504 185.043L64.1247 188.603Z" fill="url(#paint33_linear_91_135)"/>
<path d="M50.3091 172.621L46.7255 173.246L47.971 180.39L51.5546 179.765L50.3091 172.621Z" fill="url(#paint34_linear_91_135)"/>
<path d="M46.1047 169.686L42.5446 170.307L43.1653 173.867L46.7255 173.246L46.1047 169.686Z" fill="url(#paint35_linear_91_135)"/>
<path d="M41.9238 166.746L38.3636 167.367L38.9844 170.927L42.5445 170.307L41.9238 166.746Z" fill="url(#paint36_linear_91_135)"/>
<path d="M31.5411 212.674L38.6849 211.429L38.0642 207.869L41.6243 207.248L34.78 167.992L38.3636 167.367L37.7388 163.784L34.1552 164.409L33.5345 160.848L29.9743 161.469L36.1979 197.165L29.0541 198.41L29.6749 201.97L26.1147 202.591L27.3602 209.735L30.9204 209.114L31.5411 212.674Z" fill="url(#paint37_linear_91_135)"/>
</g>
<g clip-path="url(#clip1_91_135)">
<path d="M242.547 351.107L240.554 350.435L239.219 354.396L241.213 355.068L242.547 351.107Z" fill="url(#paint38_linear_91_135)"/>
<path d="M241.225 348.441L239.245 347.774L238.573 349.768L240.554 350.435L241.225 348.441Z" fill="url(#paint39_linear_91_135)"/>
<path d="M239.912 345.794L237.918 345.122L237.251 347.103L239.245 347.774L239.912 345.794Z" fill="url(#paint40_linear_91_135)"/>
<path d="M221.959 366.269L225.933 367.608L226.601 365.627L228.581 366.294L235.937 344.455L237.918 345.122L238.589 343.128L236.609 342.461L237.276 340.481L235.295 339.813L228.606 359.672L224.632 358.334L223.965 360.314L221.984 359.647L220.646 363.621L222.626 364.289L221.959 366.269Z" fill="url(#paint41_linear_91_135)"/>
<path d="M219.349 354.334L217.355 353.663L216.016 357.637L218.01 358.308L219.349 354.334Z" fill="url(#paint42_linear_91_135)"/>
<path d="M218.022 351.682L216.041 351.015L215.374 352.995L217.355 353.662L218.022 351.682Z" fill="url(#paint43_linear_91_135)"/>
<path d="M216.708 349.034L214.728 348.367L214.061 350.347L216.041 351.014L216.708 349.034Z" fill="url(#paint44_linear_91_135)"/>
<path d="M198.756 369.509L202.73 370.848L203.397 368.867L205.378 369.535L212.734 347.695L214.728 348.367L215.399 346.373L213.406 345.701L214.073 343.721L212.092 343.054L205.403 362.912L201.429 361.574L200.762 363.554L198.781 362.887L197.442 366.862L199.423 367.529L198.756 369.509Z" fill="url(#paint45_linear_91_135)"/>
</g>
<g clip-path="url(#clip2_91_135)">
<path d="M231.389 245.105L230.071 245.465L230.787 248.084L232.104 247.724L231.389 245.105Z" fill="url(#paint46_linear_91_135)"/>
<path d="M229.711 244.148L228.402 244.505L228.762 245.823L230.071 245.465L229.711 244.148Z" fill="url(#paint47_linear_91_135)"/>
<path d="M228.044 243.196L226.726 243.556L227.084 244.865L228.402 244.505L228.044 243.196Z" fill="url(#paint48_linear_91_135)"/>
<path d="M225.783 260.735L228.41 260.017L228.052 258.708L229.361 258.35L225.417 243.914L226.726 243.556L226.366 242.238L225.057 242.596L224.699 241.287L223.39 241.645L226.977 254.771L224.35 255.489L224.707 256.798L223.398 257.156L224.116 259.783L225.425 259.425L225.783 260.735Z" fill="url(#paint49_linear_91_135)"/>
<path d="M220.053 255.247L218.735 255.607L219.453 258.234L220.771 257.874L220.053 255.247Z" fill="url(#paint50_linear_91_135)"/>
<path d="M218.378 254.298L217.068 254.655L217.426 255.964L218.735 255.607L218.378 254.298Z" fill="url(#paint51_linear_91_135)"/>
<path d="M216.711 253.346L215.402 253.704L215.759 255.013L217.069 254.656L216.711 253.346Z" fill="url(#paint52_linear_91_135)"/>
<path d="M214.45 270.885L217.077 270.167L216.719 268.858L218.028 268.5L214.084 254.064L215.402 253.704L215.041 252.386L213.724 252.747L213.366 251.437L212.057 251.795L215.643 264.922L213.016 265.639L213.374 266.949L212.065 267.306L212.783 269.933L214.092 269.576L214.45 270.885Z" fill="url(#paint53_linear_91_135)"/>
</g>
<defs>
<linearGradient id="paint0_linear_91_135" x1="172.5" y1="4.45029e-08" x2="163" y2="400" gradientUnits="userSpaceOnUse">
<stop stop-color="#FCC61D"/>
<stop offset="1" stop-color="white"/>
</linearGradient>
<linearGradient id="paint1_linear_91_135" x1="164.5" y1="46" x2="164.5" y2="154" gradientUnits="userSpaceOnUse">
<stop stop-color="#FCC61D"/>
<stop offset="1" stop-color="#DAA705"/>
</linearGradient>
<linearGradient id="paint2_linear_91_135" x1="178" y1="173" x2="328" y2="181" gradientUnits="userSpaceOnUse">
<stop stop-color="#FCC61D"/>
<stop offset="0.969643" stop-color="#DAA705"/>
</linearGradient>
<linearGradient id="paint3_linear_91_135" x1="247" y1="165" x2="247" y2="180" gradientUnits="userSpaceOnUse">
<stop stop-color="white"/>
</linearGradient>
<linearGradient id="paint4_linear_91_135" x1="299.585" y1="169.816" x2="300.205" y2="172.129" gradientUnits="userSpaceOnUse">
<stop stop-color="white"/>
</linearGradient>
<linearGradient id="paint5_linear_91_135" x1="297.883" y1="172.751" x2="298.507" y2="175.079" gradientUnits="userSpaceOnUse">
<stop stop-color="white"/>
</linearGradient>
<linearGradient id="paint6_linear_91_135" x1="296.195" y1="175.699" x2="296.815" y2="178.012" gradientUnits="userSpaceOnUse">
<stop stop-color="white"/>
</linearGradient>
<linearGradient id="paint7_linear_91_135" x1="286.746" y1="168.282" x2="288.609" y2="175.236" gradientUnits="userSpaceOnUse">
<stop stop-color="white"/>
</linearGradient>
<linearGradient id="paint8_linear_91_135" x1="282.278" y1="179.428" x2="282.898" y2="181.741" gradientUnits="userSpaceOnUse">
<stop stop-color="white"/>
</linearGradient>
<linearGradient id="paint9_linear_91_135" x1="279.333" y1="177.721" x2="279.957" y2="180.05" gradientUnits="userSpaceOnUse">
<stop stop-color="white"/>
</linearGradient>
<linearGradient id="paint10_linear_91_135" x1="276.4" y1="176.028" x2="277.02" y2="178.341" gradientUnits="userSpaceOnUse">
<stop stop-color="white"/>
</linearGradient>
<linearGradient id="paint11_linear_91_135" x1="203.849" y1="278.231" x2="203.849" y2="318.768" gradientUnits="userSpaceOnUse">
<stop stop-color="#DAA705"/>
<stop offset="1" stop-color="#FCC61D"/>
</linearGradient>
<linearGradient id="paint12_linear_91_135" x1="112.592" y1="217.327" x2="112.592" y2="349.187" gradientUnits="userSpaceOnUse">
<stop stop-color="#DAA705"/>
<stop offset="1" stop-color="#FCC61D"/>
</linearGradient>
<linearGradient id="paint13_linear_91_135" x1="173.43" y1="349.187" x2="173.43" y2="359.371" gradientUnits="userSpaceOnUse">
<stop stop-color="#DAA705"/>
<stop offset="1" stop-color="#FCC61D"/>
</linearGradient>
<linearGradient id="paint14_linear_91_135" x1="173.43" y1="217.327" x2="173.43" y2="227.511" gradientUnits="userSpaceOnUse">
<stop stop-color="#DAA705"/>
<stop offset="1" stop-color="#FCC61D"/>
</linearGradient>
<linearGradient id="paint15_linear_91_135" x1="163.279" y1="207.209" x2="163.279" y2="217.327" gradientUnits="userSpaceOnUse">
<stop stop-color="#DAA705"/>
<stop offset="1" stop-color="#FCC61D"/>
</linearGradient>
<linearGradient id="paint16_linear_91_135" x1="117.651" y1="359.371" x2="117.651" y2="399.941" gradientUnits="userSpaceOnUse">
<stop stop-color="#DAA705"/>
<stop offset="1" stop-color="#FCC61D"/>
</linearGradient>
<linearGradient id="paint17_linear_91_135" x1="117.651" y1="268.047" x2="117.651" y2="278.231" gradientUnits="userSpaceOnUse">
<stop stop-color="#DAA705"/>
<stop offset="1" stop-color="#FCC61D"/>
</linearGradient>
<linearGradient id="paint18_linear_91_135" x1="82.1396" y1="278.231" x2="82.1396" y2="318.768" gradientUnits="userSpaceOnUse">
<stop stop-color="#DAA705"/>
<stop offset="1" stop-color="#FCC61D"/>
</linearGradient>
<linearGradient id="paint19_linear_91_135" x1="112.559" y1="197.092" x2="112.559" y2="207.209" gradientUnits="userSpaceOnUse">
<stop stop-color="#DAA705"/>
<stop offset="1" stop-color="#FCC61D"/>
</linearGradient>
<linearGradient id="paint20_linear_91_135" x1="71.9889" y1="349.187" x2="71.9889" y2="359.371" gradientUnits="userSpaceOnUse">
<stop stop-color="#DAA705"/>
<stop offset="1" stop-color="#FCC61D"/>
</linearGradient>
<linearGradient id="paint21_linear_91_135" x1="71.9889" y1="318.768" x2="71.9889" y2="328.952" gradientUnits="userSpaceOnUse">
<stop stop-color="#DAA705"/>
<stop offset="1" stop-color="#FCC61D"/>
</linearGradient>
<linearGradient id="paint22_linear_91_135" x1="46.6618" y1="328.952" x2="46.6618" y2="349.187" gradientUnits="userSpaceOnUse">
<stop stop-color="#DAA705"/>
<stop offset="1" stop-color="#FCC61D"/>
</linearGradient>
<linearGradient id="paint23_linear_91_135" x1="61.8714" y1="207.209" x2="61.8714" y2="217.327" gradientUnits="userSpaceOnUse">
<stop stop-color="#DAA705"/>
<stop offset="1" stop-color="#FCC61D"/>
</linearGradient>
<linearGradient id="paint24_linear_91_135" x1="51.7207" y1="217.327" x2="51.7207" y2="227.511" gradientUnits="userSpaceOnUse">
<stop stop-color="#DAA705"/>
<stop offset="1" stop-color="#FCC61D"/>
</linearGradient>
<linearGradient id="paint25_linear_91_135" x1="41.5699" y1="278.231" x2="41.5699" y2="288.349" gradientUnits="userSpaceOnUse">
<stop stop-color="#DAA705"/>
<stop offset="1" stop-color="#FCC61D"/>
</linearGradient>
<linearGradient id="paint26_linear_91_135" x1="31.4523" y1="288.349" x2="31.4523" y2="308.651" gradientUnits="userSpaceOnUse">
<stop stop-color="#DAA705"/>
<stop offset="1" stop-color="#FCC61D"/>
</linearGradient>
<linearGradient id="paint27_linear_91_135" x1="21.3016" y1="318.768" x2="21.3016" y2="328.952" gradientUnits="userSpaceOnUse">
<stop stop-color="#DAA705"/>
<stop offset="1" stop-color="#FCC61D"/>
</linearGradient>
<linearGradient id="paint28_linear_91_135" x1="21.3016" y1="268.047" x2="21.3016" y2="278.231" gradientUnits="userSpaceOnUse">
<stop stop-color="#DAA705"/>
<stop offset="1" stop-color="#FCC61D"/>
</linearGradient>
<linearGradient id="paint29_linear_91_135" x1="11.1508" y1="278.231" x2="11.1508" y2="318.768" gradientUnits="userSpaceOnUse">
<stop stop-color="#DAA705"/>
<stop offset="1" stop-color="#FCC61D"/>
</linearGradient>
<linearGradient id="paint30_linear_91_135" x1="81.1049" y1="148.886" x2="82.3464" y2="156.006" gradientUnits="userSpaceOnUse">
<stop stop-color="#FCC61D"/>
<stop offset="1" stop-color="#DAA705"/>
</linearGradient>
<linearGradient id="paint31_linear_91_135" x1="76.9083" y1="145.925" x2="77.5331" y2="149.509" gradientUnits="userSpaceOnUse">
<stop stop-color="#FCC61D"/>
<stop offset="1" stop-color="#DAA705"/>
</linearGradient>
<linearGradient id="paint32_linear_91_135" x1="72.7156" y1="142.987" x2="73.3364" y2="146.548" gradientUnits="userSpaceOnUse">
<stop stop-color="#FCC61D"/>
<stop offset="1" stop-color="#DAA705"/>
</linearGradient>
<linearGradient id="paint33_linear_91_135" x1="60.7661" y1="137.71" x2="69.4767" y2="187.67" gradientUnits="userSpaceOnUse">
<stop stop-color="#FCC61D"/>
<stop offset="1" stop-color="#DAA705"/>
</linearGradient>
<linearGradient id="paint34_linear_91_135" x1="48.5173" y1="172.934" x2="49.7628" y2="180.077" gradientUnits="userSpaceOnUse">
<stop stop-color="#FCC61D"/>
<stop offset="1" stop-color="#DAA705"/>
</linearGradient>
<linearGradient id="paint35_linear_91_135" x1="44.3246" y1="169.996" x2="44.9454" y2="173.556" gradientUnits="userSpaceOnUse">
<stop stop-color="#FCC61D"/>
<stop offset="1" stop-color="#DAA705"/>
</linearGradient>
<linearGradient id="paint36_linear_91_135" x1="40.1437" y1="167.057" x2="40.7645" y2="170.617" gradientUnits="userSpaceOnUse">
<stop stop-color="#FCC61D"/>
<stop offset="1" stop-color="#DAA705"/>
</linearGradient>
<linearGradient id="paint37_linear_91_135" x1="28.1942" y1="161.78" x2="36.9048" y2="211.739" gradientUnits="userSpaceOnUse">
<stop stop-color="#FCC61D"/>
<stop offset="1" stop-color="#DAA705"/>
</linearGradient>
<linearGradient id="paint38_linear_91_135" x1="241.55" y1="350.771" x2="240.216" y2="354.732" gradientUnits="userSpaceOnUse">
<stop stop-color="#FCC61D"/>
<stop offset="1" stop-color="#DAA705"/>
</linearGradient>
<linearGradient id="paint39_linear_91_135" x1="240.235" y1="348.107" x2="239.563" y2="350.101" gradientUnits="userSpaceOnUse">
<stop stop-color="#FCC61D"/>
<stop offset="1" stop-color="#DAA705"/>
</linearGradient>
<linearGradient id="paint40_linear_91_135" x1="238.915" y1="345.458" x2="238.248" y2="347.438" gradientUnits="userSpaceOnUse">
<stop stop-color="#FCC61D"/>
<stop offset="1" stop-color="#DAA705"/>
</linearGradient>
<linearGradient id="paint41_linear_91_135" x1="234.298" y1="339.478" x2="224.937" y2="367.272" gradientUnits="userSpaceOnUse">
<stop stop-color="#FCC61D"/>
<stop offset="1" stop-color="#DAA705"/>
</linearGradient>
<linearGradient id="paint42_linear_91_135" x1="218.352" y1="353.998" x2="217.013" y2="357.973" gradientUnits="userSpaceOnUse">
<stop stop-color="#FCC61D"/>
<stop offset="1" stop-color="#DAA705"/>
</linearGradient>
<linearGradient id="paint43_linear_91_135" x1="217.032" y1="351.348" x2="216.365" y2="353.329" gradientUnits="userSpaceOnUse">
<stop stop-color="#FCC61D"/>
<stop offset="1" stop-color="#DAA705"/>
</linearGradient>
<linearGradient id="paint44_linear_91_135" x1="215.718" y1="348.7" x2="215.051" y2="350.681" gradientUnits="userSpaceOnUse">
<stop stop-color="#FCC61D"/>
<stop offset="1" stop-color="#DAA705"/>
</linearGradient>
<linearGradient id="paint45_linear_91_135" x1="211.102" y1="342.72" x2="201.74" y2="370.515" gradientUnits="userSpaceOnUse">
<stop stop-color="#FCC61D"/>
<stop offset="1" stop-color="#DAA705"/>
</linearGradient>
<linearGradient id="paint46_linear_91_135" x1="230.73" y1="245.285" x2="231.445" y2="247.904" gradientUnits="userSpaceOnUse">
<stop stop-color="#FCC61D"/>
<stop offset="1" stop-color="#DAA705"/>
</linearGradient>
<linearGradient id="paint47_linear_91_135" x1="229.056" y1="244.327" x2="229.416" y2="245.644" gradientUnits="userSpaceOnUse">
<stop stop-color="#FCC61D"/>
<stop offset="1" stop-color="#DAA705"/>
</linearGradient>
<linearGradient id="paint48_linear_91_135" x1="227.385" y1="243.376" x2="227.743" y2="244.685" gradientUnits="userSpaceOnUse">
<stop stop-color="#FCC61D"/>
<stop offset="1" stop-color="#DAA705"/>
</linearGradient>
<linearGradient id="paint49_linear_91_135" x1="222.731" y1="241.825" x2="227.751" y2="260.197" gradientUnits="userSpaceOnUse">
<stop stop-color="#FCC61D"/>
<stop offset="1" stop-color="#DAA705"/>
</linearGradient>
<linearGradient id="paint50_linear_91_135" x1="219.394" y1="255.427" x2="220.112" y2="258.054" gradientUnits="userSpaceOnUse">
<stop stop-color="#FCC61D"/>
<stop offset="1" stop-color="#DAA705"/>
</linearGradient>
<linearGradient id="paint51_linear_91_135" x1="217.723" y1="254.476" x2="218.081" y2="255.786" gradientUnits="userSpaceOnUse">
<stop stop-color="#FCC61D"/>
<stop offset="1" stop-color="#DAA705"/>
</linearGradient>
<linearGradient id="paint52_linear_91_135" x1="216.056" y1="253.525" x2="216.414" y2="254.834" gradientUnits="userSpaceOnUse">
<stop stop-color="#FCC61D"/>
<stop offset="1" stop-color="#DAA705"/>
</linearGradient>
<linearGradient id="paint53_linear_91_135" x1="211.402" y1="251.974" x2="216.422" y2="270.346" gradientUnits="userSpaceOnUse">
<stop stop-color="#FCC61D"/>
<stop offset="1" stop-color="#DAA705"/>
</linearGradient>
<clipPath id="clip0_91_135">
<rect width="76.0817" height="76.0817" fill="white" transform="translate(10.1838 142.849) rotate(-9.89024)"/>
</clipPath>
<clipPath id="clip1_91_135">
<rect width="44" height="44" fill="white" transform="translate(207.173 328.128) rotate(18.6146)"/>
</clipPath>
<clipPath id="clip2_91_135">
<rect width="28.5729" height="28.5729" fill="white" transform="translate(204 245.531) rotate(-15.2827)"/>
</clipPath>
</defs>
</svg>
