<svg width="325" height="400" viewBox="0 0 325 400" fill="none" xmlns="http://www.w3.org/2000/svg">
<rect width="325" height="400" rx="20" fill="url(#paint0_linear_91_219)"/>
<path d="M89.7143 68.648C89.7143 69.992 89.3903 71.252 88.7422 72.428C88.1183 73.604 87.1223 74.552 85.7543 75.272C84.4103 75.992 82.7063 76.352 80.6423 76.352H76.4303V86H71.3903V60.872H80.6423C82.5863 60.872 84.2423 61.208 85.6103 61.88C86.9783 62.552 87.9983 63.476 88.6703 64.652C89.3663 65.828 89.7143 67.16 89.7143 68.648ZM80.4263 72.284C81.8183 72.284 82.8503 71.972 83.5223 71.348C84.1943 70.7 84.5303 69.8 84.5303 68.648C84.5303 66.2 83.1623 64.976 80.4263 64.976H76.4303V72.284H80.4263ZM111.833 75.596C111.833 76.316 111.785 76.964 111.689 77.54H97.1086C97.2286 78.98 97.7326 80.108 98.6206 80.924C99.5086 81.74 100.601 82.148 101.897 82.148C103.769 82.148 105.101 81.344 105.893 79.736H111.329C110.753 81.656 109.649 83.24 108.017 84.488C106.385 85.712 104.381 86.324 102.005 86.324C100.085 86.324 98.3566 85.904 96.8206 85.064C95.3086 84.2 94.1206 82.988 93.2566 81.428C92.4166 79.868 91.9966 78.068 91.9966 76.028C91.9966 73.964 92.4166 72.152 93.2566 70.592C94.0966 69.032 95.2726 67.832 96.7846 66.992C98.2966 66.152 100.037 65.732 102.005 65.732C103.901 65.732 105.593 66.14 107.081 66.956C108.593 67.772 109.757 68.936 110.573 70.448C111.413 71.936 111.833 73.652 111.833 75.596ZM106.613 74.156C106.589 72.86 106.121 71.828 105.209 71.06C104.297 70.268 103.181 69.872 101.861 69.872C100.613 69.872 99.5566 70.256 98.6926 71.024C97.8526 71.768 97.3366 72.812 97.1446 74.156H106.613ZM121.379 70.196V79.844C121.379 80.516 121.535 81.008 121.847 81.32C122.183 81.608 122.735 81.752 123.503 81.752H125.843V86H122.675C118.427 86 116.303 83.936 116.303 79.808V70.196H113.927V66.056H116.303V61.124H121.379V66.056H125.843V70.196H121.379ZM148.296 66.056V86H143.22V83.48C142.572 84.344 141.72 85.028 140.664 85.532C139.632 86.012 138.504 86.252 137.28 86.252C135.72 86.252 134.34 85.928 133.14 85.28C131.94 84.608 130.992 83.636 130.296 82.364C129.624 81.068 129.288 79.532 129.288 77.756V66.056H134.328V77.036C134.328 78.62 134.724 79.844 135.516 80.708C136.308 81.548 137.388 81.968 138.756 81.968C140.148 81.968 141.24 81.548 142.032 80.708C142.824 79.844 143.22 78.62 143.22 77.036V66.056H148.296ZM151.973 75.956C151.973 73.94 152.369 72.152 153.161 70.592C153.977 69.032 155.069 67.832 156.437 66.992C157.829 66.152 159.377 65.732 161.081 65.732C162.569 65.732 163.865 66.032 164.969 66.632C166.097 67.232 166.997 67.988 167.669 68.9V66.056H172.745V86H167.669V83.084C167.021 84.02 166.121 84.8 164.969 85.424C163.841 86.024 162.533 86.324 161.045 86.324C159.365 86.324 157.829 85.892 156.437 85.028C155.069 84.164 153.977 82.952 153.161 81.392C152.369 79.808 151.973 77.996 151.973 75.956ZM167.669 76.028C167.669 74.804 167.429 73.76 166.949 72.896C166.469 72.008 165.821 71.336 165.005 70.88C164.189 70.4 163.313 70.16 162.377 70.16C161.441 70.16 160.577 70.388 159.785 70.844C158.993 71.3 158.345 71.972 157.841 72.86C157.361 73.724 157.121 74.756 157.121 75.956C157.121 77.156 157.361 78.212 157.841 79.124C158.345 80.012 158.993 80.696 159.785 81.176C160.601 81.656 161.465 81.896 162.377 81.896C163.313 81.896 164.189 81.668 165.005 81.212C165.821 80.732 166.469 80.06 166.949 79.196C167.429 78.308 167.669 77.252 167.669 76.028ZM182.708 59.36V86H177.668V59.36H182.708ZM186.391 75.956C186.391 73.94 186.787 72.152 187.579 70.592C188.395 69.032 189.487 67.832 190.855 66.992C192.247 66.152 193.795 65.732 195.499 65.732C196.987 65.732 198.283 66.032 199.387 66.632C200.515 67.232 201.415 67.988 202.087 68.9V66.056H207.163V86H202.087V83.084C201.439 84.02 200.539 84.8 199.387 85.424C198.259 86.024 196.951 86.324 195.463 86.324C193.783 86.324 192.247 85.892 190.855 85.028C189.487 84.164 188.395 82.952 187.579 81.392C186.787 79.808 186.391 77.996 186.391 75.956ZM202.087 76.028C202.087 74.804 201.847 73.76 201.367 72.896C200.887 72.008 200.239 71.336 199.423 70.88C198.607 70.4 197.731 70.16 196.795 70.16C195.859 70.16 194.995 70.388 194.203 70.844C193.411 71.3 192.763 71.972 192.259 72.86C191.779 73.724 191.539 74.756 191.539 75.956C191.539 77.156 191.779 78.212 192.259 79.124C192.763 80.012 193.411 80.696 194.203 81.176C195.019 81.656 195.883 81.896 196.795 81.896C197.731 81.896 198.607 81.668 199.423 81.212C200.239 80.732 200.887 80.06 201.367 79.196C201.847 78.308 202.087 77.252 202.087 76.028ZM223.138 65.768C225.514 65.768 227.434 66.524 228.898 68.036C230.362 69.524 231.094 71.612 231.094 74.3V86H226.054V74.984C226.054 73.4 225.658 72.188 224.866 71.348C224.074 70.484 222.994 70.052 221.626 70.052C220.234 70.052 219.13 70.484 218.314 71.348C217.522 72.188 217.126 73.4 217.126 74.984V86H212.086V66.056H217.126V68.54C217.798 67.676 218.65 67.004 219.682 66.524C220.738 66.02 221.89 65.768 223.138 65.768ZM243.698 65.732C245.186 65.732 246.494 66.032 247.622 66.632C248.75 67.208 249.638 67.964 250.286 68.9V66.056H255.362V86.144C255.362 87.992 254.99 89.636 254.246 91.076C253.502 92.54 252.386 93.692 250.898 94.532C249.41 95.396 247.61 95.828 245.498 95.828C242.666 95.828 240.338 95.168 238.514 93.848C236.714 92.528 235.694 90.728 235.454 88.448H240.458C240.722 89.36 241.286 90.08 242.15 90.608C243.038 91.16 244.106 91.436 245.354 91.436C246.818 91.436 248.006 90.992 248.918 90.104C249.83 89.24 250.286 87.92 250.286 86.144V83.048C249.638 83.984 248.738 84.764 247.586 85.388C246.458 86.012 245.162 86.324 243.698 86.324C242.018 86.324 240.482 85.892 239.09 85.028C237.698 84.164 236.594 82.952 235.778 81.392C234.986 79.808 234.59 77.996 234.59 75.956C234.59 73.94 234.986 72.152 235.778 70.592C236.594 69.032 237.686 67.832 239.054 66.992C240.446 66.152 241.994 65.732 243.698 65.732ZM250.286 76.028C250.286 74.804 250.046 73.76 249.566 72.896C249.086 72.008 248.438 71.336 247.622 70.88C246.806 70.4 245.93 70.16 244.994 70.16C244.058 70.16 243.194 70.388 242.402 70.844C241.61 71.3 240.962 71.972 240.458 72.86C239.978 73.724 239.738 74.756 239.738 75.956C239.738 77.156 239.978 78.212 240.458 79.124C240.962 80.012 241.61 80.696 242.402 81.176C243.218 81.656 244.082 81.896 244.994 81.896C245.93 81.896 246.806 81.668 247.622 81.212C248.438 80.732 249.086 80.06 249.566 79.196C250.046 78.308 250.286 77.252 250.286 76.028ZM258.989 75.956C258.989 73.94 259.385 72.152 260.177 70.592C260.993 69.032 262.085 67.832 263.453 66.992C264.845 66.152 266.393 65.732 268.097 65.732C269.585 65.732 270.881 66.032 271.985 66.632C273.113 67.232 274.013 67.988 274.685 68.9V66.056H279.761V86H274.685V83.084C274.037 84.02 273.137 84.8 271.985 85.424C270.857 86.024 269.549 86.324 268.061 86.324C266.381 86.324 264.845 85.892 263.453 85.028C262.085 84.164 260.993 82.952 260.177 81.392C259.385 79.808 258.989 77.996 258.989 75.956ZM274.685 76.028C274.685 74.804 274.445 73.76 273.965 72.896C273.485 72.008 272.837 71.336 272.021 70.88C271.205 70.4 270.329 70.16 269.393 70.16C268.457 70.16 267.593 70.388 266.801 70.844C266.009 71.3 265.361 71.972 264.857 72.86C264.377 73.724 264.137 74.756 264.137 75.956C264.137 77.156 264.377 78.212 264.857 79.124C265.361 80.012 266.009 80.696 266.801 81.176C267.617 81.656 268.481 81.896 269.393 81.896C270.329 81.896 271.205 81.668 272.021 81.212C272.837 80.732 273.485 80.06 273.965 79.196C274.445 78.308 274.685 77.252 274.685 76.028ZM295.735 65.768C298.111 65.768 300.031 66.524 301.495 68.036C302.959 69.524 303.691 71.612 303.691 74.3V86H298.651V74.984C298.651 73.4 298.255 72.188 297.463 71.348C296.671 70.484 295.591 70.052 294.223 70.052C292.831 70.052 291.727 70.484 290.911 71.348C290.119 72.188 289.723 73.4 289.723 74.984V86H284.683V66.056H289.723V68.54C290.395 67.676 291.247 67.004 292.279 66.524C293.335 66.02 294.487 65.768 295.735 65.768ZM41.6222 114.872V140H36.5822V123.656L29.8502 140H26.0342L19.2662 123.656V140H14.2262V114.872H19.9502L27.9422 133.556L35.9342 114.872H41.6222ZM45.3091 129.956C45.3091 127.94 45.7051 126.152 46.4971 124.592C47.3131 123.032 48.4051 121.832 49.7731 120.992C51.1651 120.152 52.7131 119.732 54.4171 119.732C55.9051 119.732 57.2011 120.032 58.3051 120.632C59.4331 121.232 60.3331 121.988 61.0051 122.9V120.056H66.0811V140H61.0051V137.084C60.3571 138.02 59.4571 138.8 58.3051 139.424C57.1771 140.024 55.8691 140.324 54.3811 140.324C52.7011 140.324 51.1651 139.892 49.7731 139.028C48.4051 138.164 47.3131 136.952 46.4971 135.392C45.7051 133.808 45.3091 131.996 45.3091 129.956ZM61.0051 130.028C61.0051 128.804 60.7651 127.76 60.2851 126.896C59.8051 126.008 59.1571 125.336 58.3411 124.88C57.5251 124.4 56.6491 124.16 55.7131 124.16C54.7771 124.16 53.9131 124.388 53.1211 124.844C52.3291 125.3 51.6811 125.972 51.1771 126.86C50.6971 127.724 50.4571 128.756 50.4571 129.956C50.4571 131.156 50.6971 132.212 51.1771 133.124C51.6811 134.012 52.3291 134.696 53.1211 135.176C53.9371 135.656 54.8011 135.896 55.7131 135.896C56.6491 135.896 57.5251 135.668 58.3411 135.212C59.1571 134.732 59.8051 134.06 60.2851 133.196C60.7651 132.308 61.0051 131.252 61.0051 130.028ZM76.8715 124.196V133.844C76.8715 134.516 77.0275 135.008 77.3395 135.32C77.6755 135.608 78.2275 135.752 78.9955 135.752H81.3355V140H78.1675C73.9195 140 71.7955 137.936 71.7955 133.808V124.196H69.4195V120.056H71.7955V115.124H76.8715V120.056H81.3355V124.196H76.8715ZM103.501 129.596C103.501 130.316 103.453 130.964 103.357 131.54H88.7766C88.8966 132.98 89.4006 134.108 90.2886 134.924C91.1766 135.74 92.2686 136.148 93.5646 136.148C95.4366 136.148 96.7686 135.344 97.5606 133.736H102.997C102.421 135.656 101.317 137.24 99.6846 138.488C98.0526 139.712 96.0486 140.324 93.6726 140.324C91.7526 140.324 90.0246 139.904 88.4886 139.064C86.9766 138.2 85.7886 136.988 84.9246 135.428C84.0846 133.868 83.6646 132.068 83.6646 130.028C83.6646 127.964 84.0846 126.152 84.9246 124.592C85.7646 123.032 86.9406 121.832 88.4526 120.992C89.9646 120.152 91.7046 119.732 93.6726 119.732C95.5686 119.732 97.2606 120.14 98.7486 120.956C100.261 121.772 101.425 122.936 102.241 124.448C103.081 125.936 103.501 127.652 103.501 129.596ZM98.2806 128.156C98.2566 126.86 97.7886 125.828 96.8766 125.06C95.9646 124.268 94.8486 123.872 93.5286 123.872C92.2806 123.872 91.2246 124.256 90.3606 125.024C89.5206 125.768 89.0046 126.812 88.8126 128.156H98.2806ZM131.947 119.768C134.395 119.768 136.363 120.524 137.851 122.036C139.363 123.524 140.119 125.612 140.119 128.3V140H135.079V128.984C135.079 127.424 134.683 126.236 133.891 125.42C133.099 124.58 132.019 124.16 130.651 124.16C129.283 124.16 128.191 124.58 127.375 125.42C126.583 126.236 126.187 127.424 126.187 128.984V140H121.147V128.984C121.147 127.424 120.751 126.236 119.959 125.42C119.167 124.58 118.087 124.16 116.719 124.16C115.327 124.16 114.223 124.58 113.407 125.42C112.615 126.236 112.219 127.424 112.219 128.984V140H107.179V120.056H112.219V122.468C112.867 121.628 113.695 120.968 114.703 120.488C115.735 120.008 116.863 119.768 118.087 119.768C119.647 119.768 121.039 120.104 122.263 120.776C123.487 121.424 124.435 122.36 125.107 123.584C125.755 122.432 126.691 121.508 127.915 120.812C129.163 120.116 130.507 119.768 131.947 119.768ZM143.606 129.956C143.606 127.94 144.002 126.152 144.794 124.592C145.61 123.032 146.702 121.832 148.07 120.992C149.462 120.152 151.01 119.732 152.714 119.732C154.202 119.732 155.498 120.032 156.602 120.632C157.73 121.232 158.63 121.988 159.302 122.9V120.056H164.378V140H159.302V137.084C158.654 138.02 157.754 138.8 156.602 139.424C155.474 140.024 154.166 140.324 152.678 140.324C150.998 140.324 149.462 139.892 148.07 139.028C146.702 138.164 145.61 136.952 144.794 135.392C144.002 133.808 143.606 131.996 143.606 129.956ZM159.302 130.028C159.302 128.804 159.062 127.76 158.582 126.896C158.102 126.008 157.454 125.336 156.638 124.88C155.822 124.4 154.946 124.16 154.01 124.16C153.074 124.16 152.21 124.388 151.418 124.844C150.626 125.3 149.978 125.972 149.474 126.86C148.994 127.724 148.754 128.756 148.754 129.956C148.754 131.156 148.994 132.212 149.474 133.124C149.978 134.012 150.626 134.696 151.418 135.176C152.234 135.656 153.098 135.896 154.01 135.896C154.946 135.896 155.822 135.668 156.638 135.212C157.454 134.732 158.102 134.06 158.582 133.196C159.062 132.308 159.302 131.252 159.302 130.028ZM175.168 124.196V133.844C175.168 134.516 175.324 135.008 175.636 135.32C175.972 135.608 176.524 135.752 177.292 135.752H179.632V140H176.464C172.216 140 170.092 137.936 170.092 133.808V124.196H167.716V120.056H170.092V115.124H175.168V120.056H179.632V124.196H175.168ZM185.813 117.68C184.925 117.68 184.181 117.404 183.581 116.852C183.005 116.276 182.717 115.568 182.717 114.728C182.717 113.888 183.005 113.192 183.581 112.64C184.181 112.064 184.925 111.776 185.813 111.776C186.701 111.776 187.433 112.064 188.009 112.64C188.609 113.192 188.909 113.888 188.909 114.728C188.909 115.568 188.609 116.276 188.009 116.852C187.433 117.404 186.701 117.68 185.813 117.68ZM188.297 120.056V140H183.257V120.056H188.297ZM205.085 140L198.317 131.504V140H193.277V113.36H198.317V128.516L205.013 120.056H211.565L202.781 130.064L211.637 140H205.085ZM213.004 129.956C213.004 127.94 213.4 126.152 214.192 124.592C215.008 123.032 216.1 121.832 217.468 120.992C218.86 120.152 220.408 119.732 222.112 119.732C223.6 119.732 224.896 120.032 226 120.632C227.128 121.232 228.028 121.988 228.7 122.9V120.056H233.776V140H228.7V137.084C228.052 138.02 227.152 138.8 226 139.424C224.872 140.024 223.564 140.324 222.076 140.324C220.396 140.324 218.86 139.892 217.468 139.028C216.1 138.164 215.008 136.952 214.192 135.392C213.4 133.808 213.004 131.996 213.004 129.956ZM228.7 130.028C228.7 128.804 228.46 127.76 227.98 126.896C227.5 126.008 226.852 125.336 226.036 124.88C225.22 124.4 224.344 124.16 223.408 124.16C222.472 124.16 221.608 124.388 220.816 124.844C220.024 125.3 219.376 125.972 218.872 126.86C218.392 127.724 218.152 128.756 218.152 129.956C218.152 131.156 218.392 132.212 218.872 133.124C219.376 134.012 220.024 134.696 220.816 135.176C221.632 135.656 222.496 135.896 223.408 135.896C224.344 135.896 225.22 135.668 226.036 135.212C226.852 134.732 227.5 134.06 227.98 133.196C228.46 132.308 228.7 131.252 228.7 130.028ZM244.711 114.872L248.059 134.852L258.499 114.872H263.863L250.219 140H244.099L239.311 114.872H244.711Z" fill="white"/>
<path d="M278.883 114.872L282.231 134.852L292.671 114.872H298.035L284.391 140H278.271L273.483 114.872H278.883ZM306.096 114.872L301.668 140H296.592L301.056 114.872H306.096Z" fill="url(#paint1_linear_91_219)"/>
<rect x="178" y="159" width="132" height="28" rx="14" fill="url(#paint2_linear_91_219)"/>
<path d="M214.33 173.21C214.33 172.65 214.44 172.153 214.66 171.72C214.887 171.287 215.19 170.953 215.57 170.72C215.957 170.487 216.387 170.37 216.86 170.37C217.273 170.37 217.633 170.453 217.94 170.62C218.253 170.787 218.503 170.997 218.69 171.25V170.46H220.1V176H218.69V175.19C218.51 175.45 218.26 175.667 217.94 175.84C217.627 176.007 217.263 176.09 216.85 176.09C216.383 176.09 215.957 175.97 215.57 175.73C215.19 175.49 214.887 175.153 214.66 174.72C214.44 174.28 214.33 173.777 214.33 173.21ZM218.69 173.23C218.69 172.89 218.623 172.6 218.49 172.36C218.357 172.113 218.177 171.927 217.95 171.8C217.723 171.667 217.48 171.6 217.22 171.6C216.96 171.6 216.72 171.663 216.5 171.79C216.28 171.917 216.1 172.103 215.96 172.35C215.827 172.59 215.76 172.877 215.76 173.21C215.76 173.543 215.827 173.837 215.96 174.09C216.1 174.337 216.28 174.527 216.5 174.66C216.727 174.793 216.967 174.86 217.22 174.86C217.48 174.86 217.723 174.797 217.95 174.67C218.177 174.537 218.357 174.35 218.49 174.11C218.623 173.863 218.69 173.57 218.69 173.23ZM226.767 170.46L223.337 178.62H221.847L223.047 175.86L220.827 170.46H222.397L223.827 174.33L225.277 170.46H226.767ZM229.982 176.09C229.449 176.09 228.969 175.973 228.542 175.74C228.115 175.5 227.779 175.163 227.532 174.73C227.292 174.297 227.172 173.797 227.172 173.23C227.172 172.663 227.295 172.163 227.542 171.73C227.795 171.297 228.139 170.963 228.572 170.73C229.005 170.49 229.489 170.37 230.022 170.37C230.555 170.37 231.039 170.49 231.472 170.73C231.905 170.963 232.245 171.297 232.492 171.73C232.745 172.163 232.872 172.663 232.872 173.23C232.872 173.797 232.742 174.297 232.482 174.73C232.229 175.163 231.882 175.5 231.442 175.74C231.009 175.973 230.522 176.09 229.982 176.09ZM229.982 174.87C230.235 174.87 230.472 174.81 230.692 174.69C230.919 174.563 231.099 174.377 231.232 174.13C231.365 173.883 231.432 173.583 231.432 173.23C231.432 172.703 231.292 172.3 231.012 172.02C230.739 171.733 230.402 171.59 230.002 171.59C229.602 171.59 229.265 171.733 228.992 172.02C228.725 172.3 228.592 172.703 228.592 173.23C228.592 173.757 228.722 174.163 228.982 174.45C229.249 174.73 229.582 174.87 229.982 174.87ZM236.992 169.8C236.738 169.8 236.528 169.723 236.362 169.57C236.202 169.41 236.122 169.213 236.122 168.98C236.122 168.747 236.202 168.553 236.362 168.4C236.528 168.24 236.738 168.16 236.992 168.16C237.238 168.16 237.442 168.24 237.602 168.4C237.762 168.553 237.842 168.747 237.842 168.98C237.842 169.213 237.762 169.41 237.602 169.57C237.442 169.723 237.238 169.8 236.992 169.8ZM237.682 176.91C237.682 177.523 237.528 177.963 237.222 178.23C236.922 178.503 236.488 178.64 235.922 178.64H235.302V177.45H235.702C235.915 177.45 236.065 177.407 236.152 177.32C236.238 177.24 236.282 177.107 236.282 176.92V170.46H237.682V176.91ZM244.215 173.11C244.215 173.31 244.202 173.49 244.175 173.65H240.125C240.158 174.05 240.298 174.363 240.545 174.59C240.792 174.817 241.095 174.93 241.455 174.93C241.975 174.93 242.345 174.707 242.565 174.26H244.075C243.915 174.793 243.608 175.233 243.155 175.58C242.702 175.92 242.145 176.09 241.485 176.09C240.952 176.09 240.472 175.973 240.045 175.74C239.625 175.5 239.295 175.163 239.055 174.73C238.822 174.297 238.705 173.797 238.705 173.23C238.705 172.657 238.822 172.153 239.055 171.72C239.288 171.287 239.615 170.953 240.035 170.72C240.455 170.487 240.938 170.37 241.485 170.37C242.012 170.37 242.482 170.483 242.895 170.71C243.315 170.937 243.638 171.26 243.865 171.68C244.098 172.093 244.215 172.57 244.215 173.11ZM242.765 172.71C242.758 172.35 242.628 172.063 242.375 171.85C242.122 171.63 241.812 171.52 241.445 171.52C241.098 171.52 240.805 171.627 240.565 171.84C240.332 172.047 240.188 172.337 240.135 172.71H242.765ZM246.637 168.6V176H245.237V168.6H246.637ZM247.66 173.21C247.66 172.65 247.77 172.153 247.99 171.72C248.217 171.287 248.52 170.953 248.9 170.72C249.287 170.487 249.717 170.37 250.19 170.37C250.603 170.37 250.963 170.453 251.27 170.62C251.583 170.787 251.833 170.997 252.02 171.25V170.46H253.43V176H252.02V175.19C251.84 175.45 251.59 175.667 251.27 175.84C250.957 176.007 250.593 176.09 250.18 176.09C249.713 176.09 249.287 175.97 248.9 175.73C248.52 175.49 248.217 175.153 247.99 174.72C247.77 174.28 247.66 173.777 247.66 173.21ZM252.02 173.23C252.02 172.89 251.953 172.6 251.82 172.36C251.687 172.113 251.507 171.927 251.28 171.8C251.053 171.667 250.81 171.6 250.55 171.6C250.29 171.6 250.05 171.663 249.83 171.79C249.61 171.917 249.43 172.103 249.29 172.35C249.157 172.59 249.09 172.877 249.09 173.21C249.09 173.543 249.157 173.837 249.29 174.09C249.43 174.337 249.61 174.527 249.83 174.66C250.057 174.793 250.297 174.86 250.55 174.86C250.81 174.86 251.053 174.797 251.28 174.67C251.507 174.537 251.687 174.35 251.82 174.11C251.953 173.863 252.02 173.57 252.02 173.23ZM255.507 169.8C255.254 169.8 255.044 169.723 254.877 169.57C254.717 169.41 254.637 169.213 254.637 168.98C254.637 168.747 254.717 168.553 254.877 168.4C255.044 168.24 255.254 168.16 255.507 168.16C255.754 168.16 255.957 168.24 256.117 168.4C256.277 168.553 256.357 168.747 256.357 168.98C256.357 169.213 256.277 169.41 256.117 169.57C255.957 169.723 255.754 169.8 255.507 169.8ZM256.197 176.91C256.197 177.523 256.044 177.963 255.737 178.23C255.437 178.503 255.004 178.64 254.437 178.64H253.817V177.45H254.217C254.431 177.45 254.581 177.407 254.667 177.32C254.754 177.24 254.797 177.107 254.797 176.92V170.46H256.197V176.91ZM257.221 173.21C257.221 172.65 257.331 172.153 257.551 171.72C257.777 171.287 258.081 170.953 258.461 170.72C258.847 170.487 259.277 170.37 259.751 170.37C260.164 170.37 260.524 170.453 260.831 170.62C261.144 170.787 261.394 170.997 261.581 171.25V170.46H262.991V176H261.581V175.19C261.401 175.45 261.151 175.667 260.831 175.84C260.517 176.007 260.154 176.09 259.741 176.09C259.274 176.09 258.847 175.97 258.461 175.73C258.081 175.49 257.777 175.153 257.551 174.72C257.331 174.28 257.221 173.777 257.221 173.21ZM261.581 173.23C261.581 172.89 261.514 172.6 261.381 172.36C261.247 172.113 261.067 171.927 260.841 171.8C260.614 171.667 260.371 171.6 260.111 171.6C259.851 171.6 259.611 171.663 259.391 171.79C259.171 171.917 258.991 172.103 258.851 172.35C258.717 172.59 258.651 172.877 258.651 173.21C258.651 173.543 258.717 173.837 258.851 174.09C258.991 174.337 259.171 174.527 259.391 174.66C259.617 174.793 259.857 174.86 260.111 174.86C260.371 174.86 260.614 174.797 260.841 174.67C261.067 174.537 261.247 174.35 261.381 174.11C261.514 173.863 261.581 173.57 261.581 173.23ZM267.478 170.38C267.898 170.38 268.271 170.473 268.598 170.66C268.925 170.84 269.178 171.11 269.358 171.47C269.545 171.823 269.638 172.25 269.638 172.75V176H268.238V172.94C268.238 172.5 268.128 172.163 267.908 171.93C267.688 171.69 267.388 171.57 267.008 171.57C266.621 171.57 266.315 171.69 266.088 171.93C265.868 172.163 265.758 172.5 265.758 172.94V176H264.358V168.6H265.758V171.15C265.938 170.91 266.178 170.723 266.478 170.59C266.778 170.45 267.111 170.38 267.478 170.38ZM271.679 169.8C271.433 169.8 271.226 169.723 271.059 169.57C270.899 169.41 270.819 169.213 270.819 168.98C270.819 168.747 270.899 168.553 271.059 168.4C271.226 168.24 271.433 168.16 271.679 168.16C271.926 168.16 272.129 168.24 272.289 168.4C272.456 168.553 272.539 168.747 272.539 168.98C272.539 169.213 272.456 169.41 272.289 169.57C272.129 169.723 271.926 169.8 271.679 169.8ZM272.369 170.46V176H270.969V170.46H272.369Z" fill="url(#paint3_linear_91_219)"/>
<path d="M315.156 195.458L312.828 196.082L315.935 207.677L318.263 207.054L315.156 195.458Z" fill="white"/>
<path d="M315.936 207.677L313.623 208.297L314.246 210.625L316.559 210.005L315.936 207.677Z" fill="white"/>
<path d="M312.208 193.769L309.895 194.389L310.515 196.702L312.828 196.082L312.208 193.769Z" fill="white"/>
<path d="M314.246 210.625L311.933 211.245L312.552 213.558L314.865 212.938L314.246 210.625Z" fill="white"/>
<path d="M309.275 192.076L306.962 192.696L307.582 195.009L309.895 194.389L309.275 192.076Z" fill="white"/>
<path d="M306.962 192.695L306.338 190.367L297.056 192.854L294.573 183.587L292.26 184.207L295.367 195.802L306.962 192.695Z" fill="white"/>
<path d="M300.749 169.504L298.421 170.128L299.041 172.441L301.369 171.817L300.749 169.504Z" fill="url(#paint4_linear_91_219)"/>
<path d="M305.254 195.633L302.941 196.252L304.804 203.207L307.117 202.587L305.254 195.633Z" fill="white"/>
<path d="M299.04 172.441L296.727 173.061L297.35 175.389L299.663 174.769L299.04 172.441Z" fill="url(#paint5_linear_91_219)"/>
<path d="M297.352 175.39L295.039 176.009L295.658 178.322L297.971 177.703L297.352 175.39Z" fill="url(#paint6_linear_91_219)"/>
<path d="M298.299 197.496L295.986 198.116L297.85 205.07L300.163 204.45L298.299 197.496Z" fill="white"/>
<path d="M291.636 181.879L286.995 183.123L287.619 185.451L292.26 184.207L291.636 181.879Z" fill="white"/>
<path d="M287.91 167.97L285.582 168.594L287.445 175.548L289.773 174.924L287.91 167.97Z" fill="url(#paint7_linear_91_219)"/>
<path d="M295.073 213.268L292.76 213.888L294.004 218.529L296.317 217.909L295.073 213.268Z" fill="white"/>
<path d="M290.275 204.62L292.588 204L287.618 185.451L285.305 186.07L288.412 197.666L283.77 198.909L284.39 201.222L289.031 199.979L290.275 204.62Z" fill="white"/>
<path d="M292.139 211.575L289.811 212.199L290.431 214.512L292.759 213.888L292.139 211.575Z" fill="white"/>
<path d="M283.442 179.116L281.114 179.74L281.733 182.053L284.062 181.429L283.442 179.116Z" fill="url(#paint8_linear_91_219)"/>
<path d="M289.191 209.886L286.878 210.505L287.498 212.818L289.811 212.199L289.191 209.886Z" fill="white"/>
<path d="M280.49 177.411L278.177 178.031L278.801 180.359L281.114 179.74L280.49 177.411Z" fill="url(#paint9_linear_91_219)"/>
<path d="M284.391 201.223L282.078 201.842L284.565 211.125L286.878 210.505L284.391 201.223Z" fill="white"/>
<path d="M277.557 175.718L275.244 176.338L275.864 178.651L278.177 178.031L277.557 175.718Z" fill="url(#paint10_linear_91_219)"/>
<g clip-path="url(#clip0_91_219)">
<path d="M235 398.555H213.555V409.312H235V398.555Z" fill="url(#paint11_linear_91_219)"/>
<path d="M202.867 334.289H192.109V344.977H202.867V355.734H213.555V302.156H202.867V334.289Z" fill="url(#paint12_linear_91_219)"/>
<path d="M202.867 398.555H181.422V409.312H202.867V398.555Z" fill="url(#paint13_linear_91_219)"/>
<path d="M202.867 291.469H192.109V302.156H202.867V291.469Z" fill="url(#paint14_linear_91_219)"/>
<path d="M181.422 387.867H159.977V398.555H181.422V387.867Z" fill="url(#paint15_linear_91_219)"/>
<path d="M170.734 344.977H181.422V334.289H192.109V323.602H181.422V291.469H192.109V280.711H181.422V248.578H170.734V344.977Z" fill="url(#paint16_linear_91_219)"/>
<path d="M159.977 323.602H149.289V334.289H159.977V323.602Z" fill="url(#paint17_linear_91_219)"/>
<path d="M159.977 302.156H149.289V312.844H159.977V302.156Z" fill="url(#paint18_linear_91_219)"/>
<path d="M149.289 387.867H138.531V409.312H149.289V387.867Z" fill="url(#paint19_linear_91_219)"/>
<path d="M149.289 366.422H106.398V377.18H149.289V366.422Z" fill="url(#paint20_linear_91_219)"/>
<path d="M149.289 205.688H138.531V216.445H149.289V205.688Z" fill="url(#paint21_linear_91_219)"/>
<path d="M138.531 195H117.156V205.688H138.531V195Z" fill="url(#paint22_linear_91_219)"/>
<path d="M149.289 259.266H138.531V248.578H117.156V259.266H127.844V270.023H117.156V259.266H106.398V280.711H117.156V291.469H138.531V280.711H149.289V259.266Z" fill="url(#paint23_linear_91_219)"/>
<path d="M117.156 387.867H106.398V409.312H117.156V387.867Z" fill="url(#paint24_linear_91_219)"/>
<path d="M84.9531 355.734H95.7109V366.422H106.398V355.734H149.289V366.422H159.977V355.734H170.734V344.977H84.9531V355.734Z" fill="url(#paint25_linear_91_219)"/>
<path d="M117.156 205.688H106.398V216.445H117.156V205.688Z" fill="url(#paint26_linear_91_219)"/>
<path d="M95.7109 387.867H74.2656V398.555H95.7109V387.867Z" fill="url(#paint27_linear_91_219)"/>
<path d="M106.398 227.133V216.445H95.7109V227.133H84.9531V248.578H95.7109V237.891H159.977V248.578H170.734V227.133H159.977V216.445H149.289V227.133H106.398Z" fill="url(#paint28_linear_91_219)"/>
<path d="M84.9531 248.578H74.2656V280.711H63.5781V291.469H74.2656V323.602H63.5781V334.289H74.2656V344.977H84.9531V248.578Z" fill="url(#paint29_linear_91_219)"/>
<path d="M74.2656 398.555H52.8203V409.312H74.2656V398.555Z" fill="url(#paint30_linear_91_219)"/>
<path d="M63.5781 291.469H52.8203V302.156H63.5781V291.469Z" fill="url(#paint31_linear_91_219)"/>
<path d="M52.8203 302.156H42.1328V355.734H52.8203V344.977H63.5781V334.289H52.8203V302.156Z" fill="url(#paint32_linear_91_219)"/>
<path d="M42.1328 398.555H20.6875V409.312H42.1328V398.555Z" fill="url(#paint33_linear_91_219)"/>
<g clip-path="url(#clip1_91_219)">
<path d="M60.483 225.566L58.2939 226.487L59.2151 228.676L61.4041 227.755L60.483 225.566Z" fill="url(#paint34_linear_91_219)"/>
<path d="M59.2151 228.676L57.0116 229.603L57.9328 231.792L60.1363 230.865L59.2151 228.676Z" fill="url(#paint35_linear_91_219)"/>
<path d="M65.3265 249.363L63.1375 250.284L64.9798 254.662L67.1689 253.741L65.3265 249.363Z" fill="url(#paint36_linear_91_219)"/>
<path d="M61.289 245.891L59.0855 246.818L60.9339 251.211L63.1374 250.284L61.289 245.891Z" fill="url(#paint37_linear_91_219)"/>
<path d="M57.9328 231.792L53.5402 233.641L54.4675 235.844L58.86 233.996L57.9328 231.792Z" fill="url(#paint38_linear_91_219)"/>
<path d="M64.9798 254.662L60.5873 256.51L61.5145 258.714L65.9071 256.865L64.9798 254.662Z" fill="url(#paint39_linear_91_219)"/>
<path d="M57.2371 242.426L55.048 243.347L56.8965 247.74L59.0855 246.819L57.2371 242.426Z" fill="url(#paint40_linear_91_219)"/>
<path d="M54.4675 235.844L52.2784 236.765L53.1996 238.954L55.3886 238.033L54.4675 235.844Z" fill="url(#paint41_linear_91_219)"/>
<path d="M59.6661 254.321L57.477 255.242L58.3982 257.431L60.5872 256.51L59.6661 254.321Z" fill="url(#paint42_linear_91_219)"/>
<path d="M53.1996 238.954L51.0105 239.875L52.8589 244.268L55.048 243.347L53.1996 238.954Z" fill="url(#paint43_linear_91_219)"/>
<path d="M56.5558 253.053L52.1633 254.902L53.0845 257.091L57.477 255.242L56.5558 253.053Z" fill="url(#paint44_linear_91_219)"/>
<path d="M57.3666 224.283L44.189 229.829L45.1162 232.032L58.2939 226.487L57.3666 224.283Z" fill="url(#paint45_linear_91_219)"/>
<path d="M42.3466 225.45L40.1575 226.372L41.9999 230.75L44.189 229.829L42.3466 225.45Z" fill="url(#paint46_linear_91_219)"/>
<path d="M51.236 252.698L49.0469 253.62L49.9742 255.823L52.1633 254.902L51.236 252.698Z" fill="url(#paint47_linear_91_219)"/>
<path d="M45.6968 239.535L43.5077 240.456L44.4289 242.645L46.6179 241.724L45.6968 239.535Z" fill="url(#paint48_linear_91_219)"/>
<path d="M38.3091 221.979L36.1201 222.9L37.9685 227.293L40.1576 226.372L38.3091 221.979Z" fill="url(#paint49_linear_91_219)"/>
<path d="M48.1258 251.43L45.9223 252.357L46.8435 254.546L49.047 253.619L48.1258 251.43Z" fill="url(#paint50_linear_91_219)"/>
<path d="M41.6593 236.063L39.4558 236.991L40.377 239.18L42.5805 238.253L41.6593 236.063Z" fill="url(#paint51_linear_91_219)"/>
<path d="M34.2716 218.508L32.0681 219.435L33.9166 223.828L36.12 222.9L34.2716 218.508Z" fill="url(#paint52_linear_91_219)"/>
<path d="M44.995 250.154L42.806 251.075L43.7332 253.279L45.9223 252.357L44.995 250.154Z" fill="url(#paint53_linear_91_219)"/>
<path d="M44.4289 242.645L37.8329 245.421L38.7601 247.624L45.3562 244.849L44.4289 242.645Z" fill="url(#paint54_linear_91_219)"/>
<path d="M31.1469 217.246L28.9578 218.167L29.879 220.356L32.0681 219.435L31.1469 217.246Z" fill="url(#paint55_linear_91_219)"/>
<path d="M43.7332 253.279L41.5297 254.206L42.4509 256.395L44.6544 255.468L43.7332 253.279Z" fill="url(#paint56_linear_91_219)"/>
<path d="M37.2667 237.912L35.0632 238.839L35.9844 241.028L38.1879 240.101L37.2667 237.912Z" fill="url(#paint57_linear_91_219)"/>
<path d="M29.879 220.356L27.6755 221.284L29.524 225.676L31.7274 224.749L29.879 220.356Z" fill="url(#paint58_linear_91_219)"/>
<path d="M42.4509 256.395L40.2618 257.316L41.1891 259.52L43.3782 258.599L42.4509 256.395Z" fill="url(#paint59_linear_91_219)"/>
<path d="M36.9117 243.232L34.7226 244.153L35.6438 246.342L37.8329 245.421L36.9117 243.232Z" fill="url(#paint60_linear_91_219)"/>
<path d="M29.524 225.676L27.335 226.597L29.1834 230.99L31.3725 230.069L29.524 225.676Z" fill="url(#paint61_linear_91_219)"/>
<path d="M29.1834 230.99L26.9943 231.911L28.8367 236.289L31.0258 235.368L29.1834 230.99Z" fill="url(#paint62_linear_91_219)"/>
<path d="M41.1891 259.52L36.7966 261.368L37.7178 263.557L42.1103 261.709L41.1891 259.52Z" fill="url(#paint63_linear_91_219)"/>
<path d="M37.7178 263.557L35.5287 264.479L36.4499 266.668L38.6389 265.746L37.7178 263.557Z" fill="url(#paint64_linear_91_219)"/>
<path d="M31.2513 248.191L29.0622 249.112L30.9106 253.504L33.0997 252.583L31.2513 248.191Z" fill="url(#paint65_linear_91_219)"/>
<path d="M30.9106 253.504L28.7216 254.425L30.57 258.818L32.7591 257.897L30.9106 253.504Z" fill="url(#paint66_linear_91_219)"/>
<path d="M28.141 246.923L25.9519 247.844L26.8731 250.033L29.0622 249.112L28.141 246.923Z" fill="url(#paint67_linear_91_219)"/>
<path d="M36.4499 266.668L32.0573 268.516L32.9846 270.72L37.3771 268.871L36.4499 266.668Z" fill="url(#paint68_linear_91_219)"/>
<path d="M30.57 258.818L28.3665 259.745L30.215 264.138L32.4184 263.21L30.57 258.818Z" fill="url(#paint69_linear_91_219)"/>
<path d="M25.0247 245.64L20.6321 247.489L21.5594 249.692L25.9519 247.844L25.0247 245.64Z" fill="url(#paint70_linear_91_219)"/>
<path d="M30.215 264.138L28.0259 265.059L29.8683 269.437L32.0573 268.516L30.215 264.138Z" fill="url(#paint71_linear_91_219)"/>
<path d="M28.8367 236.289L15.6591 241.834L16.5863 244.038L29.7639 238.493L28.8367 236.289Z" fill="url(#paint72_linear_91_219)"/>
<path d="M19.7109 245.3L17.5074 246.227L18.4286 248.416L20.6321 247.489L19.7109 245.3Z" fill="url(#paint73_linear_91_219)"/>
<path d="M16.5863 244.038L14.3972 244.959L15.3184 247.148L17.5075 246.227L16.5863 244.038Z" fill="url(#paint74_linear_91_219)"/>
</g>
</g>
<g clip-path="url(#clip2_91_219)">
<path d="M159.943 176.646L158.785 176.297L158.435 177.455L159.594 177.805L159.943 176.646Z" fill="url(#paint75_linear_91_219)"/>
<path d="M158.435 177.455L157.269 177.104L156.92 178.262L158.086 178.614L158.435 177.455Z" fill="url(#paint76_linear_91_219)"/>
<path d="M154.116 187.561L152.957 187.211L152.259 189.528L153.417 189.878L154.116 187.561Z" fill="url(#paint77_linear_91_219)"/>
<path d="M153.658 184.887L152.492 184.535L151.791 186.86L152.957 187.211L153.658 184.887Z" fill="url(#paint78_linear_91_219)"/>
<path d="M156.92 178.262L154.595 177.561L154.244 178.727L156.568 179.428L156.92 178.262Z" fill="url(#paint79_linear_91_219)"/>
<path d="M152.259 189.529L149.934 188.828L149.582 189.994L151.907 190.695L152.259 189.529Z" fill="url(#paint80_linear_91_219)"/>
<path d="M153.193 182.211L152.035 181.861L151.334 184.186L152.492 184.535L153.193 182.211Z" fill="url(#paint81_linear_91_219)"/>
<path d="M154.244 178.727L153.085 178.378L152.736 179.536L153.894 179.886L154.244 178.727Z" fill="url(#paint82_linear_91_219)"/>
<path d="M150.283 187.669L149.125 187.32L148.775 188.478L149.934 188.828L150.283 187.669Z" fill="url(#paint83_linear_91_219)"/>
<path d="M152.736 179.536L151.577 179.187L150.876 181.512L152.035 181.861L152.736 179.536Z" fill="url(#paint84_linear_91_219)"/>
<path d="M149.474 186.161L147.149 185.46L146.8 186.618L149.125 187.32L149.474 186.161Z" fill="url(#paint85_linear_91_219)"/>
<path d="M159.136 175.131L152.162 173.028L151.811 174.194L158.785 176.297L159.136 175.131Z" fill="url(#paint86_linear_91_219)"/>
<path d="M152.861 170.711L151.703 170.361L151.004 172.678L152.162 173.028L152.861 170.711Z" fill="url(#paint87_linear_91_219)"/>
<path d="M147.501 184.294L146.343 183.945L145.991 185.111L147.149 185.46L147.501 184.294Z" fill="url(#paint88_linear_91_219)"/>
<path d="M149.602 177.327L148.443 176.978L148.094 178.137L149.252 178.486L149.602 177.327Z" fill="url(#paint89_linear_91_219)"/>
<path d="M152.404 168.036L151.245 167.687L150.544 170.012L151.703 170.361L152.404 168.036Z" fill="url(#paint90_linear_91_219)"/>
<path d="M146.692 182.786L145.526 182.435L145.176 183.593L146.343 183.945L146.692 182.786Z" fill="url(#paint91_linear_91_219)"/>
<path d="M149.144 174.653L147.978 174.302L147.629 175.46L148.795 175.812L149.144 174.653Z" fill="url(#paint92_linear_91_219)"/>
<path d="M151.946 165.362L150.78 165.011L150.079 167.335L151.245 167.687L151.946 165.362Z" fill="url(#paint93_linear_91_219)"/>
<path d="M145.877 181.268L144.719 180.919L144.367 182.085L145.526 182.434L145.877 181.268Z" fill="url(#paint94_linear_91_219)"/>
<path d="M148.094 178.137L144.603 177.084L144.251 178.25L147.742 179.303L148.094 178.137Z" fill="url(#paint95_linear_91_219)"/>
<path d="M151.129 163.852L149.971 163.503L149.621 164.661L150.78 165.011L151.129 163.852Z" fill="url(#paint96_linear_91_219)"/>
<path d="M144.367 182.085L143.201 181.733L142.852 182.892L144.018 183.244L144.367 182.085Z" fill="url(#paint97_linear_91_219)"/>
<path d="M146.82 173.953L145.653 173.601L145.304 174.76L146.47 175.111L146.82 173.953Z" fill="url(#paint98_linear_91_219)"/>
<path d="M149.621 164.661L148.455 164.31L147.754 166.634L148.92 166.986L149.621 164.661Z" fill="url(#paint99_linear_91_219)"/>
<path d="M142.852 182.892L141.693 182.542L141.342 183.709L142.5 184.058L142.852 182.892Z" fill="url(#paint100_linear_91_219)"/>
<path d="M144.952 175.926L143.794 175.576L143.445 176.735L144.603 177.084L144.952 175.926Z" fill="url(#paint101_linear_91_219)"/>
<path d="M147.754 166.635L146.596 166.285L145.895 168.61L147.053 168.959L147.754 166.635Z" fill="url(#paint102_linear_91_219)"/>
<path d="M145.895 168.61L144.736 168.26L144.037 170.577L145.196 170.927L145.895 168.61Z" fill="url(#paint103_linear_91_219)"/>
<path d="M141.342 183.709L139.017 183.008L138.667 184.166L140.992 184.867L141.342 183.709Z" fill="url(#paint104_linear_91_219)"/>
<path d="M138.668 184.166L137.509 183.817L137.16 184.975L138.318 185.325L138.668 184.166Z" fill="url(#paint105_linear_91_219)"/>
<path d="M141.12 176.034L139.961 175.685L139.26 178.009L140.419 178.359L141.12 176.034Z" fill="url(#paint106_linear_91_219)"/>
<path d="M139.26 178.009L138.102 177.66L137.401 179.984L138.559 180.334L139.26 178.009Z" fill="url(#paint107_linear_91_219)"/>
<path d="M140.311 174.526L139.152 174.176L138.803 175.335L139.961 175.684L140.311 174.526Z" fill="url(#paint108_linear_91_219)"/>
<path d="M137.16 184.975L134.835 184.274L134.483 185.441L136.808 186.142L137.16 184.975Z" fill="url(#paint109_linear_91_219)"/>
<path d="M137.401 179.984L136.235 179.633L135.534 181.957L136.7 182.309L137.401 179.984Z" fill="url(#paint110_linear_91_219)"/>
<path d="M139.504 173.011L137.179 172.31L136.827 173.476L139.152 174.177L139.504 173.011Z" fill="url(#paint111_linear_91_219)"/>
<path d="M135.534 181.957L134.375 181.608L133.676 183.925L134.835 184.274L135.534 181.957Z" fill="url(#paint112_linear_91_219)"/>
<path d="M144.037 170.578L137.063 168.475L136.712 169.641L143.686 171.744L144.037 170.578Z" fill="url(#paint113_linear_91_219)"/>
<path d="M137.529 171.151L136.362 170.799L136.013 171.958L137.179 172.31L137.529 171.151Z" fill="url(#paint114_linear_91_219)"/>
<path d="M136.712 169.64L135.553 169.291L135.204 170.45L136.362 170.799L136.712 169.64Z" fill="url(#paint115_linear_91_219)"/>
</g>
<g clip-path="url(#clip3_91_219)">
<path d="M251.849 282.636L250.307 281.578L249.25 283.119L250.791 284.177L251.849 282.636Z" fill="url(#paint116_linear_91_219)"/>
<path d="M249.25 283.119L247.698 282.054L246.64 283.596L248.192 284.661L249.25 283.119Z" fill="url(#paint117_linear_91_219)"/>
<path d="M238.149 295.971L236.607 294.913L234.492 297.997L236.033 299.054L238.149 295.971Z" fill="url(#paint118_linear_91_219)"/>
<path d="M238.73 291.819L237.178 290.754L235.055 293.848L236.607 294.913L238.73 291.819Z" fill="url(#paint119_linear_91_219)"/>
<path d="M246.64 283.596L243.546 281.474L242.481 283.026L245.575 285.148L246.64 283.596Z" fill="url(#paint120_linear_91_219)"/>
<path d="M234.492 297.996L231.398 295.874L230.333 297.425L233.427 299.548L234.492 297.996Z" fill="url(#paint121_linear_91_219)"/>
<path d="M239.301 287.661L237.759 286.603L235.636 289.697L237.178 290.755L239.301 287.661Z" fill="url(#paint122_linear_91_219)"/>
<path d="M242.481 283.025L240.94 281.967L239.882 283.509L241.424 284.567L242.481 283.025Z" fill="url(#paint123_linear_91_219)"/>
<path d="M232.456 294.332L230.914 293.274L229.856 294.816L231.398 295.874L232.456 294.332Z" fill="url(#paint124_linear_91_219)"/>
<path d="M239.882 283.509L238.34 282.451L236.217 285.545L237.759 286.603L239.882 283.509Z" fill="url(#paint125_linear_91_219)"/>
<path d="M231.972 291.733L228.878 289.61L227.82 291.152L230.914 293.274L231.972 291.733Z" fill="url(#paint126_linear_91_219)"/>
<path d="M251.372 280.025L242.091 273.657L241.027 275.209L250.308 281.577L251.372 280.025Z" fill="url(#paint127_linear_91_219)"/>
<path d="M244.207 270.574L242.665 269.516L240.55 272.6L242.091 273.657L244.207 270.574Z" fill="url(#paint128_linear_91_219)"/>
<path d="M229.943 288.058L228.401 287L227.337 288.552L228.878 289.61L229.943 288.058Z" fill="url(#paint129_linear_91_219)"/>
<path d="M236.304 278.787L234.762 277.729L233.705 279.271L235.246 280.329L236.304 278.787Z" fill="url(#paint130_linear_91_219)"/>
<path d="M244.788 266.423L243.246 265.365L241.124 268.458L242.665 269.516L244.788 266.423Z" fill="url(#paint131_linear_91_219)"/>
<path d="M229.459 285.458L227.907 284.393L226.849 285.935L228.401 287L229.459 285.458Z" fill="url(#paint132_linear_91_219)"/>
<path d="M236.885 274.636L235.333 273.571L234.275 275.113L235.827 276.177L236.885 274.636Z" fill="url(#paint133_linear_91_219)"/>
<path d="M245.369 262.271L243.817 261.206L241.694 264.3L243.246 265.365L245.369 262.271Z" fill="url(#paint134_linear_91_219)"/>
<path d="M228.972 282.842L227.43 281.784L226.366 283.336L227.907 284.393L228.972 282.842Z" fill="url(#paint135_linear_91_219)"/>
<path d="M233.705 279.271L229.059 276.083L227.994 277.635L232.64 280.823L233.705 279.271Z" fill="url(#paint136_linear_91_219)"/>
<path d="M244.875 259.664L243.333 258.606L242.275 260.148L243.817 261.206L244.875 259.664Z" fill="url(#paint137_linear_91_219)"/>
<path d="M226.366 283.335L224.814 282.271L223.756 283.812L225.308 284.877L226.366 283.335Z" fill="url(#paint138_linear_91_219)"/>
<path d="M233.791 272.513L232.24 271.448L231.182 272.99L232.734 274.054L233.791 272.513Z" fill="url(#paint139_linear_91_219)"/>
<path d="M242.275 260.148L240.723 259.083L238.601 262.177L240.153 263.242L242.275 260.148Z" fill="url(#paint140_linear_91_219)"/>
<path d="M223.756 283.812L222.214 282.754L221.149 284.306L222.691 285.364L223.756 283.812Z" fill="url(#paint141_linear_91_219)"/>
<path d="M230.117 274.542L228.575 273.484L227.517 275.026L229.059 276.084L230.117 274.542Z" fill="url(#paint142_linear_91_219)"/>
<path d="M238.601 262.177L237.059 261.119L234.936 264.213L236.478 265.271L238.601 262.177Z" fill="url(#paint143_linear_91_219)"/>
<path d="M234.936 264.213L233.394 263.155L231.279 266.238L232.821 267.296L234.936 264.213Z" fill="url(#paint144_linear_91_219)"/>
<path d="M221.149 284.306L218.056 282.184L216.998 283.725L220.091 285.848L221.149 284.306Z" fill="url(#paint145_linear_91_219)"/>
<path d="M216.998 283.725L215.456 282.667L214.398 284.209L215.94 285.267L216.998 283.725Z" fill="url(#paint146_linear_91_219)"/>
<path d="M224.424 272.903L222.882 271.845L220.759 274.938L222.301 275.996L224.424 272.903Z" fill="url(#paint147_linear_91_219)"/>
<path d="M220.759 274.939L219.217 273.881L217.095 276.975L218.636 278.032L220.759 274.939Z" fill="url(#paint148_linear_91_219)"/>
<path d="M223.94 270.303L222.398 269.245L221.34 270.787L222.882 271.845L223.94 270.303Z" fill="url(#paint149_linear_91_219)"/>
<path d="M214.398 284.21L211.304 282.087L210.24 283.639L213.333 285.762L214.398 284.21Z" fill="url(#paint150_linear_91_219)"/>
<path d="M217.095 276.974L215.543 275.91L213.42 279.003L214.972 280.068L217.095 276.974Z" fill="url(#paint151_linear_91_219)"/>
<path d="M223.463 267.693L220.369 265.571L219.304 267.123L222.398 269.245L223.463 267.693Z" fill="url(#paint152_linear_91_219)"/>
<path d="M213.42 279.003L211.878 277.945L209.763 281.029L211.304 282.087L213.42 279.003Z" fill="url(#paint153_linear_91_219)"/>
<path d="M231.279 266.239L221.998 259.871L220.933 261.423L230.214 267.791L231.279 266.239Z" fill="url(#paint154_linear_91_219)"/>
<path d="M221.427 264.029L219.875 262.964L218.817 264.506L220.369 265.57L221.427 264.029Z" fill="url(#paint155_linear_91_219)"/>
<path d="M220.933 261.422L219.391 260.364L218.333 261.906L219.875 262.964L220.933 261.422Z" fill="url(#paint156_linear_91_219)"/>
</g>
<defs>
<linearGradient id="paint0_linear_91_219" x1="172.5" y1="4.45029e-08" x2="163" y2="400" gradientUnits="userSpaceOnUse">
<stop stop-color="#640D5F"/>
<stop offset="1" stop-color="white"/>
</linearGradient>
<linearGradient id="paint1_linear_91_219" x1="158" y1="46" x2="158" y2="154" gradientUnits="userSpaceOnUse">
<stop stop-color="#CF67C9"/>
<stop offset="1" stop-color="#640D5F"/>
</linearGradient>
<linearGradient id="paint2_linear_91_219" x1="178" y1="173" x2="328" y2="181" gradientUnits="userSpaceOnUse">
<stop stop-color="#CF67C9"/>
<stop offset="0.969643" stop-color="#640D5F"/>
</linearGradient>
<linearGradient id="paint3_linear_91_219" x1="244" y1="165" x2="244" y2="180" gradientUnits="userSpaceOnUse">
<stop stop-color="white"/>
</linearGradient>
<linearGradient id="paint4_linear_91_219" x1="299.585" y1="169.816" x2="300.205" y2="172.129" gradientUnits="userSpaceOnUse">
<stop stop-color="white"/>
</linearGradient>
<linearGradient id="paint5_linear_91_219" x1="297.883" y1="172.751" x2="298.507" y2="175.079" gradientUnits="userSpaceOnUse">
<stop stop-color="white"/>
</linearGradient>
<linearGradient id="paint6_linear_91_219" x1="296.195" y1="175.699" x2="296.815" y2="178.012" gradientUnits="userSpaceOnUse">
<stop stop-color="white"/>
</linearGradient>
<linearGradient id="paint7_linear_91_219" x1="286.746" y1="168.282" x2="288.609" y2="175.236" gradientUnits="userSpaceOnUse">
<stop stop-color="white"/>
</linearGradient>
<linearGradient id="paint8_linear_91_219" x1="282.278" y1="179.428" x2="282.898" y2="181.741" gradientUnits="userSpaceOnUse">
<stop stop-color="white"/>
</linearGradient>
<linearGradient id="paint9_linear_91_219" x1="279.333" y1="177.721" x2="279.957" y2="180.05" gradientUnits="userSpaceOnUse">
<stop stop-color="white"/>
</linearGradient>
<linearGradient id="paint10_linear_91_219" x1="276.4" y1="176.028" x2="277.02" y2="178.341" gradientUnits="userSpaceOnUse">
<stop stop-color="white"/>
</linearGradient>
<linearGradient id="paint11_linear_91_219" x1="224.277" y1="398.555" x2="224.277" y2="409.312" gradientUnits="userSpaceOnUse">
<stop stop-color="#640D5F"/>
<stop offset="1" stop-color="#CF67C9"/>
</linearGradient>
<linearGradient id="paint12_linear_91_219" x1="202.832" y1="302.156" x2="202.832" y2="355.734" gradientUnits="userSpaceOnUse">
<stop stop-color="#640D5F"/>
<stop offset="1" stop-color="#CF67C9"/>
</linearGradient>
<linearGradient id="paint13_linear_91_219" x1="192.145" y1="398.555" x2="192.145" y2="409.312" gradientUnits="userSpaceOnUse">
<stop stop-color="#640D5F"/>
<stop offset="1" stop-color="#CF67C9"/>
</linearGradient>
<linearGradient id="paint14_linear_91_219" x1="197.488" y1="291.469" x2="197.488" y2="302.156" gradientUnits="userSpaceOnUse">
<stop stop-color="#640D5F"/>
<stop offset="1" stop-color="#CF67C9"/>
</linearGradient>
<linearGradient id="paint15_linear_91_219" x1="170.699" y1="387.867" x2="170.699" y2="398.555" gradientUnits="userSpaceOnUse">
<stop stop-color="#640D5F"/>
<stop offset="1" stop-color="#CF67C9"/>
</linearGradient>
<linearGradient id="paint16_linear_91_219" x1="181.422" y1="248.578" x2="181.422" y2="344.977" gradientUnits="userSpaceOnUse">
<stop stop-color="#640D5F"/>
<stop offset="1" stop-color="#CF67C9"/>
</linearGradient>
<linearGradient id="paint17_linear_91_219" x1="154.633" y1="323.602" x2="154.633" y2="334.289" gradientUnits="userSpaceOnUse">
<stop stop-color="#640D5F"/>
<stop offset="1" stop-color="#CF67C9"/>
</linearGradient>
<linearGradient id="paint18_linear_91_219" x1="154.633" y1="302.156" x2="154.633" y2="312.844" gradientUnits="userSpaceOnUse">
<stop stop-color="#640D5F"/>
<stop offset="1" stop-color="#CF67C9"/>
</linearGradient>
<linearGradient id="paint19_linear_91_219" x1="143.91" y1="387.867" x2="143.91" y2="409.312" gradientUnits="userSpaceOnUse">
<stop stop-color="#640D5F"/>
<stop offset="1" stop-color="#CF67C9"/>
</linearGradient>
<linearGradient id="paint20_linear_91_219" x1="127.844" y1="366.422" x2="127.844" y2="377.18" gradientUnits="userSpaceOnUse">
<stop stop-color="#640D5F"/>
<stop offset="1" stop-color="#CF67C9"/>
</linearGradient>
<linearGradient id="paint21_linear_91_219" x1="143.91" y1="205.688" x2="143.91" y2="216.445" gradientUnits="userSpaceOnUse">
<stop stop-color="#640D5F"/>
<stop offset="1" stop-color="#CF67C9"/>
</linearGradient>
<linearGradient id="paint22_linear_91_219" x1="127.844" y1="195" x2="127.844" y2="205.688" gradientUnits="userSpaceOnUse">
<stop stop-color="#640D5F"/>
<stop offset="1" stop-color="#CF67C9"/>
</linearGradient>
<linearGradient id="paint23_linear_91_219" x1="127.844" y1="248.578" x2="127.844" y2="291.469" gradientUnits="userSpaceOnUse">
<stop stop-color="#640D5F"/>
<stop offset="1" stop-color="#CF67C9"/>
</linearGradient>
<linearGradient id="paint24_linear_91_219" x1="111.777" y1="387.867" x2="111.777" y2="409.312" gradientUnits="userSpaceOnUse">
<stop stop-color="#640D5F"/>
<stop offset="1" stop-color="#CF67C9"/>
</linearGradient>
<linearGradient id="paint25_linear_91_219" x1="127.844" y1="344.977" x2="127.844" y2="366.422" gradientUnits="userSpaceOnUse">
<stop stop-color="#640D5F"/>
<stop offset="1" stop-color="#CF67C9"/>
</linearGradient>
<linearGradient id="paint26_linear_91_219" x1="111.777" y1="205.688" x2="111.777" y2="216.445" gradientUnits="userSpaceOnUse">
<stop stop-color="#640D5F"/>
<stop offset="1" stop-color="#CF67C9"/>
</linearGradient>
<linearGradient id="paint27_linear_91_219" x1="84.9883" y1="387.867" x2="84.9883" y2="398.555" gradientUnits="userSpaceOnUse">
<stop stop-color="#640D5F"/>
<stop offset="1" stop-color="#CF67C9"/>
</linearGradient>
<linearGradient id="paint28_linear_91_219" x1="127.844" y1="216.445" x2="127.844" y2="248.578" gradientUnits="userSpaceOnUse">
<stop stop-color="#640D5F"/>
<stop offset="1" stop-color="#CF67C9"/>
</linearGradient>
<linearGradient id="paint29_linear_91_219" x1="74.2656" y1="248.578" x2="74.2656" y2="344.977" gradientUnits="userSpaceOnUse">
<stop stop-color="#640D5F"/>
<stop offset="1" stop-color="#CF67C9"/>
</linearGradient>
<linearGradient id="paint30_linear_91_219" x1="63.543" y1="398.555" x2="63.543" y2="409.312" gradientUnits="userSpaceOnUse">
<stop stop-color="#640D5F"/>
<stop offset="1" stop-color="#CF67C9"/>
</linearGradient>
<linearGradient id="paint31_linear_91_219" x1="58.1992" y1="291.469" x2="58.1992" y2="302.156" gradientUnits="userSpaceOnUse">
<stop stop-color="#640D5F"/>
<stop offset="1" stop-color="#CF67C9"/>
</linearGradient>
<linearGradient id="paint32_linear_91_219" x1="52.8555" y1="302.156" x2="52.8555" y2="355.734" gradientUnits="userSpaceOnUse">
<stop stop-color="#640D5F"/>
<stop offset="1" stop-color="#CF67C9"/>
</linearGradient>
<linearGradient id="paint33_linear_91_219" x1="31.4102" y1="398.555" x2="31.4102" y2="409.312" gradientUnits="userSpaceOnUse">
<stop stop-color="#640D5F"/>
<stop offset="1" stop-color="#CF67C9"/>
</linearGradient>
<linearGradient id="paint34_linear_91_219" x1="59.3884" y1="226.026" x2="60.3096" y2="228.215" gradientUnits="userSpaceOnUse">
<stop stop-color="#640D5F"/>
<stop offset="1" stop-color="#CF67C9"/>
</linearGradient>
<linearGradient id="paint35_linear_91_219" x1="58.1133" y1="229.139" x2="59.0345" y2="231.328" gradientUnits="userSpaceOnUse">
<stop stop-color="#640D5F"/>
<stop offset="1" stop-color="#CF67C9"/>
</linearGradient>
<linearGradient id="paint36_linear_91_219" x1="64.232" y1="249.823" x2="66.0744" y2="254.201" gradientUnits="userSpaceOnUse">
<stop stop-color="#640D5F"/>
<stop offset="1" stop-color="#CF67C9"/>
</linearGradient>
<linearGradient id="paint37_linear_91_219" x1="60.1872" y1="246.355" x2="62.0357" y2="250.747" gradientUnits="userSpaceOnUse">
<stop stop-color="#640D5F"/>
<stop offset="1" stop-color="#CF67C9"/>
</linearGradient>
<linearGradient id="paint38_linear_91_219" x1="55.7365" y1="232.716" x2="56.6637" y2="234.92" gradientUnits="userSpaceOnUse">
<stop stop-color="#640D5F"/>
<stop offset="1" stop-color="#CF67C9"/>
</linearGradient>
<linearGradient id="paint39_linear_91_219" x1="62.7836" y1="255.586" x2="63.7108" y2="257.79" gradientUnits="userSpaceOnUse">
<stop stop-color="#640D5F"/>
<stop offset="1" stop-color="#CF67C9"/>
</linearGradient>
<linearGradient id="paint40_linear_91_219" x1="56.1426" y1="242.887" x2="57.991" y2="247.279" gradientUnits="userSpaceOnUse">
<stop stop-color="#640D5F"/>
<stop offset="1" stop-color="#CF67C9"/>
</linearGradient>
<linearGradient id="paint41_linear_91_219" x1="53.3729" y1="236.305" x2="54.2941" y2="238.494" gradientUnits="userSpaceOnUse">
<stop stop-color="#640D5F"/>
<stop offset="1" stop-color="#CF67C9"/>
</linearGradient>
<linearGradient id="paint42_linear_91_219" x1="58.5715" y1="254.782" x2="59.4927" y2="256.971" gradientUnits="userSpaceOnUse">
<stop stop-color="#640D5F"/>
<stop offset="1" stop-color="#CF67C9"/>
</linearGradient>
<linearGradient id="paint43_linear_91_219" x1="52.105" y1="239.415" x2="53.9535" y2="243.807" gradientUnits="userSpaceOnUse">
<stop stop-color="#640D5F"/>
<stop offset="1" stop-color="#CF67C9"/>
</linearGradient>
<linearGradient id="paint44_linear_91_219" x1="54.3595" y1="253.978" x2="55.2807" y2="256.167" gradientUnits="userSpaceOnUse">
<stop stop-color="#640D5F"/>
<stop offset="1" stop-color="#CF67C9"/>
</linearGradient>
<linearGradient id="paint45_linear_91_219" x1="50.7778" y1="227.056" x2="51.705" y2="229.259" gradientUnits="userSpaceOnUse">
<stop stop-color="#640D5F"/>
<stop offset="1" stop-color="#CF67C9"/>
</linearGradient>
<linearGradient id="paint46_linear_91_219" x1="41.2521" y1="225.911" x2="43.0944" y2="230.289" gradientUnits="userSpaceOnUse">
<stop stop-color="#640D5F"/>
<stop offset="1" stop-color="#CF67C9"/>
</linearGradient>
<linearGradient id="paint47_linear_91_219" x1="50.1415" y1="253.159" x2="51.0687" y2="255.363" gradientUnits="userSpaceOnUse">
<stop stop-color="#640D5F"/>
<stop offset="1" stop-color="#CF67C9"/>
</linearGradient>
<linearGradient id="paint48_linear_91_219" x1="44.6022" y1="239.995" x2="45.5234" y2="242.185" gradientUnits="userSpaceOnUse">
<stop stop-color="#640D5F"/>
<stop offset="1" stop-color="#CF67C9"/>
</linearGradient>
<linearGradient id="paint49_linear_91_219" x1="37.2146" y1="222.44" x2="39.063" y2="226.832" gradientUnits="userSpaceOnUse">
<stop stop-color="#640D5F"/>
<stop offset="1" stop-color="#CF67C9"/>
</linearGradient>
<linearGradient id="paint50_linear_91_219" x1="47.024" y1="251.894" x2="47.9452" y2="254.083" gradientUnits="userSpaceOnUse">
<stop stop-color="#640D5F"/>
<stop offset="1" stop-color="#CF67C9"/>
</linearGradient>
<linearGradient id="paint51_linear_91_219" x1="40.5575" y1="236.527" x2="41.4787" y2="238.716" gradientUnits="userSpaceOnUse">
<stop stop-color="#640D5F"/>
<stop offset="1" stop-color="#CF67C9"/>
</linearGradient>
<linearGradient id="paint52_linear_91_219" x1="33.1699" y1="218.971" x2="35.0183" y2="223.364" gradientUnits="userSpaceOnUse">
<stop stop-color="#640D5F"/>
<stop offset="1" stop-color="#CF67C9"/>
</linearGradient>
<linearGradient id="paint53_linear_91_219" x1="43.9005" y1="250.615" x2="44.8278" y2="252.818" gradientUnits="userSpaceOnUse">
<stop stop-color="#640D5F"/>
<stop offset="1" stop-color="#CF67C9"/>
</linearGradient>
<linearGradient id="paint54_linear_91_219" x1="41.1309" y1="244.033" x2="42.0581" y2="246.237" gradientUnits="userSpaceOnUse">
<stop stop-color="#640D5F"/>
<stop offset="1" stop-color="#CF67C9"/>
</linearGradient>
<linearGradient id="paint55_linear_91_219" x1="30.0524" y1="217.706" x2="30.9735" y2="219.895" gradientUnits="userSpaceOnUse">
<stop stop-color="#640D5F"/>
<stop offset="1" stop-color="#CF67C9"/>
</linearGradient>
<linearGradient id="paint56_linear_91_219" x1="42.6315" y1="253.742" x2="43.5526" y2="255.932" gradientUnits="userSpaceOnUse">
<stop stop-color="#640D5F"/>
<stop offset="1" stop-color="#CF67C9"/>
</linearGradient>
<linearGradient id="paint57_linear_91_219" x1="36.165" y1="238.376" x2="37.0862" y2="240.565" gradientUnits="userSpaceOnUse">
<stop stop-color="#640D5F"/>
<stop offset="1" stop-color="#CF67C9"/>
</linearGradient>
<linearGradient id="paint58_linear_91_219" x1="28.7773" y1="220.82" x2="30.6257" y2="225.213" gradientUnits="userSpaceOnUse">
<stop stop-color="#640D5F"/>
<stop offset="1" stop-color="#CF67C9"/>
</linearGradient>
<linearGradient id="paint59_linear_91_219" x1="41.3564" y1="256.856" x2="42.2836" y2="259.059" gradientUnits="userSpaceOnUse">
<stop stop-color="#640D5F"/>
<stop offset="1" stop-color="#CF67C9"/>
</linearGradient>
<linearGradient id="paint60_linear_91_219" x1="35.8171" y1="243.692" x2="36.7383" y2="245.881" gradientUnits="userSpaceOnUse">
<stop stop-color="#640D5F"/>
<stop offset="1" stop-color="#CF67C9"/>
</linearGradient>
<linearGradient id="paint61_linear_91_219" x1="28.4295" y1="226.137" x2="30.2779" y2="230.529" gradientUnits="userSpaceOnUse">
<stop stop-color="#640D5F"/>
<stop offset="1" stop-color="#CF67C9"/>
</linearGradient>
<linearGradient id="paint62_linear_91_219" x1="28.0889" y1="231.451" x2="29.9312" y2="235.829" gradientUnits="userSpaceOnUse">
<stop stop-color="#640D5F"/>
<stop offset="1" stop-color="#CF67C9"/>
</linearGradient>
<linearGradient id="paint63_linear_91_219" x1="38.9928" y1="260.444" x2="39.914" y2="262.633" gradientUnits="userSpaceOnUse">
<stop stop-color="#640D5F"/>
<stop offset="1" stop-color="#CF67C9"/>
</linearGradient>
<linearGradient id="paint64_linear_91_219" x1="36.6232" y1="264.018" x2="37.5444" y2="266.207" gradientUnits="userSpaceOnUse">
<stop stop-color="#640D5F"/>
<stop offset="1" stop-color="#CF67C9"/>
</linearGradient>
<linearGradient id="paint65_linear_91_219" x1="30.1567" y1="248.651" x2="32.0052" y2="253.044" gradientUnits="userSpaceOnUse">
<stop stop-color="#640D5F"/>
<stop offset="1" stop-color="#CF67C9"/>
</linearGradient>
<linearGradient id="paint66_linear_91_219" x1="29.8161" y1="253.965" x2="31.6645" y2="258.357" gradientUnits="userSpaceOnUse">
<stop stop-color="#640D5F"/>
<stop offset="1" stop-color="#CF67C9"/>
</linearGradient>
<linearGradient id="paint67_linear_91_219" x1="27.0464" y1="247.383" x2="27.9676" y2="249.572" gradientUnits="userSpaceOnUse">
<stop stop-color="#640D5F"/>
<stop offset="1" stop-color="#CF67C9"/>
</linearGradient>
<linearGradient id="paint68_linear_91_219" x1="34.2536" y1="267.592" x2="35.1808" y2="269.795" gradientUnits="userSpaceOnUse">
<stop stop-color="#640D5F"/>
<stop offset="1" stop-color="#CF67C9"/>
</linearGradient>
<linearGradient id="paint69_linear_91_219" x1="29.4683" y1="259.281" x2="31.3167" y2="263.674" gradientUnits="userSpaceOnUse">
<stop stop-color="#640D5F"/>
<stop offset="1" stop-color="#CF67C9"/>
</linearGradient>
<linearGradient id="paint70_linear_91_219" x1="22.8284" y1="246.565" x2="23.7557" y2="248.768" gradientUnits="userSpaceOnUse">
<stop stop-color="#640D5F"/>
<stop offset="1" stop-color="#CF67C9"/>
</linearGradient>
<linearGradient id="paint71_linear_91_219" x1="29.1204" y1="264.598" x2="30.9628" y2="268.977" gradientUnits="userSpaceOnUse">
<stop stop-color="#640D5F"/>
<stop offset="1" stop-color="#CF67C9"/>
</linearGradient>
<linearGradient id="paint72_linear_91_219" x1="22.2479" y1="239.062" x2="23.1751" y2="241.265" gradientUnits="userSpaceOnUse">
<stop stop-color="#640D5F"/>
<stop offset="1" stop-color="#CF67C9"/>
</linearGradient>
<linearGradient id="paint73_linear_91_219" x1="18.6092" y1="245.763" x2="19.5304" y2="247.952" gradientUnits="userSpaceOnUse">
<stop stop-color="#640D5F"/>
<stop offset="1" stop-color="#CF67C9"/>
</linearGradient>
<linearGradient id="paint74_linear_91_219" x1="15.4918" y1="244.498" x2="16.4129" y2="246.687" gradientUnits="userSpaceOnUse">
<stop stop-color="#640D5F"/>
<stop offset="1" stop-color="#CF67C9"/>
</linearGradient>
<linearGradient id="paint75_linear_91_219" x1="159.364" y1="176.472" x2="159.015" y2="177.63" gradientUnits="userSpaceOnUse">
<stop stop-color="#640D5F"/>
<stop offset="1" stop-color="#CF67C9"/>
</linearGradient>
<linearGradient id="paint76_linear_91_219" x1="157.852" y1="177.279" x2="157.503" y2="178.438" gradientUnits="userSpaceOnUse">
<stop stop-color="#640D5F"/>
<stop offset="1" stop-color="#CF67C9"/>
</linearGradient>
<linearGradient id="paint77_linear_91_219" x1="153.537" y1="187.386" x2="152.838" y2="189.703" gradientUnits="userSpaceOnUse">
<stop stop-color="#640D5F"/>
<stop offset="1" stop-color="#CF67C9"/>
</linearGradient>
<linearGradient id="paint78_linear_91_219" x1="153.075" y1="184.711" x2="152.374" y2="187.036" gradientUnits="userSpaceOnUse">
<stop stop-color="#640D5F"/>
<stop offset="1" stop-color="#CF67C9"/>
</linearGradient>
<linearGradient id="paint79_linear_91_219" x1="155.758" y1="177.912" x2="155.406" y2="179.078" gradientUnits="userSpaceOnUse">
<stop stop-color="#640D5F"/>
<stop offset="1" stop-color="#CF67C9"/>
</linearGradient>
<linearGradient id="paint80_linear_91_219" x1="151.096" y1="189.178" x2="150.745" y2="190.344" gradientUnits="userSpaceOnUse">
<stop stop-color="#640D5F"/>
<stop offset="1" stop-color="#CF67C9"/>
</linearGradient>
<linearGradient id="paint81_linear_91_219" x1="152.614" y1="182.036" x2="151.913" y2="184.361" gradientUnits="userSpaceOnUse">
<stop stop-color="#640D5F"/>
<stop offset="1" stop-color="#CF67C9"/>
</linearGradient>
<linearGradient id="paint82_linear_91_219" x1="153.664" y1="178.553" x2="153.315" y2="179.711" gradientUnits="userSpaceOnUse">
<stop stop-color="#640D5F"/>
<stop offset="1" stop-color="#CF67C9"/>
</linearGradient>
<linearGradient id="paint83_linear_91_219" x1="149.704" y1="187.495" x2="149.355" y2="188.653" gradientUnits="userSpaceOnUse">
<stop stop-color="#640D5F"/>
<stop offset="1" stop-color="#CF67C9"/>
</linearGradient>
<linearGradient id="paint84_linear_91_219" x1="152.156" y1="179.362" x2="151.455" y2="181.686" gradientUnits="userSpaceOnUse">
<stop stop-color="#640D5F"/>
<stop offset="1" stop-color="#CF67C9"/>
</linearGradient>
<linearGradient id="paint85_linear_91_219" x1="148.312" y1="185.81" x2="147.962" y2="186.969" gradientUnits="userSpaceOnUse">
<stop stop-color="#640D5F"/>
<stop offset="1" stop-color="#CF67C9"/>
</linearGradient>
<linearGradient id="paint86_linear_91_219" x1="155.649" y1="174.079" x2="155.298" y2="175.246" gradientUnits="userSpaceOnUse">
<stop stop-color="#640D5F"/>
<stop offset="1" stop-color="#CF67C9"/>
</linearGradient>
<linearGradient id="paint87_linear_91_219" x1="152.282" y1="170.536" x2="151.583" y2="172.853" gradientUnits="userSpaceOnUse">
<stop stop-color="#640D5F"/>
<stop offset="1" stop-color="#CF67C9"/>
</linearGradient>
<linearGradient id="paint88_linear_91_219" x1="146.922" y1="184.12" x2="146.57" y2="185.286" gradientUnits="userSpaceOnUse">
<stop stop-color="#640D5F"/>
<stop offset="1" stop-color="#CF67C9"/>
</linearGradient>
<linearGradient id="paint89_linear_91_219" x1="149.023" y1="177.153" x2="148.673" y2="178.311" gradientUnits="userSpaceOnUse">
<stop stop-color="#640D5F"/>
<stop offset="1" stop-color="#CF67C9"/>
</linearGradient>
<linearGradient id="paint90_linear_91_219" x1="151.824" y1="167.862" x2="151.123" y2="170.186" gradientUnits="userSpaceOnUse">
<stop stop-color="#640D5F"/>
<stop offset="1" stop-color="#CF67C9"/>
</linearGradient>
<linearGradient id="paint91_linear_91_219" x1="146.109" y1="182.61" x2="145.759" y2="183.769" gradientUnits="userSpaceOnUse">
<stop stop-color="#640D5F"/>
<stop offset="1" stop-color="#CF67C9"/>
</linearGradient>
<linearGradient id="paint92_linear_91_219" x1="148.561" y1="174.478" x2="148.212" y2="175.636" gradientUnits="userSpaceOnUse">
<stop stop-color="#640D5F"/>
<stop offset="1" stop-color="#CF67C9"/>
</linearGradient>
<linearGradient id="paint93_linear_91_219" x1="151.363" y1="165.187" x2="150.662" y2="167.511" gradientUnits="userSpaceOnUse">
<stop stop-color="#640D5F"/>
<stop offset="1" stop-color="#CF67C9"/>
</linearGradient>
<linearGradient id="paint94_linear_91_219" x1="145.298" y1="181.094" x2="144.946" y2="182.26" gradientUnits="userSpaceOnUse">
<stop stop-color="#640D5F"/>
<stop offset="1" stop-color="#CF67C9"/>
</linearGradient>
<linearGradient id="paint95_linear_91_219" x1="146.349" y1="177.61" x2="145.997" y2="178.776" gradientUnits="userSpaceOnUse">
<stop stop-color="#640D5F"/>
<stop offset="1" stop-color="#CF67C9"/>
</linearGradient>
<linearGradient id="paint96_linear_91_219" x1="150.55" y1="163.678" x2="150.201" y2="164.836" gradientUnits="userSpaceOnUse">
<stop stop-color="#640D5F"/>
<stop offset="1" stop-color="#CF67C9"/>
</linearGradient>
<linearGradient id="paint97_linear_91_219" x1="143.784" y1="181.909" x2="143.435" y2="183.068" gradientUnits="userSpaceOnUse">
<stop stop-color="#640D5F"/>
<stop offset="1" stop-color="#CF67C9"/>
</linearGradient>
<linearGradient id="paint98_linear_91_219" x1="146.237" y1="173.777" x2="145.887" y2="174.935" gradientUnits="userSpaceOnUse">
<stop stop-color="#640D5F"/>
<stop offset="1" stop-color="#CF67C9"/>
</linearGradient>
<linearGradient id="paint99_linear_91_219" x1="149.038" y1="164.485" x2="148.337" y2="166.81" gradientUnits="userSpaceOnUse">
<stop stop-color="#640D5F"/>
<stop offset="1" stop-color="#CF67C9"/>
</linearGradient>
<linearGradient id="paint100_linear_91_219" x1="142.272" y1="182.717" x2="141.921" y2="183.883" gradientUnits="userSpaceOnUse">
<stop stop-color="#640D5F"/>
<stop offset="1" stop-color="#CF67C9"/>
</linearGradient>
<linearGradient id="paint101_linear_91_219" x1="144.373" y1="175.751" x2="144.024" y2="176.909" gradientUnits="userSpaceOnUse">
<stop stop-color="#640D5F"/>
<stop offset="1" stop-color="#CF67C9"/>
</linearGradient>
<linearGradient id="paint102_linear_91_219" x1="147.175" y1="166.46" x2="146.474" y2="168.785" gradientUnits="userSpaceOnUse">
<stop stop-color="#640D5F"/>
<stop offset="1" stop-color="#CF67C9"/>
</linearGradient>
<linearGradient id="paint103_linear_91_219" x1="145.315" y1="168.435" x2="144.617" y2="170.752" gradientUnits="userSpaceOnUse">
<stop stop-color="#640D5F"/>
<stop offset="1" stop-color="#CF67C9"/>
</linearGradient>
<linearGradient id="paint104_linear_91_219" x1="140.179" y1="183.358" x2="139.83" y2="184.517" gradientUnits="userSpaceOnUse">
<stop stop-color="#640D5F"/>
<stop offset="1" stop-color="#CF67C9"/>
</linearGradient>
<linearGradient id="paint105_linear_91_219" x1="138.088" y1="183.992" x2="137.739" y2="185.15" gradientUnits="userSpaceOnUse">
<stop stop-color="#640D5F"/>
<stop offset="1" stop-color="#CF67C9"/>
</linearGradient>
<linearGradient id="paint106_linear_91_219" x1="140.541" y1="175.859" x2="139.84" y2="178.184" gradientUnits="userSpaceOnUse">
<stop stop-color="#640D5F"/>
<stop offset="1" stop-color="#CF67C9"/>
</linearGradient>
<linearGradient id="paint107_linear_91_219" x1="138.681" y1="177.834" x2="137.98" y2="180.159" gradientUnits="userSpaceOnUse">
<stop stop-color="#640D5F"/>
<stop offset="1" stop-color="#CF67C9"/>
</linearGradient>
<linearGradient id="paint108_linear_91_219" x1="139.731" y1="174.351" x2="139.382" y2="175.509" gradientUnits="userSpaceOnUse">
<stop stop-color="#640D5F"/>
<stop offset="1" stop-color="#CF67C9"/>
</linearGradient>
<linearGradient id="paint109_linear_91_219" x1="135.997" y1="184.625" x2="135.646" y2="185.791" gradientUnits="userSpaceOnUse">
<stop stop-color="#640D5F"/>
<stop offset="1" stop-color="#CF67C9"/>
</linearGradient>
<linearGradient id="paint110_linear_91_219" x1="136.818" y1="179.809" x2="136.117" y2="182.133" gradientUnits="userSpaceOnUse">
<stop stop-color="#640D5F"/>
<stop offset="1" stop-color="#CF67C9"/>
</linearGradient>
<linearGradient id="paint111_linear_91_219" x1="138.341" y1="172.66" x2="137.99" y2="173.826" gradientUnits="userSpaceOnUse">
<stop stop-color="#640D5F"/>
<stop offset="1" stop-color="#CF67C9"/>
</linearGradient>
<linearGradient id="paint112_linear_91_219" x1="134.954" y1="181.783" x2="134.256" y2="184.1" gradientUnits="userSpaceOnUse">
<stop stop-color="#640D5F"/>
<stop offset="1" stop-color="#CF67C9"/>
</linearGradient>
<linearGradient id="paint113_linear_91_219" x1="140.55" y1="169.526" x2="140.199" y2="170.692" gradientUnits="userSpaceOnUse">
<stop stop-color="#640D5F"/>
<stop offset="1" stop-color="#CF67C9"/>
</linearGradient>
<linearGradient id="paint114_linear_91_219" x1="136.945" y1="170.975" x2="136.596" y2="172.134" gradientUnits="userSpaceOnUse">
<stop stop-color="#640D5F"/>
<stop offset="1" stop-color="#CF67C9"/>
</linearGradient>
<linearGradient id="paint115_linear_91_219" x1="136.132" y1="169.466" x2="135.783" y2="170.624" gradientUnits="userSpaceOnUse">
<stop stop-color="#640D5F"/>
<stop offset="1" stop-color="#CF67C9"/>
</linearGradient>
<linearGradient id="paint116_linear_91_219" x1="251.078" y1="282.107" x2="250.021" y2="283.648" gradientUnits="userSpaceOnUse">
<stop stop-color="#640D5F"/>
<stop offset="1" stop-color="#CF67C9"/>
</linearGradient>
<linearGradient id="paint117_linear_91_219" x1="248.474" y1="282.587" x2="247.416" y2="284.128" gradientUnits="userSpaceOnUse">
<stop stop-color="#640D5F"/>
<stop offset="1" stop-color="#CF67C9"/>
</linearGradient>
<linearGradient id="paint118_linear_91_219" x1="237.378" y1="295.442" x2="235.263" y2="298.526" gradientUnits="userSpaceOnUse">
<stop stop-color="#640D5F"/>
<stop offset="1" stop-color="#CF67C9"/>
</linearGradient>
<linearGradient id="paint119_linear_91_219" x1="237.954" y1="291.287" x2="235.831" y2="294.38" gradientUnits="userSpaceOnUse">
<stop stop-color="#640D5F"/>
<stop offset="1" stop-color="#CF67C9"/>
</linearGradient>
<linearGradient id="paint120_linear_91_219" x1="245.093" y1="282.535" x2="244.028" y2="284.087" gradientUnits="userSpaceOnUse">
<stop stop-color="#640D5F"/>
<stop offset="1" stop-color="#CF67C9"/>
</linearGradient>
<linearGradient id="paint121_linear_91_219" x1="232.945" y1="296.935" x2="231.88" y2="298.487" gradientUnits="userSpaceOnUse">
<stop stop-color="#640D5F"/>
<stop offset="1" stop-color="#CF67C9"/>
</linearGradient>
<linearGradient id="paint122_linear_91_219" x1="238.53" y1="287.132" x2="236.407" y2="290.226" gradientUnits="userSpaceOnUse">
<stop stop-color="#640D5F"/>
<stop offset="1" stop-color="#CF67C9"/>
</linearGradient>
<linearGradient id="paint123_linear_91_219" x1="241.711" y1="282.496" x2="240.653" y2="284.038" gradientUnits="userSpaceOnUse">
<stop stop-color="#640D5F"/>
<stop offset="1" stop-color="#CF67C9"/>
</linearGradient>
<linearGradient id="paint124_linear_91_219" x1="231.685" y1="293.803" x2="230.627" y2="295.345" gradientUnits="userSpaceOnUse">
<stop stop-color="#640D5F"/>
<stop offset="1" stop-color="#CF67C9"/>
</linearGradient>
<linearGradient id="paint125_linear_91_219" x1="239.111" y1="282.98" x2="236.988" y2="286.074" gradientUnits="userSpaceOnUse">
<stop stop-color="#640D5F"/>
<stop offset="1" stop-color="#CF67C9"/>
</linearGradient>
<linearGradient id="paint126_linear_91_219" x1="230.425" y1="290.671" x2="229.367" y2="292.213" gradientUnits="userSpaceOnUse">
<stop stop-color="#640D5F"/>
<stop offset="1" stop-color="#CF67C9"/>
</linearGradient>
<linearGradient id="paint127_linear_91_219" x1="246.732" y1="276.841" x2="245.667" y2="278.393" gradientUnits="userSpaceOnUse">
<stop stop-color="#640D5F"/>
<stop offset="1" stop-color="#CF67C9"/>
</linearGradient>
<linearGradient id="paint128_linear_91_219" x1="243.436" y1="270.045" x2="241.32" y2="273.129" gradientUnits="userSpaceOnUse">
<stop stop-color="#640D5F"/>
<stop offset="1" stop-color="#CF67C9"/>
</linearGradient>
<linearGradient id="paint129_linear_91_219" x1="229.172" y1="287.529" x2="228.107" y2="289.081" gradientUnits="userSpaceOnUse">
<stop stop-color="#640D5F"/>
<stop offset="1" stop-color="#CF67C9"/>
</linearGradient>
<linearGradient id="paint130_linear_91_219" x1="235.533" y1="278.258" x2="234.475" y2="279.8" gradientUnits="userSpaceOnUse">
<stop stop-color="#640D5F"/>
<stop offset="1" stop-color="#CF67C9"/>
</linearGradient>
<linearGradient id="paint131_linear_91_219" x1="244.017" y1="265.894" x2="241.894" y2="268.987" gradientUnits="userSpaceOnUse">
<stop stop-color="#640D5F"/>
<stop offset="1" stop-color="#CF67C9"/>
</linearGradient>
<linearGradient id="paint132_linear_91_219" x1="228.683" y1="284.925" x2="227.625" y2="286.467" gradientUnits="userSpaceOnUse">
<stop stop-color="#640D5F"/>
<stop offset="1" stop-color="#CF67C9"/>
</linearGradient>
<linearGradient id="paint133_linear_91_219" x1="236.109" y1="274.103" x2="235.051" y2="275.645" gradientUnits="userSpaceOnUse">
<stop stop-color="#640D5F"/>
<stop offset="1" stop-color="#CF67C9"/>
</linearGradient>
<linearGradient id="paint134_linear_91_219" x1="244.593" y1="261.738" x2="242.47" y2="264.832" gradientUnits="userSpaceOnUse">
<stop stop-color="#640D5F"/>
<stop offset="1" stop-color="#CF67C9"/>
</linearGradient>
<linearGradient id="paint135_linear_91_219" x1="228.201" y1="282.313" x2="227.136" y2="283.865" gradientUnits="userSpaceOnUse">
<stop stop-color="#640D5F"/>
<stop offset="1" stop-color="#CF67C9"/>
</linearGradient>
<linearGradient id="paint136_linear_91_219" x1="231.382" y1="277.677" x2="230.317" y2="279.229" gradientUnits="userSpaceOnUse">
<stop stop-color="#640D5F"/>
<stop offset="1" stop-color="#CF67C9"/>
</linearGradient>
<linearGradient id="paint137_linear_91_219" x1="244.104" y1="259.135" x2="243.046" y2="260.677" gradientUnits="userSpaceOnUse">
<stop stop-color="#640D5F"/>
<stop offset="1" stop-color="#CF67C9"/>
</linearGradient>
<linearGradient id="paint138_linear_91_219" x1="225.59" y1="282.803" x2="224.532" y2="284.345" gradientUnits="userSpaceOnUse">
<stop stop-color="#640D5F"/>
<stop offset="1" stop-color="#CF67C9"/>
</linearGradient>
<linearGradient id="paint139_linear_91_219" x1="233.016" y1="271.98" x2="231.958" y2="273.522" gradientUnits="userSpaceOnUse">
<stop stop-color="#640D5F"/>
<stop offset="1" stop-color="#CF67C9"/>
</linearGradient>
<linearGradient id="paint140_linear_91_219" x1="241.499" y1="259.616" x2="239.377" y2="262.71" gradientUnits="userSpaceOnUse">
<stop stop-color="#640D5F"/>
<stop offset="1" stop-color="#CF67C9"/>
</linearGradient>
<linearGradient id="paint141_linear_91_219" x1="222.985" y1="283.283" x2="221.92" y2="284.835" gradientUnits="userSpaceOnUse">
<stop stop-color="#640D5F"/>
<stop offset="1" stop-color="#CF67C9"/>
</linearGradient>
<linearGradient id="paint142_linear_91_219" x1="229.346" y1="274.013" x2="228.288" y2="275.555" gradientUnits="userSpaceOnUse">
<stop stop-color="#640D5F"/>
<stop offset="1" stop-color="#CF67C9"/>
</linearGradient>
<linearGradient id="paint143_linear_91_219" x1="237.83" y1="261.648" x2="235.707" y2="264.742" gradientUnits="userSpaceOnUse">
<stop stop-color="#640D5F"/>
<stop offset="1" stop-color="#CF67C9"/>
</linearGradient>
<linearGradient id="paint144_linear_91_219" x1="234.165" y1="263.684" x2="232.05" y2="266.767" gradientUnits="userSpaceOnUse">
<stop stop-color="#640D5F"/>
<stop offset="1" stop-color="#CF67C9"/>
</linearGradient>
<linearGradient id="paint145_linear_91_219" x1="219.602" y1="283.245" x2="218.545" y2="284.787" gradientUnits="userSpaceOnUse">
<stop stop-color="#640D5F"/>
<stop offset="1" stop-color="#CF67C9"/>
</linearGradient>
<linearGradient id="paint146_linear_91_219" x1="216.227" y1="283.196" x2="215.169" y2="284.738" gradientUnits="userSpaceOnUse">
<stop stop-color="#640D5F"/>
<stop offset="1" stop-color="#CF67C9"/>
</linearGradient>
<linearGradient id="paint147_linear_91_219" x1="223.653" y1="272.374" x2="221.53" y2="275.467" gradientUnits="userSpaceOnUse">
<stop stop-color="#640D5F"/>
<stop offset="1" stop-color="#CF67C9"/>
</linearGradient>
<linearGradient id="paint148_linear_91_219" x1="219.988" y1="274.41" x2="217.866" y2="277.503" gradientUnits="userSpaceOnUse">
<stop stop-color="#640D5F"/>
<stop offset="1" stop-color="#CF67C9"/>
</linearGradient>
<linearGradient id="paint149_linear_91_219" x1="223.169" y1="269.774" x2="222.111" y2="271.316" gradientUnits="userSpaceOnUse">
<stop stop-color="#640D5F"/>
<stop offset="1" stop-color="#CF67C9"/>
</linearGradient>
<linearGradient id="paint150_linear_91_219" x1="212.851" y1="283.148" x2="211.786" y2="284.7" gradientUnits="userSpaceOnUse">
<stop stop-color="#640D5F"/>
<stop offset="1" stop-color="#CF67C9"/>
</linearGradient>
<linearGradient id="paint151_linear_91_219" x1="216.319" y1="276.442" x2="214.196" y2="279.536" gradientUnits="userSpaceOnUse">
<stop stop-color="#640D5F"/>
<stop offset="1" stop-color="#CF67C9"/>
</linearGradient>
<linearGradient id="paint152_linear_91_219" x1="221.916" y1="266.632" x2="220.851" y2="268.184" gradientUnits="userSpaceOnUse">
<stop stop-color="#640D5F"/>
<stop offset="1" stop-color="#CF67C9"/>
</linearGradient>
<linearGradient id="paint153_linear_91_219" x1="212.649" y1="278.474" x2="210.534" y2="281.558" gradientUnits="userSpaceOnUse">
<stop stop-color="#640D5F"/>
<stop offset="1" stop-color="#CF67C9"/>
</linearGradient>
<linearGradient id="paint154_linear_91_219" x1="226.638" y1="263.055" x2="225.573" y2="264.607" gradientUnits="userSpaceOnUse">
<stop stop-color="#640D5F"/>
<stop offset="1" stop-color="#CF67C9"/>
</linearGradient>
<linearGradient id="paint155_linear_91_219" x1="220.651" y1="263.496" x2="219.593" y2="265.038" gradientUnits="userSpaceOnUse">
<stop stop-color="#640D5F"/>
<stop offset="1" stop-color="#CF67C9"/>
</linearGradient>
<linearGradient id="paint156_linear_91_219" x1="220.162" y1="260.893" x2="219.104" y2="262.435" gradientUnits="userSpaceOnUse">
<stop stop-color="#640D5F"/>
<stop offset="1" stop-color="#CF67C9"/>
</linearGradient>
<clipPath id="clip0_91_219">
<rect width="225" height="205" fill="white" transform="translate(10 195)"/>
</clipPath>
<clipPath id="clip1_91_219">
<rect width="50" height="50" fill="white" transform="translate(7.00952 227.403) rotate(-22.8219)"/>
</clipPath>
<clipPath id="clip2_91_219">
<rect width="25.475" height="25.475" fill="white" transform="translate(138.355 160) rotate(16.7808)"/>
</clipPath>
<clipPath id="clip3_91_219">
<rect width="39.3639" height="39.3639" fill="white" transform="translate(227.875 248) rotate(34.4556)"/>
</clipPath>
</defs>
</svg>
